<svg width="320" height="252" viewBox="0 0 320 252" fill="none" xmlns="http://www.w3.org/2000/svg">
<path d="M133.115 218.297L126.996 189.131C124.02 174.948 115.758 162.684 103.733 154.598L90.667 145.813C85.4279 142.291 78.3858 143.048 74.0069 147.513V102.508C74.0069 96.6002 69.9794 91.581 64.2125 90.301C60.4905 89.4741 56.6516 90.3698 53.6781 92.7553C50.705 95.1409 49 98.6955 49 102.508V160.42C49 168.007 51.3217 175.288 55.7137 181.475L62.3744 190.858C63.1028 191.884 64.2539 192.431 65.4234 192.431C66.1711 192.431 66.926 192.207 67.5822 191.741C69.2641 190.547 69.66 188.216 68.4656 186.533L61.8049 177.15C58.3148 172.234 56.4701 166.449 56.4701 160.42V102.508C56.4701 100.973 57.1566 99.5423 58.3533 98.5816C59.5496 97.6213 61.0948 97.2609 62.5941 97.5937C64.9154 98.1088 66.5368 100.129 66.5368 102.508V148.455C66.5368 154.959 68.9265 161.156 73.2677 165.977C73.4537 166.2 73.6449 166.42 73.847 166.634C76.3274 169.263 79.2438 172.36 81.9905 175.279L85.8358 179.372C85.8481 179.385 85.8615 179.396 85.8742 179.409C89.1637 182.907 91.5896 185.491 91.6404 185.545C93.0519 187.048 95.4161 187.123 96.9199 185.71C98.4236 184.298 98.4979 181.935 97.0853 180.431C97.0174 180.359 92.6451 175.703 87.6521 170.396L79.088 161.281C79.0664 161.258 79.0466 161.234 79.0249 161.21C77.0169 158.809 77.042 155.327 79.1467 152.95C81.0086 150.849 84.1699 150.446 86.4995 152.012L99.5643 160.797C109.966 167.791 117.111 178.398 119.685 190.665L125.804 219.831C126.174 221.592 127.727 222.8 129.456 222.8C129.71 222.8 129.968 222.774 130.227 222.72C132.246 222.296 133.539 220.316 133.115 218.297Z" fill="white"/>
<path d="M261.517 92.7547C258.544 90.3691 254.703 89.475 250.983 90.3004C245.216 91.58 241.189 96.5996 241.189 102.507V147.513C236.81 143.047 229.767 142.29 224.528 145.812L211.463 154.597C199.437 162.683 191.176 174.947 188.2 189.13L182.08 218.296C181.657 220.315 182.95 222.295 184.969 222.719C185.227 222.773 185.486 222.799 185.739 222.799C187.469 222.799 189.022 221.59 189.391 219.83L195.51 190.663C198.084 178.397 205.229 167.79 215.631 160.796L228.696 152.011C231.025 150.445 234.186 150.848 236.049 152.949C238.151 155.323 238.179 158.799 236.179 161.201C236.155 161.227 236.132 161.254 236.108 161.28C236.108 161.28 218.178 180.358 218.11 180.43C216.698 181.934 216.773 184.297 218.276 185.709C219.78 187.122 222.143 187.047 223.555 185.544C223.606 185.49 238.868 169.262 241.349 166.634C241.551 166.42 241.742 166.199 241.928 165.976C246.269 161.155 248.659 154.958 248.659 148.454V102.507C248.659 100.128 250.28 98.1078 252.602 97.5927C254.101 97.2603 255.646 97.6207 256.843 98.5806C258.04 99.5409 258.726 100.972 258.726 102.507V160.419C258.726 166.448 256.881 172.233 253.391 177.15L225.173 216.901C223.979 218.583 224.374 220.915 226.056 222.109C226.713 222.574 227.467 222.798 228.215 222.798C229.384 222.798 230.535 222.251 231.264 221.225L259.482 181.474C263.874 175.287 266.196 168.007 266.196 160.42V102.507C266.195 98.6945 264.49 95.1403 261.517 92.7547Z" fill="white"/>
<path d="M197.829 110.151L191.994 108.757V107.71C195.786 105.054 198.273 100.654 198.273 95.6827V88.0967C198.273 80.0024 191.688 73.4174 183.594 73.4174C179.961 73.4174 176.635 74.7464 174.07 76.94C171.213 69.9441 164.339 65 156.328 65C148.308 65 141.426 69.9568 138.576 76.9662C136.007 74.7569 132.669 73.4168 129.021 73.4168C120.927 73.4168 114.342 80.0017 114.342 88.0961V88.6002V95.6821C114.342 100.654 116.829 105.053 120.621 107.71V108.756L114.786 110.15C107.819 111.814 102.953 117.98 102.953 125.143V131.268C102.953 133.08 104.422 134.548 106.233 134.548H121.305C121.281 134.946 121.265 135.346 121.265 135.749V147.543C121.265 149.354 122.734 150.822 124.545 150.822H144.26C146.071 150.822 147.54 149.354 147.54 147.543C147.54 145.731 146.071 144.263 144.26 144.263H140.872V137.485C140.872 135.673 139.403 134.205 137.592 134.205C135.781 134.205 134.312 135.673 134.312 137.485V144.263H127.825V135.749C127.825 129.424 132.122 123.976 138.273 122.502L147.273 120.345L153.297 134.049C153.82 135.24 154.999 136.009 156.299 136.009H156.299C157.6 136.009 158.778 135.24 159.302 134.049L165.319 120.366L174.291 122.509C180.448 123.98 184.748 129.429 184.748 135.759V144.263H178.262V137.485C178.262 135.673 176.793 134.205 174.982 134.205C173.171 134.205 171.702 135.673 171.702 137.485V144.263H167.985C166.174 144.263 164.705 145.732 164.705 147.543C164.705 149.355 166.174 150.823 167.985 150.823H188.028C189.839 150.823 191.308 149.355 191.308 147.543V135.759C191.308 135.353 191.292 134.95 191.268 134.549H206.382C208.194 134.549 209.662 133.08 209.662 131.269V125.143C209.662 117.98 204.796 111.815 197.829 110.151ZM183.594 79.9765C187.891 79.9765 191.419 83.3321 191.696 87.5605H187.136C183.302 87.5605 179.53 86.6375 176.139 84.8802C177.386 81.9979 180.258 79.9765 183.594 79.9765ZM175.474 95.2032C175.478 95.0435 175.486 94.8844 175.486 94.7237V91.8027C179.166 93.3258 183.124 94.1202 187.136 94.1202H191.713V95.6824C191.713 100.159 188.071 103.802 183.594 103.802C179.116 103.802 175.474 100.159 175.474 95.6821V95.2032ZM143.73 84.1576C143.73 77.2112 149.381 71.5597 156.328 71.5597C162.594 71.5597 167.805 76.1574 168.767 82.1556L163.246 78.9115C161.865 78.1001 160.099 78.4048 159.07 79.6331C156.372 82.8532 152.415 84.7001 148.213 84.7001H143.73V84.1576ZM129.022 79.9765C132.357 79.9765 135.229 81.9982 136.477 84.8799C133.085 86.6372 129.313 87.5602 125.48 87.5602H120.92C121.197 83.3321 124.725 79.9765 129.022 79.9765ZM120.902 94.1199H125.48C129.495 94.1199 133.457 93.3239 137.141 91.7974V95.6817C137.141 100.159 133.499 103.801 129.022 103.801C124.544 103.801 120.902 100.159 120.902 95.6821V94.1199ZM136.744 116.123C130.292 117.669 125.22 122.168 122.807 127.989H109.513V125.143C109.513 121.028 112.308 117.486 116.31 116.53L124.663 114.535C126.14 114.182 127.181 112.863 127.181 111.345V110.242C127.785 110.318 128.398 110.361 129.022 110.361C129.641 110.361 130.25 110.318 130.849 110.244V111.179C130.846 111.228 130.845 111.277 130.845 111.326C130.844 112.402 131.373 113.456 132.345 114.085C132.711 114.322 133.106 114.476 133.51 114.553L138.403 115.725L136.744 116.123ZM145.893 111.031C145.051 110.66 144.172 110.362 143.267 110.146L137.408 108.741V107.719C138.465 106.981 139.422 106.107 140.251 105.122C141.715 107.379 143.64 109.309 145.893 110.778V111.031ZM160.138 115.85L156.3 124.58L152.453 115.828V113.487C153.705 113.746 155.001 113.882 156.328 113.882C157.633 113.882 158.906 113.749 160.138 113.5V115.85ZM156.328 107.322C149.381 107.322 143.73 101.67 143.73 94.7237V91.2595H148.213C153.415 91.2595 158.36 89.3254 162.15 85.8756L168.914 89.8495V95.2035C168.661 101.928 163.114 107.322 156.328 107.322ZM166.698 111.042V110.82C168.97 109.351 170.911 107.416 172.388 105.15C173.211 106.123 174.159 106.987 175.206 107.719V108.741L169.347 110.146C168.434 110.365 167.548 110.665 166.698 111.042ZM203.102 127.989H189.763C187.347 122.168 182.272 117.672 175.815 116.129L174.169 115.736L179.087 114.557C179.497 114.481 179.899 114.325 180.27 114.085C181.24 113.457 181.767 112.403 181.767 111.327C181.767 111.301 181.767 111.275 181.766 111.25V110.244C182.365 110.318 182.974 110.361 183.593 110.361C184.216 110.361 184.83 110.318 185.433 110.242V111.345C185.433 112.863 186.475 114.182 187.951 114.535L196.304 116.53C200.307 117.487 203.102 121.028 203.102 125.143V127.989Z" fill="white"/>
<path d="M159.106 144.167C158.359 143.424 157.332 143 156.282 143C155.226 143 154.2 143.424 153.457 144.167C152.71 144.914 152.286 145.941 152.286 146.995C152.286 148.046 152.71 149.073 153.457 149.82C154.2 150.563 155.227 150.991 156.282 150.991C157.332 150.991 158.359 150.563 159.106 149.82C159.849 149.073 160.277 148.046 160.277 146.995C160.277 145.941 159.849 144.914 159.106 144.167Z" fill="white"/>
<path d="M156.279 34.063C154.072 34.063 152.283 35.8517 152.283 38.0584V44.0367C152.283 46.2434 154.072 48.0321 156.279 48.0321C158.485 48.0321 160.274 46.2434 160.274 44.0367V38.0584C160.274 35.8517 158.485 34.063 156.279 34.063Z" fill="white"/>
<path d="M141.562 47.0956L137.37 42.9084C135.809 41.3486 133.28 41.3498 131.72 42.9108C130.16 44.4718 130.162 47.0017 131.723 48.5611L135.915 52.7483C136.694 53.5278 137.716 53.9173 138.738 53.9173C139.761 53.9173 140.784 53.5266 141.564 52.7459C143.123 51.1849 143.123 48.655 141.562 47.0956Z" fill="white"/>
<path d="M180.742 43.0107C179.181 41.4513 176.651 41.4521 175.092 43.0135L170.933 47.1763C169.374 48.7373 169.375 51.2672 170.936 52.8266C171.716 53.6061 172.738 53.9957 173.76 53.9957C174.783 53.9957 175.806 53.6049 176.586 52.8238L180.745 48.661C182.304 47.1 182.303 44.5701 180.742 43.0107Z" fill="white"/>
</svg>
