<svg width="320" height="252" viewBox="0 0 320 252" fill="none" xmlns="http://www.w3.org/2000/svg">
<path d="M256.904 110.674L252.319 106.089L205.919 152.489C205.744 152.291 205.605 152.067 205.417 151.876L178.134 124.594L182.327 120.401L177.742 115.816L168.115 125.443C162.956 130.599 154.97 131.312 149.027 127.58L172.59 104.202C172.593 104.199 172.593 104.195 172.596 104.192L234.204 42.5849L229.619 38L170.307 97.3116L166.115 93.119C165.508 92.5095 164.681 92.169 163.822 92.169H152.195L146.66 86.6341L101.265 41.2392L96.6799 45.8241L126.812 75.9566L85.341 117.428L62.2544 96.2643L57.8706 101.047L95.7299 135.748V144.049C95.7299 144.908 96.0703 145.735 96.6799 146.341L110.704 160.365C109.423 162.093 108.7 164.162 108.7 166.354C108.7 171.814 113.051 176.247 118.463 176.438C118.651 181.73 122.899 185.977 128.19 186.165C128.378 191.457 132.626 195.705 137.918 195.893C138.109 201.305 142.545 205.656 148.002 205.656C149.38 205.656 150.716 205.374 151.948 204.852L152.195 205.098C154.643 207.55 157.901 208.899 161.368 208.899C164.834 208.899 168.089 207.55 170.537 205.098L205.417 170.219C207.868 167.768 209.217 164.512 209.217 161.049C209.217 160.219 209.129 159.402 208.977 158.601L256.904 110.674ZM90.1269 121.815L131.397 80.5414L139.782 88.9265L98.8751 129.834L90.1269 121.815ZM121.391 168.925C120.704 169.609 119.792 169.989 118.82 169.989C116.816 169.989 115.185 168.358 115.185 166.354C115.185 165.381 115.564 164.47 116.248 163.783L131.676 148.355C132.364 147.671 133.275 147.291 134.247 147.291C136.251 147.291 137.882 148.922 137.882 150.926C137.882 151.899 137.503 152.81 136.819 153.497L121.391 168.925ZM131.118 178.653C130.431 179.337 129.52 179.716 128.547 179.716C126.543 179.716 124.912 178.085 124.912 176.081C124.912 175.109 125.292 174.197 125.976 173.51L141.404 158.082C142.091 157.398 143.002 157.019 143.975 157.019C145.979 157.019 147.61 158.65 147.61 160.654C147.61 161.626 147.23 162.537 146.546 163.225L131.118 178.653ZM140.846 188.38C140.158 189.064 139.247 189.444 138.275 189.444C136.271 189.444 134.64 187.813 134.64 185.809C134.64 184.836 135.019 183.925 135.703 183.237L151.131 167.81C151.818 167.126 152.73 166.746 153.702 166.746C155.706 166.746 157.337 168.377 157.337 170.381C157.337 171.354 156.958 172.265 156.274 172.952L140.846 188.38ZM150.573 198.108C149.886 198.792 148.975 199.171 148.002 199.171C145.998 199.171 144.367 197.54 144.367 195.536C144.367 194.563 144.747 193.652 145.431 192.965L160.858 177.537C161.546 176.853 162.457 176.474 163.43 176.474C165.434 176.474 167.065 178.105 167.065 180.108C167.065 181.081 166.685 181.992 166.001 182.68L150.573 198.108ZM200.832 165.634L165.952 200.513C163.595 202.871 159.574 202.936 157.091 200.763L170.589 187.265C172.496 185.355 173.55 182.813 173.55 180.108C173.55 174.648 169.198 170.216 163.786 170.024C163.598 164.733 159.351 160.485 154.059 160.297C153.871 155.005 149.623 150.757 144.332 150.569C144.14 145.158 139.704 140.806 134.247 140.806C131.543 140.806 129.001 141.86 127.091 143.77L115.185 155.676L102.215 142.706V135.664L144.367 93.5114L148.56 97.7039C149.166 98.3135 149.993 98.654 150.852 98.654H162.48L165.712 101.887L141.88 125.534C141.267 126.144 140.92 126.977 140.924 127.843C140.927 128.709 141.274 129.539 141.89 130.145C150.414 138.543 164.24 138.491 172.7 130.025L173.55 129.179L200.832 156.461C202.058 157.687 202.732 159.314 202.732 161.049C202.732 162.784 202.058 164.408 200.832 165.634Z" fill="white"/>
<path d="M227.21 175.616C225.643 177.89 226.215 181.003 228.489 182.571C230.763 184.138 233.876 183.566 235.443 181.292L227.21 175.616ZM209.704 206.515C212.009 204.994 212.644 201.893 211.123 199.588C209.603 197.283 206.501 196.647 204.196 198.168L209.704 206.515ZM158 212C111.608 212 74 174.392 74 128H64C64 179.915 106.085 222 158 222V212ZM242 128C242 145.688 236.539 162.085 227.21 175.616L235.443 181.292C245.886 166.145 252 147.779 252 128H242ZM112.084 57.648C125.278 49.0178 141.045 44 158 44V34C139.043 34 121.382 39.6171 106.61 49.2792L112.084 57.648ZM74 128C74 121.043 74.8446 114.29 76.4346 107.836L66.7249 105.444C64.9436 112.675 64 120.231 64 128H74ZM158 44C177.422 44 195.291 50.5851 209.517 61.6475L215.656 53.7533C199.737 41.3745 179.723 34 158 34V44ZM241.222 116.514C241.735 120.267 242 124.101 242 128H252C252 123.647 251.704 119.36 251.13 115.16L241.222 116.514ZM204.196 198.168C190.945 206.911 175.074 212 158 212V222C177.092 222 194.868 216.303 209.704 206.515L204.196 198.168Z" fill="white"/>
</svg>
