<svg width="320" height="252" viewBox="0 0 320 252" fill="none" xmlns="http://www.w3.org/2000/svg">
<path d="M107.302 60.1114L83 69.7918V141.639C83 203.223 160.303 244.278 160.303 244.278C160.303 244.278 237.605 203.223 237.605 141.639V69.7918L160.303 39C151.846 42.3687 145.47 44.9081 138.844 47.5475" stroke="white" stroke-width="8" stroke-linecap="round" stroke-linejoin="round"/>
<path d="M176.59 97.9465C183.444 97.9465 189 92.3905 189 85.5367C189 78.683 183.444 73.127 176.59 73.127C169.737 73.127 164.181 78.683 164.181 85.5367C164.188 92.3876 169.74 97.9397 176.59 97.9465ZM176.59 77.2635C181.16 77.2635 184.864 80.9676 184.864 85.5367C184.864 90.1059 181.16 93.8099 176.59 93.8099C172.021 93.8099 168.317 90.1059 168.317 85.5367C168.317 80.9676 172.021 77.2635 176.59 77.2635Z" fill="white"/>
<mask id="path-3-inside-1" fill="white">
<path d="M225.35 187.965C224.65 186.565 223.216 185.684 221.65 185.692L197.269 185.86V131.754C199.741 130.886 201.395 128.553 201.395 125.935C201.395 123.317 199.741 120.984 197.269 120.116V109.404C197.269 108.263 196.343 107.338 195.201 107.338C194.059 107.338 193.133 108.263 193.133 109.404V119.736H187.074C186.382 119.736 185.737 119.391 185.353 118.816L175.575 104.161C172.432 99.443 166.331 97.6936 161.162 100.029C160.826 97.7659 159.263 95.8752 157.103 95.1169L145.375 91.0461C142.131 89.934 138.598 91.65 137.47 94.8854L135.433 100.735C134.373 100.42 133.251 100.994 132.889 102.039C132.527 103.084 133.052 104.229 134.081 104.637L131.372 112.45C130.315 112.146 129.206 112.721 128.846 113.759C128.486 114.797 129.001 115.934 130.019 116.349C128.017 122.125 127.355 123.232 127.744 125.354C125.023 126.006 123.076 128.398 122.99 131.192C122.904 133.986 124.7 136.493 127.376 137.311C141.381 142.181 142.126 142.82 144.707 142.016L142.845 155.113C142.639 156.534 143.509 155.445 127.759 176.657C125.718 179.326 125.497 182.964 127.2 185.86H98.4376C96.872 185.853 95.438 186.734 94.7378 188.133C95.3438 188.811 96.7026 190.106 96.7026 190.106C121.251 191.002 200.762 189.718 223.257 190.106C224.018 189.414 224.717 188.7 225.35 187.965ZM181.566 185.86C182.367 184.502 182.791 182.955 182.793 181.378V160.857C182.796 157.823 181.683 154.893 179.666 152.625L167.305 138.724C166.816 138.176 166.663 137.406 166.906 136.713L170.69 125.375L172.432 127.809C174.375 130.521 177.507 132.131 180.844 132.134H193.133V185.86H181.566ZM162.953 103.74C166.268 102.313 170.13 103.458 172.13 106.459L181.903 121.108C183.056 122.835 184.996 123.871 187.074 123.869H195.201C196.343 123.869 197.269 124.794 197.269 125.935C197.269 127.076 196.343 128.001 195.201 128.001H180.844C178.842 127.999 176.963 127.033 175.796 125.406L167.938 114.403C167.521 113.77 166.791 113.416 166.036 113.48C165.281 113.543 164.621 114.014 164.317 114.707C164.012 115.401 164.111 116.205 164.575 116.804L167.727 121.215L162.995 135.397C162.278 137.501 162.752 139.827 164.236 141.483L176.586 155.371C177.927 156.884 178.664 158.836 178.656 160.857V181.378C178.718 183.632 177.064 185.568 174.826 185.86C173.677 185.946 172.545 185.548 171.702 184.764C170.858 183.979 170.381 182.879 170.384 181.728V168.709C170.373 165.923 169.431 163.221 167.708 161.031L151.842 143.278C149.813 140.662 149.17 137.228 150.117 134.056C157.889 109.546 157.976 110.923 158.009 110.716C158.956 107.916 159.553 105.215 162.962 103.74H162.953ZM150.777 119.166L135.28 113.793L137.987 105.986L153.426 111.344L150.777 119.166ZM141.373 96.2286C141.754 95.1522 142.929 94.5808 144.012 94.9453L155.74 99.0161C156.81 99.3945 157.375 100.564 157.006 101.636L155.972 104.639C155.497 105.443 155.115 106.298 154.834 107.189C154.727 107.532 156.458 108.015 139.348 102.083L141.373 96.2286ZM142.182 138.05L128.739 133.403C127.656 133.081 126.981 132.006 127.161 130.892C127.306 130.328 127.678 129.849 128.19 129.568C128.701 129.288 129.305 129.232 129.86 129.413C131.971 130.146 132.095 130.252 132.73 130.181C139.1 132.8 138.912 132.787 139.479 132.787C140.467 132.788 141.318 132.091 141.509 131.122C141.701 130.153 141.181 129.185 140.266 128.809C130.908 124.964 132.912 125.761 132.36 125.615C131.819 125.073 131.638 124.269 131.895 123.548L133.922 117.7L149.445 123.073C148.673 125.356 145.602 134.502 144.818 136.782C144.443 137.857 143.267 138.427 142.19 138.054L142.182 138.05ZM131.09 179.12L145.428 159.411C147.062 157.214 146.895 156.104 148.402 145.539C148.886 146.211 147.306 144.404 156.346 154.519L155.287 160.58C155.051 161.985 155.895 160.644 137.824 183.951C136.86 185.38 135.116 186.072 133.433 185.692C131.75 185.312 130.473 183.939 130.218 182.234C130.086 181.121 130.399 180.002 131.09 179.12ZM157.769 164.905C159.044 162.985 159.766 160.751 159.855 158.448L164.523 163.669C165.645 165.11 166.252 166.884 166.248 168.709V181.728C166.255 183.183 166.651 184.609 167.394 185.86H141.584L157.769 164.905Z"/>
</mask>
<path d="M225.35 187.965C224.65 186.565 223.216 185.684 221.65 185.692L197.269 185.86V131.754C199.741 130.886 201.395 128.553 201.395 125.935C201.395 123.317 199.741 120.984 197.269 120.116V109.404C197.269 108.263 196.343 107.338 195.201 107.338C194.059 107.338 193.133 108.263 193.133 109.404V119.736H187.074C186.382 119.736 185.737 119.391 185.353 118.816L175.575 104.161C172.432 99.443 166.331 97.6936 161.162 100.029C160.826 97.7659 159.263 95.8752 157.103 95.1169L145.375 91.0461C142.131 89.934 138.598 91.65 137.47 94.8854L135.433 100.735C134.373 100.42 133.251 100.994 132.889 102.039C132.527 103.084 133.052 104.229 134.081 104.637L131.372 112.45C130.315 112.146 129.206 112.721 128.846 113.759C128.486 114.797 129.001 115.934 130.019 116.349C128.017 122.125 127.355 123.232 127.744 125.354C125.023 126.006 123.076 128.398 122.99 131.192C122.904 133.986 124.7 136.493 127.376 137.311C141.381 142.181 142.126 142.82 144.707 142.016L142.845 155.113C142.639 156.534 143.509 155.445 127.759 176.657C125.718 179.326 125.497 182.964 127.2 185.86H98.4376C96.872 185.853 95.438 186.734 94.7378 188.133C95.3438 188.811 96.7026 190.106 96.7026 190.106C121.251 191.002 200.762 189.718 223.257 190.106C224.018 189.414 224.717 188.7 225.35 187.965ZM181.566 185.86C182.367 184.502 182.791 182.955 182.793 181.378V160.857C182.796 157.823 181.683 154.893 179.666 152.625L167.305 138.724C166.816 138.176 166.663 137.406 166.906 136.713L170.69 125.375L172.432 127.809C174.375 130.521 177.507 132.131 180.844 132.134H193.133V185.86H181.566ZM162.953 103.74C166.268 102.313 170.13 103.458 172.13 106.459L181.903 121.108C183.056 122.835 184.996 123.871 187.074 123.869H195.201C196.343 123.869 197.269 124.794 197.269 125.935C197.269 127.076 196.343 128.001 195.201 128.001H180.844C178.842 127.999 176.963 127.033 175.796 125.406L167.938 114.403C167.521 113.77 166.791 113.416 166.036 113.48C165.281 113.543 164.621 114.014 164.317 114.707C164.012 115.401 164.111 116.205 164.575 116.804L167.727 121.215L162.995 135.397C162.278 137.501 162.752 139.827 164.236 141.483L176.586 155.371C177.927 156.884 178.664 158.836 178.656 160.857V181.378C178.718 183.632 177.064 185.568 174.826 185.86C173.677 185.946 172.545 185.548 171.702 184.764C170.858 183.979 170.381 182.879 170.384 181.728V168.709C170.373 165.923 169.431 163.221 167.708 161.031L151.842 143.278C149.813 140.662 149.17 137.228 150.117 134.056C157.889 109.546 157.976 110.923 158.009 110.716C158.956 107.916 159.553 105.215 162.962 103.74H162.953ZM150.777 119.166L135.28 113.793L137.987 105.986L153.426 111.344L150.777 119.166ZM141.373 96.2286C141.754 95.1522 142.929 94.5808 144.012 94.9453L155.74 99.0161C156.81 99.3945 157.375 100.564 157.006 101.636L155.972 104.639C155.497 105.443 155.115 106.298 154.834 107.189C154.727 107.532 156.458 108.015 139.348 102.083L141.373 96.2286ZM142.182 138.05L128.739 133.403C127.656 133.081 126.981 132.006 127.161 130.892C127.306 130.328 127.678 129.849 128.19 129.568C128.701 129.288 129.305 129.232 129.86 129.413C131.971 130.146 132.095 130.252 132.73 130.181C139.1 132.8 138.912 132.787 139.479 132.787C140.467 132.788 141.318 132.091 141.509 131.122C141.701 130.153 141.181 129.185 140.266 128.809C130.908 124.964 132.912 125.761 132.36 125.615C131.819 125.073 131.638 124.269 131.895 123.548L133.922 117.7L149.445 123.073C148.673 125.356 145.602 134.502 144.818 136.782C144.443 137.857 143.267 138.427 142.19 138.054L142.182 138.05ZM131.09 179.12L145.428 159.411C147.062 157.214 146.895 156.104 148.402 145.539C148.886 146.211 147.306 144.404 156.346 154.519L155.287 160.58C155.051 161.985 155.895 160.644 137.824 183.951C136.86 185.38 135.116 186.072 133.433 185.692C131.75 185.312 130.473 183.939 130.218 182.234C130.086 181.121 130.399 180.002 131.09 179.12ZM157.769 164.905C159.044 162.985 159.766 160.751 159.855 158.448L164.523 163.669C165.645 165.11 166.252 166.884 166.248 168.709V181.728C166.255 183.183 166.651 184.609 167.394 185.86H141.584L157.769 164.905Z" fill="white"/>
<path d="M96.7026 194.106H223.257V186.106H96.7026V194.106ZM225.35 187.965L231.415 193.181L234.885 189.147L232.505 184.387L225.35 187.965ZM221.65 185.692L221.611 177.692L221.603 177.692L221.595 177.692L221.65 185.692ZM197.269 185.86H189.269V193.916L197.325 193.86L197.269 185.86ZM197.269 131.754L194.618 124.206L189.269 126.085V131.754H197.269ZM197.269 120.116H189.269V125.785L194.618 127.664L197.269 120.116ZM193.133 119.736V127.736H201.133V119.736H193.133ZM187.074 119.736V111.736H187.072L187.074 119.736ZM185.353 118.816L178.698 123.256L178.7 123.259L185.353 118.816ZM175.575 104.161L168.917 108.596L168.92 108.602L175.575 104.161ZM161.162 100.029L153.25 101.207L154.809 111.678L164.456 107.319L161.162 100.029ZM157.103 95.1169L159.753 87.5685L159.739 87.5638L159.726 87.5592L157.103 95.1169ZM145.375 91.0461L147.998 83.4884L147.984 83.4834L147.969 83.4786L145.375 91.0461ZM137.47 94.8854L129.916 92.2516L129.915 92.2546L137.47 94.8854ZM135.433 100.735L133.152 108.403L140.476 110.583L142.988 103.366L135.433 100.735ZM132.889 102.039L140.447 104.66V104.66L132.889 102.039ZM134.081 104.637L141.639 107.258L144.149 100.02L137.027 97.1991L134.081 104.637ZM131.372 112.45L129.163 120.139L136.447 122.231L138.93 115.071L131.372 112.45ZM128.846 113.759L136.404 116.381L128.846 113.759ZM130.019 116.349L137.578 118.969L140.062 111.803L133.038 108.941L130.019 116.349ZM127.744 125.354L129.609 133.134L136.979 131.368L135.613 123.913L127.744 125.354ZM122.99 131.192L130.986 131.438L122.99 131.192ZM127.376 137.311L130.004 129.754L129.86 129.704L129.715 129.66L127.376 137.311ZM144.707 142.016L152.627 143.141L154.407 130.616L142.328 134.378L144.707 142.016ZM142.845 155.113L150.762 156.264L150.764 156.251L150.766 156.238L142.845 155.113ZM127.759 176.657L134.114 181.515L134.148 181.471L134.182 181.426L127.759 176.657ZM127.2 185.86V193.86H141.184L134.097 181.806L127.2 185.86ZM98.4376 185.86L98.4011 193.86L98.4193 193.86H98.4376V185.86ZM94.7378 188.133L87.5836 184.553L85.1497 189.417L88.777 193.469L94.7378 188.133ZM181.566 185.86L174.675 181.797L167.562 193.86H181.566V185.86ZM182.793 181.378L190.793 181.389V181.378H182.793ZM182.793 160.857L174.793 160.848V160.857H182.793ZM179.666 152.625L173.687 157.941L173.689 157.942L179.666 152.625ZM167.305 138.724L173.283 133.408L173.278 133.402L173.273 133.397L167.305 138.724ZM166.906 136.713L174.456 139.358L174.475 139.302L174.494 139.246L166.906 136.713ZM170.69 125.375L177.197 120.721L168.069 107.961L163.102 122.842L170.69 125.375ZM172.432 127.809L165.925 132.464L165.929 132.469L172.432 127.809ZM180.844 132.134L180.837 140.134H180.844V132.134ZM193.133 132.134H201.133V124.134H193.133V132.134ZM193.133 185.86V193.86H201.133V185.86H193.133ZM162.953 103.74L159.79 96.3918L162.953 111.74V103.74ZM172.13 106.459L165.472 110.895L165.475 110.899L172.13 106.459ZM181.903 121.108L188.558 116.668L188.558 116.668L181.903 121.108ZM187.074 123.869V115.869L187.064 115.869L187.074 123.869ZM180.844 128.001L180.835 136.001H180.844V128.001ZM175.796 125.406L169.286 130.056L169.294 130.067L175.796 125.406ZM167.938 114.403L161.257 118.803L161.34 118.929L161.427 119.052L167.938 114.403ZM166.036 113.48L166.708 121.451L166.036 113.48ZM164.317 114.707L171.64 117.927V117.927L164.317 114.707ZM164.575 116.804L171.084 112.153L170.994 112.027L170.899 111.904L164.575 116.804ZM167.727 121.215L175.315 123.747L176.605 119.881L174.236 116.565L167.727 121.215ZM162.995 135.397L170.567 137.979L170.575 137.954L170.584 137.929L162.995 135.397ZM164.236 141.483L170.214 136.166L170.203 136.155L170.193 136.143L164.236 141.483ZM176.586 155.371L182.574 150.065L182.569 150.06L182.564 150.055L176.586 155.371ZM178.656 160.857L170.657 160.829L170.656 160.843V160.857H178.656ZM178.656 181.378H170.656V181.488L170.659 181.597L178.656 181.378ZM174.826 185.86L175.418 193.839L175.641 193.822L175.863 193.793L174.826 185.86ZM171.702 184.764L177.151 178.906V178.906L171.702 184.764ZM170.384 181.728L178.384 181.75L178.384 181.739V181.728H170.384ZM170.384 168.709H178.384V168.694L178.384 168.678L170.384 168.709ZM167.708 161.031L173.995 156.083L173.84 155.886L173.673 155.7L167.708 161.031ZM151.842 143.278L145.52 148.181L145.691 148.401L145.877 148.609L151.842 143.278ZM150.117 134.056L142.491 131.638L142.47 131.703L142.451 131.769L150.117 134.056ZM158.009 110.716L150.431 108.152L150.215 108.788L150.109 109.451L158.009 110.716ZM162.962 103.74L166.14 111.082L162.962 95.7399V103.74ZM150.777 119.166L148.156 126.724L155.769 129.364L158.354 121.732L150.777 119.166ZM135.28 113.793L127.722 111.172L125.101 118.731L132.66 121.352L135.28 113.793ZM137.987 105.986L140.61 98.4283L133.051 95.8046L130.429 103.365L137.987 105.986ZM153.426 111.344L161.003 113.911L163.55 106.39L156.049 103.786L153.426 111.344ZM141.373 96.2286L133.831 93.5594L133.822 93.5865L133.812 93.6137L141.373 96.2286ZM144.012 94.9453L146.635 87.3877L146.6 87.3754L146.565 87.3636L144.012 94.9453ZM155.74 99.0161L158.407 91.4738L158.385 91.4661L158.363 91.4585L155.74 99.0161ZM157.006 101.636L164.57 104.241L164.57 104.241L157.006 101.636ZM155.972 104.639L162.86 108.707L163.272 108.01L163.536 107.244L155.972 104.639ZM154.834 107.189L147.205 104.781L147.203 104.788L147.2 104.795L154.834 107.189ZM139.348 102.083L131.788 99.4678L129.175 107.022L136.727 109.641L139.348 102.083ZM142.182 138.05L145.756 130.894L145.289 130.66L144.795 130.489L142.182 138.05ZM128.739 133.403L131.353 125.842L131.187 125.785L131.02 125.735L128.739 133.403ZM127.161 130.892L119.412 128.903L119.322 129.256L119.263 129.617L127.161 130.892ZM128.19 129.568L132.035 136.583L128.19 129.568ZM129.86 129.413L132.485 121.856L132.415 121.831L132.344 121.808L129.86 129.413ZM132.73 130.181L135.772 122.782L133.882 122.005L131.85 122.23L132.73 130.181ZM139.479 132.787L139.487 124.787H139.479V132.787ZM140.266 128.809L137.226 136.209L137.229 136.21L140.266 128.809ZM132.36 125.615L126.7 131.269L128.223 132.793L130.306 133.347L132.36 125.615ZM131.895 123.548L139.431 126.232L139.443 126.2L139.454 126.168L131.895 123.548ZM133.922 117.7L136.538 110.14L128.981 107.525L126.363 115.081L133.922 117.7ZM149.445 123.073L157.024 125.634L159.565 118.11L152.061 115.513L149.445 123.073ZM144.818 136.782L152.372 139.416L152.378 139.4L152.383 139.383L144.818 136.782ZM142.19 138.054L138.615 145.211L139.083 145.445L139.578 145.616L142.19 138.054ZM131.09 179.12L137.388 184.053L137.476 183.941L137.56 183.826L131.09 179.12ZM145.428 159.411L139.009 154.636L138.984 154.67L138.959 154.704L145.428 159.411ZM148.402 145.539L154.893 140.862L143.287 124.756L140.483 144.409L148.402 145.539ZM156.346 154.519L164.227 155.896L164.894 152.078L162.311 149.189L156.346 154.519ZM155.287 160.58L147.406 159.203L147.402 159.23L147.397 159.256L155.287 160.58ZM137.824 183.951L131.502 179.049L131.34 179.258L131.193 179.476L137.824 183.951ZM133.433 185.692L135.195 177.888L133.433 185.692ZM130.218 182.234L122.273 183.176L122.288 183.299L122.306 183.421L130.218 182.234ZM157.769 164.905L164.1 169.795L164.275 169.569L164.433 169.33L157.769 164.905ZM159.855 158.448L165.82 153.116L152.631 138.362L151.861 158.137L159.855 158.448ZM164.523 163.669L170.834 158.753L170.668 158.54L170.488 158.338L164.523 163.669ZM166.248 168.709L158.248 168.69L158.248 168.7V168.709H166.248ZM166.248 181.728H158.248V181.748L158.248 181.767L166.248 181.728ZM167.394 185.86V193.86H181.448L174.272 181.776L167.394 185.86ZM141.584 185.86L135.252 180.97L125.297 193.86H141.584V185.86ZM96.7026 190.106L91.1823 195.896L93.3784 197.99L96.4106 198.101L96.7026 190.106ZM223.257 190.106L223.119 198.105L226.29 198.159L228.637 196.026L223.257 190.106ZM232.505 184.387C230.443 180.262 226.218 177.669 221.611 177.692L221.689 193.692C220.213 193.699 218.857 192.868 218.195 191.543L232.505 184.387ZM221.595 177.692L197.214 177.861L197.325 193.86L221.705 193.692L221.595 177.692ZM205.269 185.86V131.754H189.269V185.86H205.269ZM199.921 139.302C205.594 137.309 209.395 131.952 209.395 125.935H193.395C193.395 125.153 193.888 124.462 194.618 124.206L199.921 139.302ZM209.395 125.935C209.395 119.918 205.594 114.561 199.921 112.568L194.618 127.664C193.888 127.408 193.395 126.717 193.395 125.935H209.395ZM205.269 120.116V109.404H189.269V120.116H205.269ZM205.269 109.404C205.269 103.838 200.755 99.3375 195.201 99.3375V115.338C191.931 115.338 189.269 112.687 189.269 109.404H205.269ZM195.201 99.3375C189.647 99.3375 185.133 103.838 185.133 109.404H201.133C201.133 112.687 198.471 115.338 195.201 115.338V99.3375ZM185.133 109.404V119.736H201.133V109.404H185.133ZM193.133 111.736H187.074V127.736H193.133V111.736ZM187.072 111.736C189.052 111.736 190.904 112.724 192.006 114.374L178.7 123.259C180.569 126.058 183.712 127.736 187.075 127.736L187.072 111.736ZM192.008 114.376L182.23 99.7213L168.92 108.602L178.698 123.256L192.008 114.376ZM182.233 99.7265C176.918 91.7465 166.604 88.7917 157.869 92.7381L164.456 107.319C166.058 106.595 167.946 107.14 168.917 108.596L182.233 99.7265ZM169.075 98.8506C168.301 93.65 164.71 89.309 159.753 87.5685L154.453 102.665C153.815 102.441 153.35 101.882 153.25 101.207L169.075 98.8506ZM159.726 87.5592L147.998 83.4884L142.751 98.6037L154.48 102.675L159.726 87.5592ZM147.969 83.4786C140.567 80.9402 132.495 84.8549 129.916 92.2516L145.024 97.5193C144.702 98.4452 143.696 98.9278 142.78 98.6136L147.969 83.4786ZM129.915 92.2546L127.878 98.1046L142.988 103.366L145.025 97.5162L129.915 92.2546ZM137.715 93.0677C132.557 91.5326 127.096 94.3257 125.33 99.419L140.447 104.66C139.406 107.663 136.188 109.307 133.152 108.403L137.715 93.0677ZM125.33 99.419C123.564 104.515 126.128 110.091 131.134 112.074L137.027 97.1991C139.976 98.3674 141.49 101.654 140.447 104.66L125.33 99.419ZM126.522 102.016L123.813 109.829L138.93 115.071L141.639 107.258L126.522 102.016ZM133.58 104.761C128.444 103.285 123.042 106.08 121.288 111.137L136.404 116.381C135.37 119.363 132.187 121.008 129.163 120.139L133.58 104.761ZM121.288 111.137C119.533 116.197 122.047 121.739 127 123.757L133.038 108.941C135.955 110.13 137.44 113.396 136.404 116.381L121.288 111.137ZM122.46 113.729C121.608 116.187 120.742 118.478 120.302 119.991C119.678 122.141 119.406 124.233 119.875 126.796L135.613 123.913C135.612 123.908 135.625 123.978 135.633 124.099C135.641 124.226 135.64 124.361 135.63 124.49C135.61 124.737 135.569 124.792 135.668 124.453C135.777 124.078 135.958 123.541 136.302 122.574C136.624 121.67 137.064 120.453 137.578 118.969L122.46 113.729ZM125.88 117.575C119.654 119.067 115.191 124.541 114.994 130.946L130.986 131.438C130.961 132.254 130.393 132.946 129.609 133.134L125.88 117.575ZM114.994 130.946C114.796 137.351 118.914 143.089 125.037 144.961L129.715 129.66C130.486 129.896 131.011 130.622 130.986 131.438L114.994 130.946ZM124.748 144.867C131.432 147.191 135.56 148.724 138.057 149.463C139.389 149.857 140.93 150.241 142.598 150.3C144.486 150.366 145.973 150 147.085 149.654L142.328 134.378C142.15 134.433 142.576 134.289 143.161 134.31C143.526 134.322 143.521 134.393 142.593 134.119C140.572 133.522 137.325 132.301 130.004 129.754L124.748 144.867ZM136.786 140.89L134.925 153.987L150.766 156.238L152.627 143.141L136.786 140.89ZM134.929 153.961C134.761 155.111 134.92 153.702 135.323 152.807C135.474 152.473 135.485 152.569 134.562 153.898C132.877 156.322 129.26 161.215 121.336 171.887L134.182 181.426C142.007 170.887 145.831 165.718 147.7 163.029C148.553 161.801 149.371 160.577 149.909 159.384C150.699 157.631 150.826 155.824 150.762 156.264L134.929 153.961ZM121.403 171.798C117.387 177.052 116.952 184.214 120.304 189.915L134.097 181.806C134.043 181.714 134.049 181.6 134.114 181.515L121.403 171.798ZM127.2 177.86H98.4376V193.86H127.2V177.86ZM98.4742 177.861C93.8688 177.84 89.6464 180.431 87.5836 184.553L101.892 191.714C101.229 193.037 99.8752 193.867 98.4011 193.86L98.4742 177.861ZM188.457 189.924C189.982 187.338 190.789 184.391 190.793 181.389L174.793 181.368C174.792 181.518 174.752 181.666 174.675 181.797L188.457 189.924ZM190.793 181.378V160.857H174.793V181.378H190.793ZM190.793 160.867C190.799 155.868 188.965 151.042 185.643 147.307L173.689 157.942C174.402 158.743 174.794 159.778 174.793 160.848L190.793 160.867ZM185.644 147.309L173.283 133.408L161.326 144.04L173.687 157.941L185.644 147.309ZM173.273 133.397C174.722 135.02 175.176 137.303 174.456 139.358L159.355 134.069C158.15 137.51 158.91 141.332 161.336 144.051L173.273 133.397ZM174.494 139.246L178.279 127.908L163.102 122.842L159.317 134.18L174.494 139.246ZM164.184 130.03L165.925 132.464L178.938 123.155L177.197 120.721L164.184 130.03ZM165.929 132.469C169.374 137.277 174.924 140.129 180.837 140.134L180.852 124.134C180.089 124.134 179.376 123.765 178.934 123.15L165.929 132.469ZM180.844 140.134H193.133V124.134H180.844V140.134ZM185.133 132.134V185.86H201.133V132.134H185.133ZM193.133 177.86H181.566V193.86H193.133V177.86ZM166.116 111.088C165.886 111.187 165.615 111.109 165.472 110.895L178.787 102.023C174.644 95.8056 166.65 93.439 159.79 96.3918L166.116 111.088ZM165.475 110.899L175.249 125.548L188.558 116.668L178.784 102.019L165.475 110.899ZM175.248 125.548C177.888 129.504 182.331 131.875 187.084 131.869L187.064 115.869C187.662 115.868 188.224 116.166 188.558 116.668L175.248 125.548ZM187.074 131.869H195.201V115.869H187.074V131.869ZM195.201 131.869C191.931 131.869 189.269 129.218 189.269 125.935H205.269C205.269 120.369 200.755 115.869 195.201 115.869V131.869ZM189.269 125.935C189.269 122.652 191.931 120.001 195.201 120.001V136.001C200.755 136.001 205.269 131.501 205.269 125.935H189.269ZM195.201 120.001H180.844V136.001H195.201V120.001ZM180.854 120.001C181.425 120.002 181.963 120.277 182.298 120.745L169.294 130.067C171.962 133.788 176.258 135.996 180.835 136.001L180.854 120.001ZM182.306 120.757L174.448 109.753L161.427 119.052L169.286 130.056L182.306 120.757ZM174.618 110.002C172.589 106.92 169.038 105.198 165.365 105.508L166.708 121.451C164.545 121.633 162.453 120.62 161.257 118.803L174.618 110.002ZM165.365 105.508C161.692 105.817 158.479 108.109 156.993 111.488L171.64 117.927C170.764 119.919 168.871 121.269 166.708 121.451L165.365 105.508ZM156.993 111.488C155.508 114.867 155.991 118.787 158.251 121.704L170.899 111.904C172.231 113.623 172.516 115.935 171.64 117.927L156.993 111.488ZM158.065 121.454L161.217 125.866L174.236 116.565L171.084 112.153L158.065 121.454ZM160.138 118.683L155.406 132.865L170.584 137.929L175.315 123.747L160.138 118.683ZM155.423 132.815C153.772 137.658 154.864 143.013 158.278 146.822L170.193 136.143C170.639 136.641 170.783 137.343 170.567 137.979L155.423 132.815ZM158.258 146.799L170.608 160.687L182.564 150.055L170.214 136.166L158.258 146.799ZM170.599 160.676C170.637 160.719 170.657 160.774 170.657 160.829L186.656 160.886C186.671 156.899 185.217 153.048 182.574 150.065L170.599 160.676ZM170.656 160.857V181.378H186.656V160.857H170.656ZM170.659 181.597C170.609 179.746 171.966 178.166 173.789 177.928L175.863 193.793C182.162 192.97 186.827 187.519 186.653 181.16L170.659 181.597ZM174.235 177.882C175.306 177.803 176.363 178.173 177.151 178.906L166.253 190.621C168.727 192.923 172.049 194.088 175.418 193.839L174.235 177.882ZM177.151 178.906C177.939 179.64 178.387 180.67 178.384 181.75L162.384 181.706C162.375 185.088 163.778 188.319 166.253 190.621L177.151 178.906ZM178.384 181.728V168.709H162.384V181.728H178.384ZM178.384 168.678C178.366 164.108 176.821 159.675 173.995 156.083L161.421 165.978C162.042 166.767 162.38 167.739 162.384 168.74L178.384 168.678ZM173.673 155.7L157.806 137.947L145.877 148.609L161.743 166.362L173.673 155.7ZM158.163 138.376C157.715 137.798 157.574 137.042 157.783 136.343L142.451 131.769C140.766 137.415 141.91 143.525 145.52 148.181L158.163 138.376ZM157.743 136.474C161.624 124.235 163.547 118.584 164.484 116.004C164.97 114.666 165.12 114.352 165.083 114.432C165.048 114.504 164.876 114.864 164.562 115.318C164.497 115.412 164.435 115.497 164.457 115.467C164.461 115.462 164.51 115.394 164.57 115.308C164.633 115.217 164.74 115.06 164.861 114.858C165.563 113.686 165.808 112.604 165.908 111.981L150.109 109.451C150.205 108.854 150.445 107.785 151.139 106.628C151.258 106.43 151.362 106.277 151.423 106.189C151.479 106.107 151.526 106.044 151.526 106.043C151.541 106.023 151.471 106.119 151.395 106.228C151.04 106.742 150.795 107.22 150.626 107.575C150.32 108.22 149.957 109.134 149.446 110.541C148.388 113.451 146.382 119.367 142.491 131.638L157.743 136.474ZM165.587 113.28C165.718 112.891 165.855 112.471 165.951 112.178C166.059 111.851 166.144 111.598 166.225 111.375C166.39 110.921 166.478 110.754 166.502 110.712C166.507 110.702 166.439 110.818 166.29 110.955C166.138 111.095 166.048 111.121 166.14 111.082L159.784 96.3983C152.525 99.5405 151.065 106.278 150.431 108.152L165.587 113.28ZM162.962 95.7399H162.953V111.74H162.962V95.7399ZM153.397 111.607L137.901 106.234L132.66 121.352L148.156 126.724L153.397 111.607ZM142.839 116.414L145.546 108.607L130.429 103.365L127.722 111.172L142.839 116.414ZM135.364 113.544L150.803 118.902L156.049 103.786L140.61 98.4283L135.364 113.544ZM145.849 108.778L143.199 116.599L158.354 121.732L161.003 113.911L145.849 108.778ZM148.914 98.8977C147.836 101.946 144.513 103.556 141.459 102.527L146.565 87.3636C141.344 85.606 135.672 88.3587 133.831 93.5594L148.914 98.8977ZM141.389 102.503L153.117 106.574L158.363 91.4585L146.635 87.3877L141.389 102.503ZM153.073 106.559C150.006 105.474 148.379 102.117 149.441 99.0321L164.57 104.241C166.37 99.0105 163.614 93.3148 158.407 91.4738L153.073 106.559ZM149.442 99.0313L148.408 102.034L163.536 107.244L164.57 104.241L149.442 99.0313ZM149.083 100.57C148.299 101.898 147.669 103.311 147.205 104.781L162.463 109.596C162.561 109.286 162.694 108.988 162.86 108.707L149.083 100.57ZM147.2 104.795C146.7 106.393 146.828 107.727 146.891 108.237C146.909 108.38 146.927 108.496 146.939 108.569C146.945 108.605 146.95 108.635 146.954 108.654C146.955 108.664 146.957 108.671 146.957 108.676C146.958 108.678 146.958 108.681 146.958 108.682C146.959 108.683 146.959 108.684 146.959 108.684C146.97 108.749 146.918 108.472 146.883 108.148C146.853 107.859 146.442 104.782 148.82 102.074C151.161 99.409 154.172 99.3741 154.717 99.3701C155.574 99.3639 156.213 99.5067 156.316 99.5288C156.427 99.5525 156.509 99.5731 156.551 99.5841C156.595 99.5956 156.621 99.6031 156.622 99.6035C156.624 99.6041 156.613 99.6008 156.584 99.592C156.556 99.5833 156.516 99.5708 156.463 99.5537C156.355 99.519 156.21 99.4711 156.015 99.4058C154.34 98.8429 150.616 97.5225 141.969 94.5242L136.727 109.641C145.19 112.575 149.155 113.98 150.918 114.572C151.362 114.722 151.796 114.863 152.174 114.973C152.362 115.027 152.643 115.105 152.965 115.174C153.191 115.222 153.916 115.376 154.833 115.37C155.438 115.365 158.483 115.318 160.842 112.632C163.239 109.904 162.83 106.798 162.796 106.475C162.775 106.278 162.751 106.121 162.737 106.034C162.73 105.988 162.723 105.95 162.719 105.926C162.715 105.904 162.712 105.885 162.712 105.883C162.703 105.832 162.741 106.034 162.77 106.27C162.828 106.737 162.955 108.027 162.468 109.582L147.2 104.795ZM146.909 104.698L148.933 98.8434L133.812 93.6137L131.788 99.4678L146.909 104.698ZM144.795 130.489L131.353 125.842L126.125 140.964L139.568 145.611L144.795 130.489ZM131.02 125.735C133.786 126.558 135.52 129.308 135.059 132.168L119.263 129.617C118.442 134.705 121.526 139.604 126.458 141.071L131.02 125.735ZM134.91 132.882C134.504 134.462 133.462 135.801 132.035 136.583L124.344 122.553C121.894 123.896 120.108 126.194 119.412 128.903L134.91 132.882ZM132.035 136.583C130.608 137.366 128.922 137.522 127.375 137.017L132.344 121.808C129.689 120.941 126.793 121.21 124.344 122.553L132.035 136.583ZM127.234 136.97C127.749 137.148 128.09 137.271 128.457 137.4C128.755 137.504 129.183 137.654 129.607 137.778C130.079 137.916 130.776 138.092 131.629 138.165C132.498 138.239 133.205 138.178 133.61 138.133L131.85 122.23C131.886 122.226 132.028 122.211 132.229 122.204C132.445 122.196 132.704 122.199 132.993 122.223C133.578 122.273 133.993 122.391 134.09 122.419C134.136 122.432 134.14 122.435 134.072 122.412C134.007 122.39 133.912 122.357 133.763 122.305C133.492 122.21 133.027 122.044 132.485 121.856L127.234 136.97ZM129.689 137.581C132.757 138.842 134.457 139.557 135.339 139.906C135.724 140.058 136.417 140.331 137.17 140.517C138.327 140.801 139.239 140.787 139.479 140.787V124.787C139.326 124.787 139.598 124.783 139.906 124.807C140.306 124.838 140.675 124.902 140.992 124.98C141.422 125.086 141.657 125.199 141.222 125.026C140.465 124.727 139.074 124.139 135.772 122.782L129.689 137.581ZM139.47 140.787C144.276 140.792 148.422 137.399 149.357 132.676L133.662 129.568C134.214 126.782 136.657 124.784 139.487 124.787L139.47 140.787ZM149.357 132.676C150.293 127.953 147.752 123.234 143.304 121.409L137.229 136.21C134.609 135.135 133.11 132.354 133.662 129.568L149.357 132.676ZM143.307 121.41C138.668 119.503 136.778 118.72 136.021 118.413C135.837 118.338 135.642 118.26 135.469 118.194C135.386 118.163 135.225 118.102 135.03 118.039C134.881 117.991 134.419 117.842 133.815 117.742C132.959 117.601 132.158 117.609 131.443 117.704C130.903 117.775 131.739 117.647 132.348 117.637C133.009 117.627 133.533 117.702 133.823 117.754C134.111 117.804 134.326 117.86 134.414 117.883L130.306 133.347C130.441 133.382 131.393 133.655 132.601 133.635C133.226 133.626 134.072 133.495 133.543 133.565C132.838 133.659 132.047 133.667 131.21 133.528C130.623 133.431 130.187 133.289 130.077 133.253C129.922 133.203 129.814 133.162 129.805 133.158C129.78 133.149 129.816 133.162 130.001 133.237C130.72 133.529 132.507 134.27 137.226 136.209L143.307 121.41ZM138.02 119.961C139.66 121.603 140.211 124.043 139.431 126.232L124.358 120.865C123.066 124.495 123.978 128.544 126.7 131.269L138.02 119.961ZM139.454 126.168L141.48 120.32L126.363 115.081L124.336 120.929L139.454 126.168ZM131.305 125.26L146.828 130.633L152.061 115.513L136.538 110.14L131.305 125.26ZM141.865 120.513C141.078 122.844 138.028 131.927 137.253 134.18L152.383 139.383C153.176 137.078 156.269 127.869 157.024 125.634L141.865 120.513ZM137.265 134.147C138.343 131.055 141.717 129.427 144.802 130.493L139.578 145.616C144.818 147.426 150.543 144.66 152.372 139.416L137.265 134.147ZM145.765 130.898L145.756 130.894L138.607 145.207L138.615 145.211L145.765 130.898ZM137.56 183.826L151.898 164.117L138.959 154.704L124.621 174.414L137.56 183.826ZM151.847 164.185C152.515 163.288 153.203 162.221 153.77 160.844C154.303 159.547 154.604 158.272 154.826 157.086C155.218 154.994 155.62 151.587 156.322 146.669L140.483 144.409C139.677 150.056 139.409 152.487 139.099 154.14C138.971 154.827 138.913 154.902 138.971 154.761C139.062 154.539 139.159 154.435 139.009 154.636L151.847 164.185ZM141.912 150.216C141.843 150.12 141.747 149.978 141.65 149.816C141.608 149.745 141.83 150.133 142.132 150.543C142.464 150.995 142.898 151.478 143.181 151.796C143.989 152.707 145.884 154.818 150.381 159.85L162.311 149.189C157.769 144.106 155.934 142.062 155.151 141.179C154.638 140.601 154.811 140.778 155.021 141.063C155.262 141.39 155.458 141.73 155.374 141.59C155.235 141.359 155.083 141.125 154.893 140.862L141.912 150.216ZM148.465 153.143L147.406 159.203L163.168 161.957L164.227 155.896L148.465 153.143ZM147.397 159.256C147.271 160.01 147.437 158.713 147.967 157.734C148.068 157.548 147.973 157.756 146.857 159.235C144.822 161.933 140.594 167.323 131.502 179.049L144.146 188.853C153.125 177.273 157.511 171.68 159.63 168.87C160.592 167.595 161.459 166.418 162.033 165.36C163.037 163.509 163.185 161.853 163.177 161.904L147.397 159.256ZM131.193 179.476C132.074 178.17 133.663 177.542 135.195 177.888L131.671 193.495C136.568 194.601 141.645 192.59 144.455 188.426L131.193 179.476ZM135.195 177.888C136.727 178.234 137.895 179.486 138.129 181.047L122.306 183.421C123.052 188.392 126.774 192.39 131.671 193.495L135.195 177.888ZM138.162 181.291C138.279 182.279 138 183.272 137.388 184.053L124.792 174.187C122.798 176.732 121.892 179.964 122.273 183.176L138.162 181.291ZM164.433 169.33C166.521 166.187 167.703 162.53 167.849 158.759L151.861 158.137C151.829 158.972 151.567 159.783 151.104 160.48L164.433 169.33ZM153.891 163.779L158.559 169.001L170.488 158.338L165.82 153.116L153.891 163.779ZM158.212 168.586C158.236 168.616 158.248 168.653 158.248 168.69L174.248 168.729C174.257 165.115 173.055 161.603 170.834 158.753L158.212 168.586ZM158.248 168.709V181.728H174.248V168.709H158.248ZM158.248 181.767C158.262 184.647 159.045 187.47 160.515 189.945L174.272 181.776C174.256 181.749 174.248 181.718 174.248 181.688L158.248 181.767ZM167.394 177.86H141.584V193.86H167.394V177.86ZM147.915 190.751L164.1 169.795L151.437 160.015L135.252 180.97L147.915 190.751ZM88.777 193.469C89.2711 194.021 89.9318 194.678 90.3386 195.078C90.5689 195.304 90.7765 195.506 90.9264 195.65C91.0018 195.723 91.0635 195.782 91.1074 195.825C91.1294 195.846 91.147 195.862 91.1596 195.874C91.1659 195.881 91.171 195.885 91.1748 195.889C91.1767 195.891 91.1783 195.892 91.1796 195.894C91.1802 195.894 91.1807 195.895 91.1812 195.895C91.1814 195.895 91.1816 195.895 91.1818 195.896C91.1819 195.896 91.182 195.896 91.1821 195.896C91.1822 195.896 91.1823 195.896 96.7026 190.106C102.223 184.316 102.223 184.316 102.223 184.316C102.223 184.316 102.223 184.316 102.223 184.316C102.223 184.316 102.223 184.316 102.223 184.316C102.224 184.316 102.224 184.316 102.224 184.316C102.224 184.316 102.223 184.316 102.222 184.315C102.221 184.314 102.218 184.312 102.215 184.308C102.207 184.301 102.195 184.289 102.179 184.273C102.146 184.242 102.097 184.195 102.035 184.135C101.911 184.016 101.741 183.851 101.556 183.669C101.132 183.252 100.81 182.923 100.699 182.798L88.777 193.469ZM96.4106 198.101C108.899 198.557 135.127 198.457 160.8 198.297C186.652 198.136 211.996 197.913 223.119 198.105L223.395 182.107C212.023 181.911 186.364 182.137 160.7 182.297C134.856 182.458 109.054 182.552 96.9945 182.111L96.4106 198.101ZM228.637 196.026C229.621 195.133 230.552 194.185 231.415 193.181L219.285 182.748C218.883 183.215 218.416 183.695 217.877 184.185L228.637 196.026Z" fill="white" mask="url(#path-3-inside-1)"/>
<path d="M122.81 49.8481C120.514 49.8481 118.668 51.6972 118.668 53.9899C118.668 56.1238 120.273 57.8995 122.395 58.1101C124.852 58.3539 126.951 56.4406 126.951 53.9899C126.951 51.6939 125.102 49.8481 122.81 49.8481Z" fill="white"/>
</svg>
