<svg width="140" height="122" viewBox="0 0 140 122" fill="none" xmlns="http://www.w3.org/2000/svg">
<path d="M59.2111 9.19327L4.72415 100.155C3.60075 102.1 3.00634 104.306 3.00005 106.553C2.99376 108.799 3.57581 111.008 4.68829 112.96C5.80078 114.912 7.40492 116.538 9.34112 117.677C11.2773 118.817 13.4781 119.429 15.7245 119.454H124.698C126.945 119.429 129.146 118.817 131.082 117.677C133.018 116.538 134.622 114.912 135.735 112.96C136.847 111.008 137.429 108.799 137.423 106.553C137.417 104.306 136.822 102.1 135.699 100.155L81.2117 9.19327C80.0649 7.30267 78.4502 5.73955 76.5234 4.65473C74.5966 3.56991 72.4227 3 70.2114 3C68.0002 3 65.8263 3.56991 63.8995 4.65473C61.9726 5.73955 60.3579 7.30267 59.2111 9.19327V9.19327Z" stroke="#FF5A5F" stroke-width="5" stroke-linecap="round" stroke-linejoin="round"/>
<path d="M70.2129 42.2568V67.9886" stroke="#FF5A5F" stroke-width="5" stroke-linecap="round" stroke-linejoin="round"/>
<path d="M70.2129 93.7207H70.2777" stroke="#FF5A5F" stroke-width="5" stroke-linecap="round" stroke-linejoin="round"/>
</svg>
