<svg width="285" height="436" viewBox="0 0 285 436" fill="none" xmlns="http://www.w3.org/2000/svg">
<path fill-rule="evenodd" clip-rule="evenodd" d="M112.284 47.6274C105.959 43.3101 100.854 37.3103 99.3356 29.4616C94.96 6.84716 127.438 3.37749 136.503 12.9542C145.567 22.5309 152.46 51.1371 145.16 55.2388C142.249 56.8746 135.068 56.7026 127.208 54.4704L139.451 83.152L114.34 89.8806L112.284 47.6274Z" fill="#B28B67"/>
<path fill-rule="evenodd" clip-rule="evenodd" d="M121.001 26.2834C125.519 39.2973 129.839 45.2516 133.964 44.1465C140.15 42.4888 144.356 37.1896 147.071 36.4623C149.049 35.9321 149.265 38.5048 148.441 40.6761C147.761 42.4674 142.879 45.3266 143.503 47.6542C144.126 49.9818 147.808 47.0654 148.178 48.4459C148.789 50.7293 150.672 54.8265 146.673 55.8979C142.626 56.9822 130.632 58.6295 127.049 53.2095C124.736 49.7115 121.773 41.973 118.16 29.9938C117.907 30.0307 117.653 30.0828 117.4 30.1506C113.933 31.0797 111.869 34.6186 112.789 38.0551C113.257 39.7997 114.404 41.1824 115.873 41.9996C114.965 44.4211 113.906 46.9802 112.628 49.6706C104.503 47.381 96.0335 36.5749 99.7449 23.0196C100.1 16.771 103.566 12.5556 108.248 9.77495C111.894 6.97536 116.1 5.64272 119.968 5.69911C127.174 4.41019 134.036 4.85382 136.158 5.64066C137.93 12.2521 137.163 14.56 126.077 17.3452C123.745 19.492 122.314 22.4958 121.001 26.2834Z" fill="#191847"/>
<path fill-rule="evenodd" clip-rule="evenodd" d="M126.566 177.322L179.733 311.368L215.392 424.693H229.473L174.958 177.322L126.566 177.322Z" fill="#997659"/>
<path fill-rule="evenodd" clip-rule="evenodd" d="M115.861 177.322C115.295 224.427 107.038 287.846 105.719 290.782C104.84 292.74 74.4812 317.633 14.6436 365.462L24.3419 375.8C94.9447 334.793 131.88 311.554 135.147 306.085C140.048 297.881 156.003 222.387 168.812 177.322H115.861Z" fill="#B28B67"/>
<path fill-rule="evenodd" clip-rule="evenodd" d="M13.282 361.99C10.0249 363.141 7.78114 364.233 6.55081 365.265C5.05445 366.521 3.08006 368.602 0.627638 371.509C2.08422 373.245 15.1748 388.846 39.8993 418.312C44.9406 416.154 46.5221 413.63 44.644 410.741C42.7658 407.852 41.2288 405.432 40.0328 403.482L31.4774 373.592C31.3128 373.016 30.7131 372.684 30.1379 372.848C30.1281 372.851 30.1183 372.854 30.1085 372.857L25.5434 374.305C22.3761 372.829 20.1562 371.333 18.8836 369.816C17.8496 368.584 16.9194 366.464 16.0928 363.458L16.0929 363.458C15.7757 362.304 14.5833 361.626 13.4296 361.943C13.3799 361.957 13.3306 361.973 13.282 361.99Z" fill="#E4E4E4"/>
<path fill-rule="evenodd" clip-rule="evenodd" d="M209.626 419.568C208.415 422.803 207.809 425.223 207.809 426.829C207.809 428.783 208.134 431.633 208.785 435.381C211.051 435.381 231.416 435.381 269.881 435.381C271.468 430.132 270.552 427.298 267.131 426.88C263.711 426.461 260.869 426.083 258.606 425.746L230.21 413.087C229.663 412.843 229.023 413.089 228.779 413.635C228.775 413.644 228.771 413.654 228.767 413.663L226.942 418.091C223.775 419.568 221.202 420.307 219.222 420.307C217.614 420.307 215.392 419.658 212.558 418.358L212.558 418.358C211.47 417.86 210.184 418.337 209.686 419.425C209.664 419.472 209.644 419.519 209.626 419.568Z" fill="#E4E4E4"/>
<path fill-rule="evenodd" clip-rule="evenodd" d="M162.313 413.021L229.261 405.783L179.645 177.322H119.682L162.313 413.021Z" fill="#69A1AC"/>
<path fill-rule="evenodd" clip-rule="evenodd" d="M28.4912 348.783L72.4052 400.561C118.659 350.239 145.625 317.404 153.303 302.055C160.981 286.707 167.884 245.129 174.01 177.322H106.503C103.156 236.976 100.901 268.191 99.7355 270.967C98.5704 273.743 74.8223 299.681 28.4912 348.783Z" fill="#89C5CC"/>
<path fill-rule="evenodd" clip-rule="evenodd" d="M209.487 152.468L247.899 171.332C257.565 172.183 265.819 173.906 272.662 176.503C274.358 177.571 276.6 179.945 270.452 180.551C264.304 181.156 257.864 182.068 257.39 184.275C256.916 186.481 261.021 188.296 259.819 191.372C259.017 193.423 252.87 189.719 241.375 180.26L205.227 172.297L209.487 152.468ZM78.9874 176.363L101.295 172.52C95.3272 219.163 92.0331 243.934 91.413 246.832C90.0179 253.355 96.8762 261.705 99.9884 266.293C93.2843 270.815 91.944 258.681 83.5155 264.548C75.8223 269.904 70.689 278.054 59.9627 273.818C58.644 273.297 56.855 270.776 59.6265 268.071C66.5312 261.332 76.1893 249.964 77.1736 246.61C78.5159 242.035 79.1205 218.62 78.9874 176.363Z" fill="#B28B67"/>
<path fill-rule="evenodd" clip-rule="evenodd" d="M125.927 72.1106L134.874 68.9097C174.287 92.2951 198.31 146.336 245.542 168.88L237.64 183.115C163.28 186.981 133.085 121.221 125.927 72.1106Z" fill="#E87613"/>
<path fill-rule="evenodd" clip-rule="evenodd" d="M106.055 194.554C143.041 188.032 170.248 183.235 187.674 180.162C191.404 179.504 189.756 174.269 188.74 171.66C177.015 141.548 146.794 112.189 138.96 67.7644L114.77 68.242C100.792 102.84 100.823 142.397 106.055 194.554Z" fill="#DDE3E9"/>
<path fill-rule="evenodd" clip-rule="evenodd" d="M90.7741 104.059C87.1823 103.683 84.0723 101.88 81.4442 98.6475C70.1148 84.7144 71.7225 75.6598 80.4255 71.2421C89.1285 66.8245 98.345 71.138 112.997 68.5545C113.794 68.414 114.532 68.335 115.213 68.3176L122.657 67.4365C156.377 135.021 170.598 181.571 165.321 207.088L101.08 218.416C98.8306 227.918 96.4986 235.991 94.0835 242.634L76.5789 245.72C65.5854 193.007 70.3171 145.786 90.7741 104.059Z" fill="#FF9B21"/>
<path fill-rule="evenodd" clip-rule="evenodd" d="M108.611 179.324C113.597 195.789 119.034 207.418 124.92 214.212L101.08 218.416C103.703 207.331 106.214 194.3 108.611 179.324Z" fill="black" fill-opacity="0.1"/>
</svg>
