<svg width="163" height="214" viewBox="0 0 163 214" fill="none" xmlns="http://www.w3.org/2000/svg">
<path d="M28.3025 25.1114L4 34.7918V106.639C4 168.223 81.3026 209.278 81.3026 209.278C81.3026 209.278 158.605 168.223 158.605 106.639V34.7918L81.3026 4C72.8456 7.36867 66.4703 9.90812 59.844 12.5475" stroke="white" stroke-width="8" stroke-linecap="round" stroke-linejoin="round"/>
<path d="M97.5902 62.9465C104.444 62.9465 110 57.3905 110 50.5367C110 43.683 104.444 38.127 97.5902 38.127C90.7365 38.127 85.1804 43.683 85.1804 50.5367C85.1873 57.3876 90.7393 62.9397 97.5902 62.9465ZM97.5902 42.2635C102.159 42.2635 105.863 45.9676 105.863 50.5367C105.863 55.1059 102.159 58.8099 97.5902 58.8099C93.021 58.8099 89.317 55.1059 89.317 50.5367C89.317 45.9676 93.021 42.2635 97.5902 42.2635Z" fill="white"/>
<mask id="path-3-inside-1" fill="white">
<path d="M146.35 152.964C145.65 151.565 144.216 150.684 142.65 150.691L118.269 150.86V96.7537C120.741 95.8853 122.395 93.5526 122.395 90.9347C122.395 88.3168 120.741 85.9841 118.269 85.1157V74.4035C118.269 73.2623 117.343 72.3371 116.201 72.3371C115.059 72.3371 114.133 73.2623 114.133 74.4035V84.7355H108.074C107.382 84.7356 106.737 84.3906 106.353 83.816L96.575 69.1611C93.4321 64.4426 87.3313 62.6932 82.1625 65.0283C81.8256 62.7655 80.2629 60.8749 78.1028 60.1165L66.3746 56.0457C63.1314 54.9336 59.5985 56.6497 58.4704 59.8851L56.4333 65.735C55.3726 65.4194 54.2511 65.9941 53.8888 67.0391C53.5266 68.084 54.0519 69.2288 55.0808 69.6364L52.3716 77.4494C51.3153 77.146 50.206 77.7211 49.8461 78.7587C49.4862 79.7963 50.0014 80.9339 51.0191 81.3487C49.0171 87.1243 48.3553 88.2318 48.7441 90.354C46.0233 91.0061 44.0759 93.3972 43.9898 96.1916C43.9038 98.986 45.7004 101.492 48.376 102.31C62.3812 107.181 63.1257 107.819 65.7067 107.015L63.8454 120.112C63.6386 121.534 64.5092 120.445 48.7586 141.656C46.7181 144.326 46.4974 147.964 48.2002 150.86H19.4376C17.872 150.853 16.438 151.734 15.7378 153.133C16.3438 153.81 17.7026 155.106 17.7026 155.106C42.2509 156.002 121.762 154.718 144.257 155.106C145.018 154.414 145.717 153.7 146.35 152.964ZM102.566 150.86C103.367 149.502 103.791 147.955 103.793 146.378V125.857C103.796 122.822 102.683 119.892 100.666 117.624L88.3047 103.724C87.8157 103.176 87.6629 102.406 87.9055 101.713L91.6902 90.3747L93.4315 92.8089C95.3747 95.5207 98.5066 97.1307 101.844 97.1339H114.133V150.86H102.566ZM83.9534 68.7396C87.268 67.3128 91.1295 68.4571 93.1296 71.4589L102.903 86.1076C104.056 87.8346 105.996 88.8709 108.074 88.8683H116.201C117.343 88.8683 118.269 89.7934 118.269 90.9347C118.269 92.0759 117.343 93.0011 116.201 93.0011H101.844C99.8417 92.9987 97.9626 92.0326 96.7963 90.4057L88.9375 79.4021C88.5209 78.7697 87.7914 78.4156 87.0363 78.4792C86.2812 78.5428 85.6214 79.0139 85.3166 79.7071C85.0118 80.4003 85.1109 81.2046 85.5748 81.8033L88.7266 86.215L83.9948 100.397C83.2776 102.5 83.7519 104.827 85.2356 106.482L97.5863 120.37C98.9268 121.883 99.6636 123.836 99.6565 125.857V146.378C99.7179 148.632 98.0639 150.568 95.8263 150.86C94.6774 150.945 93.5449 150.548 92.7017 149.763C91.8585 148.979 91.3809 147.878 91.3841 146.727V133.709C91.3733 130.923 90.4314 128.22 88.708 126.03L72.8416 108.278C70.8125 105.661 70.1704 102.228 71.1168 99.0556C78.8887 74.5461 78.9755 75.9223 79.0086 75.7157C79.9558 72.9157 80.5535 70.215 83.9617 68.7396H83.9534ZM71.7765 84.1652L56.2803 78.7926L58.9874 70.9857L74.4257 76.3439L71.7765 84.1652ZM62.3729 61.2282C62.7538 60.1519 63.929 59.5804 65.0118 59.945L76.7399 64.0158C77.81 64.3941 78.3748 65.5635 78.0056 66.636L76.9716 69.6384C76.4967 70.4425 76.1151 71.298 75.8341 72.1884C75.7266 72.5314 77.4576 73.0149 60.3482 67.0823L62.3729 61.2282ZM63.1815 103.05L49.7389 98.4026C48.6564 98.0807 47.981 97.0061 48.1609 95.892C48.3059 95.3275 48.6782 94.8482 49.1895 94.5679C49.7008 94.2876 50.3055 94.2313 50.8598 94.4124C52.9713 95.146 53.0954 95.2514 53.7303 95.1811C60.1 97.7992 59.9119 97.7868 60.4785 97.7868C61.4667 97.7879 62.3175 97.0902 62.5094 96.1217C62.7013 95.1531 62.1805 94.1842 61.2665 93.809C51.9083 89.9635 53.9123 90.7611 53.3601 90.6144C52.8192 90.0729 52.6381 89.2688 52.8948 88.548L54.9215 82.7001L70.4447 88.0727C69.6733 90.3561 66.6021 99.502 65.8183 101.781C65.4431 102.857 64.2673 103.426 63.1898 103.054L63.1815 103.05ZM52.0903 144.12L66.4284 124.41C68.0622 122.214 67.8947 121.104 69.4023 110.539C69.8863 111.21 68.3062 109.404 77.3459 119.519L76.287 125.58C76.0513 126.985 76.895 125.644 58.824 148.951C57.8596 150.38 56.1159 151.071 54.4331 150.691C52.7502 150.311 51.4734 148.938 51.2176 147.234C51.0856 146.121 51.3993 145.002 52.0903 144.12ZM78.7687 129.905C80.0439 127.984 80.7658 125.75 80.8554 123.447L85.5231 128.669C86.6452 130.109 87.2524 131.884 87.2479 133.709V146.727C87.2551 148.182 87.6506 149.609 88.3936 150.86H62.5838L78.7687 129.905Z"/>
</mask>
<path d="M146.35 152.964C145.65 151.565 144.216 150.684 142.65 150.691L118.269 150.86V96.7537C120.741 95.8853 122.395 93.5526 122.395 90.9347C122.395 88.3168 120.741 85.9841 118.269 85.1157V74.4035C118.269 73.2623 117.343 72.3371 116.201 72.3371C115.059 72.3371 114.133 73.2623 114.133 74.4035V84.7355H108.074C107.382 84.7356 106.737 84.3906 106.353 83.816L96.575 69.1611C93.4321 64.4426 87.3313 62.6932 82.1625 65.0283C81.8256 62.7655 80.2629 60.8749 78.1028 60.1165L66.3746 56.0457C63.1314 54.9336 59.5985 56.6497 58.4704 59.8851L56.4333 65.735C55.3726 65.4194 54.2511 65.9941 53.8888 67.0391C53.5266 68.084 54.0519 69.2288 55.0808 69.6364L52.3716 77.4494C51.3153 77.146 50.206 77.7211 49.8461 78.7587C49.4862 79.7963 50.0014 80.9339 51.0191 81.3487C49.0171 87.1243 48.3553 88.2318 48.7441 90.354C46.0233 91.0061 44.0759 93.3972 43.9898 96.1916C43.9038 98.986 45.7004 101.492 48.376 102.31C62.3812 107.181 63.1257 107.819 65.7067 107.015L63.8454 120.112C63.6386 121.534 64.5092 120.445 48.7586 141.656C46.7181 144.326 46.4974 147.964 48.2002 150.86H19.4376C17.872 150.853 16.438 151.734 15.7378 153.133C16.3438 153.81 17.7026 155.106 17.7026 155.106C42.2509 156.002 121.762 154.718 144.257 155.106C145.018 154.414 145.717 153.7 146.35 152.964ZM102.566 150.86C103.367 149.502 103.791 147.955 103.793 146.378V125.857C103.796 122.822 102.683 119.892 100.666 117.624L88.3047 103.724C87.8157 103.176 87.6629 102.406 87.9055 101.713L91.6902 90.3747L93.4315 92.8089C95.3747 95.5207 98.5066 97.1307 101.844 97.1339H114.133V150.86H102.566ZM83.9534 68.7396C87.268 67.3128 91.1295 68.4571 93.1296 71.4589L102.903 86.1076C104.056 87.8346 105.996 88.8709 108.074 88.8683H116.201C117.343 88.8683 118.269 89.7934 118.269 90.9347C118.269 92.0759 117.343 93.0011 116.201 93.0011H101.844C99.8417 92.9987 97.9626 92.0326 96.7963 90.4057L88.9375 79.4021C88.5209 78.7697 87.7914 78.4156 87.0363 78.4792C86.2812 78.5428 85.6214 79.0139 85.3166 79.7071C85.0118 80.4003 85.1109 81.2046 85.5748 81.8033L88.7266 86.215L83.9948 100.397C83.2776 102.5 83.7519 104.827 85.2356 106.482L97.5863 120.37C98.9268 121.883 99.6636 123.836 99.6565 125.857V146.378C99.7179 148.632 98.0639 150.568 95.8263 150.86C94.6774 150.945 93.5449 150.548 92.7017 149.763C91.8585 148.979 91.3809 147.878 91.3841 146.727V133.709C91.3733 130.923 90.4314 128.22 88.708 126.03L72.8416 108.278C70.8125 105.661 70.1704 102.228 71.1168 99.0556C78.8887 74.5461 78.9755 75.9223 79.0086 75.7157C79.9558 72.9157 80.5535 70.215 83.9617 68.7396H83.9534ZM71.7765 84.1652L56.2803 78.7926L58.9874 70.9857L74.4257 76.3439L71.7765 84.1652ZM62.3729 61.2282C62.7538 60.1519 63.929 59.5804 65.0118 59.945L76.7399 64.0158C77.81 64.3941 78.3748 65.5635 78.0056 66.636L76.9716 69.6384C76.4967 70.4425 76.1151 71.298 75.8341 72.1884C75.7266 72.5314 77.4576 73.0149 60.3482 67.0823L62.3729 61.2282ZM63.1815 103.05L49.7389 98.4026C48.6564 98.0807 47.981 97.0061 48.1609 95.892C48.3059 95.3275 48.6782 94.8482 49.1895 94.5679C49.7008 94.2876 50.3055 94.2313 50.8598 94.4124C52.9713 95.146 53.0954 95.2514 53.7303 95.1811C60.1 97.7992 59.9119 97.7868 60.4785 97.7868C61.4667 97.7879 62.3175 97.0902 62.5094 96.1217C62.7013 95.1531 62.1805 94.1842 61.2665 93.809C51.9083 89.9635 53.9123 90.7611 53.3601 90.6144C52.8192 90.0729 52.6381 89.2688 52.8948 88.548L54.9215 82.7001L70.4447 88.0727C69.6733 90.3561 66.6021 99.502 65.8183 101.781C65.4431 102.857 64.2673 103.426 63.1898 103.054L63.1815 103.05ZM52.0903 144.12L66.4284 124.41C68.0622 122.214 67.8947 121.104 69.4023 110.539C69.8863 111.21 68.3062 109.404 77.3459 119.519L76.287 125.58C76.0513 126.985 76.895 125.644 58.824 148.951C57.8596 150.38 56.1159 151.071 54.4331 150.691C52.7502 150.311 51.4734 148.938 51.2176 147.234C51.0856 146.121 51.3993 145.002 52.0903 144.12ZM78.7687 129.905C80.0439 127.984 80.7658 125.75 80.8554 123.447L85.5231 128.669C86.6452 130.109 87.2524 131.884 87.2479 133.709V146.727C87.2551 148.182 87.6506 149.609 88.3936 150.86H62.5838L78.7687 129.905Z" fill="white"/>
<path d="M17.7026 159.106H144.257V151.106H17.7026V159.106ZM146.35 152.964L152.415 158.181L155.885 154.146L153.505 149.386L146.35 152.964ZM142.65 150.691L142.611 142.691L142.603 142.691L142.595 142.692L142.65 150.691ZM118.269 150.86H110.269V158.916L118.325 158.86L118.269 150.86ZM118.269 96.7537L115.618 89.2059L110.269 91.0849V96.7537H118.269ZM118.269 85.1157H110.269V90.7845L115.618 92.6635L118.269 85.1157ZM114.133 84.7355V92.7355H122.133V84.7355H114.133ZM108.074 84.7355V76.7355H108.072L108.074 84.7355ZM106.353 83.816L99.6982 88.2561L99.6998 88.2585L106.353 83.816ZM96.575 69.1611L89.9168 73.596L89.9203 73.6012L96.575 69.1611ZM82.1625 65.0283L74.2497 66.2064L75.8086 76.6772L85.456 72.3189L82.1625 65.0283ZM78.1028 60.1165L80.7528 52.5682L80.7394 52.5635L80.726 52.5588L78.1028 60.1165ZM66.3746 56.0457L68.9979 48.488L68.9837 48.4831L68.9695 48.4782L66.3746 56.0457ZM58.4704 59.8851L50.9164 57.2512L50.9153 57.2542L58.4704 59.8851ZM56.4333 65.735L54.1516 73.4027L61.4755 75.5822L63.9884 68.3658L56.4333 65.735ZM53.8888 67.0391L61.4475 69.6595V69.6595L53.8888 67.0391ZM55.0808 69.6364L62.6393 72.2573L65.1488 65.02L58.0272 62.1987L55.0808 69.6364ZM52.3716 77.4494L50.1628 85.1384L57.4471 87.2309L59.9301 80.0703L52.3716 77.4494ZM49.8461 78.7587L57.4043 81.3804L49.8461 78.7587ZM51.0191 81.3487L58.5779 83.9687L61.0617 76.8028L54.0385 73.9404L51.0191 81.3487ZM48.7441 90.354L50.6086 98.1337L57.979 96.3674L56.6132 88.9124L48.7441 90.354ZM43.9898 96.1916L51.986 96.4378L43.9898 96.1916ZM48.376 102.31L51.0038 94.7541L50.8602 94.7041L50.7148 94.6597L48.376 102.31ZM65.7067 107.015L73.6271 108.141L75.4072 95.6152L63.3278 99.3772L65.7067 107.015ZM63.8454 120.112L71.762 121.264L71.7639 121.251L71.7658 121.238L63.8454 120.112ZM48.7586 141.656L55.1145 146.515L55.1483 146.47L55.1815 146.426L48.7586 141.656ZM48.2002 150.86V158.86H62.1841L55.0966 146.805L48.2002 150.86ZM19.4376 150.86L19.4011 158.86L19.4193 158.86H19.4376V150.86ZM15.7378 153.133L8.5836 149.553L6.14973 154.417L9.77704 158.469L15.7378 153.133ZM102.566 150.86L95.6751 146.797L88.5617 158.86H102.566V150.86ZM103.793 146.378L111.793 146.389V146.378H103.793ZM103.793 125.857L95.7926 125.847V125.857H103.793ZM100.666 117.624L94.6875 122.94L94.6886 122.942L100.666 117.624ZM88.3047 103.724L94.2829 98.4075L94.278 98.402L94.2731 98.3965L88.3047 103.724ZM87.9055 101.713L95.4558 104.358L95.4753 104.302L95.494 104.246L87.9055 101.713ZM91.6902 90.3747L98.1967 85.7202L89.069 72.9605L84.1017 87.8417L91.6902 90.3747ZM93.4315 92.8089L86.9249 97.4634L86.9287 97.4686L93.4315 92.8089ZM101.844 97.1339L101.837 105.134H101.844V97.1339ZM114.133 97.1339H122.133V89.1339H114.133V97.1339ZM114.133 150.86V158.86H122.133V150.86H114.133ZM83.9534 68.7396L80.7904 61.3914L83.9534 76.7395V68.7396ZM93.1296 71.4589L86.4719 75.8947L86.4748 75.8991L93.1296 71.4589ZM102.903 86.1076L109.558 81.6677L109.558 81.6675L102.903 86.1076ZM108.074 88.8683V80.8683L108.064 80.8683L108.074 88.8683ZM101.844 93.0011L101.835 101.001H101.844V93.0011ZM96.7963 90.4057L90.2861 95.0552L90.2943 95.0667L96.7963 90.4057ZM88.9375 79.4021L82.2569 83.8031L82.3398 83.929L82.4274 84.0517L88.9375 79.4021ZM87.0363 78.4792L87.7078 86.4509L87.0363 78.4792ZM85.3166 79.7071L92.64 82.927V82.927L85.3166 79.7071ZM85.5748 81.8033L92.0843 77.1529L91.9938 77.0262L91.8985 76.9032L85.5748 81.8033ZM88.7266 86.215L96.3153 88.7471L97.6053 84.8809L95.2361 81.5646L88.7266 86.215ZM83.9948 100.397L91.5667 102.978L91.5752 102.954L91.5835 102.929L83.9948 100.397ZM85.2356 106.482L91.2137 101.166L91.2035 101.154L91.1932 101.143L85.2356 106.482ZM97.5863 120.37L103.574 115.065L103.569 115.06L103.564 115.054L97.5863 120.37ZM99.6565 125.857L91.6565 125.828L91.6565 125.843V125.857H99.6565ZM99.6565 146.378H91.6565V146.487L91.6594 146.596L99.6565 146.378ZM95.8263 150.86L96.4179 158.838L96.6413 158.822L96.8634 158.793L95.8263 150.86ZM92.7017 149.763L98.1508 143.906V143.906L92.7017 149.763ZM91.3841 146.727L99.384 146.749L99.3841 146.738V146.727H91.3841ZM91.3841 133.709H99.3841V133.694L99.384 133.678L91.3841 133.709ZM88.708 126.03L94.9949 121.083L94.8398 120.886L94.6728 120.699L88.708 126.03ZM72.8416 108.278L66.5197 113.18L66.6907 113.401L66.8768 113.609L72.8416 108.278ZM71.1168 99.0556L63.491 96.6375L63.4703 96.7028L63.4507 96.7684L71.1168 99.0556ZM79.0086 75.7157L71.4305 73.1521L71.2154 73.788L71.1093 74.4508L79.0086 75.7157ZM83.9617 68.7396L87.1398 76.0812L83.9617 60.7396V68.7396ZM71.7765 84.1652L69.1559 91.7238L76.7687 94.3632L79.3536 86.7317L71.7765 84.1652ZM56.2803 78.7926L48.7218 76.1716L46.1007 83.7304L53.6597 86.3512L56.2803 78.7926ZM58.9874 70.9857L61.6105 63.428L54.0507 60.8042L51.429 68.3647L58.9874 70.9857ZM74.4257 76.3439L82.0029 78.9104L84.5503 71.3897L77.0488 68.7861L74.4257 76.3439ZM62.3729 61.2282L54.8313 58.5591L54.8217 58.5862L54.8123 58.6133L62.3729 61.2282ZM65.0118 59.945L67.635 52.3873L67.5998 52.3751L67.5645 52.3632L65.0118 59.945ZM76.7399 64.0158L79.4069 56.4734L79.3851 56.4657L79.3632 56.4581L76.7399 64.0158ZM78.0056 66.636L85.5696 69.241L85.5699 69.2402L78.0056 66.636ZM76.9716 69.6384L83.8599 73.7068L84.2718 73.0093L84.5355 72.2435L76.9716 69.6384ZM75.8341 72.1884L68.2049 69.781L68.2027 69.7881L68.2005 69.7951L75.8341 72.1884ZM60.3482 67.0823L52.7876 64.4674L50.1749 72.022L57.7273 74.6408L60.3482 67.0823ZM63.1815 103.05L66.7565 95.8932L66.2892 95.6597L65.7954 95.489L63.1815 103.05ZM49.7389 98.4026L52.3528 90.8417L52.1874 90.7845L52.0195 90.7346L49.7389 98.4026ZM48.1609 95.892L40.4123 93.9023L40.3215 94.2559L40.2633 94.6164L48.1609 95.892ZM49.1895 94.5679L53.0352 101.583L49.1895 94.5679ZM50.8598 94.4124L53.4852 86.8555L53.4149 86.8311L53.3442 86.808L50.8598 94.4124ZM53.7303 95.1811L56.7716 87.7818L54.8815 87.0049L52.8504 87.2297L53.7303 95.1811ZM60.4785 97.7868L60.4868 89.7868H60.4785V97.7868ZM61.2665 93.809L58.2257 101.209L58.2289 101.21L61.2665 93.809ZM53.3601 90.6144L47.7003 96.2683L49.2232 97.7928L51.3058 98.3461L53.3601 90.6144ZM52.8948 88.548L60.4312 91.2317L60.4426 91.1998L60.4537 91.1677L52.8948 88.548ZM54.9215 82.7001L57.5381 75.1401L49.9813 72.5246L47.3626 80.0804L54.9215 82.7001ZM70.4447 88.0727L78.0238 90.6332L80.5654 83.11L73.0612 80.5127L70.4447 88.0727ZM65.8183 101.781L73.3719 104.416L73.3778 104.399L73.3835 104.383L65.8183 101.781ZM63.1898 103.054L59.6148 110.211L60.0832 110.445L60.578 110.616L63.1898 103.054ZM52.0903 144.12L58.3883 149.053L58.476 148.941L58.5596 148.826L52.0903 144.12ZM66.4284 124.41L60.0093 119.636L59.9841 119.67L59.9592 119.704L66.4284 124.41ZM69.4023 110.539L75.8928 105.862L64.2869 89.7556L61.4826 109.408L69.4023 110.539ZM77.3459 119.519L85.2265 120.896L85.8935 117.078L83.3109 114.188L77.3459 119.519ZM76.287 125.58L68.4064 124.203L68.4018 124.23L68.3973 124.256L76.287 125.58ZM58.824 148.951L52.5018 144.049L52.3402 144.257L52.1926 144.476L58.824 148.951ZM54.4331 150.691L56.1948 142.888L54.4331 150.691ZM51.2176 147.234L43.2733 148.176L43.2878 148.299L43.3061 148.421L51.2176 147.234ZM78.7687 129.905L85.1002 134.795L85.2751 134.568L85.4334 134.33L78.7687 129.905ZM80.8554 123.447L86.8199 118.116L73.6311 103.361L72.8615 123.136L80.8554 123.447ZM85.5231 128.669L91.8342 123.753L91.6679 123.539L91.4876 123.338L85.5231 128.669ZM87.2479 133.709L79.2479 133.689L79.2479 133.699V133.709H87.2479ZM87.2479 146.727H79.2479V146.747L79.248 146.767L87.2479 146.727ZM88.3936 150.86V158.86H102.448L95.2723 146.776L88.3936 150.86ZM62.5838 150.86L56.2524 145.97L46.2967 158.86H62.5838V150.86ZM17.7026 155.106L12.1823 160.896L14.3784 162.989L17.4106 163.1L17.7026 155.106ZM144.257 155.106L144.119 163.104L147.29 163.159L149.637 161.026L144.257 155.106ZM153.505 149.386C151.443 145.262 147.218 142.669 142.611 142.691L142.689 158.691C141.213 158.698 139.857 157.868 139.195 156.542L153.505 149.386ZM142.595 142.692L118.214 142.86L118.325 158.86L142.705 158.691L142.595 142.692ZM126.269 150.86V96.7537H110.269V150.86H126.269ZM120.921 104.301C126.594 102.308 130.395 96.952 130.395 90.9347H114.395C114.395 90.1531 114.888 89.4621 115.618 89.2059L120.921 104.301ZM130.395 90.9347C130.395 84.9173 126.594 79.5609 120.921 77.568L115.618 92.6635C114.888 92.4073 114.395 91.7163 114.395 90.9347H130.395ZM126.269 85.1157V74.4035H110.269V85.1157H126.269ZM126.269 74.4035C126.269 68.8378 121.755 64.3371 116.201 64.3371V80.3371C112.931 80.3371 110.269 77.6868 110.269 74.4035H126.269ZM116.201 64.3371C110.647 64.3371 106.133 68.8378 106.133 74.4035H122.133C122.133 77.6868 119.471 80.3371 116.201 80.3371V64.3371ZM106.133 74.4035V84.7355H122.133V74.4035H106.133ZM114.133 76.7355H108.074V92.7355H114.133V76.7355ZM108.072 76.7355C110.052 76.7352 111.904 77.7234 113.006 79.3734L99.6998 88.2585C101.569 91.0577 104.712 92.736 108.075 92.7355L108.072 76.7355ZM113.008 79.3758L103.23 64.721L89.9203 73.6012L99.6982 88.2561L113.008 79.3758ZM103.233 64.7262C97.9178 56.7461 87.6044 53.7914 78.8689 57.7378L85.456 72.3189C87.0582 71.5951 88.9464 72.1392 89.9168 73.596L103.233 64.7262ZM90.0752 63.8502C89.3009 58.6496 85.7104 54.3086 80.7528 52.5682L75.4528 67.6648C74.8155 67.4411 74.3502 66.8813 74.2497 66.2064L90.0752 63.8502ZM80.726 52.5588L68.9979 48.488L63.7514 63.6034L75.4796 67.6742L80.726 52.5588ZM68.9695 48.4782C61.5666 45.9398 53.4954 49.8545 50.9164 57.2512L66.0244 62.5189C65.7015 63.4448 64.6962 63.9274 63.7798 63.6132L68.9695 48.4782ZM50.9153 57.2542L48.8783 63.1042L63.9884 68.3658L66.0254 62.5159L50.9153 57.2542ZM58.7151 58.0673C53.5567 56.5323 48.0959 59.3254 46.3302 64.4186L61.4475 69.6595C60.4063 72.6628 57.1885 74.3064 54.1516 73.4027L58.7151 58.0673ZM46.3302 64.4186C44.5635 69.5145 47.1275 75.0906 52.1344 77.074L58.0272 62.1987C60.9763 63.367 62.4896 66.6536 61.4475 69.6595L46.3302 64.4186ZM47.5223 67.0154L44.8131 74.8285L59.9301 80.0703L62.6393 72.2573L47.5223 67.0154ZM54.5803 69.7604C49.4437 68.2848 44.0421 71.0796 42.2879 76.137L57.4043 81.3804C56.3699 84.3625 53.1869 86.0071 50.1628 85.1384L54.5803 69.7604ZM42.2879 76.137C40.5327 81.1969 43.0474 86.7386 47.9996 88.757L54.0385 73.9404C56.9554 75.1293 58.4396 78.3956 57.4043 81.3804L42.2879 76.137ZM43.4602 78.7287C42.6084 81.1863 41.7418 83.4775 41.3025 84.9904C40.6782 87.1402 40.4055 89.2324 40.8751 91.7957L56.6132 88.9124C56.6123 88.9078 56.6252 88.9773 56.6328 89.0985C56.6406 89.2253 56.6397 89.3603 56.6295 89.4897C56.6101 89.7371 56.5692 89.7916 56.6677 89.4523C56.7765 89.0777 56.9584 88.5406 57.3021 87.574C57.6237 86.6695 58.0635 85.4526 58.5779 83.9687L43.4602 78.7287ZM46.8797 82.5743C40.6537 84.0664 36.1908 89.5403 35.9936 95.9454L51.986 96.4378C51.9609 97.254 51.3928 97.9458 50.6086 98.1337L46.8797 82.5743ZM35.9936 95.9454C35.7964 102.351 39.9143 108.089 46.0373 109.961L50.7148 94.6597C51.4865 94.8956 52.0112 95.6214 51.986 96.4378L35.9936 95.9454ZM45.7483 109.866C52.432 112.191 56.5595 113.724 59.0573 114.462C60.3893 114.856 61.93 115.241 63.5981 115.299C65.4856 115.366 66.9728 115 68.0855 114.653L63.3278 99.3772C63.15 99.4326 63.5763 99.2886 64.1607 99.3092C64.5256 99.322 64.5209 99.3931 63.5935 99.1189C61.5725 98.5214 58.3252 97.3002 51.0038 94.7541L45.7483 109.866ZM57.7862 105.89L55.925 118.987L71.7658 121.238L73.6271 108.141L57.7862 105.89ZM55.9287 118.961C55.7613 120.111 55.9196 118.701 56.3229 117.807C56.4736 117.473 56.4854 117.568 55.5616 118.898C53.8766 121.322 50.2604 126.215 42.3357 136.887L55.1815 146.426C63.0075 135.886 66.8312 130.718 68.7002 128.029C69.5535 126.801 70.3708 125.576 70.9086 124.384C71.699 122.631 71.826 120.824 71.762 121.264L55.9287 118.961ZM42.4028 136.798C38.3868 142.052 37.9519 149.214 41.3039 154.915L55.0966 146.805C55.0428 146.714 55.0494 146.6 55.1145 146.515L42.4028 136.798ZM48.2002 142.86H19.4376V158.86H48.2002V142.86ZM19.4742 142.86C14.8688 142.839 10.6464 145.431 8.5836 149.553L22.892 156.713C22.2295 158.037 20.8752 158.867 19.4011 158.86L19.4742 142.86ZM109.457 154.924C110.982 152.338 111.789 149.391 111.793 146.389L95.7927 146.367C95.7925 146.518 95.7521 146.666 95.6751 146.797L109.457 154.924ZM111.793 146.378V125.857H95.7926V146.378H111.793ZM111.793 125.866C111.799 120.867 109.965 116.041 106.643 112.307L94.6886 122.942C95.4016 123.743 95.7939 124.777 95.7927 125.847L111.793 125.866ZM106.644 112.308L94.2829 98.4075L82.3265 109.04L94.6875 122.94L106.644 112.308ZM94.2731 98.3965C95.7217 100.019 96.1757 102.302 95.4558 104.358L80.3553 99.0685C79.1501 102.509 79.9097 106.332 82.3363 109.051L94.2731 98.3965ZM95.494 104.246L99.2786 92.9076L84.1017 87.8417L80.3171 99.18L95.494 104.246ZM85.1836 95.0292L86.9249 97.4634L99.9381 88.1544L98.1967 85.7202L85.1836 95.0292ZM86.9287 97.4686C90.3737 102.276 95.924 105.128 101.837 105.134L101.852 89.1339C101.089 89.1332 100.376 88.7651 99.9343 88.1492L86.9287 97.4686ZM101.844 105.134H114.133V89.1339H101.844V105.134ZM106.133 97.1339V150.86H122.133V97.1339H106.133ZM114.133 142.86H102.566V158.86H114.133V142.86ZM87.1165 76.0877C86.886 76.1869 86.6148 76.1091 86.472 75.8947L99.7872 67.0231C95.6443 60.8052 87.65 58.4386 80.7904 61.3914L87.1165 76.0877ZM86.4748 75.8991L96.2486 90.5477L109.558 81.6675L99.7843 67.0188L86.4748 75.8991ZM96.2485 90.5474C98.8876 94.5033 103.331 96.8743 108.084 96.8683L108.064 80.8683C108.662 80.8675 109.224 81.166 109.558 81.6677L96.2485 90.5474ZM108.074 96.8683H116.201V80.8683H108.074V96.8683ZM116.201 96.8683C112.931 96.8683 110.269 94.2179 110.269 90.9347H126.269C126.269 85.369 121.755 80.8683 116.201 80.8683V96.8683ZM110.269 90.9347C110.269 87.6515 112.931 85.0011 116.201 85.0011V101.001C121.755 101.001 126.269 96.5004 126.269 90.9347H110.269ZM116.201 85.0011H101.844V101.001H116.201V85.0011ZM101.854 85.0011C102.425 85.0018 102.963 85.2771 103.298 85.7447L90.2943 95.0667C92.9621 98.7881 97.2583 100.996 101.835 101.001L101.854 85.0011ZM103.306 85.7561L95.4477 74.7526L82.4274 84.0517L90.2862 95.0552L103.306 85.7561ZM95.6182 75.0012C93.5885 71.9201 90.0376 70.198 86.3649 70.5074L87.7078 86.4509C85.5453 86.6331 83.4533 85.6193 82.2569 83.8031L95.6182 75.0012ZM86.3649 70.5074C82.6919 70.8168 79.4786 73.1089 77.9932 76.4872L92.64 82.927C91.7643 84.9189 89.8705 86.2688 87.7078 86.4509L86.3649 70.5074ZM77.9932 76.4872C76.5076 79.8662 76.9909 83.7865 79.2511 86.7034L91.8985 76.9032C93.2309 78.6227 93.5161 80.9345 92.64 82.927L77.9932 76.4872ZM79.0653 86.4537L82.2171 90.8655L95.2361 81.5646L92.0843 77.1529L79.0653 86.4537ZM81.1378 83.683L76.406 97.8647L91.5835 102.929L96.3153 88.7471L81.1378 83.683ZM76.4228 97.815C74.7717 102.657 75.8644 108.013 79.2781 111.822L91.1932 101.143C91.6395 101.641 91.7834 102.343 91.5667 102.978L76.4228 97.815ZM79.2575 111.798L91.6082 125.687L103.564 115.054L91.2137 101.166L79.2575 111.798ZM91.5986 125.676C91.6367 125.719 91.6567 125.773 91.6565 125.828L107.656 125.885C107.671 121.899 106.217 118.048 103.574 115.065L91.5986 125.676ZM91.6565 125.857V146.378H107.656V125.857H91.6565ZM91.6594 146.596C91.609 144.746 92.966 143.166 94.7893 142.928L96.8634 158.793C103.162 157.969 107.827 152.518 107.653 146.16L91.6594 146.596ZM95.2348 142.882C96.3059 142.803 97.3628 143.173 98.1508 143.906L87.2525 155.621C89.727 157.923 93.0489 159.088 96.4179 158.838L95.2348 142.882ZM98.1508 143.906C98.9392 144.64 99.387 145.67 99.384 146.749L83.3841 146.705C83.3748 150.087 84.7778 153.318 87.2525 155.621L98.1508 143.906ZM99.3841 146.727V133.709H83.3841V146.727H99.3841ZM99.384 133.678C99.3663 129.107 97.8211 124.675 94.9949 121.083L82.4211 130.978C83.0417 131.766 83.3803 132.739 83.3841 133.74L99.384 133.678ZM94.6728 120.699L78.8064 102.947L66.8768 113.609L82.7431 131.361L94.6728 120.699ZM79.1635 103.376C78.7155 102.798 78.5745 102.041 78.7829 101.343L63.4507 96.7684C61.7662 102.414 62.9095 108.525 66.5197 113.18L79.1635 103.376ZM78.7426 101.474C82.6236 89.2346 84.5466 83.584 85.484 81.0036C85.9701 79.6655 86.1203 79.352 86.0826 79.4315C86.0484 79.5037 85.876 79.8633 85.5623 80.3177C85.4973 80.4118 85.435 80.4965 85.4569 80.4664C85.4605 80.4615 85.5104 80.3933 85.5698 80.3077C85.6332 80.2163 85.7395 80.0592 85.8606 79.8573C86.5633 78.6857 86.8083 77.6033 86.908 76.9806L71.1093 74.4508C71.2048 73.854 71.4452 72.785 72.1393 71.6278C72.2582 71.4296 72.3621 71.2762 72.4227 71.1888C72.4794 71.1071 72.5262 71.0432 72.5263 71.0431C72.5414 71.0223 72.4707 71.1184 72.3953 71.2276C72.0402 71.742 71.7948 72.2195 71.6264 72.5746C71.3202 73.2201 70.9568 74.1332 70.4455 75.5406C69.3882 78.4511 67.3819 84.3671 63.491 96.6375L78.7426 101.474ZM86.5868 78.2793C86.7182 77.8907 86.8546 77.471 86.9513 77.1775C87.0592 76.8505 87.1445 76.5979 87.2254 76.3744C87.3895 75.9208 87.4777 75.7533 87.5017 75.7114C87.5071 75.7019 87.4391 75.8178 87.2899 75.9546C87.1377 76.0941 87.0479 76.121 87.1398 76.0812L80.7835 61.3979C73.5249 64.5401 72.0646 71.2777 71.4305 73.1521L86.5868 78.2793ZM83.9617 60.7396H83.9534V76.7395H83.9617V60.7396ZM74.3971 76.6066L58.9009 71.234L53.6597 86.3512L69.1559 91.7238L74.3971 76.6066ZM63.8387 81.4136L66.5459 73.6067L51.429 68.3647L48.7218 76.1716L63.8387 81.4136ZM56.3644 78.5435L71.8027 83.9016L77.0488 68.7861L61.6105 63.428L56.3644 78.5435ZM66.8486 73.7774L64.1994 81.5987L79.3536 86.7317L82.0029 78.9104L66.8486 73.7774ZM69.9145 63.8974C68.8357 66.9454 65.5135 68.5552 62.459 67.5268L67.5645 52.3632C62.3445 50.6056 56.6719 53.3584 54.8313 58.5591L69.9145 63.8974ZM62.3885 67.5027L74.1167 71.5735L79.3632 56.4581L67.635 52.3873L62.3885 67.5027ZM74.073 71.5581C71.0064 70.4738 69.3792 67.1169 70.4414 64.0317L85.5699 69.2402C87.3705 64.0101 84.6135 58.3144 79.4069 56.4734L74.073 71.5581ZM70.4416 64.0309L69.4076 67.0334L84.5355 72.2435L85.5696 69.241L70.4416 64.0309ZM70.0833 65.5701C69.2991 66.8978 68.6689 68.3105 68.2049 69.781L83.4633 74.5957C83.5612 74.2854 83.6942 73.9872 83.8599 73.7068L70.0833 65.5701ZM68.2005 69.7951C67.6996 71.3929 67.828 72.7269 67.8911 73.2363C67.9089 73.3796 67.9271 73.4959 67.939 73.5682C67.9451 73.605 67.9503 73.6351 67.9536 73.6538C67.9552 73.6633 67.9566 73.6711 67.9575 73.6759C67.9578 73.6779 67.9583 73.6805 67.9585 73.6817C67.9587 73.6828 67.9588 73.6836 67.9589 73.6838C67.9704 73.7484 67.9176 73.472 67.8834 73.1472C67.853 72.8582 67.442 69.782 69.8201 67.074C72.1608 64.4086 75.1719 64.3737 75.717 64.3697C76.574 64.3635 77.2129 64.5063 77.3164 64.5285C77.427 64.5521 77.5087 64.5728 77.5509 64.5837C77.5952 64.5953 77.6208 64.6027 77.6222 64.6031C77.6244 64.6038 77.6129 64.6004 77.5843 64.5916C77.556 64.5829 77.5164 64.5705 77.4631 64.5533C77.355 64.5186 77.2096 64.4708 77.0153 64.4055C75.3401 63.8425 71.6162 62.5221 62.9691 59.5238L57.7273 74.6408C66.1896 77.5751 70.1548 78.9793 71.9184 79.5719C72.3625 79.7212 72.7957 79.8629 73.1744 79.9725C73.3616 80.0266 73.6427 80.1045 73.9653 80.1736C74.191 80.2219 74.9161 80.376 75.8331 80.3693C76.4383 80.3649 79.4835 80.3178 81.8423 77.6318C84.2386 74.9032 83.8297 71.7978 83.7957 71.4743C83.775 71.2773 83.7511 71.1201 83.7372 71.0332C83.7299 70.9871 83.7234 70.9495 83.7193 70.9259C83.7155 70.9034 83.7121 70.8846 83.7117 70.8825C83.7027 70.8315 83.7405 71.0332 83.7697 71.2691C83.8277 71.7367 83.9552 73.0267 83.4678 74.5816L68.2005 69.7951ZM67.9088 69.6972L69.9335 63.8431L54.8123 58.6133L52.7876 64.4674L67.9088 69.6972ZM65.7954 95.489L52.3528 90.8417L47.125 105.964L60.5676 110.611L65.7954 95.489ZM52.0195 90.7346C54.7863 91.5575 56.5204 94.308 56.0586 97.1675L40.2633 94.6164C39.4416 99.7042 42.5264 104.604 47.4583 106.071L52.0195 90.7346ZM55.9096 97.8817C55.5039 99.4613 54.4625 100.801 53.0352 101.583L45.3438 87.5529C42.894 88.8959 41.1078 91.1937 40.4123 93.9023L55.9096 97.8817ZM53.0352 101.583C51.6083 102.365 49.9216 102.522 48.3754 102.017L53.3442 86.808C50.6893 85.9406 47.7934 86.21 45.3438 87.5529L53.0352 101.583ZM48.2344 101.969C48.7485 102.148 49.0904 102.27 49.4571 102.399C49.7551 102.504 50.1829 102.654 50.6072 102.778C51.0786 102.915 51.7756 103.092 52.6286 103.165C53.4983 103.239 54.2045 103.177 54.6102 103.133L52.8504 87.2297C52.8859 87.2257 53.0282 87.2104 53.2292 87.2033C53.4455 87.1957 53.7045 87.1983 53.9932 87.223C54.5783 87.273 54.9934 87.3904 55.0904 87.4187C55.1358 87.4319 55.1396 87.4343 55.0723 87.4117C55.0065 87.3897 54.9119 87.357 54.7626 87.3045C54.4923 87.2095 54.0268 87.0437 53.4852 86.8555L48.2344 101.969ZM50.689 102.58C53.7566 103.841 55.4566 104.557 56.3395 104.906C56.7238 105.057 57.4166 105.331 58.1698 105.516C59.3267 105.801 60.239 105.787 60.4785 105.787V89.7868C60.3259 89.7868 60.5977 89.7823 60.9061 89.8062C61.3064 89.8373 61.6746 89.9014 61.9918 89.9795C62.4218 90.0853 62.6573 90.1983 62.2217 90.026C61.4646 89.7267 60.0738 89.139 56.7716 87.7818L50.689 102.58ZM60.4702 105.787C65.276 105.792 69.4215 102.398 70.3569 97.6761L54.6619 94.5672C55.2136 91.7821 57.6574 89.7839 60.4868 89.7868L60.4702 105.787ZM70.3569 97.6761C71.2925 92.9528 68.7521 88.2338 64.304 86.4082L58.2289 101.21C55.6089 100.135 54.11 97.3534 54.6619 94.5672L70.3569 97.6761ZM64.3072 86.4095C59.6678 84.503 57.7775 83.7197 57.0212 83.4126C56.8374 83.3379 56.6421 83.2593 56.469 83.1938C56.3856 83.1622 56.2246 83.1021 56.0303 83.0388C55.8814 82.9903 55.4194 82.8412 54.8152 82.7414C53.9595 82.6002 53.1579 82.6087 52.4432 82.7033C51.9032 82.7748 52.7394 82.6467 53.348 82.6371C54.0094 82.6266 54.5327 82.7021 54.8233 82.7532C55.1114 82.8039 55.3261 82.8592 55.4145 82.8827L51.3058 98.3461C51.4406 98.382 52.3929 98.6542 53.6011 98.6351C54.226 98.6252 55.0722 98.4949 54.5426 98.565C53.8382 98.6582 53.0475 98.6661 52.2098 98.5279C51.6235 98.4311 51.1867 98.2885 51.0771 98.2528C50.922 98.2023 50.8142 98.1612 50.8048 98.1576C50.7798 98.1482 50.8158 98.1616 51.0009 98.2367C51.7202 98.5288 53.507 99.2696 58.2257 101.209L64.3072 86.4095ZM59.0199 84.9605C60.6601 86.6023 61.2107 89.0429 60.4312 91.2317L45.3584 85.8643C44.0656 89.4948 44.9783 93.5434 47.7003 96.2683L59.0199 84.9605ZM60.4537 91.1677L62.4804 85.3198L47.3626 80.0804L45.3359 85.9283L60.4537 91.1677ZM52.305 90.2601L67.8281 95.6327L73.0612 80.5127L57.5381 75.1401L52.305 90.2601ZM62.8655 85.5122C62.078 87.8433 59.0281 96.9261 58.2532 99.1796L73.3835 104.383C74.1762 102.078 77.2685 92.8689 78.0238 90.6332L62.8655 85.5122ZM58.2647 99.1463C59.3432 96.0547 62.7166 94.4269 65.8016 95.4924L60.578 110.616C65.8181 112.426 71.543 109.659 73.3719 104.416L58.2647 99.1463ZM66.7648 95.8973L66.7565 95.8932L59.6065 110.207L59.6148 110.211L66.7648 95.8973ZM58.5596 148.826L72.8977 129.117L59.9592 119.704L45.6211 139.413L58.5596 148.826ZM72.8475 129.185C73.5149 128.287 74.2034 127.221 74.7696 125.844C75.3027 124.547 75.6037 123.272 75.8259 122.086C76.2178 119.994 76.6203 116.587 77.3221 111.669L61.4826 109.408C60.6767 115.056 60.4092 117.486 60.0995 119.14C59.9708 119.826 59.9132 119.901 59.9711 119.76C60.0621 119.539 60.1589 119.435 60.0093 119.636L72.8475 129.185ZM62.9119 115.216C62.8431 115.12 62.7472 114.977 62.6501 114.815C62.6075 114.744 62.83 115.132 63.1318 115.542C63.464 115.994 63.8984 116.478 64.1807 116.796C64.9888 117.707 66.8836 119.818 71.3808 124.85L83.3109 114.188C78.7685 109.105 76.9336 107.062 76.1507 106.179C75.6376 105.601 75.8113 105.777 76.0212 106.063C76.2618 106.39 76.4577 106.73 76.3736 106.589C76.235 106.358 76.0825 106.125 75.8928 105.862L62.9119 115.216ZM69.4653 118.142L68.4064 124.203L84.1677 126.957L85.2265 120.896L69.4653 118.142ZM68.3973 124.256C68.2709 125.01 68.4366 123.713 68.9674 122.734C69.0681 122.548 68.9726 122.756 67.8572 124.234C65.8218 126.932 61.5939 132.322 52.5018 144.049L65.1463 153.853C74.1251 142.272 78.5109 136.679 80.6302 133.87C81.5923 132.595 82.4595 131.418 83.0331 130.36C84.0367 128.509 84.1853 126.853 84.1767 126.904L68.3973 124.256ZM52.1926 144.476C53.0738 143.17 54.6635 142.542 56.1948 142.888L52.6714 158.495C57.5683 159.6 62.6453 157.59 65.4555 153.426L52.1926 144.476ZM56.1948 142.888C57.7268 143.234 58.8948 144.485 59.129 146.047L43.3061 148.421C44.0519 153.391 47.7737 157.389 52.6714 158.495L56.1948 142.888ZM59.1619 146.291C59.279 147.278 59.0003 148.271 58.3883 149.053L45.7923 139.186C43.7983 141.732 42.8922 144.964 43.2733 148.176L59.1619 146.291ZM85.4334 134.33C87.5206 131.186 88.7026 127.529 88.8494 123.758L72.8615 123.136C72.829 123.971 72.5672 124.782 72.1041 125.48L85.4334 134.33ZM74.891 128.779L79.5587 134.001L91.4876 123.338L86.8199 118.116L74.891 128.779ZM79.2121 133.585C79.2358 133.616 79.248 133.653 79.2479 133.689L95.2479 133.729C95.2568 130.115 94.0546 126.603 91.8342 123.753L79.2121 133.585ZM79.2479 133.709V146.727H95.2479V133.709H79.2479ZM79.248 146.767C79.2623 149.646 80.045 152.469 81.515 154.945L95.2723 146.776C95.2562 146.748 95.2479 146.718 95.2478 146.688L79.248 146.767ZM88.3936 142.86H62.5838V158.86H88.3936V142.86ZM68.9153 155.75L85.1002 134.795L72.4373 125.015L56.2524 145.97L68.9153 155.75ZM9.77704 158.469C10.2711 159.021 10.9318 159.678 11.3386 160.078C11.5689 160.304 11.7765 160.505 11.9264 160.65C12.0018 160.723 12.0635 160.782 12.1074 160.824C12.1294 160.845 12.147 160.862 12.1596 160.874C12.1659 160.88 12.171 160.885 12.1748 160.889C12.1767 160.89 12.1783 160.892 12.1796 160.893C12.1802 160.894 12.1807 160.894 12.1812 160.895C12.1814 160.895 12.1816 160.895 12.1818 160.895C12.1819 160.895 12.182 160.896 12.1821 160.896C12.1822 160.896 12.1823 160.896 17.7026 155.106C23.2229 149.315 23.223 149.315 23.2231 149.316C23.2231 149.316 23.2232 149.316 23.2232 149.316C23.2233 149.316 23.2234 149.316 23.2235 149.316C23.2236 149.316 23.2236 149.316 23.2236 149.316C23.2236 149.316 23.2232 149.316 23.2225 149.315C23.2211 149.314 23.2185 149.311 23.2147 149.308C23.2071 149.3 23.1949 149.289 23.1786 149.273C23.1458 149.242 23.0967 149.194 23.0352 149.135C22.9114 149.016 22.7415 148.851 22.5563 148.669C22.1322 148.252 21.8105 147.923 21.6985 147.797L9.77704 158.469ZM17.4106 163.1C29.8994 163.556 56.1274 163.456 81.7996 163.296C107.652 163.135 132.996 162.913 144.119 163.104L144.395 147.107C133.023 146.911 107.364 147.137 81.6999 147.297C55.8558 147.458 30.0541 147.551 17.9945 147.111L17.4106 163.1ZM149.637 161.026C150.621 160.132 151.552 159.185 152.415 158.181L140.285 147.748C139.883 148.215 139.416 148.695 138.877 149.185L149.637 161.026Z" fill="white" mask="url(#path-3-inside-1)"/>
<path d="M43.8097 14.8477C41.5137 14.8477 39.668 16.6967 39.668 18.9894C39.668 21.1233 41.2733 22.899 43.3951 23.1096C45.8516 23.3534 47.9515 21.4401 47.9515 18.9894C47.9515 16.6934 46.1024 14.8477 43.8097 14.8477Z" fill="white"/>
</svg>
