<svg width="312" height="230" viewBox="0 0 312 230" fill="none" xmlns="http://www.w3.org/2000/svg">
<path d="M129.064 30.4893L155.554 4L182.043 30.4893" stroke="white" stroke-width="7" stroke-linecap="round" stroke-linejoin="round"/>
<path d="M155.82 4L155.82 48.1919" stroke="white" stroke-width="7" stroke-linecap="round" stroke-linejoin="round"/>
<path d="M47.8594 50.8994L68.2692 70.875" stroke="white" stroke-width="8" stroke-linecap="round" stroke-linejoin="round"/>
<path d="M4 158.159H31.7921" stroke="white" stroke-width="8" stroke-linecap="round" stroke-linejoin="round"/>
<path d="M279.315 158.159H307.108" stroke="white" stroke-width="8" stroke-linecap="round" stroke-linejoin="round"/>
<path d="M242.838 70.875L263.248 50.8994" stroke="white" stroke-width="8" stroke-linecap="round" stroke-linejoin="round"/>
<path d="M85.9422 130.384C84.8431 130.447 83.8764 130.98 83.233 131.779L82.5778 132.592H83.6224H109.334H109.933L109.826 132.003C109.406 129.674 107.364 127.901 104.914 127.901C103.83 127.901 102.794 128.25 101.922 128.907C101.487 129.234 100.933 129.358 100.402 129.247C99.8698 129.137 99.411 128.802 99.1433 128.33L99.1432 128.33C98.006 126.324 95.8713 125.078 93.5702 125.078C90.9407 125.078 88.5425 126.724 87.5953 129.178L87.5952 129.178C87.3289 129.87 86.6822 130.341 85.9422 130.384ZM85.9422 130.384L85.9708 130.883L85.9421 130.384C85.9421 130.384 85.9421 130.384 85.9422 130.384ZM78.6486 134.595L78.6486 134.595L78.6483 134.591L78.6436 134.525C78.6436 134.525 78.6436 134.524 78.6436 134.524C78.6342 134.383 78.627 134.255 78.627 134.127C78.627 130.622 81.041 127.644 84.3326 126.824L84.5439 126.771L84.6493 126.581C86.4209 123.375 89.8557 121.301 93.5702 121.301C96.4593 121.301 99.1856 122.536 101.094 124.627L101.329 124.884L101.651 124.754C102.679 124.338 103.78 124.123 104.914 124.123C109.749 124.123 113.683 128.058 113.683 132.892C113.683 133.552 113.602 134.232 113.441 134.913L113.441 134.913C113.24 135.766 112.479 136.368 111.603 136.368H80.5331C79.5355 136.368 78.7097 135.591 78.6486 134.595Z" fill="white" stroke="white"/>
<path d="M235.163 193.718L235.412 194.087L235.807 193.882L254.779 184.045C255.705 183.564 256.845 183.926 257.325 184.852L257.769 184.622L257.325 184.852C257.805 185.778 257.443 186.917 256.518 187.398C256.518 187.398 256.518 187.398 256.518 187.398L209.619 211.716L209.619 211.716C209.117 211.976 208.525 211.998 208.005 211.775L207.808 212.235L208.005 211.775L202.9 209.587L202.696 209.5L202.494 209.592C196.606 212.291 190.94 214.811 185.625 217.175C175.98 221.465 167.492 225.24 160.936 228.633L160.492 228.233C160.04 227.827 159.387 227.24 158.581 226.515C156.97 225.065 154.747 223.064 152.303 220.86C147.416 216.452 141.645 211.235 138.109 207.992L137.903 207.803L137.634 207.88L132.84 209.25L132.839 209.25C132.158 209.445 131.422 209.241 130.938 208.72C130.938 208.72 130.938 208.72 130.938 208.72L97.4721 172.744L97.2055 172.457L96.8632 172.647L90.6817 176.081L90.6813 176.082C89.9648 176.48 89.0718 176.37 88.4729 175.808L60.6808 149.753L60.6808 149.753C59.92 149.04 59.8815 147.845 60.5946 147.084C61.3085 146.323 62.5029 146.285 63.2638 146.998L89.7843 171.861L90.0504 172.11L90.3691 171.933L96.6631 168.437C97.4223 168.015 98.3713 168.166 98.9629 168.801L103.283 173.446L103.688 173.881L104.047 173.407L121.262 150.708L121.262 150.708C121.865 149.913 122.983 149.724 123.814 150.278L127.187 152.526L127.572 152.783L127.857 152.419L153.838 119.32L154.473 118.511H153.445H134.539C133.604 118.511 132.81 117.827 132.672 116.902L132.672 116.901C132.571 116.225 132.525 115.655 132.525 115.103C132.525 108.449 137.938 103.036 144.588 103.036C145.941 103.036 147.283 103.266 148.556 103.712L148.907 103.834L149.125 103.534C151.901 99.7228 156.33 97.4297 161.133 97.4297C165.934 97.4297 170.362 99.7228 173.137 103.534L173.356 103.834L173.707 103.712C174.98 103.266 176.322 103.036 177.674 103.036C184.328 103.036 189.741 108.449 189.741 115.103C189.741 115.655 189.695 116.225 189.594 116.901C189.457 117.827 188.663 118.511 187.727 118.511H172.485H171.418L172.1 119.331L180.165 129.016L180.453 129.361L180.827 129.112L184.252 126.829L184.252 126.829C184.68 126.544 185.204 126.445 185.707 126.556C186.209 126.667 186.644 126.978 186.912 127.417L207.784 161.648L207.96 161.936L208.293 161.881L211.912 161.277L211.83 160.784L211.912 161.277C212.643 161.155 213.374 161.47 213.788 162.083L235.163 193.718ZM136.353 114.179L136.291 114.735H136.85H157.194H157.437L157.588 114.543L161.253 109.874L161.253 109.874C161.604 109.426 162.139 109.161 162.708 109.152C163.297 109.152 163.827 109.397 164.189 109.832C164.189 109.832 164.189 109.832 164.189 109.832L168.122 114.555L168.272 114.735H168.507H185.417H185.976L185.914 114.179C185.452 110.041 181.934 106.813 177.674 106.813C176.218 106.813 174.833 107.183 173.564 107.912L173.564 107.912C173.119 108.168 172.589 108.231 172.097 108.088L172.097 108.088C171.604 107.945 171.191 107.607 170.952 107.153C169.026 103.486 165.263 101.206 161.133 101.206C157.001 101.206 153.236 103.486 151.31 107.153C151.072 107.607 150.659 107.945 150.166 108.088L150.166 108.088C149.674 108.231 149.143 108.168 148.698 107.912L148.449 108.346L148.698 107.912C147.429 107.184 146.044 106.813 144.588 106.813C140.33 106.813 136.814 110.041 136.353 114.179ZM208.455 207.859L208.672 207.952L208.882 207.843L231.537 196.095L232.036 195.836L231.721 195.371L211.516 165.467L211.336 165.201L211.02 165.254L207.322 165.87L207.321 165.87C206.561 165.998 205.8 165.649 205.398 164.99L184.98 131.505L184.679 131.012L184.234 131.381L168.305 144.583L168.305 144.583L168.296 144.59C167.939 144.9 167.499 145.052 167.06 145.052C166.531 145.052 166.006 144.831 165.632 144.4C164.949 143.612 165.035 142.42 165.822 141.737L177.08 131.98L177.451 131.659L177.137 131.282L163.176 114.518L162.78 114.043L162.398 114.529L130.986 154.548L130.667 154.954L131.084 155.259L142.121 163.353C142.963 163.97 143.144 165.152 142.528 165.993C142.158 166.497 141.585 166.765 141.003 166.765C140.615 166.765 140.225 166.646 139.888 166.399L139.884 166.397L123.603 154.677L123.208 154.392L122.913 154.781L106.553 176.353L106.299 176.688L106.585 176.996L132.706 205.075L132.914 205.3L133.209 205.216L137.881 203.881L137.881 203.881C138.511 203.7 139.192 203.861 139.676 204.305L161.188 224.032L161.433 224.256L161.734 224.118L201.882 205.717C202.368 205.494 202.924 205.488 203.413 205.698L203.611 205.238L203.414 205.698L208.455 207.859Z" fill="white" stroke="white"/>
<path d="M184.655 188.838L184.963 189.034L185.244 188.8L192.371 182.86C193.173 182.192 194.364 182.301 195.032 183.102C195.699 183.903 195.591 185.093 194.79 185.761L186.323 192.817C185.691 193.343 184.793 193.401 184.099 192.96L170.046 184.017L169.738 183.821L169.458 184.055L153.862 197.051C153.509 197.346 153.08 197.489 152.654 197.489C152.111 197.489 151.575 197.258 151.202 196.81C150.534 196.009 150.642 194.818 151.443 194.15C151.443 194.15 151.444 194.15 151.444 194.15L168.379 180.037C169.011 179.511 169.909 179.454 170.603 179.895C170.603 179.895 170.603 179.895 170.603 179.895L184.655 188.838Z" fill="white" stroke="white"/>
<path d="M235.971 142.295H235.091H212.884H212.163L212.416 141.619C213.457 138.838 216.142 136.851 219.286 136.851C221.608 136.851 223.746 137.926 225.148 139.795L235.971 142.295ZM235.971 142.295L235.521 141.539M235.971 142.295L235.521 141.539M235.521 141.539C234.617 140.023 232.96 139.003 231.067 139.003C229.884 139.003 228.765 139.396 227.838 140.137L235.521 141.539ZM226.421 140.535C226.929 140.6 227.439 140.456 227.838 140.137L226.421 140.535ZM226.421 140.535C225.914 140.471 225.455 140.204 225.148 139.795L226.421 140.535ZM226.761 135.972L227.007 136.197L227.309 136.057C228.482 135.515 229.768 135.226 231.067 135.226C236.005 135.226 240.024 139.245 240.024 144.184C240.024 145.227 239.178 146.072 238.136 146.072H210.065C209.022 146.072 208.176 145.226 208.177 144.184V144.184C208.177 138.058 213.161 133.074 219.286 133.074C222.102 133.074 224.734 134.111 226.761 135.972Z" fill="white" stroke="white"/>
<path d="M255.862 187.689C256.152 184.564 256.3 181.398 256.3 178.197C256.3 129.721 222.324 89.202 176.948 79.2793M59.7593 145.486C71.0545 112.291 99.0638 86.8589 133.725 79.2793" stroke="white" stroke-width="8" stroke-linecap="round"/>
</svg>
