<svg width="218" height="189" viewBox="0 0 218 189" fill="none" xmlns="http://www.w3.org/2000/svg">
<path d="M84.1151 184.234L77.9956 155.068C75.0199 140.885 66.7579 128.622 54.7326 120.536L41.667 111.75C36.4279 108.228 29.3858 108.986 25.0069 113.451V68.445C25.0069 62.5377 20.9794 57.5185 15.2125 56.2385C11.4905 55.4116 7.65161 56.3073 4.67814 58.6928C1.70505 61.0784 0 64.633 0 68.445V126.358C0 133.945 2.3217 141.225 6.71374 147.412L13.3744 156.795C14.1028 157.821 15.2539 158.368 16.4234 158.368C17.1711 158.368 17.926 158.144 18.5822 157.679C20.2641 156.484 20.66 154.153 19.4656 152.471L12.8049 143.088C9.31483 138.172 7.47009 132.386 7.47009 126.357V68.445C7.47009 66.9107 8.15659 65.4798 9.3533 64.5191C10.5496 63.5588 12.0948 63.1984 13.5941 63.5312C15.9154 64.0463 17.5368 66.0669 17.5368 68.445V114.392C17.5368 120.896 19.9265 127.093 24.2677 131.914C24.4537 132.137 24.6449 132.358 24.847 132.572C27.3274 135.2 30.2438 138.297 32.9905 141.217L36.8358 145.309C36.8481 145.322 36.8615 145.334 36.8742 145.346C40.1637 148.845 42.5896 151.428 42.6404 151.482C44.0519 152.985 46.4161 153.06 47.9199 151.648C49.4236 150.236 49.4979 147.872 48.0853 146.368C48.0174 146.296 43.6451 141.64 38.6521 136.333L30.088 127.219C30.0664 127.195 30.0466 127.171 30.0249 127.148C28.0169 124.746 28.042 121.264 30.1467 118.888C32.0086 116.787 35.1699 116.383 37.4995 117.949L50.5643 126.735C60.9656 133.729 68.1111 144.336 70.6846 156.602L76.8045 185.769C77.1739 187.529 78.7265 188.737 80.4562 188.737C80.7102 188.737 80.9683 188.711 81.2267 188.657C83.2455 188.233 84.5386 186.253 84.1151 184.234Z" fill="white"/>
<path d="M212.517 58.6922C209.544 56.3066 205.703 55.4125 201.983 56.2379C196.216 57.5175 192.189 62.5371 192.189 68.4444V113.45C187.81 108.985 180.767 108.227 175.528 111.75L162.463 120.535C150.437 128.62 142.176 140.884 139.2 155.067L133.08 184.234C132.657 186.253 133.95 188.232 135.969 188.656C136.227 188.71 136.486 188.736 136.739 188.736C138.469 188.736 140.022 187.528 140.391 185.767L146.51 156.601C149.084 144.335 156.229 133.727 166.631 126.734L179.696 117.949C182.025 116.382 185.186 116.786 187.049 118.887C189.151 121.26 189.179 124.737 187.179 127.138C187.155 127.165 187.132 127.191 187.108 127.218C187.108 127.218 169.178 146.296 169.11 146.368C167.698 147.871 167.773 150.235 169.276 151.647C170.78 153.059 173.143 152.985 174.555 151.481C174.606 151.427 189.868 135.2 192.349 132.571C192.551 132.357 192.742 132.137 192.928 131.914C197.269 127.092 199.659 120.896 199.659 114.391V68.444C199.659 66.0659 201.28 64.0453 203.602 63.5302C205.101 63.1978 206.646 63.5582 207.843 64.5181C209.04 65.4784 209.726 66.9093 209.726 68.444V126.357C209.726 132.386 207.881 138.171 204.391 143.087L176.173 182.838C174.979 184.52 175.374 186.852 177.056 188.046C177.713 188.512 178.467 188.736 179.215 188.736C180.384 188.736 181.535 188.188 182.264 187.163L210.482 147.412C214.874 141.225 217.196 133.944 217.196 126.357V68.444C217.195 64.632 215.49 61.0778 212.517 58.6922Z" fill="white"/>
<path d="M148.829 76.088L142.994 74.6941V73.6478C146.786 70.9911 149.273 66.5918 149.273 61.6202V54.0342C149.273 45.9399 142.688 39.3549 134.594 39.3549C130.961 39.3549 127.635 40.6839 125.07 42.8775C122.213 35.8816 115.339 30.9375 107.328 30.9375C99.3076 30.9375 92.4265 35.8943 89.5763 42.9037C87.0065 40.6944 83.6686 39.3543 80.0214 39.3543C71.9271 39.3543 65.3421 45.9392 65.3421 54.0336V54.5377V61.6196C65.3421 66.5912 67.8289 70.9904 71.6214 73.6471V74.6934L65.7862 76.0873C58.8191 77.7519 53.9531 83.917 53.9531 91.0802V97.2057C53.9531 99.0171 55.4218 100.486 57.233 100.486H72.3046C72.2813 100.883 72.2652 101.283 72.2652 101.686V113.48C72.2652 115.291 73.7339 116.76 75.5451 116.76H95.2603C97.0714 116.76 98.5401 115.291 98.5401 113.48C98.5401 111.669 97.0714 110.2 95.2603 110.2H91.8715V103.422C91.8715 101.611 90.4028 100.142 88.5917 100.142C86.7805 100.142 85.3118 101.611 85.3118 103.422V110.201H78.8253V101.687C78.8253 95.3611 83.1219 89.9136 89.2729 88.4396L98.2735 86.2828L104.297 99.9867C104.82 101.178 105.999 101.947 107.299 101.947H107.299C108.6 101.947 109.778 101.178 110.302 99.987L116.319 86.3034L125.291 88.4468C131.448 89.9178 135.748 95.366 135.748 101.696V110.201H129.262V103.422C129.262 101.611 127.793 100.142 125.982 100.142C124.171 100.142 122.702 101.611 122.702 103.422V110.201H118.985C117.174 110.201 115.705 111.669 115.705 113.481C115.705 115.292 117.174 116.761 118.985 116.761H139.028C140.839 116.761 142.308 115.292 142.308 113.481V101.696C142.308 101.29 142.292 100.887 142.268 100.486H157.382C159.194 100.486 160.662 99.0178 160.662 97.2063V91.0809C160.662 83.9177 155.796 77.7522 148.829 76.088ZM134.594 45.914C138.891 45.914 142.419 49.2696 142.696 53.498H138.136C134.302 53.498 130.53 52.575 127.139 50.8177C128.386 47.9354 131.258 45.914 134.594 45.914ZM126.474 61.1407C126.478 60.981 126.486 60.8219 126.486 60.6612V57.7402C130.166 59.2633 134.124 60.0577 138.136 60.0577H142.713V61.6199C142.713 66.0969 139.071 69.7395 134.594 69.7395C130.116 69.7395 126.474 66.0969 126.474 61.6196V61.1407ZM94.7303 50.0951C94.7303 43.1487 100.381 37.4972 107.328 37.4972C113.594 37.4972 118.805 42.0949 119.767 48.0931L114.246 44.849C112.865 44.0376 111.099 44.3423 110.07 45.5706C107.372 48.7907 103.415 50.6376 99.2135 50.6376H94.7303V50.0951ZM80.0217 45.914C83.357 45.914 86.2292 47.9357 87.4769 50.8174C84.0855 52.5747 80.3133 53.4977 76.4798 53.4977H71.9198C72.1967 49.2696 75.7248 45.914 80.0217 45.914ZM71.9021 60.0574H76.4798C80.4954 60.0574 84.4574 59.2614 88.1414 57.7349V61.6192C88.1414 66.0962 84.4991 69.7389 80.0217 69.7389C75.5444 69.7389 71.9021 66.0969 71.9021 61.6196V60.0574ZM87.7445 82.0603C81.2917 83.6064 76.2204 88.1054 73.8067 93.9262H60.5128V91.0806C60.5128 86.9656 63.3079 83.4237 67.3103 82.4676L75.6635 80.4722C77.1397 80.1196 78.1814 78.8001 78.1814 77.2822V76.1795C78.7849 76.2553 79.3982 76.2989 80.0217 76.2989C80.6407 76.2989 81.2497 76.2559 81.8486 76.1811V77.1169C81.8463 77.1658 81.8453 77.2146 81.845 77.2635C81.8444 78.3396 82.3734 79.3938 83.3449 80.0222C83.7109 80.2593 84.1065 80.4135 84.5102 80.4905L89.4028 81.6628L87.7445 82.0603ZM96.8933 76.9686C96.0507 76.597 95.1724 76.2999 94.2671 76.0831L88.408 74.679V73.657C89.4654 72.918 90.4215 72.0446 91.2507 71.06C92.7154 73.3165 94.6401 75.2461 96.8933 76.7158V76.9686ZM111.138 81.7877L107.3 90.5171L103.453 81.7654V79.4249C104.705 79.683 106.001 79.8192 107.328 79.8192C108.633 79.8192 109.906 79.687 111.138 79.4374V81.7877ZM107.328 73.2591C100.381 73.2595 94.7303 67.6079 94.7303 60.6612V57.197H99.2135C104.415 57.197 109.36 55.2629 113.15 51.8131L119.914 55.787V61.141C119.661 67.8657 114.114 73.2591 107.328 73.2591ZM117.698 76.9791V76.7571C119.97 75.2884 121.911 73.3539 123.388 71.0875C124.211 72.061 125.159 72.9249 126.206 73.657V74.679L120.347 76.0831C119.434 76.3022 118.548 76.6029 117.698 76.9791ZM154.102 93.9262H140.763C138.347 88.1054 133.272 83.609 126.815 82.0665L125.169 81.6733L130.087 80.4945C130.497 80.4184 130.899 80.2623 131.27 80.0222C132.24 79.3947 132.767 78.3406 132.767 77.2645C132.767 77.2389 132.767 77.213 132.766 77.1874V76.1811C133.365 76.2559 133.974 76.2989 134.593 76.2989C135.216 76.2989 135.83 76.2553 136.433 76.1795V77.2822C136.433 78.8001 137.475 80.1196 138.951 80.4722L147.304 82.4676C151.307 83.4241 154.102 86.9656 154.102 91.0806V93.9262Z" fill="white"/>
<path d="M110.106 110.104C109.359 109.361 108.332 108.938 107.282 108.938C106.226 108.938 105.2 109.361 104.457 110.104C103.71 110.851 103.286 111.878 103.286 112.933C103.286 113.984 103.71 115.011 104.457 115.758C105.2 116.501 106.227 116.928 107.282 116.928C108.332 116.928 109.359 116.501 110.106 115.758C110.849 115.011 111.277 113.984 111.277 112.933C111.277 111.878 110.849 110.851 110.106 110.104Z" fill="white"/>
<path d="M107.279 0C105.072 0 103.283 1.78874 103.283 3.99541V9.97374C103.283 12.1804 105.072 13.9691 107.279 13.9691C109.485 13.9691 111.274 12.1804 111.274 9.97374V3.99541C111.274 1.78874 109.485 0 107.279 0Z" fill="white"/>
<path d="M92.5617 13.0321L88.3705 8.84489C86.8095 7.28508 84.28 7.28628 82.7202 8.84729C81.1604 10.4083 81.162 12.9382 82.723 14.4976L86.9146 18.6848C87.6945 19.4643 88.7165 19.8538 89.7381 19.8538C90.7613 19.8538 91.7842 19.4631 92.5645 18.6824C94.1235 17.1214 94.1227 14.5915 92.5617 13.0321Z" fill="white"/>
<path d="M131.742 8.9482C130.181 7.3888 127.651 7.3896 126.092 8.951L121.933 13.1138C120.374 14.6748 120.375 17.2047 121.936 18.7641C122.716 19.5436 123.738 19.9332 124.76 19.9332C125.783 19.9332 126.806 19.5424 127.586 18.7613L131.745 14.5985C133.304 13.0375 133.303 10.5076 131.742 8.9482Z" fill="white"/>
</svg>
