<svg width="200" height="188" viewBox="0 0 200 188" fill="none" xmlns="http://www.w3.org/2000/svg">
<path d="M199.034 76.6739L194.449 72.089L148.049 118.489C147.874 118.291 147.734 118.067 147.546 117.876L120.264 90.5939L124.456 86.4013L119.872 81.8165L110.245 91.4434C105.086 96.599 97.0995 97.3123 91.156 93.5802L114.719 70.2019C114.722 70.1986 114.722 70.1954 114.726 70.1921L176.333 8.58488L171.748 4L112.436 63.3116L108.244 59.119C107.638 58.5095 106.811 58.169 105.952 58.169H94.324L88.789 52.6341L43.3942 7.23924L38.8093 11.8241L68.9418 41.9566L27.4704 83.428L4.38384 62.2643L0 67.0469L37.8593 101.748V110.049C37.8593 110.908 38.1997 111.735 38.8093 112.341L52.8331 126.365C51.5523 128.093 50.8292 130.162 50.8292 132.354C50.8292 137.814 55.1806 142.247 60.5924 142.438C60.7804 147.73 65.0281 151.977 70.3198 152.165C70.5079 157.457 74.7555 161.705 80.0473 161.893C80.2386 167.305 84.6743 171.656 90.1314 171.656C91.5095 171.656 92.8454 171.374 94.0775 170.852L94.324 171.098C96.772 173.55 100.031 174.899 103.497 174.899C106.963 174.899 110.219 173.55 112.667 171.098L147.546 136.219C149.997 133.768 151.346 130.512 151.346 127.049C151.346 126.219 151.259 125.402 151.106 124.601L199.034 76.6739ZM32.2563 87.815L73.5266 46.5414L81.9117 54.9265L41.0045 95.8337L32.2563 87.815ZM63.5203 134.925C62.8329 135.609 61.9218 135.989 60.949 135.989C58.9452 135.989 57.3142 134.358 57.3142 132.354C57.3142 131.381 57.6936 130.47 58.3777 129.783L73.8055 114.355C74.4929 113.671 75.404 113.291 76.3768 113.291C78.3806 113.291 80.0116 114.922 80.0116 116.926C80.0116 117.899 79.6322 118.81 78.9481 119.497L63.5203 134.925ZM73.2478 144.653C72.5604 145.337 71.6492 145.716 70.6765 145.716C68.6726 145.716 67.0417 144.085 67.0417 142.081C67.0417 141.109 67.421 140.197 68.1052 139.51L83.533 124.082C84.2204 123.398 85.1315 123.019 86.1042 123.019C88.1081 123.019 89.7391 124.65 89.7391 126.654C89.7391 127.626 89.3597 128.537 88.6755 129.225L73.2478 144.653ZM82.9753 154.38C82.2878 155.064 81.3767 155.444 80.404 155.444C78.4001 155.444 76.7691 153.813 76.7691 151.809C76.7691 150.836 77.1485 149.925 77.8327 149.237L93.2604 133.81C93.9478 133.126 94.859 132.746 95.8317 132.746C97.8356 132.746 99.4665 134.377 99.4665 136.381C99.4665 137.354 99.0872 138.265 98.403 138.952L82.9753 154.38ZM92.7027 164.108C92.0153 164.792 91.1042 165.171 90.1314 165.171C88.1276 165.171 86.4966 163.54 86.4966 161.536C86.4966 160.563 86.876 159.652 87.5601 158.965L102.988 143.537C103.675 142.853 104.586 142.474 105.559 142.474C107.563 142.474 109.194 144.105 109.194 146.108C109.194 147.081 108.815 147.992 108.13 148.68L92.7027 164.108ZM142.961 131.634L108.082 166.513C105.725 168.871 101.704 168.936 99.2201 166.763L112.719 153.265C114.625 151.355 115.679 148.813 115.679 146.108C115.679 140.648 111.328 136.216 105.916 136.024C105.728 130.733 101.48 126.485 96.1884 126.297C96.0003 121.005 91.7527 116.757 86.4609 116.569C86.2696 111.158 81.8339 106.806 76.3768 106.806C73.6726 106.806 71.1304 107.86 69.2206 109.77L57.3142 121.676L44.3443 108.706V101.664L86.4966 59.5114L90.6891 63.7039C91.2955 64.3135 92.1223 64.654 92.9816 64.654H104.609L107.842 67.8867L84.0096 91.5342C83.3968 92.1438 83.0498 92.9771 83.0531 93.8428C83.0563 94.7086 83.4033 95.5387 84.0193 96.145C92.5438 104.543 106.37 104.491 114.829 96.025L115.679 95.1787L142.961 122.461C144.187 123.687 144.861 125.314 144.861 127.049C144.861 128.784 144.187 130.408 142.961 131.634Z" fill="white"/>
<path d="M169.34 141.616C167.772 143.89 168.345 147.003 170.618 148.571C172.892 150.138 176.006 149.566 177.573 147.292L169.34 141.616ZM151.833 172.515C154.138 170.994 154.774 167.893 153.253 165.588C151.732 163.283 148.631 162.647 146.326 164.168L151.833 172.515ZM100.129 178C53.7375 178 16.1294 140.392 16.1294 94H6.12939C6.12939 145.915 48.2146 188 100.129 188V178ZM184.129 94C184.129 111.688 178.668 128.085 169.34 141.616L177.573 147.292C188.015 132.145 194.129 113.779 194.129 94H184.129ZM54.213 23.648C67.4075 15.0178 83.1748 10 100.129 10V0C81.1719 0 63.5112 5.61714 48.7391 15.2792L54.213 23.648ZM16.1294 94C16.1294 87.0431 16.974 80.2904 18.564 73.8359L8.85427 71.4441C7.07301 78.6751 6.12939 86.2308 6.12939 94H16.1294ZM100.129 10C119.551 10 137.421 16.5851 151.647 27.6475L157.785 19.7533C141.866 7.37446 121.852 0 100.129 0V10ZM183.351 82.5137C183.864 86.2668 184.129 90.101 184.129 94H194.129C194.129 89.6469 193.833 85.3602 193.259 81.1596L183.351 82.5137ZM146.326 164.168C133.075 172.911 117.204 178 100.129 178V188C119.221 188 136.998 182.303 151.833 172.515L146.326 164.168Z" fill="white"/>
</svg>
