<svg width="44" height="39" viewBox="0 0 44 39" fill="none" xmlns="http://www.w3.org/2000/svg">
<path d="M18.563 2.93507L1.5387 31.3558C1.1877 31.9636 1.00198 32.6528 1.00002 33.3547C0.99805 34.0566 1.17991 34.7468 1.5275 35.3566C1.87509 35.9664 2.3763 36.4746 2.98126 36.8306C3.58622 37.1865 4.27384 37.3779 4.97572 37.3856H39.0243C39.7262 37.3779 40.4138 37.1865 41.0187 36.8306C41.6237 36.4746 42.1249 35.9664 42.4725 35.3566C42.8201 34.7468 43.002 34.0566 43 33.3547C42.998 32.6528 42.8123 31.9636 42.4613 31.3558L25.437 2.93507C25.0787 2.34436 24.5742 1.85596 23.9722 1.51701C23.3701 1.17807 22.6909 1 22 1C21.3091 1 20.6299 1.17807 20.0278 1.51701C19.4258 1.85596 18.9213 2.34436 18.563 2.93507V2.93507Z" stroke="#FF5A5F" stroke-width="2" stroke-linecap="round" stroke-linejoin="round"/>
<path d="M22.0005 13.2666V21.3064" stroke="#FF5A5F" stroke-width="2" stroke-linecap="round" stroke-linejoin="round"/>
<path d="M22.0005 29.3457H22.0206" stroke="#FF5A5F" stroke-width="2" stroke-linecap="round" stroke-linejoin="round"/>
</svg>
