<svg width="120" height="120" viewBox="0 0 120 120" fill="none" xmlns="http://www.w3.org/2000/svg">
<path d="M58.875 84.5874H86.5183" stroke="#9F9F9F" stroke-width="5" stroke-linecap="round" stroke-linejoin="round"/>
<path d="M72.6974 33.9084C73.9193 32.6865 75.5766 32 77.3046 32C78.1602 32 79.0075 32.1685 79.798 32.496C80.5885 32.8234 81.3068 33.3033 81.9118 33.9084C82.5168 34.5134 82.9968 35.2317 83.3242 36.0222C83.6517 36.8127 83.8202 37.6599 83.8202 38.5156C83.8202 39.3712 83.6517 40.2185 83.3242 41.009C82.9968 41.7995 82.5168 42.5178 81.9118 43.1228L43.5183 81.5163L31.2324 84.5878L34.3039 72.3018L72.6974 33.9084Z" stroke="#9F9F9F" stroke-width="5" stroke-linecap="round" stroke-linejoin="round"/>
<circle cx="60" cy="60" r="57.5" stroke="#9F9F9F" stroke-width="5"/>
</svg>
