<svg width="40" height="37" viewBox="0 0 40 37" fill="none" xmlns="http://www.w3.org/2000/svg">
<g filter="url(#filter0_d)">
<path d="M30.1494 9.85062C29.5629 9.26392 28.8667 8.79851 28.1003 8.48097C27.334 8.16344 26.5126 8 25.6831 8C24.8535 8 24.0321 8.16344 23.2658 8.48097C22.4994 8.79851 21.8032 9.26392 21.2167 9.85062L19.9997 11.0677L18.7826 9.85062C17.5981 8.66608 15.9915 8.00061 14.3163 8.00061C12.6411 8.00061 11.0346 8.66608 9.85001 9.85062C8.66547 11.0352 8 12.6417 8 14.3169C8 15.9921 8.66547 17.5987 9.85001 18.7833L11.0671 20.0003L19.9997 28.9329L28.9323 20.0003L30.1494 18.7833C30.7361 18.1968 31.2015 17.5006 31.519 16.7342C31.8366 15.9679 32 15.1465 32 14.3169C32 13.4874 31.8366 12.666 31.519 11.8997C31.2015 11.1333 30.7361 10.4371 30.1494 9.85062V9.85062Z" fill="white"/>
</g>
<defs>
<filter id="filter0_d" x="0" y="0" width="40" height="36.9329" filterUnits="userSpaceOnUse" color-interpolation-filters="sRGB">
<feFlood flood-opacity="0" result="BackgroundImageFix"/>
<feColorMatrix in="SourceAlpha" type="matrix" values="0 0 0 0 0 0 0 0 0 0 0 0 0 0 0 0 0 0 127 0"/>
<feOffset/>
<feGaussianBlur stdDeviation="4"/>
<feColorMatrix type="matrix" values="0 0 0 0 0 0 0 0 0 0 0 0 0 0 0 0 0 0 0.22 0"/>
<feBlend mode="normal" in2="BackgroundImageFix" result="effect1_dropShadow"/>
<feBlend mode="normal" in="SourceGraphic" in2="effect1_dropShadow" result="shape"/>
</filter>
</defs>
</svg>
