<svg width="64" height="65" viewBox="0 0 64 65" fill="none" xmlns="http://www.w3.org/2000/svg">
<path d="M39.1465 26.0694L29.5254 35.1567L24.9081 30.4063C24.3962 29.8793 23.5533 29.8674 23.0268 30.3792C22.4998 30.8916 22.4878 31.734 22.9997 32.261L28.5376 37.946C29.0521 38.4636 29.8836 38.4813 30.4194 37.9856L41.0017 28.0043C41.2586 27.7619 41.4088 27.4273 41.4187 27.0744C41.4286 26.7215 41.2977 26.379 41.0548 26.1226C40.5398 25.5872 39.6907 25.5638 39.1465 26.0694Z" fill="#9F9F9F"/>
<path d="M32.0077 12.083C21.0121 12.083 12.0713 21.0238 12.0713 32.0194C12.0713 43.0156 21.0121 51.9564 32.0077 51.9564C43.0039 51.9564 51.9447 43.0156 51.9447 32.0194C51.9447 21.0238 43.0039 12.083 32.0077 12.083ZM32.0077 49.2875C22.48 49.2875 14.7402 41.5341 14.7402 32.0194C14.7402 22.5047 22.48 14.7519 32.0077 14.7519C41.5448 14.7519 49.2758 22.4828 49.2758 32.0194C49.2758 41.556 41.5448 49.2875 32.0077 49.2875Z" fill="#9F9F9F"/>
<path d="M59.4429 24.6806L59.8834 16.7672C59.9142 16.2361 59.6254 15.7372 59.1495 15.4995L52.1035 11.9366L48.5406 4.89067C48.2982 4.41892 47.8025 4.1317 47.2729 4.15672L39.346 4.58416L32.7405 0.220105C32.2953 -0.0733685 31.7183 -0.0733685 31.2726 0.220105L24.6671 4.58416L16.7542 4.14369C16.2225 4.11241 15.7242 4.4012 15.4865 4.87764L11.9231 11.9236L4.87764 15.4865C4.40537 15.7284 4.11867 16.2241 4.14369 16.7542L4.58364 24.6676L0.220106 31.2731C-0.0733685 31.7183 -0.0733685 32.2953 0.220106 32.741L4.57061 39.3595L4.13014 47.2729C4.09938 47.8041 4.38764 48.3029 4.86408 48.5406L11.9101 52.1035L15.4729 59.1495C15.7148 59.6217 16.2105 59.9084 16.7407 59.8834L24.654 59.4429L31.2595 63.8065C31.7021 64.1093 32.2849 64.1093 32.7274 63.8065L39.3329 59.4429L47.2463 59.8834C47.7775 59.9142 48.2758 59.6254 48.514 59.1495L52.0769 52.1035L59.1229 48.5406C59.5946 48.2982 59.8819 47.803 59.8568 47.2729L59.4164 39.3595L63.7799 32.754C64.0734 32.3088 64.0734 31.7313 63.7799 31.2861L59.4429 24.6806ZM56.9607 38.2654C56.798 38.5041 56.7224 38.7913 56.7475 39.0796L57.1608 46.5655L50.5022 49.9282C50.2483 50.0554 50.0424 50.2618 49.9152 50.5157L46.552 57.1744L39.0661 56.761C38.7794 56.7506 38.4963 56.8246 38.2518 56.9742L32.0065 61.098L25.7617 56.9742C25.5449 56.8277 25.2895 56.7485 25.0278 56.7475H24.9611L17.4746 57.1614L14.1119 50.5021C13.9847 50.2483 13.7788 50.0424 13.5244 49.9152L6.8522 46.5655L7.26609 39.0796C7.27651 38.7929 7.20197 38.5099 7.05237 38.2654L2.92914 32.0201L7.05237 25.7748C7.21552 25.5365 7.29111 25.2488 7.26609 24.9611L6.8522 17.4746L13.5114 14.1119C13.7653 13.9847 13.9712 13.7788 14.0983 13.525L17.4611 6.86575L24.9475 7.27964C25.2337 7.28954 25.5167 7.21552 25.7617 7.06592L32.0065 2.94269L38.2518 7.06592C38.4906 7.22908 38.7783 7.30466 39.0661 7.27964L46.552 6.86575L49.9152 13.525C50.0424 13.7788 50.2483 13.9847 50.5022 14.1119L57.1608 17.4746L56.7475 24.9611C56.737 25.2472 56.8116 25.5303 56.9607 25.7748L61.0844 32.0201L56.9607 38.2654Z" fill="#9F9F9F"/>
</svg>
