<svg width="44" height="53" viewBox="0 0 44 53" fill="none" xmlns="http://www.w3.org/2000/svg">
<path d="M42.7273 21.8636C42.7273 38.0909 21.8636 52 21.8636 52C21.8636 52 1 38.0909 1 21.8636C1 16.3303 3.19813 11.0235 7.11082 7.11082C11.0235 3.19813 16.3303 1 21.8636 1C27.397 1 32.7038 3.19813 36.6165 7.11082C40.5291 11.0235 42.7273 16.3303 42.7273 21.8636Z" stroke="black" stroke-width="2" stroke-linecap="round" stroke-linejoin="round"/>
<path d="M21.8632 28.8183C25.7041 28.8183 28.8178 25.7046 28.8178 21.8637C28.8178 18.0228 25.7041 14.9092 21.8632 14.9092C18.0223 14.9092 14.9087 18.0228 14.9087 21.8637C14.9087 25.7046 18.0223 28.8183 21.8632 28.8183Z" stroke="black" stroke-width="2" stroke-linecap="round" stroke-linejoin="round"/>
</svg>
