<svg width="120" height="23" viewBox="0 0 120 23" fill="none" xmlns="http://www.w3.org/2000/svg">
<g clip-path="url(#clip0)">
<path d="M74.6856 6.92322H84.7496C84.8025 6.92322 84.882 6.94964 84.9085 6.97607L89.146 11.204C89.2784 11.3097 89.2784 11.5211 89.146 11.6532L84.9085 15.8811C84.8555 15.9075 84.8025 15.934 84.7496 15.934H74.6856C74.4472 15.934 74.3413 15.6697 74.4737 15.4847L78.3404 11.6268C78.4198 11.5211 78.4198 11.3625 78.3404 11.2568L74.4737 7.39886C74.3413 7.21389 74.4472 6.92322 74.6856 6.92322Z" fill="#37D7D7"/>
<path d="M11.8384 20.8489L5.58817 9.03716H5.08497V22.8571H0V0H6.64754L12.0768 10.4905H12.6065L18.0358 0H24.6833V22.8571H19.5983V9.03716H19.0951L12.8448 20.8489H11.8384Z" fill="#37D7D7"/>
<path d="M33.8468 19.0256L32.5755 22.8571H27.1992C29.7947 15.0619 32.3107 7.76879 34.8796 0H42.4012C44.9701 7.76879 47.4861 15.0619 50.0816 22.8571H44.7053L43.4605 19.0256H33.8468ZM38.9052 5.46986H38.402L35.3299 14.6391H41.9774L38.9052 5.46986Z" fill="#37D7D7"/>
<path d="M57.6826 16.1982V22.8836H52.5977V0H62.6352C64.4361 0 71.1101 0.634187 71.1101 8.08588C71.1101 15.5376 64.4626 16.1982 62.6352 16.1982H57.6826ZM62.5028 11.7853C65.2571 11.7853 66.0252 9.7242 66.0252 8.08588C66.0252 6.44756 65.2571 4.41288 62.5028 4.41288H57.6826V11.7853H62.5028Z" fill="#37D7D7"/>
<path d="M93.7808 0H98.8657V22.8571H93.7808V0Z" fill="#37D7D7"/>
<path d="M120 0V4.41288H113.485V22.8571H108.4V4.41288H101.885V0H120Z" fill="#37D7D7"/>
</g>
<defs>
<clipPath id="clip0">
<rect width="120" height="22.8571" fill="white"/>
</clipPath>
</defs>
</svg>
