<svg width="451" height="515" viewBox="0 0 451 515" fill="none" xmlns="http://www.w3.org/2000/svg">
<path fill-rule="evenodd" clip-rule="evenodd" d="M311.002 63.9933C318.071 55.6962 322.855 45.528 322.056 34.1342C319.752 1.30559 274.054 8.52747 265.164 25.0965C256.275 41.6656 257.331 83.6944 268.82 86.6558C273.402 87.8368 283.162 84.9438 293.096 78.9563L286.86 123.068H323.677L311.002 63.9933Z" fill="#915B3C"/>
<path fill-rule="evenodd" clip-rule="evenodd" d="M313.832 71.3835C318.453 50.8261 331.617 36.8128 329.606 27.6245C328.266 21.499 324.694 17.6898 318.889 16.1968C315.887 4.05258 306.206 -1.11283 289.844 0.700568C265.301 3.42067 250.322 13.613 256.791 36.0404C262.737 36.0404 269.916 33.8899 279.842 37.5744C282.992 38.7435 285.245 42.369 286.6 48.4508H291.086C295.44 41.2333 299.732 38.5811 303.964 40.4941C308.196 42.4071 309.158 47.0539 306.85 54.4343L309.06 71.3835H313.832Z" fill="#191847"/>
<path fill-rule="evenodd" clip-rule="evenodd" d="M426.456 314.82H250.044C236.489 314.82 225.5 325.809 225.5 339.365V480.494C225.5 494.049 236.489 505.038 250.044 505.038H426.456C440.011 505.038 451 494.049 451 480.494V339.365C451 325.809 440.011 314.82 426.456 314.82ZM401.912 357.773C405.3 357.773 408.048 360.52 408.048 363.909V455.95C408.048 459.338 405.3 462.086 401.912 462.086H274.588C271.2 462.086 268.452 459.338 268.452 455.95V363.909C268.452 360.52 271.2 357.773 274.588 357.773H401.912Z" fill="#C5CFD6"/>
<path fill-rule="evenodd" clip-rule="evenodd" d="M73.3892 497.368C103.634 460.436 124.098 433.055 134.781 415.228C153.075 384.702 168.047 357.54 172.772 347.164C184.039 322.422 146.833 310.836 138.413 322.377C125.668 339.844 98.4502 394.809 56.7589 487.27L73.3892 497.368Z" fill="#B28B67"/>
<path fill-rule="evenodd" clip-rule="evenodd" d="M135.365 486.63L191.651 344.943C203.69 319.115 145.553 302.137 136.706 314.157C116.619 341.447 68.8784 449.099 62.894 457.229L135.365 486.63Z" fill="#2F3676"/>
<path fill-rule="evenodd" clip-rule="evenodd" d="M285.276 458.216C274.311 442.222 234.43 388.414 212.708 366.15C206.466 359.753 200.375 353.612 194.614 347.89C177.491 330.882 143.394 359.469 160.485 374.961C203.049 413.542 265.152 465.625 270.341 470.269C277.613 476.777 292.166 468.267 285.276 458.216Z" fill="#915B3C"/>
<path fill-rule="evenodd" clip-rule="evenodd" d="M282.712 450.991C286.489 454.1 288.946 456.64 290.084 458.609C291.467 461.005 293.086 464.731 294.941 469.788C292.162 471.393 267.186 485.813 220.012 513.049C214.348 507.736 213.466 503.612 217.365 500.676C221.263 497.741 224.481 495.265 227.017 493.25L252.88 457.617C253.377 456.931 254.336 456.779 255.022 457.276C255.034 457.285 255.045 457.294 255.057 457.302L260.431 461.44C265.361 461.01 269.039 460.094 271.468 458.692C273.44 457.553 275.705 455.184 278.261 451.583L278.261 451.583C279.242 450.202 281.157 449.877 282.538 450.858C282.598 450.9 282.656 450.944 282.712 450.991Z" fill="#E4E4E4"/>
<path fill-rule="evenodd" clip-rule="evenodd" d="M86.3984 491.848C88.1146 496.43 88.9727 499.858 88.9727 502.132C88.9727 504.898 88.5118 508.935 87.5901 514.242C84.3811 514.242 55.5407 514.242 1.06899 514.242C-1.17938 506.809 0.118507 502.796 4.96268 502.204C9.80684 501.611 13.831 501.076 17.0351 500.598L57.2493 482.67C58.0231 482.325 58.93 482.673 59.275 483.447C59.2809 483.46 59.2866 483.473 59.2921 483.487L61.877 489.757C66.3615 491.85 70.0055 492.896 72.8092 492.896C75.0872 492.896 78.233 491.976 82.2468 490.136L82.2468 490.136C83.7871 489.43 85.6082 490.106 86.3143 491.646C86.3447 491.713 86.3728 491.78 86.3984 491.848Z" fill="#E4E4E4"/>
<path fill-rule="evenodd" clip-rule="evenodd" d="M211.905 352.02C258.688 344.399 290.024 339.187 305.912 336.386C351.201 328.4 364.408 304.029 356.599 250.855H273.155C262.113 254.044 215.973 273.766 134.736 310.022C120.12 317.277 122.842 338.67 125.514 345.719C125.623 346.006 150.263 388.228 199.434 472.383L267.694 428.898L211.777 357.144C210.301 354.17 210.343 352.462 211.905 352.02Z" fill="#5C63AB"/>
<path fill-rule="evenodd" clip-rule="evenodd" d="M205.894 230.773L156.961 266.706C143.69 270.287 132.602 274.742 123.698 280.072C121.594 281.989 119.052 285.87 127.775 285.199C136.498 284.529 145.704 284.215 146.908 287.191C148.111 290.166 142.832 293.724 145.265 297.739C146.887 300.415 154.551 293.704 168.255 277.606L216.711 257.513L205.894 230.773ZM393.769 232.014L361.712 232.14C381.506 296.037 392.192 329.94 393.769 333.85C397.319 342.647 389.807 356.044 386.595 363.244C397.057 367.926 395.943 350.588 409.14 356.728C421.186 362.333 430.35 372.487 444.267 363.9C445.978 362.844 447.853 358.869 443.323 355.762C432.036 348.023 415.771 334.478 413.573 330.019C410.576 323.939 403.975 291.271 393.769 232.014Z" fill="#915B3C"/>
<path fill-rule="evenodd" clip-rule="evenodd" d="M302.669 97.4995L289.405 95.2243C240.188 137.74 219.973 219.418 159.646 262.686L174.167 280.685C278.823 267.727 304.763 168.099 302.669 97.4995Z" fill="#E87613"/>
<path fill-rule="evenodd" clip-rule="evenodd" d="M360.494 264.198C307.307 264.198 268.184 264.198 243.125 264.198C237.761 264.198 238.772 256.454 239.547 252.546C248.495 207.445 283.423 158.829 283.423 94.6291L317.278 89.3203C345.281 134.357 354.964 189.805 360.494 264.198Z" fill="#DDE3E9"/>
<path fill-rule="evenodd" clip-rule="evenodd" d="M359.551 133.589C364.468 132.175 368.361 128.879 371.232 123.699C383.606 101.371 379.137 89.0783 365.913 85.0375C352.689 80.9967 340.896 89.32 319.827 89.32C318.681 89.32 317.631 89.3919 316.678 89.5356L306.08 90.1403C275.672 193.196 267.286 261.953 280.921 296.412H373.3C378.773 309.175 384.011 319.913 389.013 328.626H414.184C416.553 252.028 398.342 187.016 359.551 133.589Z" fill="#FF9B21"/>
<path fill-rule="evenodd" clip-rule="evenodd" d="M353.184 243.484C350.278 267.793 345.556 285.435 339.017 296.411H373.3C366.915 281.524 360.21 263.882 353.184 243.484Z" fill="black" fill-opacity="0.1"/>
</svg>
