<svg width="426" height="533" viewBox="0 0 426 533" fill="none" xmlns="http://www.w3.org/2000/svg">
<path fill-rule="evenodd" clip-rule="evenodd" d="M165.883 60.3548C158.247 51.4719 153.079 40.5858 153.942 28.3876C156.431 -6.75889 205.799 0.972879 215.402 18.7118C225.005 36.4507 223.864 81.4469 211.453 84.6173C206.503 85.8817 195.959 82.7845 185.228 76.3743L191.963 123.6H152.191L165.883 60.3548Z" fill="#B28B67"/>
<path fill-rule="evenodd" clip-rule="evenodd" d="M206.439 7.01455C205.528 6.4757 203.622 5.3391 202.657 4.92716C202.428 4.82803 200.828 3.69687 200.785 3.71107C199.574 4.1162 196.066 5.61146 195.765 6.90352C195.718 7.00143 195.673 7.09328 195.628 7.17355C195.131 8.06899 194.675 8.9867 194.24 9.91555C193.285 11.9545 192.461 14.0856 191.674 16.1998C190.141 20.3175 188.809 24.531 187.585 28.7542C186.338 33.0533 185.28 37.4026 184.095 41.7195C182.391 47.9313 180.21 53.9906 178.517 60.1998C177.436 64.1645 176.835 68.1758 177.119 72.2563C177.122 72.3054 177.123 72.3538 177.128 72.4037C177.129 72.4241 177.132 72.4442 177.134 72.4646C177.182 73.0919 177.251 73.7207 177.343 74.3514C177.423 74.8907 177.503 75.432 177.589 75.9732C179.135 72.9178 180.316 69.5512 181.568 66.3558C181.691 66.0429 181.808 65.7278 181.922 65.4117C182.326 64.7637 182.738 64.1203 183.154 63.4794C185.78 59.4376 188.417 55.4107 190.935 51.2958C195.465 43.8949 199.952 36.3375 205.322 29.5414C206.908 27.5345 208.531 25.5584 210.096 23.535C210.987 22.3837 211.855 21.213 212.695 20.0215C213.295 19.1695 215.905 16.1998 214.96 14.4156C214.477 13.5027 208.802 8.41257 206.439 7.01455Z" fill="#2C2C2C"/>
<path fill-rule="evenodd" clip-rule="evenodd" d="M202.945 5.07556C203.831 5.37061 203.4 3.5436 202.542 2.90067C198.566 -0.0778894 183.368 -1.15875 170.142 1.56217C161.282 3.38494 150.977 7.9217 143.9 13.7541C137.521 19.012 133.133 27.4406 130.874 35.5841C128.503 44.135 128.144 53.0496 129.465 61.8181C129.755 63.7441 130.379 65.5796 130.727 67.4648C131.118 69.5878 131.319 71.6318 132.016 73.6973C132.444 74.9618 133.17 76.2014 133.534 77.4731C133.95 78.9243 133.697 80.2667 133.393 81.7427C132.899 84.1484 132.285 86.5492 131.414 88.8467C130.105 92.2969 128.517 95.5282 127.522 99.1084C126.197 103.872 120.656 119.374 124.705 123.6H201.796C199.854 118.352 194.028 112.176 192.848 106.559C192.153 103.25 191.823 96.023 191.75 95.7604C190.013 83.8924 186.621 78.225 184.496 76.1682C182.372 74.1114 179.542 73.479 179.396 71.6949C178.794 64.316 181.754 57.2458 183.925 50.3592C186.513 42.1516 188.409 33.7402 191.077 25.5604C192.258 21.9382 198.345 3.5436 202.945 5.07556Z" fill="#8991DC"/>
<path fill-rule="evenodd" clip-rule="evenodd" d="M175.917 13.5645C173.01 22.7055 172.384 27.585 173.01 40.075H171.583C168.919 28.2882 171.29 17.1922 174.124 13.5645H175.917ZM136.916 37.1553C142.334 50.1823 144.804 57.8749 159.931 68.4166L158.763 69.2272C143.746 60.7924 139.372 50.7312 135.777 37.6979L136.916 37.1553ZM159.175 23.8984C161.635 42.3889 162.354 52.9507 175.172 73.1768L173.808 73.59C160.616 55.9793 158.525 41.6056 157.901 24L159.175 23.8984ZM145.016 78.8242L146.182 77.4186C162.104 82.3607 160.33 92.564 180.383 102.897L178.707 103.903C161.148 96.7218 157.044 81.3189 145.016 78.8242Z" fill="black" fill-opacity="0.2"/>
<path fill-rule="evenodd" clip-rule="evenodd" d="M80.3082 328.891H208.334L225.109 532.538H34.5322L80.3082 328.891Z" fill="#C5CFD6"/>
<path fill-rule="evenodd" clip-rule="evenodd" d="M80.3082 328.891H119.683L143.25 532.538H34.5322L80.3082 328.891Z" fill="black" fill-opacity="0.1"/>
<path fill-rule="evenodd" clip-rule="evenodd" d="M354.292 293.999C367.942 285.876 390.844 296.312 390.828 307.93C390.781 342.689 358.772 506.507 357.101 516.863C355.43 527.219 337.527 529.954 336.485 516.897C334.826 496.121 331.744 424.197 334.827 390.907C336.1 377.165 337.471 364.078 338.821 352.402C322.024 382.462 296.049 425.5 260.893 481.515L241.808 472.874C256.795 423.939 269.084 389.393 278.675 369.234C295.097 334.718 310.496 305.16 316.977 294.748C327.171 278.37 344.916 284.085 354.292 293.999Z" fill="#B28B67"/>
<path fill-rule="evenodd" clip-rule="evenodd" d="M243.172 445.699L308.677 291.916C324.37 266.899 368.367 297.006 363.016 311.516C350.866 344.457 289.076 451.101 285.457 460.915L243.172 445.699Z" fill="#1F28CF"/>
<path fill-rule="evenodd" clip-rule="evenodd" d="M239.534 463.179C235.454 466.508 232.8 469.227 231.571 471.336C230.077 473.901 228.328 477.89 226.323 483.304C229.326 485.022 256.308 500.46 307.269 529.619C313.388 523.931 314.341 519.515 310.129 516.373C305.917 513.23 302.442 510.58 299.702 508.422L271.763 470.273C271.225 469.539 270.189 469.376 269.448 469.909C269.435 469.918 269.423 469.927 269.41 469.937L263.605 474.367C258.279 473.906 254.305 472.925 251.682 471.425C249.551 470.205 247.105 467.668 244.343 463.814L244.343 463.814C243.284 462.334 241.215 461.987 239.722 463.037C239.658 463.082 239.595 463.13 239.534 463.179Z" fill="#E4E4E4"/>
<path fill-rule="evenodd" clip-rule="evenodd" d="M332.293 508.563C330.439 513.467 329.512 517.137 329.512 519.572C329.512 522.534 330.01 526.855 331.005 532.537C334.472 532.537 365.628 532.537 424.474 532.537C426.903 524.579 425.501 520.283 420.267 519.649C415.034 519.014 410.687 518.441 407.226 517.93L363.782 498.736C362.946 498.367 361.967 498.739 361.594 499.568C361.588 499.582 361.582 499.596 361.576 499.611L358.783 506.324C353.939 508.564 350.002 509.684 346.973 509.684C344.512 509.684 341.114 508.699 336.778 506.729L336.778 506.729C335.114 505.973 333.146 506.697 332.384 508.346C332.351 508.417 332.32 508.489 332.293 508.563Z" fill="#E4E4E4"/>
<path fill-rule="evenodd" clip-rule="evenodd" d="M395.419 319.747C395.419 363.378 374.511 465.153 374.497 474.761L329.512 474.795C336.096 383.982 338.431 338.086 336.516 337.108C333.644 335.641 218.772 348.474 184.319 348.474C134.639 348.474 114.088 317.427 112.42 259.912H210.834C230.873 262.037 335.393 282.93 374.21 290.112C390.828 293.187 395.419 307.727 395.419 319.747Z" fill="#2B44FF"/>
<path fill-rule="evenodd" clip-rule="evenodd" d="M293.87 239.316L340.815 284.701C354.474 290.475 365.666 296.851 374.39 303.829C376.352 306.174 378.488 310.668 369.257 308.657C360.026 306.646 350.225 304.942 348.49 307.917C346.755 310.892 351.868 315.451 348.661 319.345C346.524 321.94 339.335 313.684 327.095 294.575L278.278 266.053L293.87 239.316ZM64.3107 198.24L100.599 198.375C72.9606 287.116 58.2893 333.579 56.5851 337.765C52.7504 347.183 60.865 361.526 64.3352 369.234C53.0331 374.246 54.2373 355.685 39.98 362.258C26.9666 368.258 17.0673 379.13 2.03217 369.936C0.183694 368.806 -1.84194 364.55 3.05225 361.224C15.2454 352.938 32.8166 338.437 35.1907 333.664C38.4283 327.154 48.1349 282.013 64.3107 198.24Z" fill="#B28B67"/>
<path fill-rule="evenodd" clip-rule="evenodd" d="M174.887 96.2246L189.217 93.7887C211.791 172.87 327.776 226.774 334.896 256.337C337.507 267.178 329.634 272.658 333.701 275.96L315.075 289.473C311.92 285.826 305.189 292.497 291.133 287.831C277.077 283.164 174.887 189.863 174.887 96.2246Z" fill="#DB2721"/>
<path fill-rule="evenodd" clip-rule="evenodd" d="M198.993 106.739C197.341 211.436 258.411 238.143 244.808 280.143C233.575 314.826 126.054 352.11 107.448 318.113C99.9168 304.351 96.4998 287.707 96.1121 269.611C91.3569 283.514 87.596 295.482 84.8295 305.516C80.0569 322.826 61.5544 325.577 61.5544 332.246L37.1778 325.577C38.8312 316.518 27.3394 312.106 30.4207 291.867C44.2264 201.182 81.32 135.448 141.701 94.6636L142.326 85.8105C142.581 82.1912 145.749 79.4624 149.401 79.7155L194.036 82.8087C197.688 83.0618 200.442 86.2009 200.186 89.8202L198.993 106.739Z" fill="#FF4133"/>
</svg>
