<svg width="404" height="472" viewBox="0 0 404 472" fill="none" xmlns="http://www.w3.org/2000/svg">
<path fill-rule="evenodd" clip-rule="evenodd" d="M171.618 92.9766C165.593 86.0393 161.516 77.5375 162.197 68.011C164.16 40.5626 203.109 46.6009 210.686 60.4545C218.262 74.3081 217.362 109.449 207.57 111.925C203.665 112.912 195.346 110.494 186.88 105.487L192.194 142.37H160.815L171.618 92.9766Z" fill="#B28B67"/>
<path fill-rule="evenodd" clip-rule="evenodd" d="M192.801 44.4876C188.665 43.8223 177.53 43.3649 175.476 43.3652C174.164 43.3652 172.742 43.6593 171.965 42.4772C171.328 41.5092 171.561 39.8721 171.371 38.7487C171.151 37.4438 170.837 36.1557 170.52 34.8708C169.619 31.2147 168.255 27.7364 166.347 24.4706C162.767 18.3437 157.522 13.5445 150.901 10.7518C143.589 7.66829 135.315 6.96222 127.45 7.58767C119.034 8.25682 111.415 10.9825 103.468 13.5474C95.8958 15.9916 87.9643 16.9537 80.0442 15.7601C72.0643 14.5577 66.0348 10.3148 59.304 6.28775C52.4135 2.16506 44.539 -0.531339 36.3932 0.088498C28.7894 0.667288 21.7812 3.74728 15.4936 7.86171C9.61087 11.7113 4.75683 16.3428 2.01636 22.8612C-0.93178 29.8732 -0.929072 37.5699 3.91897 43.7668C10.946 52.7492 23.9914 55.0721 34.8447 54.8412C41.1224 54.708 47.2878 53.5838 53.2147 51.5388C61.1189 48.8114 67.9494 44.1888 75.3441 40.4381C78.8144 38.6782 82.4014 37.2327 86.1613 36.1914C89.8099 35.1806 93.4035 34.717 96.707 36.8792C100.202 39.1666 103.333 41.4135 107.331 42.8454C111.166 44.2192 115.229 44.9876 119.315 44.9565C127.265 44.8963 135.102 42.4663 142.823 40.8386C149.12 39.5115 155.857 38.1888 162.276 39.4645C164.955 39.997 168.868 41.0961 169.835 43.827C153.552 46.7222 147.156 66.4778 151.747 80.9803C154.224 88.8079 169.118 97.9582 174.908 93.8431C178.577 91.2361 176.35 87.8136 174.908 85.5542C172.148 81.2275 171.204 75.6696 176.311 72.6573C180.717 70.0592 185.349 76.2289 185.437 76.2221C186.648 76.1285 197.111 70.3236 204.32 61.8527C211.431 62.2662 212.51 57.6661 210.812 53.9041C209.114 50.142 198.515 45.4075 192.801 44.4876Z" fill="#191847"/>
<path d="M147.742 472C203.342 472 248.415 429.793 248.415 377.728C248.415 325.663 203.342 283.457 147.742 283.457C92.1413 283.457 47.0684 325.663 47.0684 377.728C47.0684 429.793 92.1413 472 147.742 472Z" fill="#C5CFD6"/>
<path fill-rule="evenodd" clip-rule="evenodd" d="M337.987 457.455C321.235 421.083 309.12 389.411 304.257 372.701C295.931 344.089 289.596 318.912 287.995 309.51C284.178 287.089 317.363 285.784 321.75 296.926C328.389 313.791 339.979 369.202 353.905 452.899L337.987 457.455ZM143.673 343.308C159.043 337.348 212.868 318.696 238.828 313.42C246.287 311.904 253.518 310.495 260.315 309.222C280.52 305.438 290.989 341.196 271.529 343.944C223.066 350.786 154.361 357.852 148.481 358.645C140.241 359.756 134.014 347.053 143.673 343.308Z" fill="#B28B67"/>
<path fill-rule="evenodd" clip-rule="evenodd" d="M272.717 299.382L189.58 257.864V248.826H199.467C279.898 268.932 320.998 281.817 322.768 287.481C322.787 287.542 322.804 287.603 322.82 287.664C322.86 287.716 322.9 287.769 322.939 287.822C338.879 309.327 348.425 414.317 351.558 422.179L321.014 426.649C309.33 384.146 271.949 354.536 272.942 303.631C272.674 302.138 272.606 300.721 272.717 299.382Z" fill="#1F28CF"/>
<path fill-rule="evenodd" clip-rule="evenodd" d="M196.488 324.039C188.881 322.545 181.876 321.212 175.882 320.181C137.164 313.518 125.873 293.187 132.549 248.826H203.886C215.539 252.11 276.099 277.024 307.52 290.275C328.316 299.046 321.761 330.662 309.984 338.89C309.92 339.395 309.708 339.738 309.33 339.891C245.979 365.65 195.862 352.134 179.121 356.453L171.377 332.489L196.488 324.039Z" fill="#2B44FF"/>
<path fill-rule="evenodd" clip-rule="evenodd" d="M148.816 339.468C144.686 339.838 141.756 340.436 140.025 341.262C137.921 342.265 135.022 344.077 131.331 346.696C132.536 349.112 143.365 370.823 163.818 411.83C170.318 410.825 172.883 408.392 171.515 404.53C170.147 400.669 169.044 397.445 168.204 394.86L166.744 358.081C166.716 357.373 166.111 356.817 165.392 356.838C165.38 356.838 165.368 356.839 165.356 356.84L159.614 357.169C156.339 354.552 154.174 352.189 153.122 350.078C152.266 348.363 151.785 345.661 151.678 341.972L151.678 341.972C151.637 340.556 150.438 339.431 149.001 339.458C148.939 339.459 148.878 339.462 148.816 339.468Z" fill="#E4E4E4"/>
<path fill-rule="evenodd" clip-rule="evenodd" d="M330.363 450.711C328.9 454.542 328.169 457.408 328.169 459.309C328.169 461.622 328.562 464.997 329.347 469.435C332.082 469.435 356.663 469.435 403.089 469.435C405.006 463.22 403.9 459.865 399.771 459.369C395.642 458.874 392.212 458.426 389.482 458.027L355.207 443.037C354.547 442.749 353.774 443.039 353.48 443.686C353.475 443.698 353.47 443.709 353.466 443.72L351.263 448.963C347.441 450.712 344.335 451.587 341.945 451.587C340.004 451.587 337.322 450.818 333.901 449.279L333.901 449.279C332.589 448.689 331.037 449.254 330.435 450.542C330.409 450.598 330.385 450.654 330.363 450.711Z" fill="#E4E4E4"/>
<path fill-rule="evenodd" clip-rule="evenodd" d="M270.641 213.705L318.015 193.295C326.314 185.182 334.328 179.016 342.057 174.797C344.368 174.075 348.316 173.857 344.104 179.893C339.891 185.929 335.737 192.463 337.42 194.579C339.103 196.694 343.979 194.359 345.906 197.799C347.19 200.093 338.971 202.836 321.249 206.029L285.768 232.716L270.641 213.705ZM79.1111 219.326L105.903 224.541C78.9592 273.8 64.5098 299.907 62.5546 302.863C58.1556 309.513 62.26 321.701 63.7761 328.119C54.2646 330.291 58.0157 316.247 45.979 319.179C34.9925 321.855 25.6773 328.724 15.4329 319.461C14.1734 318.322 13.2514 314.762 17.5456 312.936C28.2442 308.387 44.0504 299.87 46.6134 296.563C50.1085 292.053 60.941 266.308 79.1111 219.326Z" fill="#B28B67"/>
<path fill-rule="evenodd" clip-rule="evenodd" d="M178.721 120.991L190.027 119.089C214.652 142.523 224.701 198.821 241.111 206.273C256.627 213.318 278.621 206.5 304.765 197.294L312.772 214.843C289.017 240.054 238.412 261.354 217.899 249.194C185.104 229.754 177.533 160.318 178.721 120.991Z" fill="#FF5A5F"/>
<path fill-rule="evenodd" clip-rule="evenodd" d="M129.437 260.37C174.768 260.37 208.113 260.37 229.471 260.37C234.042 260.37 233.181 253.895 232.52 250.627C224.894 212.918 195.124 172.269 195.124 118.591L166.27 114.152C142.403 151.808 134.15 198.169 129.437 260.37Z" fill="#DDE3E9"/>
<path fill-rule="evenodd" clip-rule="evenodd" d="M119.46 222.191C99.0672 258.276 81.926 284.256 68.0364 300.131L47.0684 296.102C60.575 213.927 99.6885 153.278 164.409 114.152H169.617L175.834 114.152C201.738 200.776 208.879 258.493 197.257 287.305H107.211C108.635 266.223 113.203 243.928 119.46 222.191H119.46Z" fill="#FF5A5F"/>
</svg>
