<svg width="125" height="117" viewBox="0 0 125 117" fill="none" xmlns="http://www.w3.org/2000/svg">
<path d="M114.16 112.18H106.16V40.1762H114.16C114.761 40.1762 115.33 39.9067 115.71 39.4408C116.09 38.9759 116.24 38.3646 116.12 37.7757L112.12 17.7745C111.929 16.8438 111.11 16.1748 110.16 16.1748H46.1561V2.17395C46.1561 1.06939 45.2605 0.173828 44.1559 0.173828H28.155C27.0504 0.173828 26.1549 1.06939 26.1549 2.17395V16.1748H14.1542C13.2039 16.1748 12.3845 16.8438 12.1941 17.7745L8.19384 37.7757C8.07371 38.3646 8.22411 38.9759 8.60402 39.4408C8.98392 39.9067 9.55329 40.1762 10.1539 40.1762H18.1544V112.18H2.15344C1.04888 112.18 0.15332 113.076 0.15332 114.181C0.15332 115.285 1.04888 116.181 2.15344 116.181H114.16C115.265 116.181 116.16 115.285 116.16 114.181C116.16 113.076 115.265 112.18 114.16 112.18ZM64.1571 72.1781V102.18H22.1546V88.1791H30.1551V96.1795C30.1551 97.2841 31.0507 98.1796 32.1552 98.1796H56.1567C57.2612 98.1796 58.1568 97.2841 58.1568 96.1795V72.1781C58.1568 71.0735 57.2612 70.178 56.1567 70.178H32.1552C31.0507 70.178 30.1551 71.0735 30.1551 72.1781H22.1546V64.1776H102.159V72.1781H94.1589C94.1589 71.0735 93.2634 70.178 92.1588 70.178H66.1572C65.0527 70.178 64.1571 71.0735 64.1571 72.1781ZM30.1551 84.1788H22.1546V76.1783H30.1551V84.1788ZM34.1553 94.1794V74.1782H54.1565V94.1794H34.1553ZM94.1589 76.1783H102.159V84.1788H94.1589V76.1783ZM94.1589 88.1791H102.159V102.18H94.1589V88.1791ZM30.1551 4.17407H42.1558V16.1748H30.1551V4.17407ZM15.7939 20.175H108.52L111.72 36.176H12.5945L15.7939 20.175ZM102.159 40.1762V60.1774H22.1546V52.1769H86.1584C87.263 52.1769 88.1586 51.2814 88.1586 50.1768C88.1586 49.0722 87.263 48.1767 86.1584 48.1767H22.1546V40.1762H102.159ZM22.1546 106.18H64.1571V112.18H22.1546V106.18ZM68.1574 112.18V74.1782H90.1587V112.18H68.1574ZM94.1589 112.18V106.18H102.159V112.18H94.1589Z" fill="black"/>
<path d="M122.162 112.182H120.162C119.057 112.182 118.162 113.077 118.162 114.182C118.162 115.286 119.057 116.182 120.162 116.182H122.162C123.266 116.182 124.162 115.286 124.162 114.182C124.162 113.077 123.266 112.182 122.162 112.182Z" fill="black"/>
<path d="M42.1557 30.176C43.2603 30.176 44.1558 29.2805 44.1558 28.1759C44.1558 27.0713 43.2603 26.1758 42.1557 26.1758H20.1544C19.0499 26.1758 18.1543 27.0713 18.1543 28.1759C18.1543 29.2805 19.0499 30.176 20.1544 30.176H42.1557Z" fill="black"/>
<path d="M48.1564 30.176H50.1565C51.261 30.176 52.1566 29.2805 52.1566 28.1759C52.1566 27.0713 51.261 26.1758 50.1565 26.1758H48.1564C47.0518 26.1758 46.1562 27.0713 46.1562 28.1759C46.1562 29.2805 47.0518 30.176 48.1564 30.176Z" fill="black"/>
<path d="M92.1583 52.178H96.1586C97.2631 52.178 98.1587 51.2824 98.1587 50.1779C98.1587 49.0733 97.2631 48.1777 96.1586 48.1777H92.1583C91.0538 48.1777 90.1582 49.0733 90.1582 50.1779C90.1582 51.2824 91.0538 52.178 92.1583 52.178Z" fill="black"/>
</svg>
