<svg width="99" height="87" viewBox="0 0 99 87" fill="none" xmlns="http://www.w3.org/2000/svg">
<path d="M15.2983 17.9453H21.8122V21.2022H15.2983V17.9453Z" fill="black"/>
<path d="M25.0688 17.9453H44.6104V21.2022H25.0688V17.9453Z" fill="black"/>
<path d="M15.2983 27.7148H44.6106V30.9718H15.2983V27.7148Z" fill="black"/>
<path d="M15.2983 37.4863H34.8398V40.7432H15.2983V37.4863Z" fill="black"/>
<path d="M15.2983 47.2578H44.6106V50.5147H15.2983V47.2578Z" fill="black"/>
<path d="M15.2983 57.0273H44.6106V60.2843H15.2983V57.0273Z" fill="black"/>
<path d="M15.2983 66.7988H44.6106V70.0557H15.2983V66.7988Z" fill="black"/>
<path d="M96.7207 14.6883H90.2068V9.80294C90.2068 8.90363 89.4777 8.17448 88.5784 8.17448H85.1259C84.8969 4.18921 81.8053 0.961711 77.8336 0.560957C73.8618 0.160204 70.1882 2.70467 69.1673 6.56431L68.7403 8.17448H56.0092C53.4464 8.17448 51.0332 9.38151 49.4954 11.4314C47.9576 9.38151 45.5443 8.17448 42.9815 8.17448H10.4124C9.51304 8.17448 8.7839 8.90363 8.7839 9.80294V14.6883H2.27006C1.37075 14.6883 0.641602 15.4175 0.641602 16.3168V84.7121C0.641602 85.6114 1.37075 86.3405 2.27006 86.3405H96.7207C97.62 86.3405 98.3491 85.6114 98.3491 84.7121V16.3168C98.3491 15.4175 97.62 14.6883 96.7207 14.6883ZM69.4082 52.752L65.1741 56.0709L63.6013 55.6495L61.5983 50.6599L66.0225 49.7542L69.4082 52.752ZM80.0679 16.2277L70.6232 13.6984L71.0446 12.1256L80.4902 14.6541L80.0679 16.2277ZM69.7891 16.8448L72.9355 17.6868L65.1852 46.6063L61.619 47.3362L69.7891 16.8448ZM71.0581 49.8632L68.3316 47.4467L76.0803 18.5321L79.2259 19.3749L71.0581 49.8632ZM72.3184 7.40796C73.0166 4.80306 75.6938 3.2565 78.2995 3.95385C80.9036 4.65437 82.4502 7.33083 81.7568 9.93652L81.333 11.5101L71.8883 8.98235L72.3184 7.40796ZM56.0092 11.4314H67.868L57.8007 49.0346C57.7768 49.1523 57.7609 49.2724 57.7514 49.3925C57.7641 49.6191 57.8015 49.8433 57.8627 50.062L60.8946 57.6182C61.0854 58.0937 61.4886 58.4524 61.9839 58.5851L61.1403 61.7315C60.9089 62.6006 61.4249 63.4928 62.2932 63.725C62.4308 63.7631 62.5723 63.7822 62.7155 63.7814C63.4518 63.7806 64.0966 63.2853 64.2867 62.5736L65.1303 59.4272C65.6249 59.56 66.1537 59.4519 66.5568 59.1354L72.9617 54.1085C73.1231 53.9494 73.2671 53.7737 73.3911 53.5845C73.4444 53.4755 73.4905 53.3634 73.5294 53.2489L82.8008 18.6442L84.0643 13.9218L84.7267 11.4314H86.9499V76.5698H56.0092C54.2448 76.5713 52.5289 77.1502 51.1238 78.2181V16.3168C51.1238 13.6188 53.3113 11.4314 56.0092 11.4314ZM12.0408 11.4314H42.9815C45.6795 11.4314 47.8669 13.6188 47.8669 16.3168V78.2181C46.4619 77.1502 44.746 76.5713 42.9815 76.5698H12.0408V11.4314ZM3.89852 17.9452H8.7839V78.1982C8.7839 79.0975 9.51304 79.8267 10.4124 79.8267H42.9815C45.0441 79.8354 46.8793 81.1387 47.5671 83.0836H3.89852V17.9452ZM95.0922 83.0836H51.4236C52.1114 81.1387 53.9466 79.8354 56.0092 79.8267H88.5784C89.4777 79.8267 90.2068 79.0975 90.2068 78.1982V17.9452H95.0922V83.0836Z" fill="black"/>
<path d="M38.0967 37.4863H44.6105V40.7432H38.0967V37.4863Z" fill="black"/>
</svg>
