<svg width="95" height="124" viewBox="0 0 95 124" fill="none" xmlns="http://www.w3.org/2000/svg">
<path d="M54.2926 124.001H39.9538C38.6747 124.001 37.5977 122.924 37.5977 121.645V94.3809H39.6172V121.645C39.6172 121.847 39.7518 121.981 39.9538 121.981H54.2926C54.4945 121.981 54.6291 121.847 54.6291 121.645V94.3809H56.6487V121.645C56.6487 122.924 55.5716 124.001 54.2926 124.001Z" fill="#37D7D7"/>
<path d="M92.126 95.3898H2.1216C1.17915 95.3898 0.371327 94.784 0.102055 93.9088C-0.167218 93.0337 0.102054 92.0912 0.842554 91.5527L19.355 77.7525C19.355 77.7525 19.4224 77.6852 19.4224 77.6178C19.4224 77.5505 19.3551 77.5505 19.2877 77.5505H10.6037C9.66123 77.5505 8.92073 77.012 8.58414 76.1368C8.24755 75.2617 8.51682 74.3192 9.25733 73.7807L26.0195 59.9132C26.0195 59.9132 26.0869 59.8458 26.0869 59.7785C26.0869 59.7112 26.0195 59.7112 25.9522 59.7112H19.0858C18.2106 59.7112 17.4028 59.1727 17.1336 58.3648C16.797 57.557 16.9989 56.6146 17.6048 56.0087L32.2128 42.0065C32.2128 42.0065 32.2801 41.9392 32.2128 41.8719C32.1455 41.8046 32.1455 41.7373 32.0782 41.7373H27.4332C26.6254 41.7373 25.8849 41.266 25.481 40.5255C25.1444 39.785 25.2117 38.9099 25.7503 38.2367L37.6656 24.0326C37.6656 24.0326 37.7329 23.9653 37.6656 23.8979C37.6656 23.8306 37.5983 23.8306 37.531 23.8306H35.646C34.9055 23.8306 34.165 23.4267 33.8285 22.7535C33.4245 22.0804 33.4245 21.2725 33.8285 20.5994L45.2725 1.07709C45.6765 0.403909 46.3496 0 47.0901 0C47.8306 0 48.5711 0.403909 48.9077 1.07709L60.2172 20.6667C60.6211 21.3399 60.6211 22.1477 60.2172 22.8209C59.8133 23.494 59.1401 23.8979 58.3996 23.8979H56.5147C56.5147 23.8979 56.4474 23.8979 56.38 23.9653C56.38 24.0326 56.38 24.0999 56.38 24.0999L68.2954 38.304C68.8339 38.9772 68.9685 39.785 68.5646 40.5928C68.228 41.3333 67.4875 41.8046 66.6124 41.8046H61.9674C61.9674 41.8046 61.9001 41.8046 61.8328 41.8719C61.7655 41.9392 61.8328 42.0065 61.8328 42.0065L76.4408 56.0087C77.0467 56.6146 77.2487 57.557 76.9121 58.3648C76.5755 59.1727 75.835 59.7112 74.9599 59.7112H68.0934C68.0934 59.7112 68.0261 59.7112 67.9588 59.7785C67.8914 59.8458 67.9588 59.9132 68.0261 59.9132L84.7883 73.7807C85.4615 74.3866 85.7308 75.2617 85.4615 76.1368C85.1249 77.012 84.3844 77.5505 83.4419 77.5505H74.8252C74.8252 77.5505 74.7579 77.5505 74.6906 77.6178C74.6906 77.6852 74.6906 77.7525 74.7579 77.7525L93.2704 91.5527C94.0109 92.0912 94.2802 93.0337 94.0109 93.9088C93.8763 94.784 93.0684 95.3898 92.126 95.3898ZM47.0901 2.01954C47.0228 2.01954 47.0228 2.08686 47.0228 2.08686L35.7134 21.6764C35.7134 21.6764 35.7134 21.7438 35.7134 21.8111C35.7134 21.8784 35.7807 21.8784 35.7807 21.8784H37.6656C38.4734 21.8784 39.2139 22.3496 39.6178 23.0901C39.9544 23.8306 39.8871 24.7058 39.3485 25.3789L27.3659 39.5831C27.3659 39.5831 27.2986 39.6504 27.3659 39.7177C27.3659 39.785 27.4332 39.785 27.5005 39.785H32.1455C33.0206 39.785 33.8285 40.3236 34.0977 41.1314C34.4343 41.9392 34.2324 42.8817 33.6265 43.4875L19.0185 57.4224C19.0185 57.4224 18.9511 57.4897 19.0185 57.557C19.0858 57.6243 19.0858 57.6243 19.1531 57.6243H26.0195C26.962 57.6243 27.7025 58.1629 28.0391 59.038C28.3757 59.9132 28.1064 60.8556 27.3659 61.3942L10.6037 75.2617C10.6037 75.2617 10.5364 75.329 10.5364 75.3963C10.5364 75.4637 10.6037 75.4636 10.671 75.4636H19.2877C20.2302 75.4636 21.038 76.0695 21.3073 76.9446C21.5765 77.8198 21.3073 78.7622 20.5668 79.3008L2.05428 93.1683C2.05428 93.1683 1.98696 93.2356 1.98696 93.303C1.98696 93.3703 2.05428 93.3703 2.1216 93.3703H92.126C92.126 93.3703 92.1933 93.3703 92.2606 93.303C92.2606 93.2356 92.2606 93.1683 92.1933 93.1683L73.6808 79.3681C72.9403 78.8296 72.671 77.8871 72.9403 77.012C73.2096 76.1368 74.0174 75.531 74.9599 75.531H83.5766C83.5766 75.531 83.6439 75.531 83.7112 75.4636C83.7785 75.3963 83.7112 75.329 83.6439 75.329L66.949 61.3942C66.2758 60.7883 66.0065 59.9132 66.2758 59.038C66.6124 58.1629 67.3529 57.6243 68.2954 57.6243H75.1618C75.1618 57.6243 75.2291 57.6243 75.2964 57.557C75.3638 57.4897 75.2964 57.4224 75.2964 57.4224L60.6211 43.4202C60.0152 42.8143 59.8133 41.8719 60.1499 41.0641C60.4865 40.2563 61.227 39.7177 62.1021 39.7177H66.747C66.747 39.7177 66.8144 39.7177 66.8817 39.6504C66.8817 39.5831 66.8817 39.5158 66.8817 39.5158L54.9664 25.3789C54.4278 24.7058 54.2932 23.8979 54.6971 23.0901C55.0337 22.3496 55.7742 21.8784 56.6493 21.8784H58.5342C58.5342 21.8784 58.6015 21.8784 58.6015 21.8111C58.6015 21.7438 58.6015 21.7438 58.6015 21.6764L47.2248 2.08686C47.2248 2.08686 47.1575 2.01954 47.0901 2.01954Z" fill="#37D7D7"/>
<path d="M43.0565 31.1808L38.7739 36.2871L40.3213 37.5849L44.6039 32.4785L43.0565 31.1808Z" fill="#37D7D7"/>
<path d="M48.4237 10.8809L46.6748 11.8906L50.7476 18.9446L52.4965 17.9349L48.4237 10.8809Z" fill="#37D7D7"/>
<path d="M55.3487 79.9062L54.1392 81.5234L63.627 88.6192L64.8365 87.002L55.3487 79.9062Z" fill="#37D7D7"/>
<path d="M40.9702 64.7368L32.7349 71.5742L34.0249 73.1281L42.2603 66.2906L40.9702 64.7368Z" fill="#37D7D7"/>
<path d="M38.8031 75.6723L22.0376 88.2129L23.2473 89.8301L40.0128 77.2895L38.8031 75.6723Z" fill="#37D7D7"/>
<path d="M47.0137 27.3661L45.4663 28.6641L52.1292 36.6073L53.6766 35.3093L47.0137 27.3661Z" fill="#37D7D7"/>
<path d="M49.3745 43.3397L37.6724 54.5762L39.0711 56.0329L50.7732 44.7963L49.3745 43.3397Z" fill="#37D7D7"/>
<path d="M46.8882 57.8758L45.5981 59.4297L67.1447 77.3189L68.4348 75.765L46.8882 57.8758Z" fill="#37D7D7"/>
<path d="M45.0029 94.3809H42.9834V122.991H45.0029V94.3809Z" fill="#37D7D7"/>
<path d="M51.062 112.018H49.0425V122.99H51.062V112.018Z" fill="#37D7D7"/>
<path d="M51.062 94.3809H49.0425V107.844H51.062V94.3809Z" fill="#37D7D7"/>
</svg>
