<svg width="329" height="631" viewBox="0 0 329 631" fill="none" xmlns="http://www.w3.org/2000/svg">
<path fill-rule="evenodd" clip-rule="evenodd" d="M137.294 87.376C132.717 77.7491 130.771 66.9329 134.41 56.3724C144.895 25.9444 186.236 44.3334 190.439 62.235C194.642 80.1367 183.007 119.571 171.404 119.461C166.777 119.417 158.29 114.213 150.422 106.043L145.146 149.29L110.368 139.972L137.294 87.376Z" fill="#D4A181"/>
<path fill-rule="evenodd" clip-rule="evenodd" d="M149.915 88.4207C143.385 95.5432 135.75 100.179 129.791 98.5823C118.473 95.5495 114.48 78.2609 118.839 61.991C118.992 61.4194 119.156 60.8546 119.329 60.297C105.155 65.3049 91.5882 79.0272 75.7462 74.7823C54.1933 69.0073 57.2821 23.2414 87.3946 31.31C107.873 36.7972 117.147 42.4822 124.645 49.2236C127.651 44.8554 131.349 41.4966 135.301 39.5179C136.301 38.8592 137.7 38.3475 139.424 37.9876C140.489 37.7284 141.561 37.572 142.632 37.5253C148.383 37.0041 156.33 37.679 164.88 39.653C166.477 40.0216 168.035 40.4216 169.545 40.8481C171.708 32.8727 179.918 28.1455 187.906 30.2858C195.909 32.4302 200.659 40.6564 198.514 48.6594C196.44 56.3991 188.678 61.0957 180.931 59.4568C176.201 59.6343 170.322 59.1199 163.984 57.8692C163.979 60.3042 163.616 62.9746 162.834 65.8927C162.144 68.4694 161.127 71.1259 159.86 73.7602C158.94 71.7935 157.415 70.2624 155.582 69.7713C150.456 68.3978 145.758 71.6587 144.558 76.1361C143.036 81.8187 145.215 86.8087 149.915 88.4207Z" fill="#191847"/>
<path fill-rule="evenodd" clip-rule="evenodd" d="M66.0088 272.591L120.962 461.957L146.81 604.135H172.753L146.856 272.591H66.0088Z" fill="#BA8B72"/>
<path fill-rule="evenodd" clip-rule="evenodd" d="M41.3127 272.591C45.1471 370.966 43.6349 424.622 42.7767 433.559C41.9185 442.497 37.0464 502.356 3.84668 607.135H30.8296C74.7972 506.617 90.1459 446.758 95.1886 433.559C100.231 420.36 115.125 366.704 136.869 272.591H41.3127Z" fill="#D4A181"/>
<path fill-rule="evenodd" clip-rule="evenodd" d="M64.8291 272.591C79.1234 337.752 103.846 441.766 138.998 584.632H176.942C179.745 437.994 167.823 341.481 147.176 272.591H64.8291Z" fill="#69A1AC"/>
<path fill-rule="evenodd" clip-rule="evenodd" d="M41.1209 272.591C44.8763 370.966 35.144 467.883 4.99707 586.164H45.4818C89.5302 487.146 121.101 390.707 142.678 272.591H41.1209Z" fill="#89C5CC"/>
<path fill-rule="evenodd" clip-rule="evenodd" d="M0 626.638L1.48883 602.635C10.2057 605.184 21.1238 604.184 34.2431 599.634C48.3495 609.627 66.1076 616.449 87.5174 620.103C89.1509 620.382 90.2491 621.932 89.9703 623.566C89.9522 623.671 89.9285 623.776 89.8993 623.879L87.841 631.138H34.2431H2.97766L0 626.638Z" fill="#191847"/>
<path fill-rule="evenodd" clip-rule="evenodd" d="M141.019 626.638L142.507 602.635C151.224 605.184 162.142 604.184 175.262 599.634C189.368 609.627 207.126 616.449 228.536 620.103C230.169 620.382 231.268 621.932 230.989 623.566C230.971 623.671 230.947 623.776 230.918 623.879L228.86 631.138H175.262H143.996L141.019 626.638Z" fill="#191847"/>
<path fill-rule="evenodd" clip-rule="evenodd" d="M173.35 188.256L229.583 169.212C239.896 160.589 249.685 154.205 258.949 150.062C261.665 149.452 266.2 149.593 260.77 156.205C255.339 162.816 249.924 170.015 251.633 172.648C253.341 175.281 259.153 173.049 261.004 177.249C262.238 180.05 252.563 182.425 231.98 184.373L188.703 211.92L173.35 188.256ZM249.486 226.114L274.194 217.712C279.475 206.243 284.32 200.858 288.729 201.557C292.383 200.582 283.822 214.741 290.456 214.552C297.09 214.363 314.762 205.498 317.038 208.332C320.406 212.525 314.965 222.616 309.84 227.21C300.263 235.795 293.187 238.061 276.397 239.702C267.618 240.559 257.747 243.64 246.783 248.945L249.486 226.114Z" fill="#D4A181"/>
<path fill-rule="evenodd" clip-rule="evenodd" d="M149.478 177.595C167.473 180.573 192.094 181.003 220.512 169.286L226.602 193.439C205.888 207.825 178.566 217.829 157 213.398C140.005 209.907 134.918 187.708 149.478 177.595Z" fill="#2026A2"/>
<path fill-rule="evenodd" clip-rule="evenodd" d="M167.335 217.755C185.565 225.873 218.531 225.903 266.232 217.846C273.304 242.842 275.555 260.17 272.986 269.83C230.934 283.154 196.351 286.303 169.058 282.101C167.077 298.386 162.407 313.391 153.337 326.254C134.691 352.699 59.9895 311.991 32.3626 312.54C25.2171 255.29 61.4376 238.923 67.5901 204.182C74.3278 166.137 115.207 112.957 119.702 113.749L160.695 120.978C157.833 150.436 163.571 184.469 167.335 217.755Z" fill="#1F28CF"/>
</svg>
