<svg width="352" height="529" viewBox="0 0 352 529" fill="none" xmlns="http://www.w3.org/2000/svg">
<path fill-rule="evenodd" clip-rule="evenodd" d="M193.337 49.4571C199.471 42.257 203.623 33.4331 202.929 23.5458C200.93 -4.94246 161.274 1.32459 153.56 15.703C145.846 30.0814 146.762 66.5535 156.732 69.1233C160.708 70.1481 169.178 67.6377 177.798 62.4418L172.387 100.721H204.336L193.337 49.4571Z" fill="#B28B67"/>
<mask id="mask0" mask-type="alpha" maskUnits="userSpaceOnUse" x="151" y="0" width="75" height="140">
<path d="M157.79 10.7902C157.078 11.0294 157.79 7.96743 159.492 6.84763C164.711 3.41371 180.248 -1.6686 190.872 0.536866C197.99 2.01432 206.866 5.72285 212.551 10.4503C217.675 14.7121 222.338 22.2255 224.153 28.8263C226.058 35.7573 226.778 45.4013 224.153 51.4483C221.026 58.6497 209.953 66.4111 209.66 67.4419C209.326 68.6181 210.635 73.2135 211.593 78.0556C212.551 82.8977 212.115 95.2263 211.593 97.2372C210.759 100.45 206.286 102.03 204.336 102.263C193.553 103.548 185.736 116.934 182.483 120.359C168.003 134.897 157.897 141.22 152.165 139.326C150.657 138.828 152.918 120.764 154.426 113.022C155.935 105.279 170.73 91.4624 171.677 86.9091C172.235 84.2268 172.329 79.5575 172.387 79.3447C173.782 69.725 173.542 68.9431 175.577 65.0232C177.613 61.1033 179.191 60.8732 178.702 59.7314C176.312 54.1522 168.624 37.0815 166.88 31.4996C164.802 24.8468 165.784 27.0319 163.641 20.4017C162.693 17.4657 161.485 9.54846 157.79 10.7902Z" fill="white"/>
</mask>
<g mask="url(#mask0)">
<path d="M157.79 10.7902C157.078 11.0294 157.79 7.96743 159.492 6.84763C164.711 3.41371 180.248 -1.6686 190.872 0.536866C197.99 2.01432 206.866 5.72285 212.551 10.4503C217.675 14.7121 222.338 22.2255 224.153 28.8263C226.058 35.7573 226.778 45.4013 224.153 51.4483C221.026 58.6497 209.953 66.4111 209.66 67.4419C209.326 68.6181 210.635 73.2135 211.593 78.0556C212.551 82.8977 212.115 95.2263 211.593 97.2372C210.759 100.45 206.286 102.03 204.336 102.263C193.553 103.548 185.736 116.934 182.483 120.359C168.003 134.897 157.897 141.22 152.165 139.326C150.657 138.828 152.918 120.764 154.426 113.022C155.935 105.279 170.73 91.4624 171.677 86.9091C172.235 84.2268 172.329 79.5575 172.387 79.3447C173.782 69.725 173.542 68.9431 175.577 65.0232C177.613 61.1033 179.191 60.8732 178.702 59.7314C176.312 54.1522 168.624 37.0815 166.88 31.4996C164.802 24.8468 165.784 27.0319 163.641 20.4017C162.693 17.4657 161.485 9.54846 157.79 10.7902Z" fill="#89C5CC"/>
<path fill-rule="evenodd" clip-rule="evenodd" d="M185.28 11.5312C187.615 18.9406 188.117 22.8957 187.615 33.0196H188.761C190.9 23.4657 188.996 14.4717 186.72 11.5312H185.28ZM216.608 30.653C212.256 41.2121 210.272 47.4474 198.12 55.9921L199.059 56.6491C211.122 49.8123 214.635 41.657 217.523 31.0928L216.608 30.653ZM198.728 19.9075C196.752 34.8952 196.175 43.4561 185.878 59.8505L186.974 60.1854C197.571 45.9109 199.25 34.2602 199.751 19.9899L198.728 19.9075ZM210.102 64.4281L209.165 63.2887C196.376 67.2946 197.8 75.5649 181.692 83.9405L183.038 84.7561C197.143 78.9351 200.44 66.4502 210.102 64.4281Z" fill="black" fill-opacity="0.2"/>
</g>
<path fill-rule="evenodd" clip-rule="evenodd" d="M230.004 210.882C227.604 243.642 72.9729 340.092 72.0707 342.799C71.6697 344.001 87.7133 382.021 120.202 456.858L106.684 462.11C56.8531 382.853 33.2171 339.002 35.7766 330.556C39.4411 318.465 79.4332 278.69 155.753 211.23L230.004 210.882Z" fill="#B28B67"/>
<path fill-rule="evenodd" clip-rule="evenodd" d="M116.644 439.956L94.5756 447.99C48.0403 395.484 29.7998 352.162 33.1257 330.089C35.343 315.374 75.1971 275.665 152.688 210.962L231.587 210.962C228.895 286.83 85.5711 343.087 83.6541 346.32C81.737 349.553 100.603 381.217 116.644 439.956Z" fill="#2F3676"/>
<path fill-rule="evenodd" clip-rule="evenodd" d="M125.174 454.277C127.933 457.504 129.651 460.045 130.326 461.899C131.147 464.155 131.969 467.583 132.792 472.185C130.176 473.137 106.658 481.697 62.2386 497.864C58.199 492.47 58.0663 488.813 61.8406 486.892C65.6149 484.971 68.7376 483.34 71.2086 481.999L98.6804 455.445C99.209 454.934 100.052 454.948 100.563 455.477C100.571 455.486 100.58 455.495 100.589 455.504L104.558 459.85C108.835 460.225 112.117 459.997 114.404 459.165C116.261 458.489 118.554 456.805 121.28 454.113L121.28 454.113C122.327 453.08 124.013 453.091 125.046 454.137C125.09 454.183 125.133 454.229 125.174 454.277Z" fill="#E4E4E4"/>
<path fill-rule="evenodd" clip-rule="evenodd" d="M212.223 210.882L281.107 376.252L348.81 516.059H332.836L158.079 210.882H212.223Z" fill="#997659"/>
<path fill-rule="evenodd" clip-rule="evenodd" d="M349.766 509.605C351.255 513.58 352 516.555 352 518.529C352 520.929 351.6 524.432 350.8 529.038C348.015 529.038 322.988 529.038 275.718 529.038C273.767 522.587 274.894 519.105 279.097 518.591C283.301 518.076 286.793 517.612 289.574 517.198L324.471 501.64C325.142 501.341 325.929 501.642 326.229 502.314C326.234 502.325 326.239 502.337 326.244 502.349L328.487 507.79C332.378 509.606 335.541 510.514 337.974 510.514C339.95 510.514 342.68 509.715 346.163 508.118L346.163 508.118C347.5 507.506 349.08 508.093 349.693 509.429C349.719 509.487 349.744 509.545 349.766 509.605Z" fill="#E4E4E4"/>
<path fill-rule="evenodd" clip-rule="evenodd" d="M342.697 487.016L307.205 493.672C279.762 453.326 164.913 287.894 152.321 210.882H231.335C273.387 266.554 316.539 446.002 342.697 487.016Z" fill="#5C63AB"/>
<path fill-rule="evenodd" clip-rule="evenodd" d="M101.153 74.407L50.6961 59.2601C41.2833 51.9326 32.4048 46.5751 24.0607 43.1875C21.6339 42.7308 17.6163 42.9961 22.6368 48.6912C27.6573 54.3864 32.682 60.6027 31.2486 62.9907C29.8151 65.3787 24.5924 63.5785 23.0808 67.3613C22.0731 69.8831 30.726 71.6893 49.0395 72.7798L88.2711 95.8682L101.153 74.407ZM105.612 163.367L63.1493 194.549C51.6325 197.656 42.0106 201.523 34.2836 206.148C32.4583 207.811 30.2523 211.179 37.8221 210.597C45.3919 210.015 53.3804 209.743 54.4249 212.325C55.4693 214.907 50.8885 217.995 52.9999 221.479C54.4074 223.801 61.0574 217.978 72.9497 204.008L114.999 186.571L105.612 163.367Z" fill="#B28B67"/>
<path fill-rule="evenodd" clip-rule="evenodd" d="M171.568 79.3932C148.444 122.51 115.006 155.562 66.5302 189.921L84.8852 210.617C139.011 190.503 167.577 178.367 181.605 137.63C185.126 127.406 187.587 94.8139 189.698 77.6654L171.568 79.3932Z" fill="#2026A2"/>
<path fill-rule="evenodd" clip-rule="evenodd" d="M236.212 223.047H133.71C156.928 152.234 168.789 103.633 169.292 77.2431C169.318 75.8977 171.803 73.5269 172.902 73.8374C180.941 76.1078 189.544 75.2589 198.71 71.2905C223.01 110.372 231.413 158.49 236.212 223.047Z" fill="#F2F2F2"/>
<path fill-rule="evenodd" clip-rule="evenodd" d="M189.963 71.3544C160.581 71.595 112.911 76.9604 57.9342 59.3105L52.5065 86.4317C94.0574 113.155 136.131 133.856 172.998 130.917C156.989 199.588 157.727 255.803 193.071 255.803C209.949 255.803 228.167 255.803 247.725 255.803C256.405 197.467 233.592 116.583 212.442 75.7862C211.634 74.2283 209.915 71.2913 205.864 71.2913C202.335 71.2913 197.042 71.2913 189.983 71.2913C189.976 71.3123 189.97 71.3334 189.963 71.3544Z" fill="#1F28CF"/>
</svg>
