<svg width="327" height="469" viewBox="0 0 327 469" fill="none" xmlns="http://www.w3.org/2000/svg">
<path fill-rule="evenodd" clip-rule="evenodd" d="M109.815 69.9529C103.431 62.4593 99.1103 53.2757 99.8323 42.9853C101.913 13.3356 143.186 19.8581 151.215 34.8227C159.243 49.7873 158.289 87.7463 147.913 90.4209C143.775 91.4875 134.96 88.8747 125.988 83.467L131.619 123.307H98.3682L109.815 69.9529Z" fill="#B28B67"/>
<path fill-rule="evenodd" clip-rule="evenodd" d="M85.3344 33.115C84.2604 32.0507 83.6746 30.5316 83.1678 29.0892C82.6415 27.5908 82.1302 26.0769 81.7808 24.5173C81.0826 21.4011 81.0759 17.8173 83.299 15.3976C85.0819 13.4572 87.757 12.5868 90.226 12.3977C91.8709 12.2716 93.5603 12.5019 95.1371 13.0203C96.7015 13.5345 98.05 14.5594 99.5667 15.1955C99.6245 11.8373 100.2 8.32347 101.903 5.45608C103.543 2.69719 106.157 1.149 109.133 0.739411C112.189 0.319071 115.206 1.03402 117.941 2.51314C118.626 2.88358 119.304 3.27166 119.953 3.71089C120.497 4.0787 121.062 4.52165 121.7 4.67123C122.411 4.83818 122.764 4.42749 123.226 3.90872C123.768 3.30047 124.378 2.76474 125.024 2.28981C127.88 0.190169 131.628 -0.673122 134.938 0.58542C136.462 1.16527 137.945 2.15002 138.98 3.50699C139.902 4.71659 140.559 6.63535 141.832 7.4781C142.372 7.83585 142.754 7.36188 143.245 7.01158C143.984 6.48522 144.688 5.90441 145.436 5.39239C146.486 4.67303 147.623 4.13495 148.84 3.8533C150.622 3.44095 153.085 3.5376 153.595 5.87187C153.786 6.74868 153.639 7.68641 153.578 8.56983C153.493 9.78288 153.404 10.9955 153.299 12.2068C153.219 13.1264 153.118 14.0147 152.944 14.9178C152.852 15.3992 152.562 16.2967 152.769 16.7788C153.027 17.3814 154.217 17.0388 154.726 17.0598C155.731 17.1013 156.74 17.2775 157.669 17.7068C158.389 18.0396 159.145 18.529 159.449 19.3542C159.636 19.8611 159.587 20.3818 159.499 20.9034C159.393 21.5293 159.514 21.8612 159.593 22.4928C160.942 21.8283 165.619 20.3519 166.207 22.7703C166.403 23.5755 165.957 24.4854 165.616 25.1645C165.019 26.3557 164.237 27.4444 163.437 28.4826C161.768 30.6486 159.776 32.5167 157.632 34.1144C160.143 35.2309 160.799 38.5243 158.625 40.4865C157.664 41.3528 156.374 41.5457 155.162 41.4903C154.719 41.47 154.08 41.2996 153.731 41.3768C153.544 41.4183 153.343 41.5774 153.083 41.5952C151.374 41.7122 149.444 41.3005 147.773 40.9212C144.796 40.2454 141.978 38.8349 139.676 36.6868C139.086 36.1357 138.598 35.8185 137.803 35.8266C137.107 35.8337 136.424 36.0246 135.728 36.0423C133.887 36.0893 132.227 35.1893 130.518 34.5903C130.413 36.8996 129.755 39.443 128.811 41.5206C128.04 43.2148 126.432 43.461 124.851 43.6096C119.796 44.0853 114.723 43.5545 109.662 43.5615C114.561 44.669 119.624 45.1254 124.48 46.4286C126.675 47.0176 124.999 48.497 124.061 49.5225C122.515 51.2113 121.366 53.3038 120.569 55.5082C118.172 52.384 113.936 50.3254 110.183 51.2852C106.036 52.3455 103.116 57.9536 105.767 61.9854C107.307 64.3259 110.087 65.2294 112.401 66.235C110.596 68.1113 110.159 70.8824 109.073 73.2167C108.537 74.3679 107.785 75.6694 106.587 76.0706C106.144 76.2191 105.624 76.2318 105.275 76.5931C104.841 77.0405 104.738 77.5406 104.185 77.9251C101.978 79.4598 98.5297 79.3415 96.5731 77.3388C94.8037 75.5276 95.2641 72.6614 96.7418 70.8251C94.3895 69.8446 90.1041 68.5836 91.0389 64.919C85.9419 64.5805 73.5665 56.314 80.4075 50.2735C76.6531 48.1516 73.2039 42.9661 75.6155 38.395C77.4725 34.8751 81.7911 33.3017 85.3344 33.115Z" fill="#191847"/>
<path fill-rule="evenodd" clip-rule="evenodd" d="M38.2703 296.489H145.304L159.329 468.287H0L38.2703 296.489Z" fill="#C5CFD6"/>
<path fill-rule="evenodd" clip-rule="evenodd" d="M38.2703 296.489H71.1892L90.8919 468.287H0L38.2703 296.489Z" fill="black" fill-opacity="0.1"/>
<path fill-rule="evenodd" clip-rule="evenodd" d="M267.33 267.056C278.742 260.203 297.888 269.007 297.875 278.808C297.836 308.131 271.076 446.328 269.678 455.065C268.281 463.801 253.314 466.108 252.442 455.093C251.055 437.566 248.479 376.892 251.057 348.808C252.121 337.215 253.267 326.175 254.395 316.325C240.353 341.683 218.636 377.99 189.245 425.245L173.289 417.956C185.819 376.674 196.093 347.53 204.111 330.525C217.841 301.407 230.715 276.471 236.133 267.688C244.656 253.871 259.491 258.692 267.33 267.056Z" fill="#B28B67"/>
<path fill-rule="evenodd" clip-rule="evenodd" d="M174.429 395.032L229.193 265.3C242.313 244.196 279.096 269.594 274.622 281.834C264.465 309.624 212.806 399.589 209.78 407.868L174.429 395.032Z" fill="#1F28CF"/>
<path fill-rule="evenodd" clip-rule="evenodd" d="M171.389 409.776C167.978 412.584 165.758 414.878 164.731 416.657C163.482 418.82 162.02 422.186 160.344 426.753C162.854 428.202 185.412 441.226 228.018 465.824C233.133 461.026 233.93 457.301 230.409 454.65C226.887 451.999 223.981 449.763 221.691 447.943L198.333 415.76C197.883 415.141 197.017 415.003 196.398 415.453C196.387 415.46 196.377 415.468 196.366 415.476L191.513 419.213C187.06 418.825 183.738 417.997 181.545 416.731C179.763 415.703 177.718 413.562 175.409 410.311L175.409 410.311C174.523 409.063 172.794 408.769 171.546 409.655C171.492 409.694 171.44 409.734 171.389 409.776Z" fill="#E4E4E4"/>
<path fill-rule="evenodd" clip-rule="evenodd" d="M248.938 448.063C247.388 452.201 246.613 455.297 246.613 457.351C246.613 459.849 247.029 463.495 247.862 468.288C250.76 468.288 276.808 468.288 326.005 468.288C328.035 461.575 326.863 457.951 322.488 457.415C318.113 456.88 314.479 456.397 311.585 455.965L275.265 439.774C274.566 439.462 273.747 439.776 273.435 440.475C273.43 440.487 273.425 440.499 273.42 440.511L271.085 446.174C267.035 448.064 263.744 449.009 261.212 449.009C259.154 449.009 256.313 448.178 252.688 446.516L252.688 446.516C251.297 445.878 249.652 446.489 249.014 447.88C248.987 447.94 248.961 448.001 248.938 448.063Z" fill="#E4E4E4"/>
<path fill-rule="evenodd" clip-rule="evenodd" d="M301.714 288.777C301.714 325.584 284.234 411.442 284.223 419.547L246.613 419.576C252.118 342.966 254.07 304.248 252.469 303.423C250.068 302.185 154.031 313.011 125.228 313.011C83.6933 313.011 66.5114 286.819 65.1172 238.3H147.395C164.148 240.092 251.53 257.717 283.982 263.776C297.876 266.37 301.714 278.637 301.714 288.777Z" fill="#2B44FF"/>
<path fill-rule="evenodd" clip-rule="evenodd" d="M160.213 151.986L208.302 125.648C216.299 116.151 224.178 108.776 231.94 103.522C234.312 102.532 238.459 101.933 234.58 108.817C230.702 115.701 226.932 123.117 228.908 125.237C230.884 127.358 235.811 124.396 238.168 127.919C239.74 130.269 231.322 133.98 212.914 139.053L177.971 171.047L160.213 151.986ZM235.53 174.208L256.653 162.604C259.617 151.326 263.16 145.652 267.282 145.581C270.449 144.108 264.934 158.359 270.937 157.123C276.94 155.887 291.592 144.99 294.116 147.203C297.851 150.476 294.521 160.526 290.597 165.526C283.263 174.87 277.191 178.066 262.184 182.25C254.337 184.438 245.853 188.824 236.733 195.407L235.53 174.208Z" fill="#997659"/>
<path fill-rule="evenodd" clip-rule="evenodd" d="M136.792 146.119C153.636 145.941 176.098 142.384 200.064 127.171L209.476 148.16C192.945 164.567 169.7 178.046 149.375 177.476C133.358 177.026 125.172 157.652 136.792 146.119Z" fill="#2026A2"/>
<path fill-rule="evenodd" clip-rule="evenodd" d="M159.472 179.78C177.354 184.239 207.341 178.98 249.433 164.002C259.874 185.602 264.7 201.001 263.912 210.199C227.804 229.061 196.855 237.47 171.358 238.025C172.168 253.154 170.327 267.55 164.141 280.704C151.423 307.746 76.9549 282.702 51.9163 287.631C36.2364 236.709 66.554 216.014 66.5783 183.431C66.6051 147.749 95.256 92.8262 99.4714 92.8262H137.914C140.035 120.077 150.711 150.11 159.472 179.78Z" fill="#1F28CF"/>
</svg>
