<svg width="322" height="556" viewBox="0 0 322 556" fill="none" xmlns="http://www.w3.org/2000/svg">
<path fill-rule="evenodd" clip-rule="evenodd" d="M195.665 61.531C202.902 56.4111 208.636 49.1025 210.083 39.2705C214.253 10.9419 175.995 4.8546 165.767 16.4724C155.539 28.0903 148.671 63.8533 157.411 69.4164C160.897 71.635 169.316 71.795 178.444 69.3888L165.301 104.966L195.054 114.782L195.665 61.531Z" fill="#B28B67"/>
<path fill-rule="evenodd" clip-rule="evenodd" d="M185.002 33.756C180.178 50.0086 175.375 57.3667 170.596 55.8303C163.426 53.5256 158.43 46.698 155.284 45.6867C152.991 44.9496 152.817 48.1861 153.828 50.9524C154.663 53.2347 160.366 57.0092 159.715 59.9224C159.065 62.8357 154.742 59.0307 154.356 60.7586C153.718 63.6166 151.67 68.7175 156.304 70.2071C160.994 71.7146 174.849 74.2074 178.818 67.4975C181.379 63.1671 184.566 53.5123 188.38 38.5329C188.672 38.5882 188.966 38.6626 189.259 38.757C193.278 40.0486 195.757 44.5825 194.796 48.8837C194.308 51.0672 193.028 52.771 191.359 53.7504C192.475 56.8351 193.768 60.0986 195.318 63.5354C204.605 60.9301 214.043 47.5982 209.378 30.3775C208.789 22.4862 204.677 17.0509 199.207 13.3824C194.928 9.72599 190.047 7.89982 185.597 7.83683C177.263 5.96178 169.376 6.28325 166.956 7.20182C165.108 15.4768 166.057 18.4135 178.901 22.3097C181.647 25.0974 183.381 28.9346 185.002 33.756Z" fill="#191847"/>
<path fill-rule="evenodd" clip-rule="evenodd" d="M178.859 226.448L118.731 397.631L78.4019 542.351H62.477L124.131 226.448L178.859 226.448Z" fill="#997659"/>
<path fill-rule="evenodd" clip-rule="evenodd" d="M190.967 226.448C191.607 286.603 200.945 367.592 202.437 371.341C203.432 373.841 237.766 405.631 305.439 466.71L294.471 479.913C214.622 427.545 172.851 397.868 169.156 390.884C163.613 380.407 145.569 283.997 131.081 226.448H190.967Z" fill="#B28B67"/>
<path fill-rule="evenodd" clip-rule="evenodd" d="M306.784 462.355C310.504 463.874 313.069 465.304 314.481 466.643C316.199 468.273 318.47 470.968 321.294 474.727C319.657 476.933 304.946 496.759 277.159 534.205C271.398 531.372 269.568 528.116 271.671 524.437C273.775 520.758 275.495 517.676 276.833 515.192L286.217 476.987C286.397 476.252 287.076 475.833 287.732 476.052C287.743 476.056 287.755 476.059 287.766 476.064L292.977 477.98C296.564 476.13 299.072 474.241 300.502 472.314C301.664 470.748 302.698 468.043 303.603 464.2L303.603 464.2C303.95 462.726 305.299 461.872 306.616 462.294C306.672 462.312 306.728 462.333 306.784 462.355Z" fill="#E4E4E4"/>
<path fill-rule="evenodd" clip-rule="evenodd" d="M84.9227 535.806C86.2932 539.937 86.9785 543.028 86.9785 545.079C86.9785 547.574 86.6105 551.214 85.8744 556C83.3116 556 60.2794 556 16.7778 556C14.9822 549.297 16.0187 545.678 19.8873 545.144C23.7559 544.609 26.9696 544.127 29.5284 543.696L61.6439 527.529C62.2619 527.218 62.9862 527.532 63.2616 528.23C63.2664 528.242 63.2709 528.254 63.2753 528.266L65.3397 533.92C68.921 535.807 71.8312 536.75 74.0703 536.75C75.8894 536.75 78.4018 535.921 81.6072 534.261L81.6072 534.261C82.8373 533.625 84.2916 534.235 84.8555 535.624C84.8798 535.683 84.9022 535.744 84.9227 535.806Z" fill="#E4E4E4"/>
<path fill-rule="evenodd" clip-rule="evenodd" d="M138.431 527.445L62.7161 518.202L118.83 226.448H186.646L138.431 527.445Z" fill="#69A1AC"/>
<path fill-rule="evenodd" clip-rule="evenodd" d="M289.777 445.41L240.113 511.534C187.802 447.27 157.305 405.338 148.621 385.738C139.937 366.137 132.13 313.041 125.202 226.448H201.549C205.334 302.628 207.886 342.491 209.203 346.036C210.521 349.581 237.379 382.706 289.777 445.41Z" fill="#89C5CC"/>
<path fill-rule="evenodd" clip-rule="evenodd" d="M83.67 195.791L40.4417 218.155C29.4819 218.961 20.1438 220.883 12.4274 223.922C10.5232 225.2 8.02752 228.081 15.0224 228.987C22.0174 229.892 29.3502 231.185 29.9349 233.927C30.5195 236.67 25.8956 238.811 27.3255 242.648C28.2787 245.206 35.1829 240.779 48.038 229.368L88.9242 220.436L83.67 195.791ZM232.379 228.684L206.963 223.359C214.721 281.226 218.983 311.96 219.748 315.563C221.469 323.669 213.856 333.826 210.418 339.424C218.126 345.191 219.394 330.211 229.089 337.685C237.939 344.508 243.94 354.723 256.033 349.755C257.519 349.145 259.498 346.071 256.294 342.653C248.31 334.138 237.103 319.826 235.915 315.65C234.294 309.956 233.116 280.967 232.379 228.684Z" fill="#B28B67"/>
<path fill-rule="evenodd" clip-rule="evenodd" d="M179.63 94.7037L169.266 90.4469C124.408 118.833 97.9133 186.167 44.0409 213.293L53.4366 231.398C139.09 238.185 172.438 156.274 179.63 94.7037Z" fill="#37D7D7"/>
<path fill-rule="evenodd" clip-rule="evenodd" d="M204.18 248.454C161.421 239.241 129.968 232.464 109.821 228.123C105.51 227.194 107.297 220.615 108.412 217.342C121.281 179.558 155.48 143.208 163.559 87.2173L191.445 88.4517C208.29 132.58 209.097 182.616 204.18 248.454Z" fill="#DDE3E9"/>
<path fill-rule="evenodd" clip-rule="evenodd" d="M218.797 133.85C222.943 133.468 226.501 131.263 229.472 127.234C242.277 109.868 240.224 98.3485 230.064 92.5214C219.903 86.6943 209.336 91.9217 192.335 88.2643C191.41 88.0654 190.554 87.946 189.767 87.9061L181.138 86.5949C143.584 171.385 128.132 230.022 134.782 262.505L209.324 278.541C212.129 290.646 214.999 300.94 217.934 309.423L238.246 313.793C249.833 247.259 243.35 187.278 218.797 133.85Z" fill="#37D7D7"/>
<path fill-rule="evenodd" clip-rule="evenodd" d="M198.794 229.243C193.392 249.957 187.368 264.537 180.721 272.984L208.318 278.927C205.055 264.826 201.88 248.265 198.794 229.243Z" fill="black" fill-opacity="0.1"/>
</svg>
