<svg width="24" height="29" viewBox="0 0 24 29" fill="none" xmlns="http://www.w3.org/2000/svg">
<path fill-rule="evenodd" clip-rule="evenodd" d="M20 21H16.9231V15.3967C16.9231 13.8596 16.2715 13.0022 15.1031 13.0022C13.8315 13.0022 13.0769 13.8956 13.0769 15.3967V21H10V10.5924H13.0769V11.7629C13.0769 11.7629 14.0423 10 16.2177 10C18.3938 10 20 11.3818 20 14.2415C20 17.1004 20 21 20 21ZM5.50031 8C4.67151 8 4 7.32819 4 6.4997C4 5.67181 4.67151 5 5.50031 5C6.32849 5 7 5.67181 7 6.4997C7.00061 7.32819 6.32849 8 5.50031 8ZM4 21H7V11H4V21Z" fill="#222222"/>
</svg>
