<svg width="14" height="18" viewBox="0 0 14 18" fill="none" xmlns="http://www.w3.org/2000/svg">
<path d="M5.75548 11.9044C5.28217 14.383 4.70538 16.7589 2.99482 18C2.46752 14.2543 3.76957 11.4418 4.37515 8.45571C3.34305 6.71874 4.49932 3.22502 6.6742 4.0863C9.35117 5.14468 4.35625 10.541 7.70899 11.2159C11.2102 11.9188 12.6391 5.14108 10.4679 2.93702C7.33197 -0.24711 1.33825 2.86232 2.0761 7.42073C2.25517 8.5349 3.40604 8.8724 2.53591 10.4105C0.528404 9.96587 -0.0708782 8.38191 0.0065066 6.27055C0.130682 2.81463 3.11 0.396377 6.09921 0.0606838C9.87937 -0.363207 13.4274 1.44935 13.9178 5.00518C14.4694 9.01999 12.2117 13.3687 8.1688 13.0555C7.07282 12.97 6.61391 12.4264 5.75548 11.9044Z" fill="#222222"/>
</svg>
