<svg width="24" height="15" viewBox="0 0 24 15" fill="none" xmlns="http://www.w3.org/2000/svg">
<path d="M6.23433 6.98584C5.45897 6.98584 4.82812 7.61664 4.82812 8.39205C4.82812 9.16741 5.45892 9.79825 6.23433 9.79825C7.00969 9.79825 7.64053 9.16741 7.64053 8.39205C7.64053 7.61668 7.00969 6.98584 6.23433 6.98584ZM6.23433 8.8608C5.97586 8.8608 5.76558 8.65051 5.76558 8.39205C5.76558 8.13358 5.97586 7.92329 6.23433 7.92329C6.4928 7.92329 6.70308 8.13358 6.70308 8.39205C6.70308 8.65051 6.4928 8.8608 6.23433 8.8608Z" fill="#484848"/>
<path d="M6.23424 5.29834C4.52836 5.29834 3.14062 6.68612 3.14062 8.39195C3.14062 10.0978 4.52841 11.4856 6.23424 11.4856C7.94011 11.4856 9.32785 10.0978 9.32785 8.39195C9.32785 6.68612 7.94007 5.29834 6.23424 5.29834ZM6.23424 10.5482C5.04534 10.5482 4.07808 9.58089 4.07808 8.392C4.07808 7.20311 5.04534 6.23584 6.23424 6.23584C7.42313 6.23584 8.39039 7.20311 8.39039 8.392C8.39039 9.58089 7.42313 10.5482 6.23424 10.5482Z" fill="#484848"/>
<path d="M17.7656 6.98584C16.9902 6.98584 16.3594 7.61664 16.3594 8.39205C16.3594 9.16741 16.9902 9.79825 17.7656 9.79825C18.5409 9.79825 19.1718 9.16741 19.1718 8.39205C19.1718 7.61668 18.541 6.98584 17.7656 6.98584ZM17.7656 8.8608C17.5071 8.8608 17.2968 8.65051 17.2968 8.39205C17.2968 8.13358 17.5071 7.92329 17.7656 7.92329C18.024 7.92329 18.2343 8.13358 18.2343 8.39205C18.2343 8.65051 18.024 8.8608 17.7656 8.8608Z" fill="#484848"/>
<path d="M17.7655 5.29834C16.0596 5.29834 14.6719 6.68612 14.6719 8.39195C14.6719 10.0978 16.0597 11.4856 17.7655 11.4856C19.4714 11.4856 20.8591 10.0978 20.8591 8.39195C20.8591 6.68612 19.4714 5.29834 17.7655 5.29834ZM17.7655 10.5482C16.5766 10.5482 15.6093 9.58089 15.6093 8.392C15.6093 7.20311 16.5766 6.23584 17.7655 6.23584C18.9544 6.23584 19.9216 7.20311 19.9216 8.392C19.9216 9.58089 18.9544 10.5482 17.7655 10.5482Z" fill="#484848"/>
<path d="M22.2101 12.0929C22.0252 11.9118 21.7285 11.9148 21.5473 12.0996C21.5347 12.1124 21.5221 12.1252 21.5094 12.1379C21.3263 12.321 21.3263 12.6178 21.5094 12.8008C21.6009 12.8923 21.7208 12.9381 21.8408 12.9381C21.9608 12.9381 22.0807 12.8923 22.1724 12.8008C22.1873 12.7859 22.2021 12.7708 22.2168 12.7558C22.398 12.571 22.395 12.2741 22.2101 12.0929Z" fill="#484848"/>
<path d="M23.8992 7.27847C23.7342 6.36586 23.3716 5.51377 22.8379 4.76897L23.9284 3.01528C24.0183 2.87077 24.0228 2.68884 23.9401 2.54006C23.8573 2.39128 23.7005 2.29898 23.5303 2.29898H19.2353C17.7741 1.19212 15.961 0.44967 13.98 0.14892C13.7242 0.110107 13.485 0.28603 13.4462 0.542014C13.4073 0.797952 13.5833 1.03697 13.8392 1.07583C15.0793 1.26412 16.2447 1.63917 17.284 2.17678C15.8001 2.28923 14.4201 2.92102 13.3567 3.98442C12.765 4.57622 12.3069 5.26603 11.9976 6.01721C11.1199 3.89559 9.10384 2.35992 6.7149 2.17683C7.75407 1.63931 8.91924 1.26426 10.1591 1.07592C10.415 1.03706 10.591 0.798046 10.5521 0.542061C10.5132 0.286123 10.2737 0.110061 10.0183 0.149014C8.03757 0.449905 6.22463 1.19226 4.76368 2.29898H0.46875C0.298547 2.29898 0.141703 2.39128 0.0590157 2.54006C-0.0236719 2.68884 -0.0191719 2.87077 0.0706876 3.01528L1.16255 4.77127C0.43111 5.79277 0 7.04325 0 8.3926C0 11.8301 2.79661 14.6267 6.23415 14.6267C7.98999 14.6267 9.57835 13.8969 10.7124 12.7248L11.6172 14.0619C11.7044 14.1908 11.8499 14.268 12.0054 14.268C12.161 14.268 12.3065 14.1908 12.3937 14.0619L13.2919 12.7345C13.3134 12.7567 13.3348 12.7789 13.3567 12.8009C14.5491 13.9932 16.1529 14.6241 17.7768 14.624C18.6626 14.624 19.5546 14.4362 20.3888 14.0494C20.6237 13.9404 20.7257 13.6617 20.6168 13.427C20.5079 13.1922 20.2292 13.09 19.9944 13.1989C17.9865 14.13 15.5854 13.7038 14.0196 12.1379C13.8815 11.9998 13.7523 11.8552 13.6315 11.7052C13.6179 11.6851 13.6027 11.666 13.5858 11.6481C12.8612 10.7217 12.4682 9.58735 12.4682 8.3926C12.4682 6.97777 13.0192 5.64769 14.0197 4.64733C15.0201 3.64688 16.3502 3.09591 17.7649 3.09591C19.1797 3.09591 20.5099 3.64688 21.5103 4.64733C21.6487 4.78575 21.7778 4.93041 21.8984 5.08008C21.9054 5.08922 21.9126 5.09827 21.9204 5.10694C23.1317 6.63089 23.4145 8.68894 22.6222 10.5088C22.5189 10.7461 22.6275 11.0223 22.8649 11.1256C23.1022 11.2289 23.3784 11.1204 23.4817 10.8829C23.976 9.74776 24.1203 8.50135 23.8992 7.27847ZM2.73375 3.23658C2.39663 3.46617 2.08322 3.72802 1.7977 4.01747L1.31213 3.23658H2.73375ZM6.23415 13.6893C3.3135 13.6893 0.937454 11.3132 0.937454 8.3926C0.937454 5.47196 3.3135 3.09591 6.23415 3.09591C9.15479 3.09591 11.5308 5.472 11.5308 8.3926C11.5308 11.3132 9.15474 13.6893 6.23415 13.6893ZM12.6677 11.9843L12.0055 12.9628L11.3352 11.9723C11.5981 11.5988 11.8209 11.1953 11.9976 10.768C12.1737 11.1956 12.398 11.6033 12.6677 11.9843ZM22.2028 4.01513C22.1928 4.005 22.1832 3.9945 22.1732 3.98442C21.8934 3.70458 21.5914 3.45502 21.2716 3.23658H22.687L22.2028 4.01513Z" fill="#484848"/>
<path d="M12.0297 4.68493e-05L12 0C11.7412 0 11.5312 0.209906 11.5312 0.46875C11.5312 0.727594 11.7412 0.937501 12 0.937501L12.025 0.937547C12.0258 0.937547 12.0266 0.937547 12.0274 0.937547C12.2851 0.937547 12.4948 0.729235 12.4961 0.471141C12.4973 0.212297 12.2886 0.00140623 12.0297 4.68493e-05Z" fill="#484848"/>
</svg>
