<svg width="20" height="13" viewBox="0 0 20 13" fill="none" xmlns="http://www.w3.org/2000/svg">
<path d="M20 2.009H17.171C15.211 0.675 12.813 0 10 0C7.187 0 4.788 0.675 2.829 2.009H0C0.428 2.429 0.827 3.349 0.993 4.049C0.35182 4.90257 0.00352704 5.94044 0 7.008C0 9.765 2.243 12.008 5 12.008C6.27514 12.0058 7.50064 11.5135 8.423 10.633L10 13L11.577 10.634C12.4992 11.5148 13.7247 12.0075 15 12.01C17.757 12.01 20 9.767 20 7.01C20 5.898 19.623 4.88 19.007 4.05C19.173 3.35 19.572 2.43 20 2.01V2.009ZM5 10.409C3.125 10.409 1.6 8.884 1.6 7.009C1.6 5.134 3.125 3.609 5 3.609C6.875 3.609 8.4 5.134 8.4 7.009C8.4 8.884 6.875 10.409 5 10.409ZM10 7.009C9.99831 5.85548 9.59846 4.73792 8.86802 3.84514C8.13758 2.95236 7.12133 2.3391 5.991 2.109C7.195 1.704 8.53 1.5 10 1.5C11.47 1.5 12.805 1.704 14.009 2.11C12.879 2.34003 11.863 2.95299 11.1326 3.84536C10.4022 4.73773 10.0022 5.85483 10 7.008V7.009ZM15 10.409C13.125 10.409 11.6 8.884 11.6 7.009C11.6 5.134 13.125 3.609 15 3.609C16.875 3.609 18.4 5.134 18.4 7.009C18.4 8.884 16.875 10.409 15 10.409ZM5 4.86C3.815 4.86 2.85 5.824 2.85 7.01C2.85 8.196 3.815 9.16 5 9.16C6.185 9.16 7.15 8.196 7.15 7.01C7.15 5.824 6.185 4.86 5 4.86ZM5 7.651C4.82761 7.651 4.66228 7.58252 4.54038 7.46062C4.41848 7.33872 4.35 7.17339 4.35 7.001C4.35 6.82861 4.41848 6.66328 4.54038 6.54138C4.66228 6.41948 4.82761 6.351 5 6.351C5.17239 6.351 5.33772 6.41948 5.45962 6.54138C5.58152 6.66328 5.65 6.82861 5.65 7.001C5.65 7.17339 5.58152 7.33872 5.45962 7.46062C5.33772 7.58252 5.17239 7.651 5 7.651ZM15 4.86C13.815 4.86 12.85 5.824 12.85 7.01C12.85 8.196 13.815 9.16 15 9.16C16.185 9.16 17.15 8.196 17.15 7.01C17.15 5.824 16.185 4.86 15 4.86ZM15 7.651C14.8276 7.651 14.6623 7.58252 14.5404 7.46062C14.4185 7.33872 14.35 7.17339 14.35 7.001C14.35 6.82861 14.4185 6.66328 14.5404 6.54138C14.6623 6.41948 14.8276 6.351 15 6.351C15.1724 6.351 15.3377 6.41948 15.4596 6.54138C15.5815 6.66328 15.65 6.82861 15.65 7.001C15.65 7.17339 15.5815 7.33872 15.4596 7.46062C15.3377 7.58252 15.1724 7.651 15 7.651Z" fill="#222222"/>
</svg>
