<svg width="86" height="87" viewBox="0 0 86 87" fill="none" xmlns="http://www.w3.org/2000/svg">
<path d="M22.8305 84.9995H10.3322C8.12237 84.9995 6.00304 84.125 4.44045 82.5685C2.87786 81.0119 2 78.9008 2 76.6995V47.6497C2 45.4484 2.87786 43.3373 4.44045 41.7808C6.00304 40.2242 8.12237 39.3498 10.3322 39.3498H22.8305M51.9933 31.0498V14.4499C51.9933 11.148 50.6765 7.98131 48.3326 5.6465C45.9887 3.31168 42.8097 2 39.495 2L22.8305 39.3498V84.9995H69.8242C71.8336 85.0221 73.7836 84.3206 75.3147 83.0241C76.8459 81.7277 77.8551 79.9237 78.1564 77.9445L83.9056 40.5948C84.0869 39.4052 84.0064 38.1906 83.6696 37.0351C83.3328 35.8796 82.7479 34.8109 81.9553 33.903C81.1627 32.995 80.1815 32.2696 79.0795 31.777C77.9775 31.2843 76.7812 31.0362 75.5734 31.0498H51.9933Z" stroke="#FAD33D" stroke-width="4" stroke-linecap="round" stroke-linejoin="round"/>
</svg>
