<svg width="80" height="94" viewBox="0 0 80 94" fill="none" xmlns="http://www.w3.org/2000/svg">
<path d="M40 10C37.2 10 35 7.8 35 5C35 2.2 37.2 0 40 0C42.8 0 45 2.2 45 5C45 7.8 42.8 10 40 10ZM40 2C38.3 2 37 3.3 37 5C37 6.7 38.3 8 40 8C41.7 8 43 6.7 43 5C43 3.3 41.7 2 40 2Z" fill="#FAD33D"/>
<path d="M40 94C17.9 94 0 76.1 0 54C0 31.9 17.9 14 40 14C62.1 14 80 31.9 80 54C80 76.1 62.1 94 40 94ZM40 16C19 16 2 33 2 54C2 75 19 92 40 92C61 92 78 75 78 54C78 33 61 16 40 16Z" fill="#FAD33D"/>
<path d="M40 87C21.8 87 7 72.2 7 54C7 35.8 21.8 21 40 21C58.2 21 73 35.8 73 54C73 72.2 58.2 87 40 87ZM40 23C22.9 23 9 36.9 9 54C9 71.1 22.9 85 40 85C57.1 85 71 71.1 71 54C71 36.9 57.1 23 40 23Z" fill="#FAD33D"/>
<path d="M40 16C39.4 16 39 15.6 39 15V9C39 8.4 39.4 8 40 8C40.6 8 41 8.4 41 9V15C41 15.6 40.6 16 40 16Z" fill="#FAD33D"/>
<path d="M40 29C39.4 29 39 28.6 39 28V22C39 21.4 39.4 21 40 21C40.6 21 41 21.4 41 22V28C41 28.6 40.6 29 40 29Z" fill="#FAD33D"/>
<path d="M40 87C39.4 87 39 86.6 39 86V80C39 79.4 39.4 79 40 79C40.6 79 41 79.4 41 80V86C41 86.6 40.6 87 40 87Z" fill="#FAD33D"/>
<path d="M14 55H8C7.4 55 7 54.6 7 54C7 53.4 7.4 53 8 53H14C14.6 53 15 53.4 15 54C15 54.6 14.6 55 14 55Z" fill="#FAD33D"/>
<path d="M72 55H66C65.4 55 65 54.6 65 54C65 53.4 65.4 53 66 53H72C72.6 53 73 53.4 73 54C73 54.6 72.6 55 72 55Z" fill="#FAD33D"/>
<path d="M37.7998 67C37.5998 67 37.4998 67 37.2998 66.9C36.7998 66.7 36.3998 66.2 36.2998 65.7V57H27.6998C26.9998 56.9 26.5998 56.6 26.3998 56C26.1998 55.5 26.2998 54.9 26.6998 54.5L38.6998 42.5C38.8998 42.3 39.1998 42.1 39.5998 42.1H39.6998H49.6998C50.0998 42.1 50.4998 42.2 50.7998 42.5C51.0998 42.8 51.2998 43.2 51.1998 43.6V53.6V53.7C51.1998 54 50.9998 54.3 50.7998 54.6L38.7998 66.6C38.5998 66.8 38.1998 67 37.7998 67ZM28.9998 54.9H36.8998C37.6998 55 38.2998 55.5 38.2998 56.2V64.2L49.1998 53.3V44H39.8998L28.9998 54.9Z" fill="#FAD33D"/>
</svg>
