<svg width="86" height="114" viewBox="0 0 86 114" fill="none" xmlns="http://www.w3.org/2000/svg">
<path d="M14.8896 13.3878L2 18.5221V56.6288C2 89.2917 43 111.067 43 111.067C43 111.067 84 89.2917 84 56.6288V18.5221L43 2.19067C38.5145 3.97736 35.1332 5.32424 31.6187 6.72415" stroke="#FAD33D" stroke-width="4" stroke-linecap="round" stroke-linejoin="round"/>
<mask id="path-2-inside-1" fill="white">
<path d="M51.6396 33.4549C55.2747 33.4549 58.2215 30.5081 58.2215 26.873C58.2215 23.2379 55.2747 20.291 51.6396 20.291C48.0045 20.291 45.0576 23.2379 45.0576 26.873C45.0612 30.5066 48.006 33.4513 51.6396 33.4549ZM51.6396 22.485C54.063 22.485 56.0275 24.4496 56.0275 26.873C56.0275 29.2964 54.063 31.2609 51.6396 31.2609C49.2162 31.2609 47.2516 29.2964 47.2516 26.873C47.2516 24.4496 49.2162 22.485 51.6396 22.485Z"/>
</mask>
<path d="M51.6396 33.4549C55.2747 33.4549 58.2215 30.5081 58.2215 26.873C58.2215 23.2379 55.2747 20.291 51.6396 20.291C48.0045 20.291 45.0576 23.2379 45.0576 26.873C45.0612 30.5066 48.006 33.4513 51.6396 33.4549ZM51.6396 22.485C54.063 22.485 56.0275 24.4496 56.0275 26.873C56.0275 29.2964 54.063 31.2609 51.6396 31.2609C49.2162 31.2609 47.2516 29.2964 47.2516 26.873C47.2516 24.4496 49.2162 22.485 51.6396 22.485Z" fill="#FAD33D"/>
<path d="M51.6396 33.4549L51.6316 41.4549H51.6396V33.4549ZM45.0576 26.873H37.0576L37.0576 26.8809L45.0576 26.873ZM51.6396 41.4549C59.6929 41.4549 66.2215 34.9263 66.2215 26.873H50.2215C50.2215 26.0898 50.8564 25.4549 51.6396 25.4549V41.4549ZM66.2215 26.873C66.2215 18.8196 59.6929 12.291 51.6396 12.291V28.291C50.8564 28.291 50.2215 27.6561 50.2215 26.873H66.2215ZM51.6396 12.291C43.5862 12.291 37.0576 18.8196 37.0576 26.873H53.0576C53.0576 27.6561 52.4227 28.291 51.6396 28.291V12.291ZM37.0576 26.8809C37.0657 34.9266 43.5859 41.4469 51.6316 41.4549L51.6475 25.4549C52.426 25.4557 53.0568 26.0865 53.0576 26.865L37.0576 26.8809ZM51.6396 30.485C49.6447 30.485 48.0275 28.8678 48.0275 26.873H64.0275C64.0275 20.0313 58.4812 14.485 51.6396 14.485V30.485ZM48.0275 26.873C48.0275 24.8781 49.6447 23.2609 51.6396 23.2609V39.2609C58.4812 39.2609 64.0275 33.7146 64.0275 26.873H48.0275ZM51.6396 23.2609C53.6344 23.2609 55.2516 24.8781 55.2516 26.873H39.2516C39.2516 33.7146 44.7979 39.2609 51.6396 39.2609V23.2609ZM55.2516 26.873C55.2516 28.8678 53.6344 30.485 51.6396 30.485V14.485C44.7979 14.485 39.2516 20.0313 39.2516 26.873H55.2516Z" fill="#FAD33D" mask="url(#path-2-inside-1)"/>
<mask id="path-4-inside-2" fill="white">
<path d="M77.4991 81.1989C77.1279 80.4566 76.3672 79.9893 75.5368 79.9933L62.6056 80.0828V51.3857C63.9166 50.9251 64.7937 49.6879 64.7937 48.2994C64.7937 46.9109 63.9166 45.6737 62.6056 45.2131V39.5315C62.6056 38.9263 62.1145 38.4356 61.5087 38.4356C60.9029 38.4356 60.4118 38.9263 60.4118 39.5315V45.0115H57.198C56.8313 45.0115 56.4889 44.8285 56.2854 44.5237L51.0993 36.751C49.4324 34.2485 46.1966 33.3206 43.4551 34.5591C43.2765 33.3589 42.4477 32.3562 41.302 31.9539L35.0815 29.7949C33.3614 29.205 31.4876 30.1152 30.8893 31.8312L29.8088 34.9339C29.2462 34.7665 28.6514 35.0713 28.4593 35.6256C28.2671 36.1798 28.5458 36.7869 29.0915 37.0031L27.6546 41.147C27.0943 40.9861 26.506 41.2911 26.3151 41.8414C26.1242 42.3918 26.3975 42.9952 26.9372 43.2151C25.8754 46.2784 25.5244 46.8659 25.7306 47.9914C24.2875 48.3373 23.2547 49.6055 23.209 51.0876C23.1634 52.5697 24.1163 53.8989 25.5354 54.3328C32.9635 56.916 33.3583 57.2547 34.7273 56.8283L33.7401 63.7746C33.6304 64.5287 34.0922 63.9511 25.7383 75.2013C24.656 76.6172 24.539 78.5467 25.4421 80.0828H10.1869C9.35657 80.079 8.59597 80.5463 8.22461 81.2884C8.54603 81.6475 9.2667 82.3345 9.2667 82.3345C22.2867 82.81 64.458 82.129 76.3889 82.3345C76.7928 81.9675 77.1636 81.589 77.4991 81.1989ZM54.277 80.0828C54.7018 79.3624 54.9263 78.5418 54.9274 77.7056V66.8215C54.9293 65.212 54.3391 63.658 53.2689 62.4551L46.7129 55.0824C46.4535 54.7918 46.3725 54.3835 46.5012 54.016L48.5085 48.0024L49.4321 49.2934C50.4627 50.7317 52.1238 51.5857 53.8942 51.5873H60.4118V80.0828H54.277ZM44.405 36.5275C46.163 35.7707 48.2111 36.3777 49.2719 37.9698L54.4558 45.7392C55.0669 46.6552 56.0962 47.2048 57.198 47.2034H61.5087C62.1145 47.2034 62.6056 47.6941 62.6056 48.2994C62.6056 48.9047 62.1145 49.3954 61.5087 49.3954H53.8942C52.8319 49.3941 51.8353 48.8817 51.2167 48.0188L47.0485 42.1827C46.8276 41.8473 46.4407 41.6595 46.0402 41.6932C45.6397 41.7269 45.2897 41.9768 45.1281 42.3445C44.9664 42.7122 45.0189 43.1387 45.265 43.4563L46.9366 45.7962L44.427 53.3179C44.0466 54.4336 44.2982 55.6675 45.0851 56.5455L51.6357 63.9116C52.3467 64.7141 52.7375 65.7498 52.7337 66.8215V77.7056C52.7663 78.9011 51.889 79.9277 50.7022 80.0828C50.0928 80.128 49.4922 79.9172 49.045 79.5011C48.5977 79.085 48.3445 78.5014 48.3461 77.8909V70.9862C48.3404 69.5085 47.8409 68.0751 46.9268 66.9135L38.5115 57.498C37.4353 56.1102 37.0947 54.2891 37.5967 52.6066C41.7188 39.6072 41.7649 40.3371 41.7824 40.2275C42.2848 38.7424 42.6018 37.31 44.4094 36.5275H44.405ZM37.9466 44.709L29.7277 41.8594L31.1635 37.7188L39.3517 40.5607L37.9466 44.709ZM32.9591 32.5436C33.1611 31.9727 33.7844 31.6696 34.3587 31.863L40.5791 34.0221C41.1467 34.2227 41.4463 34.8429 41.2504 35.4118L40.702 37.0042C40.4501 37.4307 40.2477 37.8844 40.0987 38.3567C40.0417 38.5386 40.9597 38.795 31.8852 35.6485L32.9591 32.5436ZM33.388 54.7251L26.2582 52.2603C25.6841 52.0895 25.3259 51.5196 25.4213 50.9286C25.4982 50.6293 25.6957 50.3751 25.9669 50.2264C26.238 50.0777 26.5587 50.0479 26.8527 50.1439C27.9727 50.533 28.0385 50.5889 28.3752 50.5516C31.7536 51.9402 31.6538 51.9337 31.9543 51.9337C32.4785 51.9342 32.9297 51.5642 33.0315 51.0505C33.1332 50.5368 32.8571 50.0229 32.3723 49.8239C27.4089 47.7843 28.4717 48.2073 28.1789 48.1295C27.892 47.8423 27.7959 47.4158 27.9321 47.0335L29.007 43.9319L37.2402 46.7815C36.8311 47.9925 35.2022 52.8433 34.7865 54.0522C34.5875 54.6227 33.9639 54.9247 33.3924 54.7273L33.388 54.7251ZM27.5054 76.5077L35.1101 66.0543C35.9766 64.8892 35.8878 64.3007 36.6874 58.697C36.9441 59.0532 36.106 58.0953 40.9005 63.4601L40.3389 66.6746C40.2139 67.4199 40.6614 66.7086 31.0768 79.0701C30.5653 79.8282 29.6405 80.1948 28.7479 79.9933C27.8554 79.7918 27.1782 79.0636 27.0425 78.1594C26.9725 77.5694 27.1389 76.9756 27.5054 76.5077ZM41.6552 68.9685C42.3315 67.9499 42.7144 66.765 42.7619 65.5435L45.2376 68.3131C45.8327 69.077 46.1548 70.0181 46.1524 70.9862V77.8909C46.1562 78.6625 46.366 79.4192 46.76 80.0828H33.071L41.6552 68.9685Z"/>
</mask>
<path d="M77.4991 81.1989C77.1279 80.4566 76.3672 79.9893 75.5368 79.9933L62.6056 80.0828V51.3857C63.9166 50.9251 64.7937 49.6879 64.7937 48.2994C64.7937 46.9109 63.9166 45.6737 62.6056 45.2131V39.5315C62.6056 38.9263 62.1145 38.4356 61.5087 38.4356C60.9029 38.4356 60.4118 38.9263 60.4118 39.5315V45.0115H57.198C56.8313 45.0115 56.4889 44.8285 56.2854 44.5237L51.0993 36.751C49.4324 34.2485 46.1966 33.3206 43.4551 34.5591C43.2765 33.3589 42.4477 32.3562 41.302 31.9539L35.0815 29.7949C33.3614 29.205 31.4876 30.1152 30.8893 31.8312L29.8088 34.9339C29.2462 34.7665 28.6514 35.0713 28.4593 35.6256C28.2671 36.1798 28.5458 36.7869 29.0915 37.0031L27.6546 41.147C27.0943 40.9861 26.506 41.2911 26.3151 41.8414C26.1242 42.3918 26.3975 42.9952 26.9372 43.2151C25.8754 46.2784 25.5244 46.8659 25.7306 47.9914C24.2875 48.3373 23.2547 49.6055 23.209 51.0876C23.1634 52.5697 24.1163 53.8989 25.5354 54.3328C32.9635 56.916 33.3583 57.2547 34.7273 56.8283L33.7401 63.7746C33.6304 64.5287 34.0922 63.9511 25.7383 75.2013C24.656 76.6172 24.539 78.5467 25.4421 80.0828H10.1869C9.35657 80.079 8.59597 80.5463 8.22461 81.2884C8.54603 81.6475 9.2667 82.3345 9.2667 82.3345C22.2867 82.81 64.458 82.129 76.3889 82.3345C76.7928 81.9675 77.1636 81.589 77.4991 81.1989ZM54.277 80.0828C54.7018 79.3624 54.9263 78.5418 54.9274 77.7056V66.8215C54.9293 65.212 54.3391 63.658 53.2689 62.4551L46.7129 55.0824C46.4535 54.7918 46.3725 54.3835 46.5012 54.016L48.5085 48.0024L49.4321 49.2934C50.4627 50.7317 52.1238 51.5857 53.8942 51.5873H60.4118V80.0828H54.277ZM44.405 36.5275C46.163 35.7707 48.2111 36.3777 49.2719 37.9698L54.4558 45.7392C55.0669 46.6552 56.0962 47.2048 57.198 47.2034H61.5087C62.1145 47.2034 62.6056 47.6941 62.6056 48.2994C62.6056 48.9047 62.1145 49.3954 61.5087 49.3954H53.8942C52.8319 49.3941 51.8353 48.8817 51.2167 48.0188L47.0485 42.1827C46.8276 41.8473 46.4407 41.6595 46.0402 41.6932C45.6397 41.7269 45.2897 41.9768 45.1281 42.3445C44.9664 42.7122 45.0189 43.1387 45.265 43.4563L46.9366 45.7962L44.427 53.3179C44.0466 54.4336 44.2982 55.6675 45.0851 56.5455L51.6357 63.9116C52.3467 64.7141 52.7375 65.7498 52.7337 66.8215V77.7056C52.7663 78.9011 51.889 79.9277 50.7022 80.0828C50.0928 80.128 49.4922 79.9172 49.045 79.5011C48.5977 79.085 48.3445 78.5014 48.3461 77.8909V70.9862C48.3404 69.5085 47.8409 68.0751 46.9268 66.9135L38.5115 57.498C37.4353 56.1102 37.0947 54.2891 37.5967 52.6066C41.7188 39.6072 41.7649 40.3371 41.7824 40.2275C42.2848 38.7424 42.6018 37.31 44.4094 36.5275H44.405ZM37.9466 44.709L29.7277 41.8594L31.1635 37.7188L39.3517 40.5607L37.9466 44.709ZM32.9591 32.5436C33.1611 31.9727 33.7844 31.6696 34.3587 31.863L40.5791 34.0221C41.1467 34.2227 41.4463 34.8429 41.2504 35.4118L40.702 37.0042C40.4501 37.4307 40.2477 37.8844 40.0987 38.3567C40.0417 38.5386 40.9597 38.795 31.8852 35.6485L32.9591 32.5436ZM33.388 54.7251L26.2582 52.2603C25.6841 52.0895 25.3259 51.5196 25.4213 50.9286C25.4982 50.6293 25.6957 50.3751 25.9669 50.2264C26.238 50.0777 26.5587 50.0479 26.8527 50.1439C27.9727 50.533 28.0385 50.5889 28.3752 50.5516C31.7536 51.9402 31.6538 51.9337 31.9543 51.9337C32.4785 51.9342 32.9297 51.5642 33.0315 51.0505C33.1332 50.5368 32.8571 50.0229 32.3723 49.8239C27.4089 47.7843 28.4717 48.2073 28.1789 48.1295C27.892 47.8423 27.7959 47.4158 27.9321 47.0335L29.007 43.9319L37.2402 46.7815C36.8311 47.9925 35.2022 52.8433 34.7865 54.0522C34.5875 54.6227 33.9639 54.9247 33.3924 54.7273L33.388 54.7251ZM27.5054 76.5077L35.1101 66.0543C35.9766 64.8892 35.8878 64.3007 36.6874 58.697C36.9441 59.0532 36.106 58.0953 40.9005 63.4601L40.3389 66.6746C40.2139 67.4199 40.6614 66.7086 31.0768 79.0701C30.5653 79.8282 29.6405 80.1948 28.7479 79.9933C27.8554 79.7918 27.1782 79.0636 27.0425 78.1594C26.9725 77.5694 27.1389 76.9756 27.5054 76.5077ZM41.6552 68.9685C42.3315 67.9499 42.7144 66.765 42.7619 65.5435L45.2376 68.3131C45.8327 69.077 46.1548 70.0181 46.1524 70.9862V77.8909C46.1562 78.6625 46.366 79.4192 46.76 80.0828H33.071L41.6552 68.9685Z" fill="#FAD33D"/>
<path d="M9.2667 86.3345H76.3889V78.3345H9.2667V86.3345ZM77.4991 81.1989L83.5642 86.4156L87.0345 82.3809L84.6544 77.621L77.4991 81.1989ZM75.5368 79.9933L75.4977 71.9934L75.4895 71.9935L75.4814 71.9935L75.5368 79.9933ZM62.6056 80.0828H54.6056V88.1384L62.661 88.0826L62.6056 80.0828ZM62.6056 51.3857L59.9539 43.8379L54.6056 45.7169V51.3857H62.6056ZM62.6056 45.2131H54.6056V50.8819L59.9539 52.7609L62.6056 45.2131ZM60.4118 45.0115V53.0114H68.4118V45.0115H60.4118ZM57.198 45.0115V37.0115H57.1968L57.198 45.0115ZM56.2854 44.5237L49.6307 48.9639L49.6323 48.9663L56.2854 44.5237ZM51.0993 36.751L44.4411 41.186L44.4446 41.1912L51.0993 36.751ZM43.4551 34.5591L35.5424 35.7372L37.1013 46.208L46.7487 41.8496L43.4551 34.5591ZM41.302 31.9539L43.952 24.4056L43.9386 24.4009L43.9252 24.3963L41.302 31.9539ZM35.0815 29.7949L37.7048 22.2372L37.6906 22.2322L37.6764 22.2274L35.0815 29.7949ZM30.8893 31.8312L23.3353 29.1973L23.3342 29.2004L30.8893 31.8312ZM29.8088 34.9339L27.5271 42.6016L34.851 44.7811L37.3639 37.5647L29.8088 34.9339ZM28.4593 35.6256L36.0179 38.246V38.246L28.4593 35.6256ZM29.0915 37.0031L36.65 39.6241L39.1595 32.3867L32.0379 29.5655L29.0915 37.0031ZM27.6546 41.147L25.4458 48.8361L32.7301 50.9286L35.213 43.768L27.6546 41.147ZM26.3151 41.8414L33.8733 44.4631L26.3151 41.8414ZM26.9372 43.2151L34.496 45.8352L36.9798 38.6693L29.9566 35.8068L26.9372 43.2151ZM25.7306 47.9914L27.595 55.7711L34.9655 54.0048L33.5997 46.5498L25.7306 47.9914ZM23.209 51.0876L31.2052 51.3338L23.209 51.0876ZM25.5354 54.3328L28.1631 46.7766L28.0195 46.7267L27.8741 46.6823L25.5354 54.3328ZM34.7273 56.8283L42.6477 57.9539L44.4278 45.4281L32.3484 49.1902L34.7273 56.8283ZM33.7401 63.7746L41.6567 64.9263L41.6586 64.9133L41.6605 64.9003L33.7401 63.7746ZM25.7383 75.2013L32.0942 80.0596L32.128 80.0154L32.1612 79.9706L25.7383 75.2013ZM25.4421 80.0828V88.0828H39.4261L32.3385 76.0281L25.4421 80.0828ZM10.1869 80.0828L10.1504 88.0827L10.1687 88.0828H10.1869V80.0828ZM8.22461 81.2884L1.07042 77.7082L-1.36345 82.5718L2.26385 86.6241L8.22461 81.2884ZM54.277 80.0828L47.3858 76.0193L40.2724 88.0828H54.277V80.0828ZM54.9274 77.7056L62.9274 77.7162V77.7056H54.9274ZM54.9274 66.8215L46.9274 66.8119V66.8215H54.9274ZM53.2689 62.4551L47.2907 67.7712L47.2918 67.7724L53.2689 62.4551ZM46.7129 55.0824L52.6911 49.7663L52.6862 49.7608L52.6813 49.7553L46.7129 55.0824ZM46.5012 54.016L54.0514 56.6605L54.0709 56.6049L54.0896 56.549L46.5012 54.016ZM48.5085 48.0024L55.015 43.3478L45.8873 30.5882L40.9201 45.4694L48.5085 48.0024ZM49.4321 49.2934L42.9255 53.948L42.9292 53.9532L49.4321 49.2934ZM53.8942 51.5873L53.8866 59.5873H53.8942V51.5873ZM60.4118 51.5873H68.4118V43.5873H60.4118V51.5873ZM60.4118 80.0828V88.0828H68.4118V80.0828H60.4118ZM44.405 36.5275L41.242 29.1793L44.405 44.5275V36.5275ZM49.2719 37.9698L42.6143 42.4056L42.6172 42.4099L49.2719 37.9698ZM54.4558 45.7392L61.1107 41.2993L61.1105 41.2991L54.4558 45.7392ZM57.198 47.2034V39.2034L57.1879 39.2034L57.198 47.2034ZM53.8942 49.3954L53.8846 57.3954H53.8942V49.3954ZM51.2167 48.0188L44.7065 52.6684L44.7147 52.6798L51.2167 48.0188ZM47.0485 42.1827L40.3679 46.5837L40.4508 46.7096L40.5384 46.8323L47.0485 42.1827ZM46.0402 41.6932L46.7116 49.665L46.0402 41.6932ZM45.1281 42.3445L52.4515 45.5644V45.5644L45.1281 42.3445ZM45.265 43.4563L51.7745 38.8058L51.684 38.6792L51.5887 38.5562L45.265 43.4563ZM46.9366 45.7962L54.5254 48.3282L55.8153 44.4621L53.4461 41.1458L46.9366 45.7962ZM44.427 53.3179L51.9989 55.8996L52.0074 55.8748L52.0157 55.8499L44.427 53.3179ZM45.0851 56.5455L51.0632 51.2293L51.0529 51.2178L51.0426 51.2063L45.0851 56.5455ZM51.6357 63.9116L57.6234 58.6063L57.6186 58.6008L57.6138 58.5954L51.6357 63.9116ZM52.7337 66.8215L44.7337 66.793L44.7337 66.8073V66.8215H52.7337ZM52.7337 77.7056H44.7337V77.8147L44.7366 77.9237L52.7337 77.7056ZM50.7022 80.0828L51.2938 88.0609L51.5172 88.0444L51.7393 88.0153L50.7022 80.0828ZM49.045 79.5011L54.4941 73.6439L49.045 79.5011ZM48.3461 77.8909L56.3461 77.9128L56.3461 77.9018V77.8909H48.3461ZM48.3461 70.9862H56.3461V70.9707L56.3461 70.9552L48.3461 70.9862ZM46.9268 66.9135L53.2137 61.9663L53.0586 61.7693L52.8916 61.5824L46.9268 66.9135ZM38.5115 57.498L32.1896 62.4003L32.3607 62.6209L32.5467 62.8291L38.5115 57.498ZM37.5967 52.6066L29.9709 50.1885L29.9502 50.2538L29.9306 50.3194L37.5967 52.6066ZM41.7824 40.2275L34.2043 37.6639L33.9892 38.2998L33.883 38.9626L41.7824 40.2275ZM44.4094 36.5275L47.5876 43.8691L44.4094 28.5275V36.5275ZM37.9466 44.709L35.326 52.2676L42.9388 54.907L45.5237 47.2755L37.9466 44.709ZM29.7277 41.8594L22.1692 39.2384L19.5481 46.7973L27.1071 49.418L29.7277 41.8594ZM31.1635 37.7188L33.7865 30.161L26.2267 27.5373L23.605 35.0978L31.1635 37.7188ZM39.3517 40.5607L46.9288 43.1272L49.4763 35.6065L41.9748 33.0029L39.3517 40.5607ZM32.9591 32.5436L25.4175 29.8744L25.4079 29.9015L25.3985 29.9287L32.9591 32.5436ZM34.3587 31.863L36.9819 24.3053L36.9468 24.2931L36.9115 24.2812L34.3587 31.863ZM40.5791 34.0221L43.2461 26.4797L43.2243 26.472L43.2024 26.4644L40.5791 34.0221ZM41.2504 35.4118L48.8144 38.0168L48.8147 38.016L41.2504 35.4118ZM40.702 37.0042L47.5903 41.0725L48.0022 40.3751L48.266 39.6092L40.702 37.0042ZM40.0987 38.3567L32.4695 35.9493L32.4673 35.9564L32.4651 35.9634L40.0987 38.3567ZM31.8852 35.6485L24.3246 33.0336L21.7119 40.5882L29.2643 43.207L31.8852 35.6485ZM33.388 54.7251L36.9629 47.5683L36.4956 47.3349L36.0019 47.1642L33.388 54.7251ZM26.2582 52.2603L28.8722 44.6994L28.7067 44.6421L28.5389 44.5922L26.2582 52.2603ZM25.4213 50.9286L17.6727 48.939L17.5819 49.2926L17.5237 49.6531L25.4213 50.9286ZM25.9669 50.2264L29.8125 57.2414L29.8126 57.2414L25.9669 50.2264ZM26.8527 50.1439L29.4781 42.587L29.4079 42.5626L29.3372 42.5395L26.8527 50.1439ZM28.3752 50.5516L31.4165 43.1523L29.5264 42.3754L27.4953 42.6002L28.3752 50.5516ZM31.9543 51.9337L31.9626 43.9337H31.9543V51.9337ZM32.3723 49.8239L29.3315 57.2235L29.3347 57.2248L32.3723 49.8239ZM28.1789 48.1295L22.5191 53.7834L24.042 55.3079L26.1246 55.8613L28.1789 48.1295ZM27.9321 47.0335L35.4685 49.7172L35.4799 49.6853L35.491 49.6533L27.9321 47.0335ZM29.007 43.9319L31.6236 36.3719L24.0667 33.7564L21.4481 41.3122L29.007 43.9319ZM37.2402 46.7815L44.8194 49.342L47.361 41.8187L39.8568 39.2215L37.2402 46.7815ZM34.7865 54.0522L42.3401 56.6871L42.3459 56.6705L42.3517 56.6538L34.7865 54.0522ZM33.3924 54.7273L29.8174 61.8841L30.2857 62.118L30.7806 62.289L33.3924 54.7273ZM27.5054 76.5077L33.8034 81.4408L33.891 81.3289L33.9746 81.214L27.5054 76.5077ZM35.1101 66.0543L28.691 61.2798L28.6657 61.3138L28.6408 61.348L35.1101 66.0543ZM36.6874 58.697L43.1778 54.02L31.572 37.914L28.7676 57.5668L36.6874 58.697ZM40.9005 63.4601L48.7811 64.8369L49.4482 61.019L46.8656 58.1292L40.9005 63.4601ZM40.3389 66.6746L32.4583 65.2978L32.4536 65.3243L32.4492 65.3508L40.3389 66.6746ZM31.0768 79.0701L24.7546 74.1682L24.5929 74.3767L24.4454 74.5953L31.0768 79.0701ZM28.7479 79.9933L30.5096 72.1897L28.7479 79.9933ZM27.0425 78.1594L19.0982 79.1019L19.1127 79.2244L19.1311 79.3464L27.0425 78.1594ZM41.6552 68.9685L47.9866 73.8586L48.1615 73.6321L48.3198 73.3937L41.6552 68.9685ZM42.7619 65.5435L48.7264 60.212L35.5375 45.4575L34.768 65.2325L42.7619 65.5435ZM45.2376 68.3131L51.5486 63.3967L51.3823 63.1833L51.202 62.9815L45.2376 68.3131ZM46.1524 70.9862L38.1524 70.9665L38.1524 70.9764V70.9862H46.1524ZM46.1524 77.8909H38.1524V77.9107L38.1525 77.9306L46.1524 77.8909ZM46.76 80.0828V88.0828H60.8146L53.6387 75.9982L46.76 80.0828ZM33.071 80.0828L26.7395 75.1927L16.7838 88.0828H33.071V80.0828ZM9.2667 82.3345L3.74642 88.1248L5.94252 90.2185L8.97473 90.3292L9.2667 82.3345ZM76.3889 82.3345L76.2512 90.3334L79.4222 90.388L81.7692 88.2551L76.3889 82.3345ZM84.6544 77.621C82.9206 74.1536 79.3697 71.9745 75.4977 71.9934L75.5758 87.9932C73.3647 88.004 71.3352 86.7596 70.3438 84.7768L84.6544 77.621ZM75.4814 71.9935L62.5502 72.083L62.661 88.0826L75.5921 87.9931L75.4814 71.9935ZM70.6056 80.0828V51.3857H54.6056V80.0828H70.6056ZM65.2573 58.9334C69.7692 57.3483 72.7937 53.0873 72.7937 48.2994H56.7937C56.7937 46.2884 58.064 44.5019 59.9539 43.8379L65.2573 58.9334ZM72.7937 48.2994C72.7937 43.5114 69.7692 39.2505 65.2573 37.6654L59.9539 52.7609C58.064 52.0969 56.7937 50.3104 56.7937 48.2994H72.7937ZM70.6056 45.2131V39.5315H54.6056V45.2131H70.6056ZM70.6056 39.5315C70.6056 34.5018 66.5266 30.4356 61.5087 30.4356V46.4356C57.7024 46.4356 54.6056 43.3507 54.6056 39.5315H70.6056ZM61.5087 30.4356C56.4909 30.4356 52.4118 34.5017 52.4118 39.5315H68.4118C68.4118 43.3508 65.315 46.4356 61.5087 46.4356V30.4356ZM52.4118 39.5315V45.0115H68.4118V39.5315H52.4118ZM60.4118 37.0115H57.198V53.0114H60.4118V37.0115ZM57.1968 37.0115C59.5014 37.0111 61.6565 38.1613 62.9385 40.0812L49.6323 48.9663C51.3212 51.4957 54.1612 53.0119 57.1992 53.0114L57.1968 37.0115ZM62.9401 40.0836L57.754 32.3109L44.4446 41.1912L49.6307 48.9639L62.9401 40.0836ZM57.7575 32.3161C53.918 26.5519 46.4697 24.4187 40.1615 27.2685L46.7487 41.8496C45.9235 42.2225 44.9467 41.945 44.4411 41.186L57.7575 32.3161ZM51.3679 33.381C50.7519 29.2431 47.8952 25.7899 43.952 24.4056L38.652 39.5023C37.0002 38.9224 35.8011 37.4748 35.5424 35.7372L51.3679 33.381ZM43.9252 24.3963L37.7048 22.2372L32.4583 37.3525L38.6787 39.5116L43.9252 24.3963ZM37.6764 22.2274C31.7966 20.2113 25.3845 23.32 23.3353 29.1973L38.4433 34.465C37.5907 36.9103 34.9262 38.1988 32.4867 37.3623L37.6764 22.2274ZM23.3342 29.2004L22.2538 32.3031L37.3639 37.5647L38.4443 34.462L23.3342 29.2004ZM32.0906 27.2662C27.4303 25.8794 22.4963 28.4026 20.9006 33.0051L36.0179 38.246C34.8066 41.7401 31.0621 43.6536 27.5271 42.6016L32.0906 27.2662ZM20.9006 33.0051C19.3041 37.6103 21.6214 42.6487 26.145 44.4408L32.0379 29.5655C35.4701 30.9252 37.2302 34.7493 36.0179 38.246L20.9006 33.0051ZM21.533 34.3822L20.0961 38.5261L35.213 43.768L36.65 39.6241L21.533 34.3822ZM29.8633 33.458C25.2228 32.1249 20.3421 34.6497 18.7569 39.2197L33.8733 44.4631C32.6699 47.9326 28.9659 49.8473 25.4458 48.8361L29.8633 33.458ZM18.7569 39.2197C17.1707 43.7924 19.4434 48.7998 23.9178 50.6234L29.9566 35.8068C33.3515 37.1905 35.0776 40.9911 33.8733 44.4631L18.7569 39.2197ZM19.3784 40.5951C19.1268 41.3209 18.9289 41.8672 18.734 42.4154C18.5612 42.9013 18.3479 43.5063 18.1758 44.099C17.9934 44.7269 17.7859 45.574 17.7074 46.5752C17.6241 47.6365 17.7066 48.5869 17.8616 49.4331L33.5997 46.5498C33.6216 46.6697 33.6496 46.8564 33.6643 47.0925C33.6793 47.3342 33.6776 47.5818 33.6583 47.8269C33.6208 48.3056 33.5287 48.6033 33.541 48.5609C33.5466 48.5417 33.5665 48.4758 33.6143 48.3344C33.6619 48.1931 33.7236 48.0171 33.8095 47.7755C33.9725 47.3169 34.2167 46.641 34.496 45.8352L19.3784 40.5951ZM23.8662 40.2117C18.918 41.3976 15.3696 45.7486 15.2128 50.8414L31.2052 51.3338C31.1397 53.4623 29.6571 55.277 27.595 55.7711L23.8662 40.2117ZM15.2128 50.8414C15.056 55.9343 18.3302 60.4956 23.1966 61.9833L27.8741 46.6823C29.9024 47.3023 31.2708 49.2051 31.2052 51.3338L15.2128 50.8414ZM22.9076 61.8889C26.3028 63.0696 28.6987 63.9561 30.1354 64.3809C30.9369 64.6178 32.1147 64.9286 33.4768 64.9766C35.0583 65.0322 36.2965 64.7186 37.1061 64.4664L32.3484 49.1902C32.4736 49.1512 33.149 48.9551 34.0394 48.9865C34.7103 49.0101 35.0685 49.1547 34.6716 49.0374C34.3013 48.9279 33.7055 48.7264 32.5697 48.3265C31.5026 47.9508 30.0381 47.4287 28.1631 46.7766L22.9076 61.8889ZM26.8068 55.7027L25.8196 62.649L41.6605 64.9003L42.6477 57.9539L26.8068 55.7027ZM25.8234 62.623C25.6803 63.6067 25.8312 62.1036 26.3254 61.0076C26.567 60.4719 26.7679 60.2576 26.2614 60.9863C25.4109 62.2102 23.5417 64.7404 19.3154 70.432L32.1612 79.9706C36.2888 74.412 38.3656 71.6059 39.4 70.1175C39.836 69.4901 40.4642 68.5757 40.9111 67.5846C41.6107 66.0332 41.745 64.3196 41.6567 64.9263L25.8234 62.623ZM19.3824 70.343C16.3247 74.3433 15.9935 79.7965 18.5458 84.1375L32.3385 76.0281C33.0844 77.2968 32.9874 78.8911 32.0942 80.0596L19.3824 70.343ZM25.4421 72.0828H10.1869V88.0828H25.4421V72.0828ZM10.2235 72.0829C6.35337 72.0652 2.80445 74.2432 1.07042 77.7082L15.3788 84.8686C14.3875 86.8495 12.3598 88.0928 10.1504 88.0827L10.2235 72.0829ZM61.1681 84.1463C62.3169 82.1982 62.9244 79.9783 62.9274 77.7162L46.9274 77.695C46.9282 77.1052 47.0866 76.5267 47.3858 76.0193L61.1681 84.1463ZM62.9274 77.7056V66.8215H46.9274V77.7056H62.9274ZM62.9274 66.831C62.9317 63.257 61.6209 59.8072 59.2461 57.1377L47.2918 67.7724C47.0573 67.5088 46.927 67.167 46.9274 66.8119L62.9274 66.831ZM59.2472 57.139L52.6911 49.7663L40.7346 60.3985L47.2907 67.7712L59.2472 57.139ZM52.6813 49.7553C54.3595 51.6355 54.8853 54.28 54.0514 56.6605L38.9509 51.3715C37.8597 54.4871 38.5476 57.9481 40.7445 60.4095L52.6813 49.7553ZM54.0896 56.549L56.0969 50.5353L40.9201 45.4694L38.9128 51.4831L54.0896 56.549ZM42.0019 52.6569L42.9255 53.948L55.9386 44.6389L55.015 43.3478L42.0019 52.6569ZM42.9292 53.9532C45.4617 57.4873 49.5412 59.5832 53.8866 59.5873L53.9017 43.5873C54.7063 43.5881 55.4637 43.9762 55.9349 44.6337L42.9292 53.9532ZM53.8942 59.5873H60.4118V43.5873H53.8942V59.5873ZM52.4118 51.5873V80.0828H68.4118V51.5873H52.4118ZM60.4118 72.0828H54.277V88.0828H60.4118V72.0828ZM47.5681 43.8756C45.781 44.6448 43.6964 44.0296 42.6143 42.4056L55.9295 33.534C52.7259 28.7257 46.5451 26.8966 41.242 29.1793L47.5681 43.8756ZM42.6172 42.4099L47.8011 50.1793L61.1105 41.2991L55.9266 33.5296L42.6172 42.4099ZM47.8009 50.179C49.8989 53.3238 53.4307 55.2082 57.2081 55.2034L57.1879 39.2034C58.7617 39.2014 60.2348 39.9865 61.1107 41.2993L47.8009 50.179ZM57.198 55.2034H61.5087V39.2034H57.198V55.2034ZM61.5087 55.2034C57.7024 55.2034 54.6056 52.1186 54.6056 48.2994H70.6056C70.6056 43.2696 66.5266 39.2034 61.5087 39.2034V55.2034ZM54.6056 48.2994C54.6056 44.4802 57.7024 41.3954 61.5087 41.3954V57.3954C66.5266 57.3954 70.6056 53.3291 70.6056 48.2994H54.6056ZM61.5087 41.3954H53.8942V57.3954H61.5087V41.3954ZM53.9037 41.3954C55.4152 41.3972 56.8357 42.1262 57.7186 43.3578L44.7147 52.6798C46.8348 55.6372 50.2486 57.391 53.8846 57.3954L53.9037 41.3954ZM57.7268 43.3693L53.5587 37.5332L40.5384 46.8323L44.7066 52.6684L57.7268 43.3693ZM53.7292 37.7818C51.8952 34.9977 48.6868 33.4419 45.3687 33.7214L46.7116 49.665C44.1945 49.877 41.7599 48.6969 40.3679 46.5837L53.7292 37.7818ZM45.3687 33.7214C42.0504 34.0009 39.1469 36.0718 37.8047 39.1246L52.4515 45.5644C51.4326 47.8818 49.229 49.4529 46.7116 49.665L45.3687 33.7214ZM37.8047 39.1246C36.4621 42.178 36.8989 45.7206 38.9413 48.3563L51.5887 38.5562C53.139 40.5569 53.4707 43.2463 52.4515 45.5644L37.8047 39.1246ZM38.7555 48.1067L40.4271 50.4466L53.4461 41.1458L51.7745 38.8058L38.7555 48.1067ZM39.3479 43.2641L36.8382 50.7859L52.0157 55.8499L54.5254 48.3282L39.3479 43.2641ZM36.855 50.7362C35.5407 54.5908 36.4106 58.8533 39.1276 61.8848L51.0426 51.2063C52.1857 52.4817 52.5524 54.2763 51.9989 55.8996L36.855 50.7362ZM39.107 61.8618L45.6576 69.2279L57.6138 58.5954L51.0632 51.2293L39.107 61.8618ZM45.6479 69.217C45.0565 68.5495 44.7305 67.6868 44.7337 66.793L60.7336 66.8499C60.7444 63.8127 59.6368 60.8786 57.6234 58.6063L45.6479 69.217ZM44.7337 66.8215V77.7056H60.7337V66.8215H44.7337ZM44.7366 77.9237C44.6573 75.0149 46.7911 72.5261 49.6652 72.1503L51.7393 88.0153C56.9869 87.3293 60.8752 82.7874 60.7307 77.4875L44.7366 77.9237ZM50.1107 72.1047C51.7213 71.9853 53.3101 72.5423 54.4941 73.6439L43.5958 85.3583C45.6743 87.292 48.4644 88.2707 51.2938 88.0609L50.1107 72.1047ZM54.4941 73.6439C55.6784 74.7457 56.3506 76.2927 56.3461 77.9128L40.3462 77.8689C40.3384 80.7101 41.517 83.4243 43.5958 85.3583L54.4941 73.6439ZM56.3461 77.8909V70.9862H40.3461V77.8909H56.3461ZM56.3461 70.9552C56.3334 67.693 55.2305 64.5293 53.2137 61.9663L40.6399 71.8608C40.4512 71.6209 40.3474 71.3241 40.3462 71.0172L56.3461 70.9552ZM52.8916 61.5824L44.4763 52.1668L32.5467 62.8291L40.9619 72.2447L52.8916 61.5824ZM44.8334 52.5956C45.3383 53.2466 45.4989 54.1025 45.2628 54.8938L29.9306 50.3194C28.6906 54.4756 29.5324 58.9737 32.1896 62.4003L44.8334 52.5956ZM45.2225 55.0247C47.2786 48.5406 48.279 45.606 48.748 44.3149C48.9999 43.6214 49.0295 43.596 48.9288 43.8084C48.863 43.947 48.6735 44.3343 48.3501 44.8027C48.2827 44.9004 48.2183 44.9878 48.2387 44.9598C48.2415 44.956 48.2906 44.8889 48.3494 44.8042C48.4121 44.7138 48.5179 44.5575 48.6385 44.3565C49.3392 43.1882 49.583 42.109 49.6818 41.4924L33.883 38.9626C33.9796 38.3597 34.221 37.2876 34.9171 36.127C35.0365 35.9279 35.141 35.7736 35.2023 35.6853C35.2596 35.6027 35.3071 35.5378 35.3081 35.5365C35.3248 35.5136 35.256 35.607 35.1831 35.7127C34.8377 36.213 34.6095 36.6628 34.4725 36.9515C34.2294 37.4641 33.9866 38.0892 33.7095 38.8519C33.1206 40.4731 32.0369 43.6731 29.9709 50.1885L45.2225 55.0247ZM49.3605 42.7911C49.4364 42.5669 49.5197 42.3108 49.5631 42.1792C49.6175 42.014 49.6492 41.9216 49.6731 41.8554C49.7234 41.7164 49.6847 41.8524 49.5459 42.0945C49.3884 42.3691 49.1213 42.7496 48.7137 43.1233C48.3032 43.4997 47.8957 43.7357 47.5876 43.8691L41.2313 29.1858C35.5732 31.6352 34.3936 37.1044 34.2043 37.6639L49.3605 42.7911ZM44.4094 28.5275H44.405V44.5275H44.4094V28.5275ZM40.5672 37.1504L32.3483 34.3008L27.1071 49.418L35.326 52.2676L40.5672 37.1504ZM37.2861 44.4804L38.7219 40.3398L23.605 35.0978L22.1692 39.2384L37.2861 44.4804ZM28.5404 45.2765L36.7287 48.1184L41.9748 33.0029L33.7865 30.161L28.5404 45.2765ZM31.7746 37.9941L30.3695 42.1424L45.5237 47.2755L46.9288 43.1272L31.7746 37.9941ZM40.5007 35.2127C39.243 38.7662 35.3689 40.6444 31.8059 39.4448L36.9115 24.2812C32.1999 22.6948 27.0792 25.1792 25.4175 29.8744L40.5007 35.2127ZM31.7355 39.4207L37.9559 41.5797L43.2024 26.4644L36.9819 24.3053L31.7355 39.4207ZM37.9122 41.5644C34.3431 40.3024 32.4506 36.3964 33.6862 32.8075L48.8147 38.016C50.4419 33.2895 47.9502 28.143 43.2461 26.4797L37.9122 41.5644ZM33.6864 32.8067L33.138 34.3992L48.266 39.6092L48.8144 38.0168L33.6864 32.8067ZM33.8137 32.9359C33.2526 33.886 32.8016 34.8969 32.4695 35.9493L47.7279 40.764C47.6939 40.8719 47.6477 40.9754 47.5903 41.0725L33.8137 32.9359ZM32.4651 35.9634C31.9673 37.5511 32.0955 38.8748 32.1574 39.3744C32.1887 39.6263 32.2293 39.8436 32.2229 39.8076C32.2229 39.8075 32.2226 39.8062 32.2225 39.8052C32.2223 39.8042 32.2217 39.801 32.2214 39.7991C32.2205 39.7939 32.219 39.7856 32.2172 39.7753C32.2138 39.7553 32.2079 39.7212 32.2011 39.6786C32.1884 39.5988 32.1655 39.4484 32.1454 39.258C32.1142 38.9609 31.7037 35.8779 34.086 33.1651C36.431 30.4948 39.4501 30.457 40.0094 30.453C40.8804 30.4466 41.5396 30.592 41.6717 30.6204C41.9008 30.6694 42.0607 30.7158 42.0914 30.7247C42.157 30.7437 42.1357 30.7393 41.922 30.6675C41.0543 30.3759 39.1358 29.6953 34.5061 28.09L29.2643 43.207C33.7092 44.7482 35.8689 45.5127 36.8251 45.834C37.0673 45.9154 37.361 46.0123 37.6436 46.0941C37.7828 46.1343 38.0268 46.2025 38.3206 46.2655C38.5176 46.3077 39.2225 46.4591 40.1254 46.4525C40.7165 46.4482 43.7537 46.404 46.1083 43.7228C48.5003 40.999 48.0909 37.9005 48.0577 37.5851C48.0372 37.3902 48.0137 37.2351 48.0001 37.1503C47.9929 37.1053 47.9867 37.0688 47.9828 37.0463C47.9791 37.0249 47.9759 37.0073 47.9758 37.0063C47.9675 36.9599 48.0062 37.1663 48.0361 37.4072C48.0952 37.8846 48.223 39.1849 47.7323 40.7499L32.4651 35.9634ZM39.4458 38.2633L40.5197 35.1584L25.3985 29.9287L24.3246 33.0336L39.4458 38.2633ZM36.0019 47.1642L28.8722 44.6994L23.6443 59.8212L30.774 62.286L36.0019 47.1642ZM28.5389 44.5922C31.814 45.5663 33.8653 48.8215 33.319 52.2042L17.5237 49.6531C16.7864 54.2177 19.5541 58.6127 23.9776 59.9283L28.5389 44.5922ZM33.1699 52.9183C32.6962 54.7631 31.4799 56.3274 29.8125 57.2414L22.1212 43.2114C19.9114 44.4228 18.3001 46.4955 17.6727 48.939L33.1699 52.9183ZM29.8126 57.2414C28.1455 58.1553 26.1749 58.3386 24.3683 57.7484L29.3372 42.5395C26.9426 41.7571 24.3306 42.0001 22.1212 43.2114L29.8126 57.2414ZM24.2274 57.7009C24.4936 57.7934 24.6459 57.8481 24.863 57.9244C25.0115 57.9766 25.3297 58.089 25.6661 58.1872C26.0495 58.2991 26.6804 58.4616 27.4705 58.5292C28.2773 58.5983 28.924 58.5397 29.2551 58.5031L27.4953 42.6002C27.6581 42.5822 28.1703 42.5306 28.835 42.5875C29.4831 42.643 29.9643 42.7741 30.1492 42.8281C30.2871 42.8684 30.3579 42.8962 30.1685 42.8296C30.0478 42.7872 29.7719 42.689 29.4781 42.587L24.2274 57.7009ZM25.3339 57.951C26.9058 58.5971 27.8801 59.0063 28.3779 59.2031C28.5697 59.2789 29.1551 59.5148 29.8324 59.6814C30.9134 59.9473 31.7813 59.9337 31.9543 59.9337V43.9337C31.9081 43.9337 31.9722 43.9334 32.0418 43.9346C32.1298 43.9362 32.2818 43.9405 32.4718 43.9552C32.6679 43.9704 32.8752 43.9944 33.0909 44.0296C33.3031 44.0643 33.4922 44.1047 33.6544 44.1446C33.9584 44.2194 34.1746 44.2944 34.2381 44.3168C34.3072 44.3411 34.3285 44.3507 34.2601 44.3236C34.1151 44.2663 33.8688 44.1651 33.3762 43.9612C32.9087 43.7678 32.2717 43.5038 31.4165 43.1523L25.3339 57.951ZM31.9461 59.9337C36.2878 59.9381 40.0337 56.8723 40.879 52.6049L25.184 49.496C25.8257 46.256 28.6691 43.9303 31.9626 43.9337L31.9461 59.9337ZM40.879 52.6049C41.7245 48.3364 39.4286 44.0725 35.4098 42.423L29.3347 57.2248C26.2855 55.9733 24.542 52.7371 25.184 49.496L40.879 52.6049ZM35.413 42.4243C32.9709 41.4208 31.9441 40.9954 31.5343 40.8289C31.4371 40.7895 31.2961 40.7325 31.1578 40.6801C31.0917 40.6551 30.9433 40.5994 30.7581 40.5392C30.6185 40.4937 30.1624 40.3461 29.5624 40.247C29.2193 40.1904 28.803 40.1445 28.3288 40.1401C27.8398 40.1355 27.4443 40.1768 27.1996 40.2092C26.662 40.2803 27.5006 40.1517 28.113 40.142C28.7782 40.1315 29.3069 40.2074 29.6059 40.26C29.9024 40.3121 30.1286 40.37 30.2332 40.3978L26.1246 55.8613C26.2658 55.8988 26.518 55.9624 26.8335 56.018C27.1516 56.0739 27.6923 56.1507 28.3661 56.14C28.9872 56.1302 29.8311 56.0004 29.299 56.0708C29.057 56.1029 28.6643 56.1439 28.1786 56.1393C27.7078 56.1349 27.2952 56.0893 26.957 56.0335C26.3665 55.936 25.9238 55.7919 25.8049 55.7532C25.6406 55.6997 25.5203 55.6541 25.4936 55.644C25.4338 55.6213 25.4155 55.6131 25.514 55.6531C25.8867 55.8045 26.8102 56.1874 29.3315 57.2235L35.413 42.4243ZM33.8387 42.4756C35.7329 44.3718 36.3685 47.1899 35.4685 49.7172L20.3956 44.3498C19.2234 47.6418 20.0511 51.3129 22.5191 53.7834L33.8387 42.4756ZM35.491 49.6533L36.5659 46.5516L21.4481 41.3122L20.3732 44.4138L35.491 49.6533ZM26.3905 51.4919L34.6237 54.3415L39.8568 39.2215L31.6236 36.3719L26.3905 51.4919ZM29.661 44.221C29.2358 45.4797 27.6282 50.2675 27.2213 51.4506L42.3517 56.6538C42.7762 55.4191 44.4264 50.5053 44.8194 49.342L29.661 44.221ZM27.2329 51.4173C28.4875 47.8205 32.4131 45.9253 36.0041 47.1657L30.7806 62.289C35.5146 63.9241 40.6874 61.425 42.3401 56.6871L27.2329 51.4173ZM36.9673 47.5705L36.9629 47.5683L29.813 61.8819L29.8174 61.8841L36.9673 47.5705ZM33.9746 81.214L41.5793 70.7605L28.6408 61.348L21.0361 71.8015L33.9746 81.214ZM41.5291 70.8287C42.0047 70.1894 42.5543 69.3487 43.0089 68.2429C43.4304 67.2174 43.6472 66.2594 43.787 65.5131C44.0141 64.3008 44.2594 62.2643 44.6072 59.8271L28.7676 57.5668C28.5632 58.9994 28.4125 60.1333 28.299 60.9641C28.1772 61.8561 28.1113 62.2966 28.0606 62.5671C28.0143 62.8141 28.0409 62.5719 28.2104 62.1596C28.413 61.6668 28.6487 61.3367 28.691 61.2798L41.5291 70.8287ZM30.1969 63.3739C30.0998 63.2391 29.9906 63.0751 29.8837 62.8968C29.8314 62.8095 30.0476 63.1861 30.3351 63.5769C30.6386 63.9896 31.0117 64.401 31.1073 64.5088C31.5418 64.9986 32.5608 66.1338 34.9355 68.791L46.8656 58.1292C44.4457 55.4215 43.4866 54.3533 43.0773 53.8918C43.0301 53.8386 42.9959 53.7999 42.9714 53.7719C42.946 53.743 42.9372 53.7328 42.939 53.7349C42.9404 53.7365 42.947 53.7442 42.9574 53.7566C42.9677 53.7688 42.9847 53.7891 43.0064 53.8157C43.0468 53.8651 43.1267 53.9643 43.2244 54.0972C43.4794 54.4439 43.6815 54.7949 43.6072 54.6709C43.4783 54.4559 43.3392 54.2439 43.1778 54.02L30.1969 63.3739ZM33.0199 62.0833L32.4583 65.2978L48.2195 68.0514L48.7811 64.8369L33.0199 62.0833ZM32.4492 65.3508C32.3144 66.154 32.4591 65.2942 32.5238 65.0273C32.6976 64.3115 32.9522 63.7466 33.1539 63.3745C33.3657 62.9838 33.4963 62.8664 32.8687 63.6983C31.8089 65.1032 29.6035 67.9143 24.7546 74.1682L37.3991 83.9721C42.1347 77.8644 44.4979 74.8504 45.6417 73.3342C46.1159 72.7056 46.7571 71.8537 47.2196 71.0005C48.1122 69.3541 48.2649 67.7823 48.2286 67.9984L32.4492 65.3508ZM24.4454 74.5953C25.7795 72.6182 28.1881 71.6656 30.5096 72.1897L26.9863 87.7969C31.0929 88.724 35.3511 87.0382 37.7083 83.545L24.4454 74.5953ZM30.5096 72.1897C32.8319 72.714 34.5996 74.6106 34.9539 76.9723L19.1311 79.3464C19.7567 83.5165 22.8789 86.8697 26.9863 87.7969L30.5096 72.1897ZM34.9868 77.2168C35.1659 78.7267 34.7399 80.2452 33.8034 81.4408L21.2074 71.5746C19.5379 73.7061 18.7791 76.412 19.0982 79.1019L34.9868 77.2168ZM48.3198 73.3937C49.8082 71.152 50.6512 68.5439 50.7559 65.8546L34.768 65.2325C34.7776 64.9861 34.8548 64.7477 34.9905 64.5433L48.3198 73.3937ZM36.7975 70.8751L39.2731 73.6446L51.202 62.9815L48.7264 60.212L36.7975 70.8751ZM38.9265 73.2295C38.4233 72.5835 38.1504 71.7869 38.1524 70.9665L54.1524 71.0058C54.1591 68.2493 53.2421 65.5706 51.5486 63.3967L38.9265 73.2295ZM38.1524 70.9862V77.8909H54.1524V70.9862H38.1524ZM38.1525 77.9306C38.1634 80.1266 38.7604 82.2796 39.8814 84.1674L53.6387 75.9982C53.9716 76.5588 54.149 77.1984 54.1523 77.8512L38.1525 77.9306ZM46.76 72.0828H33.071V88.0828H46.76V72.0828ZM39.4024 84.9729L47.9866 73.8586L35.3237 64.0784L26.7395 75.1927L39.4024 84.9729ZM2.26385 86.6241C2.61564 87.0171 3.04563 87.4424 3.25733 87.6506C3.39006 87.7811 3.50903 87.8965 3.59471 87.9791C3.63793 88.0208 3.67365 88.0551 3.69955 88.0799C3.71252 88.0924 3.72309 88.1025 3.73098 88.11C3.73493 88.1138 3.73821 88.1169 3.7408 88.1194C3.74209 88.1206 3.74321 88.1217 3.74414 88.1226C3.74461 88.123 3.74504 88.1234 3.74542 88.1238C3.74561 88.124 3.74578 88.1242 3.74595 88.1243C3.74604 88.1244 3.74615 88.1245 3.74619 88.1245C3.74631 88.1247 3.74642 88.1248 9.2667 82.3345C14.787 76.5443 14.7871 76.5444 14.7872 76.5445C14.7872 76.5446 14.7873 76.5447 14.7874 76.5447C14.7875 76.5448 14.7876 76.5449 14.7877 76.545C14.7879 76.5452 14.7881 76.5454 14.7882 76.5455C14.7884 76.5457 14.7885 76.5458 14.7884 76.5457C14.7883 76.5456 14.7875 76.5448 14.7861 76.5435C14.7832 76.5408 14.778 76.5358 14.7707 76.5287C14.7559 76.5146 14.7328 76.4924 14.7034 76.4641C14.6439 76.4067 14.5627 76.3278 14.475 76.2417C14.2461 76.0165 14.155 75.9188 14.1854 75.9527L2.26385 86.6241ZM8.97473 90.3292C15.6993 90.5748 29.7103 90.5202 43.2861 90.4356C57.0416 90.3499 70.4097 90.2327 76.2512 90.3334L76.5267 74.3357C70.4372 74.2308 56.7543 74.3514 43.1864 74.4359C29.4387 74.5216 15.8541 74.5698 9.55867 74.3399L8.97473 90.3292ZM81.7692 88.2551C82.3952 87.6862 82.9978 87.0741 83.5642 86.4156L71.434 75.9822C71.3293 76.1038 71.1904 76.2489 71.0087 76.414L81.7692 88.2551Z" fill="#FAD33D" mask="url(#path-4-inside-2)"/>
<path d="M23.1117 10.1411L23.1147 10.111L23.2899 8.34591C24.2154 8.43777 24.918 9.22153 24.918 10.1411C24.918 11.1321 24.1082 11.9443 23.1147 11.9443C23.0536 11.9443 22.9932 11.9413 22.9336 11.9353L23.1117 10.1411ZM23.1117 10.1411L23.1147 10.1106L23.2898 8.3459C23.231 8.34006 23.1726 8.33716 23.1147 8.33706C22.1353 8.33546 21.3114 9.13821 21.3114 10.1411C21.3114 11.0733 22.0266 11.8438 22.9336 11.9353L23.1117 10.1411Z" fill="#FAD33D" stroke="#FAD33D" stroke-width="8"/>
</svg>
