<svg width="407" height="545" viewBox="0 0 407 545" fill="none" xmlns="http://www.w3.org/2000/svg">
<path fill-rule="evenodd" clip-rule="evenodd" d="M218.277 75.4091C214.327 67.1006 212.648 57.7658 215.789 48.6515C224.838 22.3908 260.516 38.2613 264.144 53.7113C267.772 69.1613 257.729 103.195 247.716 103.1C243.723 103.062 236.398 98.5709 229.607 91.5195L225.054 128.844L195.039 120.802L218.277 75.4091Z" fill="#D4A181"/>
<path fill-rule="evenodd" clip-rule="evenodd" d="M229.169 76.3111C223.533 82.4582 216.943 86.459 211.801 85.081C202.032 82.4636 198.586 67.5427 202.349 53.5011C202.481 53.0077 202.622 52.5203 202.772 52.0391C190.539 56.3611 178.83 68.2041 165.158 64.5406C146.556 59.5564 149.222 20.0584 175.211 27.0219C192.885 31.7577 200.888 36.6641 207.359 42.4823C209.953 38.7122 213.145 35.8135 216.556 34.1058C217.419 33.5372 218.626 33.0956 220.115 32.7851C221.034 32.5613 221.959 32.4264 222.883 32.386C227.847 31.9363 234.705 32.5187 242.085 34.2223C243.462 34.5404 244.807 34.8857 246.11 35.2538C247.977 28.3706 255.063 24.2909 261.957 26.138C268.864 27.9888 272.963 35.0883 271.112 41.9953C269.322 48.675 262.623 52.7284 255.937 51.314C251.854 51.4671 246.78 51.0232 241.311 49.9438C241.307 52.0453 240.993 54.3499 240.318 56.8684C239.723 59.0922 238.845 61.3849 237.752 63.6585C236.957 61.9611 235.641 60.6397 234.06 60.2159C229.636 59.0304 225.581 61.8448 224.545 65.709C223.231 70.6133 225.112 74.9199 229.169 76.3111Z" fill="#191847"/>
<path fill-rule="evenodd" clip-rule="evenodd" d="M174.242 235.259L270.45 396.101L342.578 532.079H358.113L237.262 235.259L174.242 235.259Z" fill="#BA8B72"/>
<path fill-rule="evenodd" clip-rule="evenodd" d="M333.079 525.801C331.63 529.668 330.906 532.561 330.906 534.481C330.906 536.816 331.295 540.223 332.073 544.702C334.782 544.702 359.124 544.702 405.099 544.702C406.996 538.428 405.901 535.041 401.812 534.541C397.724 534.041 394.327 533.589 391.623 533.186L357.681 518.055C357.028 517.764 356.263 518.057 355.972 518.71C355.967 518.721 355.962 518.733 355.957 518.744L353.776 524.036C349.991 525.802 346.915 526.685 344.549 526.685C342.626 526.685 339.971 525.909 336.583 524.356L336.583 524.356C335.283 523.76 333.746 524.331 333.15 525.631C333.124 525.687 333.101 525.744 333.079 525.801Z" fill="#E4E4E4"/>
<path fill-rule="evenodd" clip-rule="evenodd" d="M322.545 510.304L352.506 501.241C339.379 462 323.291 418.817 304.241 371.692C285.19 324.566 264.731 279.089 242.863 235.259H158.244C182.557 290.701 208.332 341.078 235.568 386.388C262.805 431.698 291.797 473.004 322.545 510.304Z" fill="#DB2721"/>
<path fill-rule="evenodd" clip-rule="evenodd" d="M167.92 235.259C158.84 291.78 141.327 363.992 139.674 366.22C138.572 367.706 98.9055 380.998 20.6738 406.096L24.0297 419.796C117.321 406.335 166.477 395.892 171.499 388.467C179.032 377.328 216.644 289.332 231.212 235.259H167.92Z" fill="#D4A181"/>
<path fill-rule="evenodd" clip-rule="evenodd" d="M48.1719 394.254L54.0829 416.318C123.859 422.438 166.613 418.016 182.343 403.052C198.074 388.089 216.002 332.158 236.128 235.259H155.439C142.688 314.606 135.559 355.945 134.053 359.276C132.546 362.606 103.919 374.266 48.1719 394.254Z" fill="#FF4133"/>
<path fill-rule="evenodd" clip-rule="evenodd" d="M24.5049 400.389C20.4454 399.634 17.4704 399.423 15.5799 399.757C13.2805 400.162 9.99281 401.137 5.71666 402.681C6.18699 405.348 10.4139 429.32 18.3974 474.597C24.9053 475.376 28.0506 473.709 27.8332 469.596C27.6159 465.483 27.4709 462.059 27.3983 459.326L36.4058 423.273C36.5792 422.579 36.1573 421.876 35.4636 421.703C35.4517 421.7 35.4398 421.697 35.4278 421.694L29.837 420.465C27.4406 417.044 26.037 414.168 25.626 411.838C25.2922 409.945 25.5958 407.195 26.5369 403.589L26.5369 403.589C26.8981 402.205 26.0691 400.791 24.6853 400.429C24.6257 400.414 24.5655 400.4 24.5049 400.389Z" fill="#E4E4E4"/>
<path fill-rule="evenodd" clip-rule="evenodd" d="M288.593 224.952L323.999 261.99C334.506 266.912 343.069 272.24 349.689 277.975C351.157 279.877 352.701 283.476 345.548 281.64C338.396 279.804 330.79 278.194 329.354 280.491C327.917 282.787 331.783 286.518 329.173 289.499C327.432 291.486 322.046 284.784 313.015 269.395L275.683 245.592L288.593 224.952ZM106.73 180.057L128.469 188.083C93.2869 235.205 74.5061 260.089 72.1263 262.735C66.7716 268.687 68.8616 281.481 69.3309 288.119C59.6819 288.811 65.5708 275.383 53.3311 276.443C42.1592 277.41 31.9602 282.819 23.4008 271.99C22.3485 270.659 22.0089 266.965 26.4988 265.809C37.6848 262.929 54.4951 256.881 57.5251 253.979C61.6572 250.022 78.0588 225.382 106.73 180.057Z" fill="#D4A181"/>
<path fill-rule="evenodd" clip-rule="evenodd" d="M297.497 229.869C302.796 230.416 308.335 232.287 314.076 235.419C316.9 236.96 317.94 240.5 316.399 243.324C315.504 244.965 313.935 246.004 312.223 246.284C313.241 247.342 314.269 248.397 315.309 249.449L301.355 268.586C261.974 239.445 224.253 216.058 212.027 177.255C207.924 164.232 217.169 124.083 219.176 109.238L233.799 106.05C245.88 148.696 264.959 190.929 297.497 229.869Z" fill="#69A1AC"/>
<path fill-rule="evenodd" clip-rule="evenodd" d="M147.107 237.839C186.416 249.311 217.968 254.874 241.763 254.529C244.711 254.487 246.753 242.171 246.023 238.58C234.647 182.664 227.848 142.001 234.252 105.685C230.125 106.992 223.459 106.122 214.255 103.074C182.264 136.021 163.021 176.904 147.107 237.839Z" fill="#191847"/>
<path fill-rule="evenodd" clip-rule="evenodd" d="M138.569 242.708C137.433 241.187 137.062 239.142 137.76 237.225L139.088 233.575C139.989 231.101 142.39 229.608 144.889 229.749C145.654 227.911 146.358 226.076 146.995 224.244C152.379 208.764 150.736 192.365 153.648 177.06C130.06 190.938 106.341 217.9 82.4902 257.948L59.6578 246.615C61.1785 243.364 62.7249 240.16 64.2967 237.004C61.7956 234.934 59.8238 227.124 62.3748 226.326C65.0095 225.5 67.7222 225.071 70.5069 225.028C104.315 162.415 149 120.143 204.563 98.2119L208.999 98.994L219.064 100.769C204.839 156.477 242.075 290.142 203.036 391.805C163.698 393.583 114.303 357.759 58.003 369.494C67.4354 327.445 115.42 284.553 138.569 242.708L138.569 242.708Z" fill="#89C5CC"/>
<path fill-rule="evenodd" clip-rule="evenodd" d="M209.605 100.415L199.459 119.485L210.032 136.986L195.959 146.792L216.178 201.493L189.486 145.753L203.364 135.81L193.968 120.335L209.605 100.415Z" fill="black" fill-opacity="0.1"/>
<path fill-rule="evenodd" clip-rule="evenodd" d="M204.311 219.12C201.495 218.623 199.614 215.937 200.11 213.12C200.607 210.303 203.293 208.423 206.11 208.919C208.927 209.416 210.808 212.102 210.311 214.919C209.814 217.736 207.128 219.617 204.311 219.12ZM205.516 249.571C202.699 249.074 200.818 246.388 201.315 243.571C201.811 240.754 204.498 238.873 207.314 239.37C210.131 239.867 212.012 242.553 211.515 245.37C211.019 248.186 208.332 250.067 205.516 249.571ZM201.62 279.122C198.803 278.625 196.922 275.939 197.419 273.122C197.915 270.306 200.602 268.425 203.418 268.921C206.235 269.418 208.116 272.104 207.619 274.921C207.123 277.738 204.436 279.619 201.62 279.122Z" fill="black" fill-opacity="0.4"/>
</svg>
