<svg width="352" height="530" viewBox="0 0 352 530" fill="none" xmlns="http://www.w3.org/2000/svg">
<path fill-rule="evenodd" clip-rule="evenodd" d="M193.339 49.4571C199.473 42.257 203.625 33.4331 202.931 23.5458C200.932 -4.94246 161.276 1.32459 153.562 15.703C145.848 30.0814 146.764 66.5535 156.734 69.1233C160.71 70.1481 169.18 67.6377 177.8 62.4418L172.389 100.721H204.338L193.339 49.4571Z" fill="#B28B67"/>
<mask id="mask0" mask-type="alpha" maskUnits="userSpaceOnUse" x="151" y="0" width="75" height="140">
<path d="M157.791 10.7902C157.079 11.0294 157.791 7.96743 159.493 6.84763C164.712 3.41371 180.249 -1.6686 190.873 0.536866C197.991 2.01432 206.867 5.72285 212.552 10.4503C217.676 14.7121 222.339 22.2255 224.154 28.8263C226.059 35.7573 226.779 45.4013 224.154 51.4483C221.027 58.6497 209.954 66.4111 209.661 67.4419C209.327 68.6181 210.636 73.2135 211.594 78.0556C212.552 82.8977 212.116 95.2263 211.594 97.2372C210.76 100.45 206.287 102.03 204.337 102.263C193.554 103.548 185.737 116.934 182.484 120.359C168.004 134.897 157.898 141.22 152.166 139.326C150.658 138.828 152.919 120.764 154.427 113.022C155.936 105.279 170.731 91.4624 171.678 86.9091C172.236 84.2268 172.33 79.5575 172.388 79.3447C173.783 69.725 173.543 68.9431 175.578 65.0232C177.614 61.1033 179.192 60.8732 178.703 59.7314C176.313 54.1522 168.625 37.0815 166.881 31.4996C164.803 24.8468 165.785 27.0319 163.642 20.4017C162.693 17.4657 161.486 9.54846 157.791 10.7902Z" fill="white"/>
</mask>
<g mask="url(#mask0)">
<path d="M157.791 10.7902C157.079 11.0294 157.791 7.96743 159.493 6.84763C164.712 3.41371 180.249 -1.6686 190.873 0.536866C197.991 2.01432 206.867 5.72285 212.552 10.4503C217.676 14.7121 222.339 22.2255 224.154 28.8263C226.059 35.7573 226.779 45.4013 224.154 51.4483C221.027 58.6497 209.954 66.4111 209.661 67.4419C209.327 68.6181 210.636 73.2135 211.594 78.0556C212.552 82.8977 212.116 95.2263 211.594 97.2372C210.76 100.45 206.287 102.03 204.337 102.263C193.554 103.548 185.737 116.934 182.484 120.359C168.004 134.897 157.898 141.22 152.166 139.326C150.658 138.828 152.919 120.764 154.427 113.022C155.936 105.279 170.731 91.4624 171.678 86.9091C172.236 84.2268 172.33 79.5575 172.388 79.3447C173.783 69.725 173.543 68.9431 175.578 65.0232C177.614 61.1033 179.192 60.8732 178.703 59.7314C176.313 54.1522 168.625 37.0815 166.881 31.4996C164.803 24.8468 165.785 27.0319 163.642 20.4017C162.693 17.4657 161.486 9.54846 157.791 10.7902Z" fill="#89C5CC"/>
<path fill-rule="evenodd" clip-rule="evenodd" d="M185.28 11.5312C187.615 18.9406 188.117 22.8957 187.615 33.0196H188.761C190.9 23.4657 188.996 14.4717 186.72 11.5312H185.28ZM216.608 30.653C212.256 41.2121 210.272 47.4474 198.12 55.9921L199.059 56.6491C211.122 49.8123 214.635 41.657 217.523 31.0928L216.608 30.653ZM198.728 19.9075C196.752 34.8952 196.175 43.4561 185.878 59.8505L186.974 60.1854C197.571 45.9109 199.25 34.2602 199.751 19.9899L198.728 19.9075ZM210.102 64.4281L209.165 63.2887C196.376 67.2946 197.8 75.5649 181.692 83.9405L183.038 84.7561C197.143 78.9351 200.44 66.4502 210.102 64.4281Z" fill="black" fill-opacity="0.2"/>
</g>
<path fill-rule="evenodd" clip-rule="evenodd" d="M230.004 210.881C227.604 243.642 72.9729 340.092 72.0707 342.798C71.6697 344.001 87.7133 382.021 120.202 456.857L106.684 462.11C56.8531 382.852 33.2171 339.001 35.7766 330.556C39.4411 318.465 79.4332 278.689 155.753 211.23L230.004 210.881Z" fill="#B28B67"/>
<path fill-rule="evenodd" clip-rule="evenodd" d="M116.643 439.956L94.5746 447.99C48.0394 395.484 29.7988 352.162 33.1247 330.089C35.342 315.373 75.1961 275.664 152.687 210.962L231.586 210.962C228.894 286.829 85.5701 343.087 83.6531 346.32C81.7361 349.553 100.602 381.217 116.643 439.956Z" fill="#2F3676"/>
<path fill-rule="evenodd" clip-rule="evenodd" d="M125.174 454.277C127.933 457.504 129.651 460.044 130.326 461.899C131.147 464.155 131.969 467.583 132.792 472.184C130.176 473.137 106.658 481.697 62.2386 497.864C58.199 492.47 58.0663 488.812 61.8406 486.891C65.6149 484.97 68.7376 483.34 71.2086 481.999L98.6804 455.444C99.209 454.933 100.052 454.948 100.563 455.476C100.571 455.485 100.58 455.495 100.589 455.504L104.558 459.85C108.835 460.225 112.117 459.997 114.404 459.164C116.261 458.488 118.554 456.804 121.28 454.113L121.28 454.113C122.327 453.08 124.013 453.091 125.046 454.137C125.09 454.182 125.133 454.229 125.174 454.277Z" fill="#E4E4E4"/>
<path fill-rule="evenodd" clip-rule="evenodd" d="M212.224 210.881L281.108 376.252L348.811 516.059H332.837L158.08 210.881H212.224Z" fill="#997659"/>
<path fill-rule="evenodd" clip-rule="evenodd" d="M349.766 509.604C351.255 513.58 352 516.555 352 518.528C352 520.929 351.6 524.432 350.8 529.037C348.015 529.037 322.988 529.037 275.718 529.037C273.767 522.587 274.894 519.105 279.097 518.59C283.301 518.076 286.793 517.612 289.574 517.197L324.471 501.64C325.142 501.34 325.929 501.642 326.229 502.314C326.234 502.325 326.239 502.337 326.244 502.348L328.487 507.79C332.378 509.605 335.541 510.513 337.974 510.513C339.95 510.513 342.68 509.715 346.163 508.118L346.163 508.118C347.5 507.505 349.08 508.092 349.693 509.429C349.719 509.487 349.744 509.545 349.766 509.604Z" fill="#E4E4E4"/>
<path fill-rule="evenodd" clip-rule="evenodd" d="M342.697 487.015L307.205 493.671C279.762 453.325 164.913 287.894 152.321 210.881H231.335C273.387 266.553 316.539 446.002 342.697 487.015Z" fill="#5C63AB"/>
<path fill-rule="evenodd" clip-rule="evenodd" d="M101.154 74.407L50.6971 59.2601C41.2842 51.9326 32.4058 46.5751 24.0617 43.1875C21.6349 42.7308 17.6173 42.9961 22.6378 48.6912C27.6583 54.3864 32.683 60.6027 31.2495 62.9907C29.8161 65.3787 24.5933 63.5785 23.0818 67.3613C22.0741 69.8831 30.727 71.6893 49.0405 72.7798L88.2721 95.8682L101.154 74.407ZM105.613 163.367L63.1503 194.549C51.6335 197.656 42.0116 201.523 34.2846 206.148C32.4593 207.811 30.2533 211.179 37.8231 210.597C45.3929 210.015 53.3813 209.743 54.4258 212.325C55.4703 214.907 50.8895 217.995 53.0008 221.479C54.4084 223.801 61.0583 217.978 72.9506 204.008L115 186.571L105.613 163.367Z" fill="#B28B67"/>
<path fill-rule="evenodd" clip-rule="evenodd" d="M171.567 79.3932C148.443 122.51 115.005 155.562 66.5292 189.921L84.8842 210.617C139.01 190.503 167.576 178.367 181.604 137.63C185.125 127.406 187.586 94.8139 189.697 77.6654L171.567 79.3932Z" fill="#2026A2"/>
<path fill-rule="evenodd" clip-rule="evenodd" d="M236.213 223.047H133.711C156.929 152.234 168.79 103.633 169.293 77.2431C169.319 75.8977 171.804 73.5269 172.903 73.8374C180.942 76.1078 189.545 75.2589 198.711 71.2905C223.011 110.372 231.414 158.49 236.213 223.047Z" fill="#F2F2F2"/>
<path fill-rule="evenodd" clip-rule="evenodd" d="M189.963 71.3546C160.581 71.5952 112.911 76.9607 57.9342 59.3108L52.5065 86.4319C94.0574 113.155 136.131 133.857 172.998 130.917C156.989 199.588 157.727 255.803 193.071 255.803C209.949 255.803 228.167 255.803 247.725 255.803C256.405 197.468 233.592 116.584 212.442 75.7865C211.634 74.2285 209.915 71.2916 205.864 71.2916C202.335 71.2916 197.042 71.2916 189.983 71.2916C189.976 71.3126 189.97 71.3336 189.963 71.3546Z" fill="#1F28CF"/>
</svg>
