<svg width="320" height="459" viewBox="0 0 320 459" fill="none" xmlns="http://www.w3.org/2000/svg">
<path fill-rule="evenodd" clip-rule="evenodd" d="M107.475 68.4612C101.227 61.1273 96.9978 52.1395 97.7044 42.0684C99.7404 13.0509 140.134 19.4344 147.991 34.0799C155.849 48.7255 154.915 85.8753 144.76 88.4929C140.71 89.5367 132.083 86.9796 123.302 81.6872L128.814 120.678H96.2715L107.475 68.4612Z" fill="#B28B67"/>
<path fill-rule="evenodd" clip-rule="evenodd" d="M83.5175 32.4091C82.4664 31.3675 81.893 29.8808 81.3971 28.4691C80.882 27.0026 80.3816 25.521 80.0396 23.9946C79.3563 20.9448 79.3498 17.4375 81.5255 15.0693C83.2704 13.1703 85.8885 12.3185 88.3048 12.1334C89.9146 12.01 91.568 12.2354 93.1112 12.7427C94.6423 13.246 95.9621 14.249 97.4463 14.8715C97.503 11.5849 98.066 8.14603 99.7333 5.33977C101.338 2.63969 103.896 1.1245 106.809 0.723649C109.799 0.312269 112.752 1.01198 115.429 2.45957C116.099 2.82211 116.763 3.20191 117.398 3.63178C117.93 3.99175 118.484 4.42526 119.108 4.57165C119.804 4.73504 120.149 4.33311 120.601 3.82539C121.131 3.23011 121.729 2.7058 122.361 2.24099C125.157 0.186115 128.824 -0.658772 132.063 0.57294C133.556 1.14043 135.007 2.10418 136.019 3.43223C136.921 4.61604 137.565 6.4939 138.811 7.31868C139.339 7.66881 139.713 7.20494 140.194 6.8621C140.917 6.34697 141.606 5.77854 142.338 5.27743C143.365 4.57341 144.478 4.0468 145.669 3.77115C147.414 3.3676 149.824 3.46218 150.323 5.7467C150.51 6.60481 150.366 7.52255 150.306 8.38714C150.223 9.57432 150.136 10.7611 150.033 11.9465C149.955 12.8466 149.856 13.7159 149.686 14.5998C149.596 15.0709 149.312 15.9493 149.514 16.4211C149.767 17.0109 150.932 16.6756 151.43 16.6961C152.413 16.7367 153.4 16.9091 154.31 17.3293C155.014 17.655 155.755 18.134 156.052 18.9416C156.235 19.4377 156.187 19.9473 156.101 20.4577C155.997 21.0703 156.116 21.3952 156.193 22.0133C157.514 21.3629 162.09 19.9181 162.666 22.2849C162.858 23.073 162.421 23.9634 162.088 24.6281C161.504 25.7938 160.738 26.8593 159.955 27.8754C158.322 29.9952 156.372 31.8235 154.274 33.3871C156.732 34.4799 157.373 37.7031 155.245 39.6234C154.306 40.4713 153.042 40.66 151.857 40.6058C151.423 40.586 150.798 40.4192 150.456 40.4947C150.273 40.5354 150.076 40.6911 149.822 40.7085C148.149 40.823 146.261 40.42 144.625 40.0488C141.712 39.3874 138.953 38.007 136.701 35.9047C136.123 35.3654 135.646 35.0549 134.868 35.0629C134.186 35.0698 133.518 35.2566 132.837 35.2739C131.035 35.3199 129.411 34.4391 127.738 33.8529C127.635 36.113 126.992 38.6022 126.067 40.6355C125.313 42.2935 123.739 42.5345 122.192 42.68C117.244 43.1454 112.28 42.626 107.326 42.6329C112.121 43.7167 117.076 44.1634 121.829 45.4389C123.977 46.0153 122.337 47.4631 121.418 48.4668C119.906 50.1196 118.781 52.1675 118.001 54.3249C115.655 51.2673 111.509 49.2526 107.836 50.1919C103.777 51.2296 100.92 56.7182 103.515 60.664C105.022 62.9546 107.743 63.8388 110.007 64.823C108.24 66.6593 107.813 69.3714 106.75 71.6559C106.226 72.7825 105.49 74.0563 104.317 74.4489C103.884 74.5942 103.375 74.6066 103.033 74.9603C102.609 75.3981 102.508 75.8876 101.966 76.2639C99.806 77.7659 96.4314 77.6501 94.5166 75.6901C92.785 73.9175 93.2355 71.1124 94.6817 69.3152C92.3796 68.3557 88.1855 67.1215 89.1004 63.535C84.112 63.2038 72.0004 55.1135 78.6956 49.2017C75.0213 47.1251 71.6456 42.0501 74.0058 37.5765C75.8231 34.1316 80.0497 32.5918 83.5175 32.4091Z" fill="#191847"/>
<path fill-rule="evenodd" clip-rule="evenodd" d="M37.4544 290.169H142.206L155.932 458.305H0L37.4544 290.169Z" fill="#C5CFD6"/>
<path fill-rule="evenodd" clip-rule="evenodd" d="M37.4544 290.169H69.6716L88.9543 458.305H0L37.4544 290.169Z" fill="black" fill-opacity="0.1"/>
<path fill-rule="evenodd" clip-rule="evenodd" d="M261.632 261.364C272.8 254.658 291.539 263.274 291.526 272.866C291.487 301.563 265.298 436.815 263.93 445.365C262.563 453.915 247.914 456.174 247.061 445.393C245.704 428.24 243.182 368.859 245.706 341.373C246.747 330.028 247.869 319.223 248.973 309.583C235.23 334.401 213.976 369.934 185.211 416.182L169.596 409.047C181.858 368.646 191.913 340.123 199.761 323.48C213.198 294.983 225.797 270.579 231.1 261.983C239.441 248.461 253.96 253.179 261.632 261.364Z" fill="#B28B67"/>
<path fill-rule="evenodd" clip-rule="evenodd" d="M170.711 386.611L224.308 259.644C237.148 238.99 273.147 263.847 268.768 275.826C258.827 303.023 208.27 391.07 205.309 399.173L170.711 386.611Z" fill="#1F28CF"/>
<path fill-rule="evenodd" clip-rule="evenodd" d="M167.736 401.04C164.398 403.789 162.226 406.033 161.221 407.775C159.998 409.892 158.567 413.186 156.927 417.656C159.383 419.074 181.46 431.82 223.158 455.894C228.164 451.198 228.944 447.553 225.498 444.958C222.052 442.363 219.208 440.175 216.966 438.394L194.106 406.897C193.666 406.291 192.818 406.156 192.212 406.596C192.202 406.604 192.191 406.611 192.181 406.619L187.431 410.277C183.074 409.897 179.822 409.087 177.676 407.848C175.932 406.841 173.93 404.746 171.671 401.564L171.671 401.564C170.804 400.343 169.111 400.056 167.89 400.923C167.837 400.96 167.786 400.999 167.736 401.04Z" fill="#E4E4E4"/>
<path fill-rule="evenodd" clip-rule="evenodd" d="M243.631 438.511C242.114 442.561 241.355 445.591 241.355 447.601C241.355 450.046 241.763 453.614 242.577 458.305C245.414 458.305 270.906 458.305 319.055 458.305C321.042 451.735 319.895 448.188 315.613 447.664C311.331 447.14 307.774 446.667 304.942 446.245L269.396 430.399C268.712 430.094 267.911 430.401 267.606 431.085C267.6 431.097 267.595 431.108 267.59 431.12L265.306 436.663C261.342 438.512 258.121 439.437 255.642 439.437C253.629 439.437 250.848 438.624 247.301 436.997L247.301 436.997C245.939 436.373 244.329 436.971 243.705 438.332C243.678 438.391 243.654 438.451 243.631 438.511Z" fill="#E4E4E4"/>
<path fill-rule="evenodd" clip-rule="evenodd" d="M295.282 282.621C295.282 318.644 278.174 402.671 278.163 410.603L241.356 410.632C246.743 335.655 248.653 297.762 247.087 296.955C244.737 295.743 150.747 306.339 122.557 306.339C81.9086 306.339 65.093 280.706 63.7285 233.22H144.252C160.648 234.975 246.168 252.224 277.928 258.154C291.525 260.692 295.282 272.698 295.282 282.621Z" fill="#2B44FF"/>
<path fill-rule="evenodd" clip-rule="evenodd" d="M156.797 148.746L203.861 122.969C211.687 113.675 219.399 106.457 226.995 101.315C229.316 100.346 233.375 99.7595 229.579 106.497C225.783 113.234 222.093 120.492 224.027 122.568C225.961 124.643 230.783 121.744 233.09 125.192C234.628 127.492 226.39 131.124 208.375 136.088L174.177 167.4L156.797 148.746ZM230.508 170.495L251.181 159.138C254.082 148.1 257.549 142.547 261.584 142.478C264.683 141.036 259.286 154.983 265.161 153.773C271.036 152.564 285.375 141.899 287.846 144.065C291.501 147.268 288.242 157.104 284.401 161.997C277.224 171.143 271.282 174.27 256.594 178.365C248.914 180.506 240.612 184.798 231.685 191.241L230.508 170.495Z" fill="#997659"/>
<path fill-rule="evenodd" clip-rule="evenodd" d="M133.875 143.004C150.359 142.83 172.342 139.348 195.798 124.459L205.009 145.002C188.83 161.058 166.081 174.251 146.189 173.692C130.513 173.252 122.502 154.291 133.875 143.004Z" fill="#2026A2"/>
<path fill-rule="evenodd" clip-rule="evenodd" d="M156.073 175.947C173.573 180.312 202.921 175.165 244.116 160.506C254.334 181.645 259.057 196.716 258.286 205.718C222.947 224.178 192.659 232.408 167.705 232.951C168.498 247.758 166.696 261.847 160.642 274.72C148.195 301.185 75.3144 276.675 50.8096 281.5C35.464 231.663 65.1352 211.409 65.1591 179.521C65.1852 144.599 93.2254 90.8474 97.3509 90.8474H134.974C137.049 117.517 147.498 146.91 156.073 175.947Z" fill="#1F28CF"/>
</svg>
