<svg width="320" height="252" viewBox="0 0 320 252" fill="none" xmlns="http://www.w3.org/2000/svg">
<path d="M130.064 35.8712L156.554 9.38184L183.043 35.8712" stroke="#FAD33D" stroke-width="7" stroke-linecap="round" stroke-linejoin="round"/>
<path d="M156.82 9.38184L156.82 53.5737" stroke="#FAD33D" stroke-width="7" stroke-linecap="round" stroke-linejoin="round"/>
<path d="M48.8594 56.281L69.2692 76.2566" stroke="#FAD33D" stroke-width="8" stroke-linecap="round" stroke-linejoin="round"/>
<path d="M5 163.541H32.7921" stroke="#FAD33D" stroke-width="8" stroke-linecap="round" stroke-linejoin="round"/>
<path d="M280.315 163.541H308.108" stroke="#FAD33D" stroke-width="8" stroke-linecap="round" stroke-linejoin="round"/>
<path d="M243.838 76.2566L264.248 56.281" stroke="#FAD33D" stroke-width="8" stroke-linecap="round" stroke-linejoin="round"/>
<path d="M86.9422 135.765C85.8431 135.828 84.8764 136.361 84.233 137.16L83.5778 137.974H84.6224H110.334H110.933L110.826 137.385C110.406 135.055 108.364 133.283 105.914 133.283C104.83 133.283 103.794 133.632 102.922 134.289C102.487 134.616 101.933 134.74 101.402 134.629C100.87 134.518 100.411 134.184 100.143 133.712L100.143 133.712C99.006 131.706 96.8713 130.46 94.5702 130.46C91.9407 130.46 89.5425 132.106 88.5953 134.56L88.5952 134.56C88.3289 135.251 87.6822 135.723 86.9422 135.765ZM86.9422 135.765L86.9708 136.265L86.9421 135.765C86.9421 135.765 86.9421 135.765 86.9422 135.765ZM79.6486 139.977L79.6486 139.977L79.6483 139.973L79.6436 139.907C79.6436 139.906 79.6436 139.906 79.6436 139.906C79.6342 139.765 79.627 139.636 79.627 139.509C79.627 136.003 82.041 133.026 85.3326 132.206L85.5439 132.153L85.6493 131.962C87.4209 128.757 90.8557 126.682 94.5702 126.682C97.4593 126.682 100.186 127.918 102.094 130.009L102.329 130.266L102.651 130.136C103.679 129.72 104.78 129.505 105.914 129.505C110.749 129.505 114.683 133.439 114.683 138.274C114.683 138.933 114.602 139.613 114.441 140.295L114.441 140.295C114.24 141.147 113.479 141.75 112.603 141.75H81.5331C80.5355 141.75 79.7097 140.973 79.6486 139.977Z" fill="#FAD33D" stroke="#FAD33D"/>
<path d="M236.163 199.1L236.412 199.469L236.807 199.264L255.779 189.426C256.705 188.946 257.845 189.308 258.325 190.234L258.769 190.004L258.325 190.234C258.805 191.16 258.443 192.299 257.518 192.78C257.518 192.78 257.518 192.78 257.518 192.78L210.619 217.098L210.619 217.098C210.117 217.358 209.525 217.38 209.005 217.157L208.808 217.617L209.005 217.157L203.9 214.969L203.696 214.882L203.494 214.974C197.606 217.673 191.94 220.193 186.625 222.557C176.98 226.847 168.492 230.622 161.936 234.015L161.492 233.615C161.04 233.209 160.387 232.622 159.581 231.897C157.97 230.447 155.747 228.446 153.303 226.242C148.416 221.834 142.645 216.617 139.109 213.374L138.903 213.185L138.634 213.262L133.84 214.632L133.839 214.632C133.158 214.827 132.422 214.623 131.938 214.102C131.938 214.102 131.938 214.102 131.938 214.102L98.4721 178.126L98.2055 177.839L97.8632 178.029L91.6817 181.463L91.6813 181.464C90.9648 181.862 90.0718 181.752 89.4729 181.19L61.6808 155.135L61.6808 155.135C60.92 154.422 60.8815 153.227 61.5946 152.466C62.3085 151.705 63.5029 151.667 64.2638 152.38L90.7843 177.243L91.0504 177.492L91.3691 177.315L97.6631 173.819C98.4223 173.397 99.3713 173.548 99.9629 174.183L104.283 178.828L104.688 179.263L105.047 178.789L122.262 156.09L122.262 156.09C122.865 155.295 123.983 155.106 124.814 155.66L128.187 157.908L128.572 158.165L128.857 157.801L154.838 124.702L155.473 123.893H154.445H135.539C134.604 123.893 133.81 123.209 133.672 122.284L133.672 122.283C133.571 121.607 133.525 121.037 133.525 120.485C133.525 113.831 138.938 108.418 145.588 108.418C146.941 108.418 148.283 108.648 149.556 109.094L149.907 109.216L150.125 108.916C152.901 105.105 157.33 102.812 162.133 102.812C166.934 102.812 171.362 105.105 174.137 108.916L174.356 109.216L174.707 109.094C175.98 108.648 177.322 108.418 178.674 108.418C185.328 108.418 190.741 113.831 190.741 120.485C190.741 121.037 190.695 121.607 190.594 122.283C190.457 123.209 189.663 123.893 188.727 123.893H173.485H172.418L173.1 124.713L181.165 134.398L181.453 134.743L181.827 134.494L185.252 132.211L185.252 132.211C185.68 131.925 186.204 131.827 186.707 131.938C187.209 132.049 187.644 132.36 187.912 132.799L208.784 167.03L208.96 167.318L209.293 167.263L212.912 166.659L212.83 166.166L212.912 166.659C213.643 166.537 214.374 166.852 214.788 167.465L236.163 199.1ZM137.353 119.561L137.291 120.117H137.85H158.194H158.437L158.588 119.925L162.253 115.256L162.253 115.256C162.604 114.808 163.139 114.543 163.708 114.534C164.297 114.534 164.827 114.779 165.189 115.214C165.189 115.214 165.189 115.214 165.189 115.214L169.122 119.937L169.272 120.117H169.507H186.417H186.976L186.914 119.561C186.452 115.423 182.934 112.195 178.674 112.195C177.218 112.195 175.833 112.565 174.564 113.294L174.564 113.294C174.119 113.55 173.589 113.613 173.097 113.47L173.097 113.47C172.604 113.327 172.191 112.989 171.952 112.535C170.026 108.868 166.263 106.588 162.133 106.588C158.001 106.588 154.236 108.868 152.31 112.535C152.072 112.989 151.659 113.327 151.166 113.47L151.166 113.47C150.674 113.613 150.143 113.55 149.698 113.294L149.449 113.728L149.698 113.294C148.429 112.566 147.044 112.195 145.588 112.195C141.33 112.195 137.814 115.423 137.353 119.561ZM209.455 213.24L209.672 213.334L209.882 213.225L232.537 201.477L233.036 201.218L232.721 200.753L212.516 170.849L212.336 170.583L212.02 170.636L208.322 171.252L208.321 171.252C207.561 171.38 206.8 171.031 206.398 170.372L185.98 136.887L185.679 136.394L185.234 136.763L169.305 149.965L169.305 149.965L169.296 149.972C168.939 150.282 168.499 150.434 168.06 150.434C167.531 150.434 167.006 150.213 166.632 149.782C165.949 148.994 166.035 147.801 166.822 147.119L178.08 137.362L178.451 137.041L178.137 136.664L164.176 119.9L163.78 119.425L163.398 119.911L131.986 159.929L131.667 160.336L132.084 160.641L143.121 168.735C143.963 169.352 144.144 170.534 143.528 171.375C143.158 171.879 142.585 172.147 142.003 172.147C141.615 172.147 141.225 172.028 140.888 171.781L140.884 171.779L124.603 160.059L124.208 159.774L123.913 160.163L107.553 181.735L107.299 182.07L107.585 182.378L133.706 210.457L133.914 210.682L134.209 210.598L138.881 209.263L138.881 209.263C139.511 209.082 140.192 209.243 140.676 209.687L162.188 229.414L162.433 229.638L162.734 229.5L202.882 211.099C203.368 210.876 203.924 210.87 204.413 211.08L204.611 210.62L204.414 211.08L209.455 213.24Z" fill="#FAD33D" stroke="#FAD33D"/>
<path d="M185.655 194.219L185.963 194.415L186.244 194.182L193.371 188.242C194.173 187.574 195.364 187.682 196.032 188.483C196.699 189.284 196.591 190.475 195.79 191.143L187.323 198.199C186.691 198.725 185.793 198.783 185.099 198.342L171.046 189.399L170.738 189.203L170.458 189.437L154.862 202.433C154.509 202.728 154.08 202.871 153.654 202.871C153.111 202.871 152.575 202.639 152.202 202.191C151.534 201.391 151.642 200.2 152.443 199.532C152.443 199.532 152.444 199.532 152.444 199.532L169.379 185.419C170.011 184.893 170.909 184.836 171.603 185.276C171.603 185.276 171.603 185.276 171.603 185.276L185.655 194.219Z" fill="#FAD33D" stroke="#FAD33D"/>
<path d="M236.971 147.677H236.091H213.884H213.163L213.416 147.002C214.457 144.22 217.142 142.233 220.286 142.233C222.608 142.233 224.746 143.308 226.148 145.177L236.971 147.677ZM236.971 147.677L236.521 146.921M236.971 147.677L236.521 146.921M236.521 146.921C235.617 145.405 233.96 144.385 232.067 144.385C230.884 144.385 229.765 144.778 228.838 145.519L236.521 146.921ZM227.421 145.917C227.929 145.982 228.439 145.838 228.838 145.519L227.421 145.917ZM227.421 145.917C226.914 145.853 226.455 145.586 226.148 145.177L227.421 145.917ZM227.761 141.354L228.007 141.579L228.309 141.439C229.482 140.897 230.768 140.608 232.067 140.608C237.005 140.608 241.024 144.627 241.024 149.566C241.024 150.609 240.178 151.454 239.136 151.454H211.065C210.022 151.454 209.176 150.608 209.177 149.566V149.566C209.177 143.44 214.161 138.456 220.286 138.456C223.102 138.456 225.734 139.493 227.761 141.354Z" fill="#FAD33D" stroke="#FAD33D"/>
<path d="M256.862 193.07C257.152 189.945 257.3 186.779 257.3 183.579C257.3 135.102 223.324 94.5836 177.948 84.6609M60.7593 150.867C72.0545 117.673 100.064 92.2405 134.725 84.6609" stroke="#FAD33D" stroke-width="8" stroke-linecap="round"/>
</svg>
