<?xml version="1.0" encoding="utf-8"?>
<!-- Generator: Adobe Illustrator 24.0.0, SVG Export Plug-In . SVG Version: 6.00 Build 0)  -->
<svg version="1.1" id="Layer_1" xmlns="http://www.w3.org/2000/svg" xmlns:xlink="http://www.w3.org/1999/xlink" x="0px" y="0px"
	 viewBox="0 0 320 252" style="enable-background:new 0 0 320 252;" xml:space="preserve">
<style type="text/css">
	.st0{fill:none;stroke:#FAD33D;stroke-width:8;stroke-linecap:round;stroke-linejoin:round;}
	.st1{fill:#FAD33D;}
	.st2{fill:#FAD33D;filter:url(#Adobe_OpacityMaskFilter);}
	.st3{mask:url(#path-3-inside-1_1_);fill:#FAD33D;}
</style>
<path class="st0" d="M35.3,60.1L11,69.8v71.8c0,61.6,77.3,102.6,77.3,102.6s77.3-41.1,77.3-102.6V69.8L88.3,39
	c-8.5,3.4-14.8,5.9-21.5,8.5"/>
<path class="st1" d="M104.6,97.9c6.9,0,12.4-5.6,12.4-12.4c0-6.9-5.6-12.4-12.4-12.4c-6.9,0-12.4,5.6-12.4,12.4
	C92.2,92.4,97.7,97.9,104.6,97.9z M104.6,77.3c4.6,0,8.3,3.7,8.3,8.3c0,4.6-3.7,8.3-8.3,8.3c-4.6,0-8.3-3.7-8.3-8.3
	C96.3,81,100,77.3,104.6,77.3z"/>
<path class="st1" d="M153.3,188c-0.7-1.4-2.1-2.3-3.7-2.3l-24.4,0.2v-54.1c2.5-0.9,4.1-3.2,4.1-5.8s-1.7-5-4.1-5.8v-10.7
	c0-1.1-0.9-2.1-2.1-2.1s-2.1,0.9-2.1,2.1v10.3h-6.1c-0.7,0-1.3-0.3-1.7-0.9l-9.8-14.7c-3.1-4.7-9.2-6.5-14.4-4.1
	c-0.3-2.3-1.9-4.2-4.1-4.9L73.4,91c-3.2-1.1-6.8,0.6-7.9,3.8l-2,5.8c-1.1-0.3-2.2,0.3-2.5,1.3c-0.4,1,0.2,2.2,1.2,2.6l-2.7,7.8
	c-1.1-0.3-2.2,0.3-2.5,1.3c-0.4,1,0.2,2.2,1.2,2.6c-2,5.8-2.7,6.9-2.3,9c-2.7,0.7-4.7,3-4.8,5.8c-0.1,2.8,1.7,5.3,4.4,6.1
	c14,4.9,14.8,5.5,17.3,4.7l-1.9,13.1c-0.2,1.4,0.7,0.3-15.1,21.5c-2,2.7-2.3,6.3-0.6,9.2H26.4c-1.6,0-3,0.9-3.7,2.3c0.6,0.7,2,2,2,2
	c24.5,0.9,104.1-0.4,126.6,0C152,189.4,152.7,188.7,153.3,188z M109.5,185.9c0.8-1.4,1.2-2.9,1.2-4.5v-20.5c0-3-1.1-6-3.1-8.2
	l-12.4-13.9c-0.5-0.5-0.6-1.3-0.4-2l3.8-11.3l1.7,2.4c1.9,2.7,5.1,4.3,8.4,4.3h12.3v53.7H109.5z M90.9,103.7
	c3.3-1.4,7.2-0.3,9.2,2.7l9.8,14.6c1.2,1.7,3.1,2.8,5.2,2.8h8.1c1.1,0,2.1,0.9,2.1,2.1s-0.9,2.1-2.1,2.1h-14.4c-2,0-3.9-1-5-2.6
	l-7.9-11c-0.4-0.6-1.1-1-1.9-0.9c-0.8,0.1-1.4,0.5-1.7,1.2c-0.3,0.7-0.2,1.5,0.3,2.1l3.2,4.4L91,135.4c-0.7,2.1-0.2,4.4,1.2,6.1
	l12.4,13.9c1.3,1.5,2.1,3.5,2.1,5.5v20.5c0.1,2.3-1.6,4.2-3.8,4.5c-1.1,0.1-2.3-0.3-3.1-1.1c-0.8-0.8-1.3-1.9-1.3-3v-13
	c0-2.8-1-5.5-2.7-7.7l-15.9-17.8c-2-2.6-2.7-6.1-1.7-9.2c7.8-24.5,7.9-23.1,7.9-23.3C86.9,107.9,87.5,105.2,90.9,103.7L90.9,103.7z
	 M78.8,119.2l-15.5-5.4L66,106l15.4,5.4L78.8,119.2z M69.4,96.2c0.4-1.1,1.6-1.6,2.6-1.3L83.7,99c1.1,0.4,1.6,1.5,1.3,2.6l-1,3
	c-0.5,0.8-0.9,1.7-1.1,2.6c-0.1,0.3,1.6,0.8-15.5-5.1L69.4,96.2z M70.2,138.1l-13.4-4.6c-1.1-0.3-1.8-1.4-1.6-2.5
	c0.1-0.6,0.5-1,1-1.3c0.5-0.3,1.1-0.3,1.7-0.2c2.1,0.7,2.2,0.8,2.9,0.8c6.4,2.6,6.2,2.6,6.7,2.6c1,0,1.8-0.7,2-1.7
	c0.2-1-0.3-1.9-1.2-2.3c-9.4-3.8-7.4-3-7.9-3.2c-0.5-0.5-0.7-1.3-0.5-2.1l2-5.8l15.5,5.4c-0.8,2.3-3.8,11.4-4.6,13.7
	C72.4,137.9,71.2,138.4,70.2,138.1L70.2,138.1z M59.1,179.1l14.3-19.7c1.6-2.2,1.5-3.3,3-13.9c0.5,0.7-1.1-1.1,7.9,9l-1.1,6.1
	c-0.2,1.4,0.6,0.1-17.5,23.4c-1,1.4-2.7,2.1-4.4,1.7s-3-1.8-3.2-3.5C58.1,181.1,58.4,180,59.1,179.1z M85.7,164.9
	c1.3-1.9,2-4.2,2.1-6.5l4.7,5.2c1.1,1.4,1.7,3.2,1.7,5v13c0,1.5,0.4,2.9,1.1,4.1H69.6L85.7,164.9z"/>
<defs>
	<filter id="Adobe_OpacityMaskFilter" filterUnits="userSpaceOnUse" x="13.1" y="82.7" width="149.7" height="115.7">
		<feColorMatrix  type="matrix" values="1 0 0 0 0  0 1 0 0 0  0 0 1 0 0  0 0 0 1 0"/>
	</filter>
</defs>
<mask maskUnits="userSpaceOnUse" x="13.1" y="82.7" width="149.7" height="115.7" id="path-3-inside-1_1_">
	<path class="st2" d="M153.3,188c-0.7-1.4-2.1-2.3-3.7-2.3l-24.4,0.2v-54.1c2.5-0.9,4.1-3.2,4.1-5.8s-1.7-5-4.1-5.8v-10.7
		c0-1.1-0.9-2.1-2.1-2.1s-2.1,0.9-2.1,2.1v10.3h-6.1c-0.7,0-1.3-0.3-1.7-0.9l-9.8-14.7c-3.1-4.7-9.2-6.5-14.4-4.1
		c-0.3-2.3-1.9-4.2-4.1-4.9L73.4,91c-3.2-1.1-6.8,0.6-7.9,3.8l-2,5.8c-1.1-0.3-2.2,0.3-2.5,1.3c-0.4,1,0.2,2.2,1.2,2.6l-2.7,7.8
		c-1.1-0.3-2.2,0.3-2.5,1.3c-0.4,1,0.2,2.2,1.2,2.6c-2,5.8-2.7,6.9-2.3,9c-2.7,0.7-4.7,3-4.8,5.8c-0.1,2.8,1.7,5.3,4.4,6.1
		c14,4.9,14.8,5.5,17.3,4.7l-1.9,13.1c-0.2,1.4,0.7,0.3-15.1,21.5c-2,2.7-2.3,6.3-0.6,9.2H26.4c-1.6,0-3,0.9-3.7,2.3
		c0.6,0.7,2,2,2,2c24.5,0.9,104.1-0.4,126.6,0C152,189.4,152.7,188.7,153.3,188z M109.5,185.9c0.8-1.4,1.2-2.9,1.2-4.5v-20.5
		c0-3-1.1-6-3.1-8.2l-12.4-13.9c-0.5-0.5-0.6-1.3-0.4-2l3.8-11.3l1.7,2.4c1.9,2.7,5.1,4.3,8.4,4.3h12.3v53.7H109.5z M90.9,103.7
		c3.3-1.4,7.2-0.3,9.2,2.7l9.8,14.6c1.2,1.7,3.1,2.8,5.2,2.8h8.1c1.1,0,2.1,0.9,2.1,2.1s-0.9,2.1-2.1,2.1h-14.4c-2,0-3.9-1-5-2.6
		l-7.9-11c-0.4-0.6-1.1-1-1.9-0.9c-0.8,0.1-1.4,0.5-1.7,1.2c-0.3,0.7-0.2,1.5,0.3,2.1l3.2,4.4L91,135.4c-0.7,2.1-0.2,4.4,1.2,6.1
		l12.4,13.9c1.3,1.5,2.1,3.5,2.1,5.5v20.5c0.1,2.3-1.6,4.2-3.8,4.5c-1.1,0.1-2.3-0.3-3.1-1.1c-0.8-0.8-1.3-1.9-1.3-3v-13
		c0-2.8-1-5.5-2.7-7.7l-15.9-17.8c-2-2.6-2.7-6.1-1.7-9.2c7.8-24.5,7.9-23.1,7.9-23.3C86.9,107.9,87.5,105.2,90.9,103.7L90.9,103.7z
		 M78.8,119.2l-15.5-5.4L66,106l15.4,5.4L78.8,119.2z M69.4,96.2c0.4-1.1,1.6-1.6,2.6-1.3L83.7,99c1.1,0.4,1.6,1.5,1.3,2.6l-1,3
		c-0.5,0.8-0.9,1.7-1.1,2.6c-0.1,0.3,1.6,0.8-15.5-5.1L69.4,96.2z M70.2,138.1l-13.4-4.6c-1.1-0.3-1.8-1.4-1.6-2.5
		c0.1-0.6,0.5-1,1-1.3c0.5-0.3,1.1-0.3,1.7-0.2c2.1,0.7,2.2,0.8,2.9,0.8c6.4,2.6,6.2,2.6,6.7,2.6c1,0,1.8-0.7,2-1.7
		c0.2-1-0.3-1.9-1.2-2.3c-9.4-3.8-7.4-3-7.9-3.2c-0.5-0.5-0.7-1.3-0.5-2.1l2-5.8l15.5,5.4c-0.8,2.3-3.8,11.4-4.6,13.7
		C72.4,137.9,71.2,138.4,70.2,138.1L70.2,138.1z M59.1,179.1l14.3-19.7c1.6-2.2,1.5-3.3,3-13.9c0.5,0.7-1.1-1.1,7.9,9l-1.1,6.1
		c-0.2,1.4,0.6,0.1-17.5,23.4c-1,1.4-2.7,2.1-4.4,1.7s-3-1.8-3.2-3.5C58.1,181.1,58.4,180,59.1,179.1z M85.7,164.9
		c1.3-1.9,2-4.2,2.1-6.5l4.7,5.2c1.1,1.4,1.7,3.2,1.7,5v13c0,1.5,0.4,2.9,1.1,4.1H69.6L85.7,164.9z"/>
</mask>
<path class="st3" d="M24.7,194.1h126.6v-8H24.7V194.1z M153.3,188l6.1,5.2l3.5-4l-2.4-4.8L153.3,188z M149.6,185.7l0-8h0h0
	L149.6,185.7z M125.2,185.9h-8v8.1l8.1-0.1L125.2,185.9z M125.2,131.8l-2.7-7.5l-5.3,1.9v5.7H125.2z M125.2,120.1h-8v5.7l5.3,1.9
	L125.2,120.1z M121.1,119.7v8h8v-8H121.1z M115.1,119.7v-8h0L115.1,119.7z M113.3,118.8l-6.7,4.4l0,0L113.3,118.8z M103.6,104.2
	l-6.7,4.4l0,0L103.6,104.2z M89.1,100l-7.9,1.2l1.6,10.5l9.6-4.4L89.1,100z M85.1,95.1l2.7-7.5l0,0l0,0L85.1,95.1z M73.4,91l2.6-7.6
	l0,0l0,0L73.4,91z M65.4,94.9l-7.6-2.6l0,0L65.4,94.9z M63.4,100.7l-2.3,7.7l7.3,2.2l2.5-7.2L63.4,100.7z M60.9,102l7.6,2.6l0,0
	L60.9,102z M62.1,104.6l7.6,2.6l2.5-7.2L65,97.2L62.1,104.6z M59.4,112.4l-2.2,7.7l7.3,2.1l2.5-7.2L59.4,112.4z M56.8,113.8l7.6,2.6
	L56.8,113.8z M58,116.3l7.6,2.6l2.5-7.2l-7-2.9L58,116.3z M55.7,125.4l1.9,7.8l7.4-1.8l-1.4-7.5L55.7,125.4z M51,131.2l8,0.2
	L51,131.2z M55.4,137.3l2.6-7.6l-0.1-0.1l-0.1,0L55.4,137.3z M72.7,142l7.9,1.1l1.8-12.5l-12.1,3.8L72.7,142z M70.8,155.1l7.9,1.2
	l0,0l0,0L70.8,155.1z M55.7,176.7l6.4,4.9l0,0l0,0L55.7,176.7z M55.2,185.9v8h14l-7.1-12.1L55.2,185.9z M26.4,185.9l0,8h0h0V185.9z
	 M22.7,188.1l-7.2-3.6l-2.4,4.9l3.6,4.1L22.7,188.1z M109.5,185.9l-6.9-4.1l-7.1,12.1h14V185.9z M110.8,181.4l8,0v0H110.8z
	 M110.8,160.9l-8,0v0H110.8z M107.6,152.6l-6,5.3l0,0L107.6,152.6z M95.3,138.7l6-5.3l0,0l0,0L95.3,138.7z M94.9,136.7l7.5,2.6
	l0-0.1l0-0.1L94.9,136.7z M98.7,125.4l6.5-4.7L96,108l-5,14.9L98.7,125.4z M100.4,127.8l-6.5,4.7l0,0L100.4,127.8z M108.8,132.1l0,8
	h0V132.1z M121.1,132.1h8v-8h-8V132.1z M121.1,185.9v8h8v-8H121.1z M90.9,103.7l-3.2-7.3l3.2,15.3V103.7z M100.1,106.5l-6.7,4.4l0,0
	L100.1,106.5z M109.9,121.1l6.7-4.4l0,0L109.9,121.1z M115.1,123.9v-8h0L115.1,123.9z M108.8,128l0,8h0V128z M103.8,125.4l-6.5,4.7
	l0,0L103.8,125.4z M95.9,114.4l-6.7,4.4l0.1,0.1l0.1,0.1L95.9,114.4z M94,113.5l0.7,8L94,113.5z M92.3,114.7l7.3,3.2l0,0L92.3,114.7
	z M92.6,116.8l6.5-4.7L99,112l-0.1-0.1L92.6,116.8z M95.7,121.2l7.6,2.5l1.3-3.9l-2.4-3.3L95.7,121.2z M91,135.4l7.6,2.6l0,0l0,0
	L91,135.4z M92.2,141.5l6-5.3l0,0l0,0L92.2,141.5z M104.6,155.4l6-5.3l0,0l0,0L104.6,155.4z M106.6,160.9l-8,0l0,0v0H106.6z
	 M106.6,181.4h-8v0.1l0,0.1L106.6,181.4z M102.8,185.9l0.6,8l0.2,0l0.2,0L102.8,185.9z M99.7,184.8l5.4-5.9l0,0L99.7,184.8z
	 M98.4,181.7l8,0v0v0H98.4z M98.4,168.7h8v0v0L98.4,168.7z M95.7,161l6.3-4.9l-0.2-0.2l-0.2-0.2L95.7,161z M79.8,143.3l-6.3,4.9
	l0.2,0.2l0.2,0.2L79.8,143.3z M78.1,134.1l-7.6-2.4l0,0.1l0,0.1L78.1,134.1z M86,110.7l-7.6-2.6l-0.2,0.6l-0.1,0.7L86,110.7z
	 M90.9,103.7l3.2,7.3l-3.2-15.3V103.7z M78.8,119.2l-2.6,7.6l7.6,2.6l2.6-7.6L78.8,119.2z M63.3,113.8l-7.6-2.6l-2.6,7.6l7.6,2.6
	L63.3,113.8z M66,106l2.6-7.6L61,95.8l-2.6,7.6L66,106z M81.4,111.3l7.6,2.6l2.5-7.5l-7.5-2.6L81.4,111.3z M69.4,96.2l-7.5-2.7l0,0
	l0,0L69.4,96.2z M72,94.9l2.6-7.6l0,0l0,0L72,94.9z M83.7,99l2.7-7.5l0,0l0,0L83.7,99z M85,101.6l7.6,2.6l0,0L85,101.6z M84,104.6
	l6.9,4.1l0.4-0.7l0.3-0.8L84,104.6z M82.8,107.2l-7.6-2.4l0,0l0,0L82.8,107.2z M67.3,102.1l-7.6-2.6l-2.6,7.6l7.6,2.6L67.3,102.1z
	 M70.2,138.1l3.6-7.2l-0.5-0.2l-0.5-0.2L70.2,138.1z M56.7,133.4l2.6-7.6l-0.2-0.1l-0.2-0.1L56.7,133.4z M55.1,130.9l-7.7-2
	l-0.1,0.4l-0.1,0.4L55.1,130.9z M56.2,129.6l3.8,7L56.2,129.6z M57.8,129.4l2.6-7.6l-0.1,0l-0.1,0L57.8,129.4z M60.7,130.2l3-7.4
	l-1.9-0.8l-2,0.2L60.7,130.2z M67.5,132.8l0-8h0V132.8z M68.2,128.8l-3,7.4l0,0L68.2,128.8z M60.3,125.6l-5.7,5.7l1.5,1.5l2.1,0.6
	L60.3,125.6z M59.9,123.5l7.5,2.7l0,0l0,0L59.9,123.5z M61.9,117.7l2.6-7.6l-7.6-2.6l-2.6,7.6L61.9,117.7z M77.4,123.1l7.6,2.6
	l2.5-7.5l-7.5-2.6L77.4,123.1z M72.8,136.8l7.6,2.6l0,0l0,0L72.8,136.8z M70.2,138.1l-3.6,7.2l0.5,0.2l0.5,0.2L70.2,138.1z
	 M59.1,179.1l6.3,4.9l0.1-0.1l0.1-0.1L59.1,179.1z M73.4,159.4l-6.4-4.8l0,0l0,0L73.4,159.4z M76.4,145.5l6.5-4.7l-11.6-16.1
	l-2.8,19.7L76.4,145.5z M84.3,154.5l7.9,1.4l0.7-3.8l-2.6-2.9L84.3,154.5z M83.3,160.6l-7.9-1.4l0,0l0,0L83.3,160.6z M65.8,184
	l-6.3-4.9l-0.2,0.2l-0.1,0.2L65.8,184z M61.4,185.7l1.8-7.8L61.4,185.7z M58.2,182.2l-7.9,0.9l0,0.1l0,0.1L58.2,182.2z M85.7,164.9
	l6.3,4.9l0.2-0.2l0.2-0.2L85.7,164.9z M87.8,158.4l6-5.3l-13.2-14.8l-0.8,19.8L87.8,158.4z M92.5,163.7l6.3-4.9l-0.2-0.2l-0.2-0.2
	L92.5,163.7z M94.2,168.7l-8,0v0v0H94.2z M94.2,181.7h-8v0v0L94.2,181.7z M95.4,185.9v8h14.1l-7.2-12.1L95.4,185.9z M69.6,185.9
	l-6.3-4.9l-10,12.9h16.3V185.9z M24.7,190.1l-5.5,5.8l2.2,2.1l3,0.1L24.7,190.1z M151.2,190.1l-0.1,8l3.2,0.1l2.3-2.1L151.2,190.1z
	 M160.5,184.4c-2.1-4.1-6.3-6.7-10.9-6.7l0.1,16c-1.5,0-2.8-0.8-3.5-2.1L160.5,184.4z M149.6,177.7l-24.4,0.2l0.1,16l24.4-0.2
	L149.6,177.7z M133.2,185.9v-54.1h-16v54.1H133.2z M127.9,139.3c5.7-2,9.5-7.4,9.5-13.4h-16c0-0.8,0.5-1.5,1.2-1.7L127.9,139.3z
	 M137.4,125.9c0-6-3.8-11.4-9.5-13.4l-5.3,15.1c-0.7-0.3-1.2-0.9-1.2-1.7H137.4z M133.2,120.1v-10.7h-16v10.7H133.2z M133.2,109.4
	c0-5.6-4.5-10.1-10.1-10.1v16c-3.3,0-5.9-2.7-5.9-5.9H133.2z M123.2,99.3c-5.6,0-10.1,4.5-10.1,10.1h16c0,3.3-2.7,5.9-5.9,5.9V99.3z
	 M113.1,109.4v10.3h16v-10.3H113.1z M121.1,111.7h-6.1v16h6.1V111.7z M115.1,111.7c2,0,3.8,1,4.9,2.6l-13.3,8.9
	c1.9,2.8,5,4.5,8.4,4.5L115.1,111.7z M120,114.4l-9.8-14.7l-13.3,8.9l9.8,14.7L120,114.4z M110.2,99.7c-5.3-8-15.6-10.9-24.4-7
	l6.6,14.6c1.6-0.7,3.5-0.2,4.5,1.3L110.2,99.7z M97.1,98.9c-0.8-5.2-4.4-9.5-9.3-11.3l-5.3,15.1c-0.6-0.2-1.1-0.8-1.2-1.5L97.1,98.9
	z M87.7,87.6L76,83.5l-5.2,15.1l11.7,4.1L87.7,87.6z M75.9,83.5c-7.4-2.5-15.5,1.4-18.1,8.8L73,97.5c-0.3,0.9-1.3,1.4-2.2,1.1
	L75.9,83.5z M57.9,92.3l-2,5.8l15.1,5.3l2-5.8L57.9,92.3z M65.7,93.1c-5.2-1.5-10.6,1.3-12.4,6.4l15.1,5.2c-1,3-4.3,4.6-7.3,3.7
	L65.7,93.1z M53.3,99.4c-1.8,5.1,0.8,10.7,5.8,12.7L65,97.2c2.9,1.2,4.5,4.5,3.4,7.5L53.3,99.4z M54.5,102l-2.7,7.8l15.1,5.2
	l2.7-7.8L54.5,102z M61.6,104.8c-5.1-1.5-10.5,1.3-12.3,6.4l15.1,5.2c-1,3-4.2,4.6-7.2,3.8L61.6,104.8z M49.3,111.1
	c-1.8,5.1,0.8,10.6,5.7,12.6l6-14.8c2.9,1.2,4.4,4.5,3.4,7.4L49.3,111.1z M50.4,113.7c-0.9,2.5-1.7,4.7-2.2,6.3
	c-0.6,2.2-0.9,4.2-0.4,6.8l15.7-2.9c0,0,0,0.1,0,0.2c0,0.1,0,0.3,0,0.4c0,0.2-0.1,0.3,0,0c0.1-0.4,0.3-0.9,0.6-1.9
	c0.3-0.9,0.8-2.1,1.3-3.6L50.4,113.7z M53.9,117.6c-6.2,1.5-10.7,7-10.9,13.4l16,0.5c0,0.8-0.6,1.5-1.4,1.7L53.9,117.6z M43,130.9
	c-0.2,6.4,3.9,12.1,10,14l4.7-15.3c0.8,0.2,1.3,1,1.3,1.8L43,130.9z M52.7,144.9c6.7,2.3,10.8,3.9,13.3,4.6c1.3,0.4,2.9,0.8,4.5,0.8
	c1.9,0.1,3.4-0.3,4.5-0.6l-4.8-15.3c-0.2,0.1,0.2-0.1,0.8-0.1c0.4,0,0.4,0.1-0.6-0.2c-2-0.6-5.3-1.8-12.6-4.4L52.7,144.9z
	 M64.8,140.9L62.9,154l15.8,2.3l1.9-13.1L64.8,140.9z M62.9,154c-0.2,1.1,0-0.3,0.4-1.2c0.2-0.3,0.2-0.2-0.8,1.1
	c-1.7,2.4-5.3,7.3-13.2,18l12.8,9.5c7.8-10.5,11.6-15.7,13.5-18.4c0.9-1.2,1.7-2.5,2.2-3.6c0.8-1.8,0.9-3.6,0.9-3.1L62.9,154z
	 M49.4,171.8c-4,5.3-4.5,12.4-1.1,18.1l13.8-8.1c-0.1-0.1,0-0.2,0-0.3L49.4,171.8z M55.2,177.9H26.4v16h28.8V177.9z M26.5,177.9
	c-4.6,0-8.8,2.6-10.9,6.7l14.3,7.2c-0.7,1.3-2,2.2-3.5,2.1L26.5,177.9z M116.4,189.9c1.5-2.6,2.3-5.5,2.3-8.5l-16,0
	c0,0.2,0,0.3-0.1,0.4L116.4,189.9z M118.8,181.4v-20.5h-16v20.5H118.8z M118.8,160.9c0-5-1.8-9.8-5.1-13.6l-12,10.6
	c0.7,0.8,1.1,1.8,1.1,2.9L118.8,160.9z M113.6,147.3l-12.4-13.9l-12,10.6l12.4,13.9L113.6,147.3z M101.3,133.4
	c1.4,1.6,1.9,3.9,1.2,6l-15.1-5.3c-1.2,3.4-0.4,7.3,2,10L101.3,133.4z M102.5,139.2l3.8-11.3l-15.2-5.1l-3.8,11.3L102.5,139.2z
	 M92.2,130l1.7,2.4l13-9.3l-1.7-2.4L92.2,130z M93.9,132.5c3.4,4.8,9,7.7,14.9,7.7l0-16c-0.8,0-1.5-0.4-1.9-1L93.9,132.5z
	 M108.8,140.1h12.3v-16h-12.3V140.1z M113.1,132.1v53.7h16v-53.7H113.1z M121.1,177.9h-11.6v16h11.6V177.9z M94.1,111.1
	c-0.2,0.1-0.5,0-0.6-0.2l13.3-8.9c-4.1-6.2-12.1-8.6-19-5.6L94.1,111.1z M93.5,110.9l9.8,14.6l13.3-8.9l-9.8-14.6L93.5,110.9z
	 M103.2,125.5c2.6,4,7.1,6.3,11.8,6.3l0-16c0.6,0,1.2,0.3,1.5,0.8L103.2,125.5z M115.1,131.9h8.1v-16h-8.1V131.9z M123.2,131.9
	c-3.3,0-5.9-2.7-5.9-5.9h16c0-5.6-4.5-10.1-10.1-10.1V131.9z M117.2,125.9c0-3.3,2.7-5.9,5.9-5.9v16c5.6,0,10.1-4.5,10.1-10.1H117.2
	z M123.2,120h-14.4v16h14.4V120z M108.8,120c0.6,0,1.1,0.3,1.4,0.7l-13,9.3c2.7,3.7,7,5.9,11.5,5.9L108.8,120z M110.3,120.8l-7.9-11
	l-13,9.3l7.9,11L110.3,120.8z M102.6,110c-2-3.1-5.6-4.8-9.3-4.5l1.3,15.9c-2.2,0.2-4.3-0.8-5.5-2.6L102.6,110z M93.3,105.5
	c-3.7,0.3-6.9,2.6-8.4,6l14.6,6.4c-0.9,2-2.8,3.3-4.9,3.5L93.3,105.5z M85,111.5c-1.5,3.4-1,7.3,1.3,10.2l12.6-9.8
	c1.3,1.7,1.6,4,0.7,6L85,111.5z M86,121.5l3.2,4.4l13-9.3l-3.2-4.4L86,121.5z M88.1,118.7l-4.7,14.2l15.2,5.1l4.7-14.2L88.1,118.7z
	 M83.4,132.8c-1.7,4.8-0.6,10.2,2.9,14l11.9-10.7c0.4,0.5,0.6,1.2,0.4,1.8L83.4,132.8z M86.2,146.8l12.4,13.9l12-10.6l-12.3-13.9
	L86.2,146.8z M98.6,160.7c0,0,0.1,0.1,0.1,0.2l16,0.1c0-4-1.4-7.8-4.1-10.8L98.6,160.7z M98.6,160.9v20.5h16v-20.5H98.6z
	 M98.6,181.6c-0.1-1.9,1.3-3.4,3.1-3.7l2.1,15.9c6.3-0.8,11-6.3,10.8-12.6L98.6,181.6z M102.2,177.9c1.1-0.1,2.1,0.3,2.9,1
	l-10.9,11.7c2.5,2.3,5.8,3.5,9.2,3.2L102.2,177.9z M105.1,178.9c0.8,0.7,1.2,1.8,1.2,2.8l-16,0c0,3.4,1.4,6.6,3.9,8.9L105.1,178.9z
	 M106.4,181.7v-13h-16v13H106.4z M106.4,168.7c0-4.6-1.6-9-4.4-12.6L89.4,166c0.6,0.8,1,1.8,1,2.8L106.4,168.7z M101.7,155.7
	l-15.9-17.8l-11.9,10.7l15.9,17.8L101.7,155.7z M86.1,138.4c-0.4-0.6-0.6-1.3-0.4-2l-15.3-4.6c-1.7,5.6-0.5,11.8,3.1,16.4
	L86.1,138.4z M85.7,136.5c3.9-12.2,5.8-17.9,6.7-20.5c0.5-1.3,0.6-1.7,0.6-1.6c0,0.1-0.2,0.4-0.5,0.9c-0.1,0.1-0.1,0.2-0.1,0.1
	c0,0,0.1-0.1,0.1-0.2c0.1-0.1,0.2-0.2,0.3-0.4c0.7-1.2,0.9-2.3,1-2.9l-15.8-2.5c0.1-0.6,0.3-1.7,1-2.8c0.1-0.2,0.2-0.4,0.3-0.4
	c0.1-0.1,0.1-0.1,0.1-0.1c0,0-0.1,0.1-0.1,0.2c-0.4,0.5-0.6,1-0.8,1.3c-0.3,0.6-0.7,1.6-1.2,3c-1.1,2.9-3.1,8.8-7,21.1L85.7,136.5z
	 M93.6,113.3c0.1-0.4,0.3-0.8,0.4-1.1c0.1-0.3,0.2-0.6,0.3-0.8c0.2-0.5,0.3-0.6,0.3-0.7c0,0-0.1,0.1-0.2,0.2
	c-0.2,0.1-0.2,0.2-0.1,0.1l-6.4-14.7c-7.3,3.1-8.7,9.9-9.4,11.8L93.6,113.3z M90.9,95.7L90.9,95.7l0,16h0V95.7z M81.4,111.6
	l-15.5-5.4l-5.2,15.1l15.5,5.4L81.4,111.6z M70.8,116.4l2.7-7.8l-15.1-5.2l-2.7,7.8L70.8,116.4z M63.3,113.5l15.4,5.4l5.2-15.1
	l-15.4-5.4L63.3,113.5z M73.8,108.8l-2.6,7.8l15.2,5.1l2.6-7.8L73.8,108.8z M76.9,98.9c-1.1,3-4.4,4.7-7.5,3.6l5.1-15.2
	c-5.2-1.8-10.9,1-12.7,6.2L76.9,98.9z M69.4,102.5l11.7,4.1l5.2-15.1l-11.7-4.1L69.4,102.5z M81.1,106.6c-3.1-1.1-4.7-4.4-3.6-7.5
	l15.1,5.2c1.8-5.2-1-10.9-6.2-12.8L81.1,106.6z M77.4,99l-1,3l15.1,5.2l1-3L77.4,99z M77.1,100.6c-0.8,1.3-1.4,2.7-1.9,4.2l15.3,4.8
	c0.1-0.3,0.2-0.6,0.4-0.9L77.1,100.6z M75.2,104.8c-0.5,1.6-0.4,2.9-0.3,3.4c0,0.1,0,0.3,0,0.3c0,0,0,0.1,0,0.1c0,0,0,0,0,0
	c0,0,0,0,0,0c0,0,0,0,0,0c0,0.1,0-0.2-0.1-0.5c0-0.3-0.4-3.4,1.9-6.1c2.3-2.7,5.4-2.7,5.9-2.7c0.9,0,1.5,0.1,1.6,0.2
	c0.1,0,0.2,0,0.2,0.1c0,0,0.1,0,0.1,0c0,0,0,0,0,0c0,0-0.1,0-0.1,0c-0.1,0-0.3-0.1-0.4-0.1c-1.7-0.6-5.4-1.9-14-4.9l-5.2,15.1
	c8.5,2.9,12.4,4.3,14.2,4.9c0.4,0.2,0.9,0.3,1.3,0.4c0.2,0.1,0.5,0.1,0.8,0.2c0.2,0,1,0.2,1.9,0.2c0.6,0,3.7-0.1,6-2.7
	c2.4-2.7,2-5.8,2-6.2c0-0.2,0-0.4-0.1-0.4c0,0,0-0.1,0-0.1c0,0,0,0,0,0c0-0.1,0,0.2,0.1,0.4c0.1,0.5,0.2,1.8-0.3,3.3L75.2,104.8z
	 M74.9,104.7l2-5.9l-15.1-5.2l-2,5.9L74.9,104.7z M72.8,130.5l-13.4-4.6L54.1,141l13.4,4.6L72.8,130.5z M59,125.7
	c2.8,0.8,4.5,3.6,4,6.4l-15.8-2.6c-0.8,5.1,2.3,10,7.2,11.5L59,125.7z M62.9,132.9c-0.4,1.6-1.4,2.9-2.9,3.7l-7.7-14
	c-2.5,1.3-4.2,3.6-4.9,6.3L62.9,132.9z M60,136.6c-1.4,0.8-3.1,0.9-4.7,0.4l5-15.2c-2.7-0.9-5.6-0.6-8,0.7L60,136.6z M55.2,137
	c0.5,0.2,0.9,0.3,1.2,0.4c0.3,0.1,0.7,0.3,1.1,0.4c0.5,0.1,1.2,0.3,2,0.4c0.9,0.1,1.6,0,2,0l-1.8-15.9c0,0,0.2,0,0.4,0
	c0.2,0,0.5,0,0.8,0c0.6,0.1,1,0.2,1.1,0.2c0,0,0.1,0,0,0c-0.1,0-0.2-0.1-0.3-0.1c-0.3-0.1-0.7-0.3-1.3-0.4L55.2,137z M57.7,137.6
	c3.1,1.3,4.8,2,5.7,2.3c0.4,0.2,1.1,0.4,1.8,0.6c1.2,0.3,2.1,0.3,2.3,0.3v-16c-0.2,0,0.1,0,0.4,0c0.4,0,0.8,0.1,1.1,0.2
	c0.4,0.1,0.7,0.2,0.2,0c-0.8-0.3-2.1-0.9-5.4-2.2L57.7,137.6z M67.4,140.8c4.8,0,9-3.4,9.9-8.1l-15.7-3.1c0.6-2.8,3-4.8,5.8-4.8
	L67.4,140.8z M77.3,132.7c0.9-4.7-1.6-9.4-6.1-11.3l-6.1,14.8c-2.6-1.1-4.1-3.9-3.6-6.6L77.3,132.7z M71.3,121.4
	c-4.6-1.9-6.5-2.7-7.3-3c-0.2-0.1-0.4-0.2-0.6-0.2c-0.1,0-0.2-0.1-0.4-0.2c-0.1,0-0.6-0.2-1.2-0.3c-0.9-0.1-1.7-0.1-2.4,0
	c-0.5,0.1,0.3-0.1,0.9-0.1c0.7,0,1.2,0.1,1.5,0.1c0.3,0.1,0.5,0.1,0.6,0.1l-4.1,15.5c0.1,0,1.1,0.3,2.3,0.3c0.6,0,1.5-0.1,0.9-0.1
	c-0.7,0.1-1.5,0.1-2.3,0c-0.6-0.1-1-0.2-1.1-0.3c-0.2-0.1-0.3-0.1-0.3-0.1c0,0,0,0,0.2,0.1c0.7,0.3,2.5,1,7.2,3L71.3,121.4z M66,120
	c1.6,1.6,2.2,4.1,1.4,6.3l-15.1-5.4c-1.3,3.6-0.4,7.7,2.3,10.4L66,120z M67.4,126.2l2-5.8l-15.1-5.2l-2,5.8L67.4,126.2z M59.3,125.3
	l15.5,5.4l5.2-15.1l-15.5-5.4L59.3,125.3z M69.8,120.5c-0.8,2.3-3.8,11.4-4.6,13.7l15.1,5.2c0.8-2.3,3.9-11.5,4.6-13.7L69.8,120.5z
	 M65.2,134.1c1.1-3.1,4.5-4.7,7.5-3.7l-5.2,15.1c5.2,1.8,11-1,12.8-6.2L65.2,134.1z M73.7,130.9L73.7,130.9l-7.2,14.3l0,0
	L73.7,130.9z M65.5,183.8l14.3-19.7l-12.9-9.4l-14.3,19.7L65.5,183.8z M79.8,164.2c0.7-0.9,1.4-2,1.9-3.3c0.5-1.3,0.8-2.6,1.1-3.8
	c0.4-2.1,0.8-5.5,1.5-10.4l-15.8-2.3c-0.8,5.6-1.1,8.1-1.4,9.7c-0.1,0.7-0.2,0.8-0.1,0.6c0.1-0.2,0.2-0.3,0-0.1L79.8,164.2z
	 M69.9,150.2c-0.1-0.1-0.2-0.2-0.3-0.4c0-0.1,0.2,0.3,0.5,0.7c0.3,0.5,0.8,0.9,1,1.3c0.8,0.9,2.7,3,7.2,8.1l11.9-10.7
	c-4.5-5.1-6.4-7.1-7.2-8c-0.5-0.6-0.3-0.4-0.1-0.1c0.2,0.3,0.4,0.7,0.4,0.5c-0.1-0.2-0.3-0.5-0.5-0.7L69.9,150.2z M76.4,153.1
	l-1.1,6.1l15.8,2.8l1.1-6.1L76.4,153.1z M75.4,159.3c-0.1,0.8,0-0.5,0.6-1.5c0.1-0.2,0,0-1.1,1.5c-2,2.7-6.3,8.1-15.4,19.8l12.6,9.8
	c9-11.6,13.4-17.2,15.5-20c1-1.3,1.8-2.5,2.4-3.5c1-1.9,1.2-3.5,1.1-3.5L75.4,159.3z M59.2,179.5c0.9-1.3,2.5-1.9,4-1.6l-3.5,15.6
	c4.9,1.1,10-0.9,12.8-5.1L59.2,179.5z M63.2,177.9c1.5,0.3,2.7,1.6,2.9,3.2l-15.8,2.4c0.7,5,4.5,9,9.4,10.1L63.2,177.9z M66.1,181.3
	c0.1,1-0.2,2-0.8,2.8l-12.6-9.9c-2,2.5-2.9,5.8-2.5,9L66.1,181.3z M92.4,169.3c2.1-3.1,3.3-6.8,3.4-10.6l-16-0.6
	c0,0.8-0.3,1.6-0.8,2.3L92.4,169.3z M81.9,163.8l4.7,5.2l11.9-10.7l-4.7-5.2L81.9,163.8z M86.2,168.6c0,0,0,0.1,0,0.1l16,0
	c0-3.6-1.2-7.1-3.4-10L86.2,168.6z M86.2,168.7v13h16v-13H86.2z M86.2,181.8c0,2.9,0.8,5.7,2.3,8.2l13.8-8.2c0,0,0-0.1,0-0.1
	L86.2,181.8z M95.4,177.9H69.6v16h25.8V177.9z M75.9,190.8l16.2-21L79.4,160l-16.2,21L75.9,190.8z M16.8,193.5
	c0.5,0.6,1.2,1.2,1.6,1.6c0.2,0.2,0.4,0.4,0.6,0.6c0.1,0.1,0.1,0.1,0.2,0.2c0,0,0,0,0.1,0c0,0,0,0,0,0c0,0,0,0,0,0c0,0,0,0,0,0
	c0,0,0,0,0,0c0,0,0,0,0,0s0,0,5.5-5.8c5.5-5.8,5.5-5.8,5.5-5.8l0,0l0,0c0,0,0,0,0,0s0,0,0,0c0,0,0,0,0,0c0,0,0,0,0,0
	c0,0-0.1-0.1-0.1-0.1c-0.1-0.1-0.3-0.3-0.5-0.5c-0.4-0.4-0.7-0.7-0.9-0.9L16.8,193.5z M24.4,198.1c12.5,0.5,38.7,0.4,64.4,0.2
	c25.9-0.2,51.2-0.4,62.3-0.2l0.3-16c-11.4-0.2-37,0-62.7,0.2c-25.8,0.2-51.6,0.3-63.7-0.2L24.4,198.1z M156.6,196
	c1-0.9,1.9-1.8,2.8-2.8l-12.1-10.4c-0.4,0.5-0.9,0.9-1.4,1.4L156.6,196z"/>
<path class="st1" d="M50.8,49.8c-2.3,0-4.1,1.8-4.1,4.1c0,2.1,1.6,3.9,3.7,4.1c2.5,0.2,4.6-1.7,4.6-4.1
	C54.9,51.7,53.1,49.8,50.8,49.8z"/>
</svg>
