<?xml version="1.0" encoding="utf-8"?>
<!-- Generator: Adobe Illustrator 24.0.0, SVG Export Plug-In . SVG Version: 6.00 Build 0)  -->
<svg version="1.1" id="Layer_1" xmlns="http://www.w3.org/2000/svg" xmlns:xlink="http://www.w3.org/1999/xlink" x="0px" y="0px"
	 viewBox="0 0 320 252" style="enable-background:new 0 0 320 252;" xml:space="preserve">
<style type="text/css">
	.st0{fill:#FAD33D;}
</style>
<path class="st0" d="M203.1,110.7l-4.6-4.6l-46.4,46.4c-0.2-0.2-0.3-0.4-0.5-0.6l-27.3-27.3l4.2-4.2l-4.6-4.6l-9.6,9.6
	c-5.2,5.2-13.1,5.9-19.1,2.1l23.6-23.4c0,0,0,0,0,0l61.6-61.6l-4.6-4.6l-59.3,59.3l-4.2-4.2c-0.6-0.6-1.4-1-2.3-1H98.4l-5.5-5.5
	L47.5,41.2l-4.6,4.6L73,76l-41.5,41.5L8.5,96.3L4.1,101L42,135.7v8.3c0,0.9,0.3,1.7,1,2.3l14,14c-1.3,1.7-2,3.8-2,6
	c0,5.5,4.4,9.9,9.8,10.1c0.2,5.3,4.4,9.5,9.7,9.7c0.2,5.3,4.4,9.5,9.7,9.7c0.2,5.4,4.6,9.8,10.1,9.8c1.4,0,2.7-0.3,3.9-0.8l0.2,0.2
	c2.4,2.5,5.7,3.8,9.2,3.8c3.5,0,6.7-1.3,9.2-3.8l34.9-34.9c2.5-2.5,3.8-5.7,3.8-9.2c0-0.8-0.1-1.6-0.2-2.4L203.1,110.7z M36.3,121.8
	l41.3-41.3l8.4,8.4l-40.9,40.9L36.3,121.8z M67.6,168.9c-0.7,0.7-1.6,1.1-2.6,1.1c-2,0-3.6-1.6-3.6-3.6c0-1,0.4-1.9,1.1-2.6
	l15.4-15.4c0.7-0.7,1.6-1.1,2.6-1.1c2,0,3.6,1.6,3.6,3.6c0,1-0.4,1.9-1.1,2.6L67.6,168.9z M77.3,178.7c-0.7,0.7-1.6,1.1-2.6,1.1
	c-2,0-3.6-1.6-3.6-3.6c0-1,0.4-1.9,1.1-2.6l15.4-15.4c0.7-0.7,1.6-1.1,2.6-1.1c2,0,3.6,1.6,3.6,3.6c0,1-0.4,1.9-1.1,2.6L77.3,178.7z
	 M87.1,188.4c-0.7,0.7-1.6,1.1-2.6,1.1c-2,0-3.6-1.6-3.6-3.6c0-1,0.4-1.9,1.1-2.6l15.4-15.4c0.7-0.7,1.6-1.1,2.6-1.1
	c2,0,3.6,1.6,3.6,3.6c0,1-0.4,1.9-1.1,2.6L87.1,188.4z M96.8,198.1c-0.7,0.7-1.6,1.1-2.6,1.1c-2,0-3.6-1.6-3.6-3.6
	c0-1,0.4-1.9,1.1-2.6l15.4-15.4c0.7-0.7,1.6-1.1,2.6-1.1c2,0,3.6,1.6,3.6,3.6c0,1-0.4,1.9-1.1,2.6L96.8,198.1z M147.1,165.6
	l-34.9,34.9c-2.4,2.4-6.4,2.4-8.9,0.2l13.5-13.5c1.9-1.9,3-4.5,3-7.2c0-5.5-4.4-9.9-9.8-10.1c-0.2-5.3-4.4-9.5-9.7-9.7
	c-0.2-5.3-4.4-9.5-9.7-9.7c-0.2-5.4-4.6-9.8-10.1-9.8c-2.7,0-5.2,1.1-7.2,3l-11.9,11.9l-13-13v-7l42.2-42.2l4.2,4.2
	c0.6,0.6,1.4,1,2.3,1h11.6l3.2,3.2l-23.8,23.6c-0.6,0.6-1,1.4-1,2.3c0,0.9,0.4,1.7,1,2.3c8.5,8.4,22.4,8.3,30.8-0.1l0.9-0.8
	l27.3,27.3c1.2,1.2,1.9,2.9,1.9,4.6S148.3,164.4,147.1,165.6z"/>
<path class="st0" d="M173.4,175.6c-1.6,2.3-1,5.4,1.3,7c2.3,1.6,5.4,1,7-1.3L173.4,175.6z M155.9,206.5c2.3-1.5,2.9-4.6,1.4-6.9
	c-1.5-2.3-4.6-2.9-6.9-1.4L155.9,206.5z M104.2,212c-46.4,0-84-37.6-84-84h-10c0,51.9,42.1,94,94,94V212z M188.2,128
	c0,17.7-5.5,34.1-14.8,47.6l8.2,5.7c10.4-15.1,16.6-33.5,16.6-53.3H188.2z M58.3,57.6C71.5,49,87.3,44,104.2,44V34
	c-19,0-36.6,5.6-51.4,15.3L58.3,57.6z M20.2,128c0-7,0.8-13.7,2.4-20.2l-9.7-2.4c-1.8,7.2-2.7,14.8-2.7,22.6H20.2z M104.2,44
	c19.4,0,37.3,6.6,51.5,17.6l6.1-7.9C146,41.4,125.9,34,104.2,34V44z M187.4,116.5c0.5,3.8,0.8,7.6,0.8,11.5h10
	c0-4.4-0.3-8.6-0.9-12.8L187.4,116.5z M150.4,198.2c-13.3,8.7-29.1,13.8-46.2,13.8v10c19.1,0,36.9-5.7,51.7-15.5L150.4,198.2z"/>
</svg>
