<?xml version="1.0" encoding="utf-8"?>
<!-- Generator: Adobe Illustrator 24.0.0, SVG Export Plug-In . SVG Version: 6.00 Build 0)  -->
<svg version="1.1" id="Layer_1" xmlns="http://www.w3.org/2000/svg" xmlns:xlink="http://www.w3.org/1999/xlink" x="0px" y="0px"
	 viewBox="0 0 320 252" style="enable-background:new 0 0 320 252;" xml:space="preserve">
<style type="text/css">
	.st0{fill:#FAD33D;}
</style>
<path class="st0" d="M90,218.3l-6.1-29.2c-3-14.2-11.2-26.4-23.3-34.5l-13.1-8.8c-5.2-3.5-12.3-2.8-16.7,1.7v-45
	c0-5.9-4-10.9-9.8-12.2c-3.7-0.8-7.6,0.1-10.5,2.5c-3,2.4-4.7,5.9-4.7,9.8v57.9c0,7.6,2.3,14.9,6.7,21.1l6.7,9.4
	c0.7,1,1.9,1.6,3,1.6c0.7,0,1.5-0.2,2.2-0.7c1.7-1.2,2.1-3.5,0.9-5.2l-6.7-9.4c-3.5-4.9-5.3-10.7-5.3-16.7v-57.9
	c0-1.5,0.7-3,1.9-3.9c1.2-1,2.7-1.3,4.2-1c2.3,0.5,3.9,2.5,3.9,4.9v45.9c0,6.5,2.4,12.7,6.7,17.5c0.2,0.2,0.4,0.4,0.6,0.7
	c2.5,2.6,5.4,5.7,8.1,8.6l3.8,4.1c0,0,0,0,0,0c3.3,3.5,5.7,6.1,5.8,6.1c1.4,1.5,3.8,1.6,5.3,0.2c1.5-1.4,1.6-3.8,0.2-5.3
	c-0.1-0.1-4.4-4.7-9.4-10l-8.6-9.1c0,0,0,0-0.1-0.1c-2-2.4-2-5.9,0.1-8.3c1.9-2.1,5-2.5,7.4-0.9l13.1,8.8
	c10.4,7,17.5,17.6,20.1,29.9l6.1,29.2c0.4,1.8,1.9,3,3.7,3c0.3,0,0.5,0,0.8-0.1C89.2,222.3,90.4,220.3,90,218.3z"/>
<path class="st0" d="M218.4,92.8c-3-2.4-6.8-3.3-10.5-2.5c-5.8,1.3-9.8,6.3-9.8,12.2v45c-4.4-4.5-11.4-5.2-16.7-1.7l-13.1,8.8
	c-12,8.1-20.3,20.4-23.3,34.5l-6.1,29.2c-0.4,2,0.9,4,2.9,4.4c0.3,0.1,0.5,0.1,0.8,0.1c1.7,0,3.3-1.2,3.7-3l6.1-29.2
	c2.6-12.3,9.7-22.9,20.1-29.9l13.1-8.8c2.3-1.6,5.5-1.2,7.4,0.9c2.1,2.4,2.1,5.8,0.1,8.3c0,0,0,0.1-0.1,0.1c0,0-17.9,19.1-18,19.1
	c-1.4,1.5-1.3,3.9,0.2,5.3c1.5,1.4,3.9,1.3,5.3-0.2c0.1-0.1,15.3-16.3,17.8-18.9c0.2-0.2,0.4-0.4,0.6-0.7c4.3-4.8,6.7-11,6.7-17.5
	v-45.9c0-2.4,1.6-4.4,3.9-4.9c1.5-0.3,3,0,4.2,1c1.2,1,1.9,2.4,1.9,3.9v57.9c0,6-1.8,11.8-5.3,16.7l-28.2,39.8
	c-1.2,1.7-0.8,4,0.9,5.2c0.7,0.5,1.4,0.7,2.2,0.7c1.2,0,2.3-0.5,3-1.6l28.2-39.8c4.4-6.2,6.7-13.5,6.7-21.1v-57.9
	C223.1,98.7,221.4,95.1,218.4,92.8z"/>
<path class="st0" d="M154.7,110.2l-5.8-1.4v-1c3.8-2.7,6.3-7.1,6.3-12v-7.6c0-8.1-6.6-14.7-14.7-14.7c-3.6,0-7,1.3-9.5,3.5
	c-2.9-7-9.7-11.9-17.7-11.9c-8,0-14.9,5-17.8,12c-2.6-2.2-5.9-3.5-9.6-3.5c-8.1,0-14.7,6.6-14.7,14.7v0.5v7.1c0,5,2.5,9.4,6.3,12v1
	l-5.8,1.4c-7,1.7-11.8,7.8-11.8,15v6.1c0,1.8,1.5,3.3,3.3,3.3h15.1c0,0.4,0,0.8,0,1.2v11.8c0,1.8,1.5,3.3,3.3,3.3h19.7
	c1.8,0,3.3-1.5,3.3-3.3c0-1.8-1.5-3.3-3.3-3.3h-3.4v-6.8c0-1.8-1.5-3.3-3.3-3.3c-1.8,0-3.3,1.5-3.3,3.3v6.8h-6.5v-8.5
	c0-6.3,4.3-11.8,10.4-13.2l9-2.2l6,13.7c0.5,1.2,1.7,2,3,2l0,0c1.3,0,2.5-0.8,3-2l6-13.7l9,2.1c6.2,1.5,10.5,6.9,10.5,13.2v8.5h-6.5
	v-6.8c0-1.8-1.5-3.3-3.3-3.3c-1.8,0-3.3,1.5-3.3,3.3v6.8h-3.7c-1.8,0-3.3,1.5-3.3,3.3c0,1.8,1.5,3.3,3.3,3.3h20
	c1.8,0,3.3-1.5,3.3-3.3v-11.8c0-0.4,0-0.8,0-1.2h15.1c1.8,0,3.3-1.5,3.3-3.3v-6.1C166.6,118,161.7,111.8,154.7,110.2z M140.5,80
	c4.3,0,7.8,3.4,8.1,7.6H144c-3.8,0-7.6-0.9-11-2.7C134.3,82,137.2,80,140.5,80z M132.4,95.2c0-0.2,0-0.3,0-0.5v-2.9
	c3.7,1.5,7.6,2.3,11.7,2.3h4.6v1.6c0,4.5-3.6,8.1-8.1,8.1c-4.5,0-8.1-3.6-8.1-8.1V95.2z M100.6,84.2c0-6.9,5.7-12.6,12.6-12.6
	c6.3,0,11.5,4.6,12.4,10.6l-5.5-3.2c-1.4-0.8-3.1-0.5-4.2,0.7c-2.7,3.2-6.7,5.1-10.9,5.1h-4.5V84.2z M85.9,80c3.3,0,6.2,2,7.5,4.9
	c-3.4,1.8-7.2,2.7-11,2.7h-4.6C78.1,83.3,81.6,80,85.9,80z M77.8,94.1h4.6c4,0,8-0.8,11.7-2.3v3.9c0,4.5-3.6,8.1-8.1,8.1
	c-4.5,0-8.1-3.6-8.1-8.1V94.1z M93.6,116.1c-6.5,1.5-11.5,6-13.9,11.9H66.4v-2.8c0-4.1,2.8-7.7,6.8-8.6l8.4-2
	c1.5-0.4,2.5-1.7,2.5-3.2v-1.1c0.6,0.1,1.2,0.1,1.8,0.1c0.6,0,1.2,0,1.8-0.1v0.9c0,0,0,0.1,0,0.1c0,1.1,0.5,2.1,1.5,2.8
	c0.4,0.2,0.8,0.4,1.2,0.5l4.9,1.2L93.6,116.1z M102.8,111c-0.8-0.4-1.7-0.7-2.6-0.9l-5.9-1.4v-1c1.1-0.7,2-1.6,2.8-2.6
	c1.5,2.3,3.4,4.2,5.6,5.7V111z M117,115.8l-3.8,8.7l-3.8-8.8v-2.3c1.3,0.3,2.5,0.4,3.9,0.4c1.3,0,2.6-0.1,3.8-0.4V115.8z
	 M113.2,107.3c-6.9,0-12.6-5.7-12.6-12.6v-3.5h4.5c5.2,0,10.1-1.9,13.9-5.4l6.8,4v5.4C125.6,101.9,120,107.3,113.2,107.3z
	 M123.6,111v-0.2c2.3-1.5,4.2-3.4,5.7-5.7c0.8,1,1.8,1.8,2.8,2.6v1l-5.9,1.4C125.3,110.4,124.5,110.7,123.6,111z M160,128h-13.3
	c-2.4-5.8-7.5-10.3-13.9-11.9l-1.6-0.4l4.9-1.2c0.4-0.1,0.8-0.2,1.2-0.5c1-0.6,1.5-1.7,1.5-2.8c0,0,0-0.1,0-0.1v-1
	c0.6,0.1,1.2,0.1,1.8,0.1c0.6,0,1.2,0,1.8-0.1v1.1c0,1.5,1,2.8,2.5,3.2l8.4,2c4,1,6.8,4.5,6.8,8.6V128z"/>
<path class="st0" d="M116,144.2c-0.7-0.7-1.8-1.2-2.8-1.2c-1.1,0-2.1,0.4-2.8,1.2c-0.7,0.7-1.2,1.8-1.2,2.8c0,1.1,0.4,2.1,1.2,2.8
	c0.7,0.7,1.8,1.2,2.8,1.2c1.1,0,2.1-0.4,2.8-1.2c0.7-0.7,1.2-1.8,1.2-2.8C117.2,145.9,116.8,144.9,116,144.2z"/>
<path class="st0" d="M113.2,34.1c-2.2,0-4,1.8-4,4v6c0,2.2,1.8,4,4,4c2.2,0,4-1.8,4-4v-6C117.2,35.9,115.4,34.1,113.2,34.1z"/>
<path class="st0" d="M98.5,47.1l-4.2-4.2c-1.6-1.6-4.1-1.6-5.6,0s-1.6,4.1,0,5.7l4.2,4.2c0.8,0.8,1.8,1.2,2.8,1.2c1,0,2-0.4,2.8-1.2
	C100,51.2,100,48.7,98.5,47.1z"/>
<path class="st0" d="M137.6,43c-1.6-1.6-4.1-1.6-5.6,0l-4.2,4.2c-1.6,1.6-1.6,4.1,0,5.7c0.8,0.8,1.8,1.2,2.8,1.2c1,0,2-0.4,2.8-1.2
	l4.2-4.2C139.2,47.1,139.2,44.6,137.6,43z"/>
</svg>
