<svg xmlns="http://www.w3.org/2000/svg" xmlns:xlink="http://www.w3.org/1999/xlink" version="1.1" x="0px" y="0px" viewBox="0 0 64 80" enable-background="new 0 0 64 64" xml:space="preserve" style="fill:#FAD33D"><g><g><g><g><path d="M6.496,56.002c-0.553,0-1-0.447-1-1c0-4.964,4.038-9.002,9.002-9.002c0.553,0,1,0.447,1,1s-0.447,1-1,1      c-3.861,0-7.002,3.141-7.002,7.002C7.496,55.555,7.049,56.002,6.496,56.002z"/></g><g><path d="M21.496,48.001L21.496,48.001L14.498,48c-0.553,0-1-0.448-1-1c0-0.553,0.448-1,1-1l0,0l6.998,0.001c0.553,0,1,0.448,1,1      C22.496,47.554,22.048,48.001,21.496,48.001z"/></g><g><path d="M41.496,48h-6c-0.553,0-1-0.447-1-1s0.447-1,1-1h6c0.553,0,1,0.447,1,1S42.049,48,41.496,48z"/></g><g><path d="M6.497,62.999c-0.552,0-1-0.447-1-1l-0.001-6.997c0-0.552,0.447-1,1-1c0.552,0,1,0.447,1,1l0.001,6.997      C7.497,62.551,7.05,62.999,6.497,62.999z"/></g><g><path d="M7.497,63.999c-1.103,0-2-0.897-2-2c0-0.553,0.447-1,1-1s1,0.447,1,1v0.002c0.553,0,1,0.446,1,0.999      C8.497,63.552,8.05,63.999,7.497,63.999z"/></g><g><path d="M42.507,63.999H7.497c-0.553,0-1-0.447-1-1s0.447-1,1-1h35.01c0.553,0,1,0.447,1,1S43.06,63.999,42.507,63.999z"/></g></g><g><path d="M21.496,48.001c-0.553,0-1-0.447-1-1V41.27c0-0.553,0.447-1,1-1s1,0.447,1,1v5.731     C22.496,47.554,22.049,48.001,21.496,48.001z"/></g><g><path d="M35.496,48c-0.553,0-1-0.447-1-1v-5.73c0-0.553,0.447-1,1-1s1,0.447,1,1V47C36.496,47.553,36.049,48,35.496,48z"/></g><g><path d="M28.526,52.001c-0.553,0-1.005-0.447-1.005-1s0.442-1,0.994-1h0.011c0.552,0,1,0.447,1,1S29.078,52.001,28.526,52.001z"/></g><g><path d="M26.497,48.999c-0.064,0-0.131-0.006-0.196-0.02l-5-0.998c-0.542-0.108-0.894-0.635-0.785-1.176     c0.107-0.542,0.635-0.899,1.176-0.785l5,0.998c0.542,0.108,0.894,0.635,0.785,1.176C27.382,48.67,26.964,48.999,26.497,48.999z"/></g><g><path d="M26.497,48.999c-0.367,0-0.72-0.202-0.896-0.553c-0.247-0.494-0.047-1.095,0.447-1.342l2-1     c0.494-0.246,1.094-0.047,1.342,0.447c0.247,0.494,0.047,1.095-0.447,1.342l-2,1C26.8,48.965,26.647,48.999,26.497,48.999z"/></g><g><path d="M30.495,48.999c-0.15,0-0.303-0.034-0.446-0.105l-2-1c-0.494-0.247-0.694-0.848-0.447-1.342s0.848-0.693,1.342-0.447l2,1     c0.494,0.247,0.694,0.848,0.447,1.342C31.215,48.797,30.862,48.999,30.495,48.999z"/></g><g><path d="M30.495,48.999c-0.467,0-0.885-0.328-0.979-0.804c-0.108-0.542,0.243-1.068,0.784-1.177l5-0.999     c0.549-0.112,1.069,0.243,1.177,0.784c0.108,0.542-0.243,1.068-0.784,1.177l-5,0.999C30.626,48.993,30.56,48.999,30.495,48.999z"/></g><g><path d="M15.496,63.999c-0.553,0-1-0.447-1-1V47c0-0.553,0.447-1,1-1s1,0.447,1,1v15.999     C16.496,63.552,16.049,63.999,15.496,63.999z"/></g><g><path d="M41.496,62.999c-0.553,0-1-0.447-1-1V47c0-0.553,0.447-1,1-1s1,0.447,1,1v14.999     C42.496,62.552,42.049,62.999,41.496,62.999z"/></g><g><path d="M28.496,63.999c-0.553,0-1-0.447-1-1v-3c0-0.553,0.447-1,1-1s1,0.447,1,1v3C29.496,63.552,29.049,63.999,28.496,63.999z"/></g><g><path d="M28.495,60.999c-0.16,0-0.322-0.038-0.474-0.119c-0.485-0.263-0.668-0.869-0.406-1.355l7-12.999     c0.262-0.485,0.867-0.667,1.355-0.406c0.485,0.263,0.668,0.869,0.406,1.355l-7,12.999C29.196,60.809,28.852,60.999,28.495,60.999     z"/></g><g><path d="M28.497,60.999c-0.356,0-0.701-0.19-0.882-0.525l-7-12.998c-0.262-0.486-0.079-1.093,0.406-1.355     c0.487-0.262,1.094-0.079,1.355,0.406l7,12.998c0.262,0.486,0.079,1.093-0.406,1.355C28.819,60.961,28.657,60.999,28.497,60.999z     "/></g><g><g><path d="M28.511,44.002c-8.822,0-16-7.178-16-16c0-0.552,0.447-1,1-1s1,0.448,1,1c0,7.719,6.28,14,14,14s14-6.28,14-14      c0-0.552,0.447-1,1-1s1,0.448,1,1C44.511,36.824,37.333,44.002,28.511,44.002z"/></g><g><path d="M13.511,29.002c-0.553,0-1-0.448-1-1V17.001c0-0.552,0.447-1,1-1s1,0.448,1,1v11.001      C14.511,28.555,14.063,29.002,13.511,29.002z"/></g><g><path d="M43.511,29.002c-0.553,0-1-0.448-1-1V16.003c0-0.552,0.447-1,1-1s1,0.448,1,1v11.999      C44.511,28.555,44.063,29.002,43.511,29.002z"/></g><g><path d="M43.511,17.003c-0.553,0-1-0.448-1-1c0-3.309-2.691-6-6-6c-0.553,0-1-0.448-1-1s0.447-1,1-1c4.411,0,8,3.589,8,8      C44.511,16.556,44.063,17.003,43.511,17.003z"/></g><g><path d="M36.511,10.003c-0.553,0-1-0.448-1-1V4.001c0-0.552,0.447-1,1-1s1,0.448,1,1v5.002      C37.511,9.556,37.063,10.003,36.511,10.003z"/></g><g><path d="M36.511,5.001h-10c-0.553,0-1-0.448-1-1s0.447-1,1-1h10c0.553,0,1,0.448,1,1S37.063,5.001,36.511,5.001z"/></g><g><path d="M13.511,18.001c-0.553,0-1-0.448-1-1c0-7.72,6.28-14,14-14c0.553,0,1,0.448,1,1s-0.447,1-1,1c-6.617,0-12,5.383-12,12      C14.511,17.554,14.063,18.001,13.511,18.001z"/></g><g><g><path d="M43.511,23.001c-0.256,0-0.512-0.098-0.707-0.293l-4-4c-0.391-0.391-0.391-1.023,0-1.414s1.023-0.391,1.414,0l4,4       c0.391,0.391,0.391,1.023,0,1.414C44.022,22.904,43.767,23.001,43.511,23.001z"/></g><g><path d="M28.511,22.001c-6.206,0-11.301-3.014-11.515-3.143c-0.473-0.284-0.626-0.897-0.343-1.371       c0.283-0.473,0.895-0.629,1.371-0.345c0.048,0.028,4.851,2.858,10.486,2.858s10.438-2.83,10.486-2.858       c0.477-0.284,1.088-0.128,1.371,0.345c0.283,0.473,0.13,1.087-0.343,1.371C39.812,18.987,34.717,22.001,28.511,22.001z"/></g><g><path d="M13.511,23.001c-0.256,0-0.512-0.098-0.707-0.293c-0.391-0.391-0.391-1.023,0-1.414l4-4       c0.391-0.391,1.023-0.391,1.414,0s0.391,1.023,0,1.414l-4,4C14.022,22.904,13.767,23.001,13.511,23.001z"/></g></g></g><g><path d="M41.487,48.024c-0.553,0-1-0.447-1-1c0-2.772,2.243-5.027,5-5.027c0.553,0,1,0.447,1,1s-0.447,1-1,1     c-1.654,0-3,1.358-3,3.027C42.487,47.577,42.04,48.024,41.487,48.024z"/></g><g><path d="M57.504,48.011c-0.553,0-1-0.447-1-1c0-1.654-1.358-3-3.027-3c-0.553,0-1-0.447-1-1s0.447-1,1-1     c2.772,0,5.027,2.243,5.027,5C58.504,47.563,58.057,48.011,57.504,48.011z"/></g><g><path d="M47.489,43.966c-0.553,0-1-0.447-1-1v-6.969c0-0.553,0.447-1,1-1s1,0.447,1,1v6.969     C48.489,43.519,48.042,43.966,47.489,43.966z"/></g><g><path d="M51.49,43.966c-0.553,0-1-0.447-1-1v-6.969c0-0.553,0.447-1,1-1s1,0.447,1,1v6.969     C52.49,43.519,52.043,43.966,51.49,43.966z"/></g><g><path d="M41.507,62.999c-0.553,0-1-0.447-1-1V47.024c0-0.553,0.447-1,1-1s1,0.447,1,1v14.975     C42.507,62.552,42.06,62.999,41.507,62.999z"/></g><g><path d="M57.491,62.999c-0.553,0-1-0.447-1-1v-15.02c0-0.553,0.447-1,1-1s1,0.447,1,1v15.02     C58.491,62.552,58.044,62.999,57.491,62.999z"/></g><g><path d="M42.507,63.999c-1.103,0-2-0.897-2-2c0-0.553,0.447-1,1-1s1,0.447,1,1v0.002c0.553,0,1,0.446,1,0.999     C43.507,63.552,43.06,63.999,42.507,63.999z"/></g><g><path d="M56.491,63.999c-0.553,0-1-0.447-1-1s0.447-1,1-1c0-0.553,0.447-1,1-1s1,0.447,1,1     C58.491,63.102,57.594,63.999,56.491,63.999z"/></g><g><path d="M56.491,63.999H42.507c-0.553,0-1-0.447-1-1s0.447-1,1-1h13.984c0.553,0,1,0.447,1,1S57.044,63.999,56.491,63.999z"/></g><g><path d="M52.491,36.997h-6.003c-0.553,0-1-0.447-1-1s0.447-1,1-1h6.003c0.553,0,1,0.447,1,1S53.044,36.997,52.491,36.997z"/></g><g><path d="M57.491,50.998H41.507c-0.553,0-1-0.447-1-1s0.447-1,1-1h15.984c0.553,0,1,0.447,1,1S58.044,50.998,57.491,50.998z"/></g><g><path d="M57.491,58.999H41.507c-0.553,0-1-0.447-1-1s0.447-1,1-1h15.984c0.553,0,1,0.447,1,1S58.044,58.999,57.491,58.999z"/></g><g><path d="M49.488,56.997c-1.653,0-2.999-1.346-2.999-2.999s1.346-2.999,2.999-2.999s2.999,1.346,2.999,2.999     S51.142,56.997,49.488,56.997z M49.488,52.999c-0.551,0-0.999,0.448-0.999,0.999s0.448,0.999,0.999,0.999     s0.999-0.448,0.999-0.999S50.039,52.999,49.488,52.999z"/></g><g><path d="M47.489,43.966h-2.002c-0.553,0-1-0.447-1-1s0.447-1,1-1h2.002c0.553,0,1,0.447,1,1S48.042,43.966,47.489,43.966z"/></g><g><path d="M53.477,43.966H51.49c-0.553,0-1-0.447-1-1s0.447-1,1-1h1.986c0.553,0,1,0.447,1,1S54.029,43.966,53.477,43.966z"/></g></g></g></svg>
