<svg xmlns="http://www.w3.org/2000/svg" xmlns:xlink="http://www.w3.org/1999/xlink" version="1.1" x="0px" y="0px" viewBox="0 0 512 640" style="enable-background:new 0 0 512 512;fill:#FAD33D" xml:space="preserve"><g><path d="M137.2,94.1C137.2,69.3,117,49,92.1,49S47,69.3,47,94.1s20.2,45.1,45.1,45.1S137.2,119,137.2,94.1z M65,94.1   C65,79.2,77.1,67,92.1,67s27.1,12.2,27.1,27.1s-12.2,27.1-27.1,27.1C77.1,121.2,65,109.1,65,94.1z"/><path d="M419.9,135.6c-14.9,0-28.8,4.4-40.5,11.9c-38.3-41.3-92-64.8-148.6-64.9l0,0l0,0l0,0c-21.9,0-43.3,3.5-63.8,10.3   c-3.3-38.3-35.6-68.5-74.8-68.5c-20.1,0-38.9,7.8-53.1,22s-22,33-22,53.1c0,18.8,16.1,49.2,37.9,84.9C37.3,215,28,249.8,28,285.3   c0,46,15,89.3,43.4,125.3l0,0c38.7,49.1,96.8,77.3,159.3,77.3l0,0l0,0l0,0c62.5,0,120.6-28.2,159.3-77.3l0,0l0,0l0,0l0,0   c15.2-19.2,26.5-40.7,33.9-63.8c1.6-0.8,2.9-2,3.8-3.5c3.5-6,8.6-14.1,14.4-23.5c28.9-46.1,52.8-86.1,52.8-109.1   C495,169.3,461.3,135.6,419.9,135.6z M363.1,156.6h-80.5c-0.9-3.7-1.9-7.3-2.9-10.7c-5.3-17.9-11.5-32.2-18.4-42.6   C299.9,109.7,335.6,128.3,363.1,156.6z M344.9,212.6c0,0.1,0,0.2,0,0.4c0,0.6,0.1,1.3,0.2,2c0,0.2,0,0.3,0.1,0.5   c0.1,0.6,0.2,1.2,0.3,1.9c0,0.2,0.1,0.5,0.1,0.7c0.1,0.5,0.2,1,0.3,1.5c0.1,0.3,0.1,0.7,0.2,1s0.1,0.6,0.2,0.9   c0.2,0.8,0.4,1.6,0.6,2.4c0,0,0,0,0,0.1c2.8,10.7,8.6,23.5,16.3,38c0.2,0.4,0.4,0.7,0.6,1.1s0.4,0.7,0.6,1.1   c2.1,3.9,4.4,8,6.9,12.3h-74.5c-0.5-36.7-4-71.7-10-101.7h67.4c-0.6,1.1-1.2,2.3-1.8,3.5c0,0.1-0.1,0.1-0.1,0.2   c-0.5,1-1,2.1-1.4,3.1c0,0.1-0.1,0.2-0.1,0.3c-0.4,1-0.8,2-1.2,3c0,0.1-0.1,0.2-0.1,0.3c-0.4,1-0.7,2-1,3.1   c-0.1,0.2-0.1,0.5-0.2,0.7c-0.3,1-0.6,2-0.8,3c0,0.1-0.1,0.2-0.1,0.3c-0.3,1-0.5,2-0.7,3c-0.1,0.3-0.1,0.6-0.2,0.9   c-0.2,1-0.4,2.1-0.6,3.1c0,0.2-0.1,0.5-0.1,0.7c-0.1,0.9-0.3,1.9-0.4,2.8c0,0.2-0.1,0.5-0.1,0.7c-0.1,1.1-0.2,2.2-0.2,3.3   c0,0.2,0,0.5,0,0.7c-0.1,1.1-0.1,2.3-0.1,3.4l0,0C344.9,211.3,344.9,211.9,344.9,212.6z M278.8,294.3   c-0.5,37.1-4.1,72.1-10.4,101.7H193c-6.3-29.6-9.9-64.7-10.4-101.7H278.8z M182.7,276.3c0.5-37,4.1-72.1,10.4-101.7h75.3   c6.3,29.6,9.9,64.7,10.4,101.7H182.7z M230.7,100.7L230.7,100.7c7.8,0,20.8,13.2,31.7,50.2c0.5,1.8,1.1,3.7,1.6,5.6h-66.7   c0.5-1.9,1-3.8,1.6-5.6C209.9,113.8,222.9,100.7,230.7,100.7z M153.5,141.5c0.4-0.8,0.7-1.5,1.1-2.2c0.2-0.5,0.5-1,0.7-1.4   s0.4-0.9,0.6-1.3c0.3-0.7,0.6-1.3,0.9-2c0-0.1,0.1-0.2,0.1-0.3c1.2-2.5,2.3-5,3.2-7.4c0.1-0.2,0.1-0.3,0.2-0.5   c0.3-0.6,0.5-1.3,0.8-1.9c0.1-0.3,0.3-0.6,0.4-1c0.2-0.5,0.4-1.1,0.6-1.6c0.2-0.5,0.3-0.9,0.5-1.3c0.1-0.4,0.3-0.8,0.4-1.2   c0.6-1.8,1.2-3.6,1.7-5.2c0-0.1,0-0.2,0.1-0.3c0.1-0.5,0.3-0.9,0.4-1.3c11.4-4.3,23.1-7.4,35-9.4c-7,10.4-13.2,24.7-18.5,42.6   c-1,3.5-2,7.1-2.9,10.7h-33.2c2.8-5.1,5.3-9.9,7.6-14.4C153.3,142,153.4,141.7,153.5,141.5z M35,99.5c0-15.2,5.9-29.6,16.7-40.3   c10.8-10.8,25.1-16.7,40.4-16.7c31.5,0,57.1,25.6,57.1,57c0,1.4-0.2,3-0.5,4.7v0.1c-1.2,6.4-4.4,15-9.6,25.8   c-0.2,0.5-0.5,1-0.7,1.5c-0.1,0.1-0.1,0.3-0.2,0.4c-9.2,18.7-22.5,40.5-33.5,58.1c-1.9,3-3.7,5.9-5.5,8.7c-2.5,4-4.9,7.8-7.1,11.3   c-2.1-3.5-4.5-7.2-7-11.1c-3.9-6.2-7.9-12.6-12.1-19.4l-0.1-0.1C55.3,150.7,35,115.3,35,99.5z M65.8,202.1c1.3,2.1,2.6,4.2,3.9,6.3   c5.9,9.4,11,17.6,14.5,23.7l0,0l0,0c0.1,0.2,0.2,0.3,0.3,0.5c0.1,0.2,0.2,0.3,0.3,0.5c0.1,0.2,0.3,0.3,0.4,0.5   c0.1,0.1,0.2,0.3,0.4,0.4c0.2,0.2,0.3,0.3,0.5,0.4c0.1,0.1,0.3,0.2,0.4,0.3c0.2,0.1,0.4,0.3,0.6,0.4c0.1,0.1,0.2,0.2,0.4,0.3   c0.2,0.1,0.5,0.2,0.7,0.4c0.1,0,0.2,0.1,0.3,0.2c0.2,0.1,0.5,0.2,0.8,0.3c0.1,0,0.2,0.1,0.3,0.1c0.3,0.1,0.5,0.1,0.8,0.2   c0.1,0,0.3,0.1,0.4,0.1c0.2,0,0.5,0,0.7,0s0.3,0,0.5,0l0,0l0,0c0.4,0,0.8,0,1.2-0.1c0.1,0,0.2,0,0.3-0.1c0.7-0.1,1.4-0.3,2-0.6h0.1   c0.3-0.1,0.7-0.3,1-0.5c0.1,0,0.1-0.1,0.2-0.1c0.3-0.2,0.5-0.3,0.8-0.5c0.1-0.1,0.2-0.2,0.3-0.2c0.2-0.2,0.4-0.3,0.6-0.5   c0.1-0.1,0.3-0.3,0.4-0.5c0.1-0.1,0.3-0.3,0.4-0.4c0.2-0.2,0.3-0.5,0.5-0.7c0.1-0.1,0.1-0.2,0.2-0.3l0,0l0,0c0-0.1,0.1-0.2,0.2-0.3   c3.5-6,8.5-14,14.3-23.2c0.8-1.3,1.7-2.7,2.5-4c5.9-9.4,12.3-19.6,18.5-30.1h39.4c-6.1,30-9.5,65-10,101.7H46.2   C47.5,250.4,54.1,225.1,65.8,202.1z M82.9,396C60.5,366.3,48,331.3,46.2,294.3h118.5c0.5,36.7,4,71.7,10,101.7H82.9z M98.3,414   h80.5c0.9,3.7,1.9,7.3,2.9,10.7c5.3,18,11.5,32.2,18.4,42.6C161.4,461,125.8,442.4,98.3,414z M230.7,469.9L230.7,469.9   c-7.8,0-20.8-13.2-31.8-50.3c-0.5-1.8-1.1-3.7-1.6-5.6H264c-0.5,1.9-1,3.8-1.6,5.6C251.5,456.7,238.5,469.9,230.7,469.9z    M261.3,467.4c6.9-10.4,13.1-24.7,18.4-42.6c1-3.5,2-7,2.9-10.7h80.5C335.6,442.4,300.1,461,261.3,467.4z M378.5,396h-91.8   c6.1-30,9.5-65,10-101.7h85.1c5.4,8.9,10.8,17.6,15.7,25.4c4,6.4,7.6,12.1,10.6,17C402,358.1,392,378.1,378.5,396z M426.9,310.2   c-2.5,4-4.8,7.7-7,11.1c-2.2-3.5-4.6-7.3-7.1-11.4c-11.6-18.5-28.1-44.8-38.9-66.7c-0.2-0.5-0.5-1-0.7-1.5   c-0.2-0.3-0.3-0.6-0.4-0.9c-4.4-9.1-7.3-16.6-8.8-22.5c0-0.1-0.1-0.3-0.1-0.4c-0.2-0.6-0.3-1.2-0.4-1.8c-0.1-0.4-0.1-0.7-0.2-1.1   c0-0.3-0.1-0.5-0.1-0.7c-0.1-0.6-0.2-1.1-0.2-1.6c0-0.1,0-0.3,0-0.4c0-0.6-0.1-1.2-0.1-1.7l0,0c0-0.9,0-1.9,0.1-2.8   c0-0.4,0.1-0.7,0.1-1.1c0-0.6,0.1-1.1,0.1-1.7c0-0.4,0.1-0.9,0.2-1.3c0.1-0.5,0.1-0.9,0.2-1.4s0.2-1,0.2-1.4   c0.1-0.4,0.1-0.9,0.2-1.3c0.1-0.5,0.2-1,0.3-1.5c0.1-0.4,0.2-0.8,0.3-1.2c0.1-0.5,0.3-1,0.4-1.4s0.2-0.8,0.3-1.2   c0.1-0.5,0.3-0.9,0.4-1.4c0.1-0.4,0.3-0.8,0.4-1.2c0.2-0.4,0.3-0.9,0.5-1.3c0.2-0.4,0.3-0.8,0.5-1.2s0.4-0.8,0.5-1.3   c0.2-0.4,0.4-0.8,0.6-1.3c0.2-0.4,0.4-0.8,0.6-1.2s0.4-0.9,0.7-1.3c0.2-0.4,0.4-0.7,0.6-1.1c0.2-0.4,0.5-0.9,0.8-1.3   c0.2-0.3,0.4-0.7,0.6-1c0.3-0.4,0.6-0.9,0.9-1.3c0.2-0.3,0.4-0.6,0.6-0.9c0.3-0.5,0.6-0.9,1-1.3c0.2-0.3,0.4-0.6,0.6-0.9   c0.3-0.5,0.7-0.9,1.1-1.4c0.2-0.3,0.4-0.5,0.6-0.8c0.4-0.5,0.8-0.9,1.2-1.4c0.2-0.2,0.4-0.4,0.5-0.6c1.8-2,3.7-3.8,5.8-5.5l0,0   c9.9-8.1,22.5-13,36.3-13c31.5,0,57.1,25.6,57.1,57C477,230.3,445.6,280.3,426.9,310.2z"/><path d="M419.9,160.2c-24.9,0-45.1,20.2-45.1,45.1s20.2,45.1,45.1,45.1s45.1-20.2,45.1-45.1S444.8,160.2,419.9,160.2z M419.9,232.4   c-15,0-27.1-12.2-27.1-27.1c0-14.9,12.2-27.1,27.1-27.1c15,0,27.1,12.2,27.1,27.1C447,220.3,434.9,232.4,419.9,232.4z"/></g></svg>
